%TF.GenerationSoftware,KiCad,Pcbnew,10.0.0*%
%TF.CreationDate,2026-09-19T05:49:36+09:00*%
%TF.ProjectId,board-l,626f6172-642d-46c2-9e6b-696361645f70,rev?*%
%TF.SameCoordinates,Original*%
%TF.FileFunction,Copper,L1,Top*%
%TF.FilePolarity,Positive*%
%FSLAX46Y46*%
G04 Gerber Fmt 4.6, Leading zero omitted, Abs format (unit mm)*
G04 Created by KiCad (PCBNEW 10.0.0) date 2026-09-19 05:49:36*
%MOMM*%
%LPD*%
G01*
G04 APERTURE LIST*
%TA.AperFunction,Conductor*%
%ADD10C,0.200000*%
%TD*%
%TA.AperFunction,SMDPad,CuDef*%
%ADD11R,2.380000X2.330000*%
%TD*%
%TA.AperFunction,SMDPad,CuDef*%
%ADD12R,2.380000X1.100000*%
%TD*%
%TA.AperFunction,SMDPad,CuDef*%
%ADD13R,1.500000X2.500000*%
%TD*%
%TA.AperFunction,SMDPad,CuDef*%
%ADD14R,0.900000X0.800000*%
%TD*%
%TA.AperFunction,SMDPad,CuDef*%
%ADD15R,3.456000X1.283000*%
%TD*%
%TA.AperFunction,SMDPad,CuDef*%
%ADD16R,1.485000X1.728000*%
%TD*%
%TA.AperFunction,SMDPad,CuDef*%
%ADD17R,0.800000X0.900000*%
%TD*%
%TA.AperFunction,SMDPad,CuDef*%
%ADD18R,1.283000X3.456000*%
%TD*%
%TA.AperFunction,SMDPad,CuDef*%
%ADD19R,0.550000X1.100000*%
%TD*%
%TA.AperFunction,SMDPad,CuDef*%
%ADD20R,0.806000X0.864000*%
%TD*%
%TA.AperFunction,SMDPad,CuDef*%
%ADD21R,1.133000X1.377000*%
%TD*%
%TA.AperFunction,SMDPad,CuDef*%
%ADD22R,2.424000X3.620000*%
%TD*%
%TA.AperFunction,SMDPad,CuDef*%
%ADD23R,1.800000X1.620000*%
%TD*%
%TA.AperFunction,SMDPad,CuDef*%
%ADD24R,1.728000X1.190000*%
%TD*%
%TA.AperFunction,SMDPad,CuDef*%
%ADD25O,1.742000X0.364000*%
%TD*%
%TA.AperFunction,SMDPad,CuDef*%
%ADD26R,0.864000X0.806000*%
%TD*%
%TA.AperFunction,SMDPad,CuDef*%
%ADD27R,1.728000X1.485000*%
%TD*%
%TA.AperFunction,SMDPad,CuDef*%
%ADD28O,0.364000X1.662000*%
%TD*%
%TA.AperFunction,SMDPad,CuDef*%
%ADD29R,1.800000X1.500000*%
%TD*%
%TA.AperFunction,SMDPad,CuDef*%
%ADD30C,1.500000*%
%TD*%
%TA.AperFunction,SMDPad,CuDef*%
%ADD31R,1.600000X3.900000*%
%TD*%
%TA.AperFunction,SMDPad,CuDef*%
%ADD32R,2.200000X1.700000*%
%TD*%
%TA.AperFunction,SMDPad,CuDef*%
%ADD33R,1.410000X1.350000*%
%TD*%
%TA.AperFunction,ComponentPad*%
%ADD34C,2.250000*%
%TD*%
%TA.AperFunction,ComponentPad*%
%ADD35C,1.600000*%
%TD*%
%TA.AperFunction,ComponentPad*%
%ADD36O,1.600000X2.200000*%
%TD*%
%TA.AperFunction,ComponentPad*%
%ADD37R,1.700000X1.700000*%
%TD*%
%TA.AperFunction,ComponentPad*%
%ADD38C,1.700000*%
%TD*%
%TA.AperFunction,ComponentPad*%
%ADD39R,1.800000X1.800000*%
%TD*%
%TA.AperFunction,ViaPad*%
%ADD40C,0.800000*%
%TD*%
%TA.AperFunction,ViaPad*%
%ADD41C,0.500000*%
%TD*%
%TA.AperFunction,ViaPad*%
%ADD42C,1.500000*%
%TD*%
%TA.AperFunction,ViaPad*%
%ADD43C,1.200000*%
%TD*%
%TA.AperFunction,Conductor*%
%ADD44C,0.700000*%
%TD*%
%TA.AperFunction,Conductor*%
%ADD45C,0.250000*%
%TD*%
%TA.AperFunction,Conductor*%
%ADD46C,0.400000*%
%TD*%
%TA.AperFunction,Conductor*%
%ADD47C,0.500000*%
%TD*%
G04 APERTURE END LIST*
%TO.N,GND*%
D10*
X28530000Y-50280000D02*
X31730000Y-50280000D01*
X31730000Y-56080000D01*
X28530000Y-56080000D01*
X28530000Y-50280000D01*
%TA.AperFunction,Conductor*%
G36*
X28530000Y-50280000D02*
G01*
X31730000Y-50280000D01*
X31730000Y-56080000D01*
X28530000Y-56080000D01*
X28530000Y-50280000D01*
G37*
%TD.AperFunction*%
%TD*%
D11*
%TO.P,LED4,1,1_1*%
%TO.N,LED_S2_M1*%
X46000000Y-9180000D03*
D12*
%TO.P,LED4,2,2_2*%
%TO.N,LED_S2_A*%
X46000000Y-7000000D03*
%TD*%
D13*
%TO.P,J4,1,1_1*%
%TO.N,UART_TX*%
X32580000Y-58250000D03*
%TO.P,J4,2,2_2*%
%TO.N,UART_RX*%
X30040000Y-58250000D03*
%TO.P,J4,3,3_3*%
%TO.N,GND*%
X27500000Y-58250000D03*
%TD*%
D14*
%TO.P,C19,1,1_1*%
%TO.N,V3P3*%
X55600000Y-31500000D03*
%TO.P,C19,2,2_2*%
%TO.N,GND*%
X55600000Y-30100000D03*
%TD*%
D11*
%TO.P,LED6,1,1_1*%
%TO.N,LED_N*%
X54100000Y-9180000D03*
D12*
%TO.P,LED6,2,2_2*%
%TO.N,LED_S2_M2*%
X54100000Y-7000000D03*
%TD*%
D11*
%TO.P,LED12,1,1_1*%
%TO.N,LED_N*%
X14500000Y-9815000D03*
D12*
%TO.P,LED12,2,2_2*%
%TO.N,LED_S4_M2*%
X14500000Y-7635000D03*
%TD*%
D15*
%TO.P,R36,1,1_1*%
%TO.N,LED_P*%
X3000000Y-39230000D03*
%TO.P,R36,2,2_2*%
%TO.N,LED_S7_A*%
X3000000Y-45370000D03*
%TD*%
D16*
%TO.P,C10,1,1_1*%
%TO.N,V15*%
X46160000Y-52500000D03*
%TO.P,C10,2,2_2*%
%TO.N,GND*%
X49340000Y-52500000D03*
%TD*%
D15*
%TO.P,R32,1,1_1*%
%TO.N,LED_P*%
X52000000Y-31320000D03*
%TO.P,R32,2,2_2*%
%TO.N,LED_S3_A*%
X52000000Y-25180000D03*
%TD*%
D17*
%TO.P,C22,1,1_1*%
%TO.N,BRIGHT_ADC*%
X35554000Y-51025000D03*
%TO.P,C22,2,2_2*%
%TO.N,GND*%
X36954000Y-51025000D03*
%TD*%
D18*
%TO.P,R34,1,1_1*%
%TO.N,LED_P*%
X46570000Y-18000000D03*
%TO.P,R34,2,2_2*%
%TO.N,LED_S5_A*%
X40430000Y-18000000D03*
%TD*%
D19*
%TO.P,U4,1,FB_1*%
%TO.N,V3P3*%
X38250000Y-58400000D03*
%TO.P,U4,2,EN_2*%
%TO.N,unconnected-(U4-EN-Pad2)*%
X39200000Y-58400000D03*
%TO.P,U4,3,VIN_3*%
%TO.N,V15*%
X40150000Y-58400000D03*
%TO.P,U4,4,GND_4*%
%TO.N,GND*%
X40150000Y-56000000D03*
%TO.P,U4,5,SW_5*%
%TO.N,SW_LOGIC*%
X39200000Y-56000000D03*
%TO.P,U4,6,BST_6*%
%TO.N,BST*%
X38250000Y-56000000D03*
%TD*%
D11*
%TO.P,LED15,1,1_1*%
%TO.N,LED_N*%
X47275000Y-24000000D03*
D12*
%TO.P,LED15,2,2_2*%
%TO.N,LED_S5_M2*%
X47275000Y-21820000D03*
%TD*%
D20*
%TO.P,RT1,1,1_1*%
%TO.N,NTC_SENSE*%
X31750000Y-28175000D03*
%TO.P,RT1,2,2_2*%
%TO.N,GND*%
X30250000Y-28175000D03*
%TD*%
D21*
%TO.P,R24,1,1_1*%
%TO.N,V3P3*%
X22254000Y-50825000D03*
%TO.P,R24,2,2_2*%
%TO.N,PDOK*%
X24254000Y-50825000D03*
%TD*%
D11*
%TO.P,LED18,1,1_1*%
%TO.N,LED_N*%
X21800000Y-23775000D03*
D12*
%TO.P,LED18,2,2_2*%
%TO.N,LED_S6_M2*%
X21800000Y-21595000D03*
%TD*%
D18*
%TO.P,R30,1,1_1*%
%TO.N,LED_P*%
X53375000Y-44525000D03*
%TO.P,R30,2,2_2*%
%TO.N,LED_S1_A*%
X47235000Y-44525000D03*
%TD*%
%TO.P,RS1,1,1_1*%
%TO.N,V15*%
X22720000Y-42925000D03*
%TO.P,RS1,2,2_2*%
%TO.N,SET*%
X16580000Y-42925000D03*
%TD*%
D11*
%TO.P,LED11,1,1_1*%
%TO.N,LED_S4_M2*%
X10450000Y-9815000D03*
D12*
%TO.P,LED11,2,2_2*%
%TO.N,LED_S4_M1*%
X10450000Y-7635000D03*
%TD*%
D22*
%TO.P,L1,1,1_1*%
%TO.N,SET*%
X13675000Y-40300000D03*
%TO.P,L1,2,2_2*%
%TO.N,LED_P*%
X7415000Y-40300000D03*
%TD*%
D11*
%TO.P,LED13,1,1_1*%
%TO.N,LED_S5_M1*%
X39175000Y-24000000D03*
D12*
%TO.P,LED13,2,2_2*%
%TO.N,LED_S5_A*%
X39175000Y-21820000D03*
%TD*%
D18*
%TO.P,R33,1,1_1*%
%TO.N,LED_P*%
X8180000Y-14500000D03*
%TO.P,R33,2,2_2*%
%TO.N,LED_S4_A*%
X14320000Y-14500000D03*
%TD*%
D23*
%TO.P,D11,1,A_1*%
%TO.N,LED_N*%
X8650000Y-57810000D03*
%TO.P,D11,2,K_2*%
%TO.N,V15*%
X12950000Y-57790000D03*
%TD*%
D16*
%TO.P,C11,1,1_1*%
%TO.N,V15*%
X46160000Y-54750000D03*
%TO.P,C11,2,2_2*%
%TO.N,GND*%
X49340000Y-54750000D03*
%TD*%
D24*
%TO.P,F1,1,1_1*%
%TO.N,VBUS_L*%
X42000000Y-54900000D03*
%TO.P,F1,2,2_2*%
%TO.N,V15_FUSED*%
X42000000Y-57800000D03*
%TD*%
D25*
%TO.P,U3,1,PB7/PB8_1*%
%TO.N,unconnected-(U3-PB7{slash}PB8-Pad1)*%
X33000000Y-56110000D03*
%TO.P,U3,2,PB9/PC14-OSC32_IN_2*%
%TO.N,unconnected-(U3-PB9{slash}PC14-OSC32_IN-Pad2)*%
X33000000Y-55460000D03*
%TO.P,U3,3,PC15-OSC32_OUT_3*%
%TO.N,unconnected-(U3-PC15-OSC32_OUT-Pad3)*%
X33000000Y-54810000D03*
%TO.P,U3,4,VDD/VDDA_4*%
%TO.N,V3P3*%
X33000000Y-54160000D03*
%TO.P,U3,5,VSS/VSSA_5*%
%TO.N,GND*%
X33000000Y-53500000D03*
%TO.P,U3,6,PF2-NRST_6*%
%TO.N,NRST*%
X33000000Y-52850000D03*
%TO.P,U3,7,PA0_7*%
%TO.N,BRIGHT_ADC*%
X33000000Y-52200000D03*
%TO.P,U3,8,PA1_8*%
%TO.N,unconnected-(U3-PA1-Pad8)*%
X33000000Y-51550000D03*
%TO.P,U3,9,PA2_9*%
%TO.N,UART_TX*%
X33000000Y-50900000D03*
%TO.P,U3,10,PA3_10*%
%TO.N,UART_RX*%
X33000000Y-50250000D03*
%TO.P,U3,11,PA4_11*%
%TO.N,NTC_SENSE*%
X27260000Y-50250000D03*
%TO.P,U3,12,PA5_12*%
%TO.N,PDOK*%
X27260000Y-50900000D03*
%TO.P,U3,13,PA6_13*%
%TO.N,PWM_DIM*%
X27260000Y-51550000D03*
%TO.P,U3,14,PA7_14*%
%TO.N,ATT*%
X27260000Y-52200000D03*
%TO.P,U3,15,PB0/PB1/PB2/PA8_15*%
%TO.N,unconnected-(U3-PB0{slash}PB1{slash}PB2{slash}PA8-Pad15)*%
X27260000Y-52850000D03*
%TO.P,U3,16,PA11[PA9]_16*%
%TO.N,unconnected-(U3-PA11[PA9]-Pad16)*%
X27260000Y-53500000D03*
%TO.P,U3,17,PA12[PA10]_17*%
%TO.N,unconnected-(U3-PA12[PA10]-Pad17)*%
X27260000Y-54160000D03*
%TO.P,U3,18,PA13_18*%
%TO.N,SWDIO*%
X27260000Y-54810000D03*
%TO.P,U3,19,PA15/PA14-BOOT0_19*%
%TO.N,SWCLK*%
X27260000Y-55460000D03*
%TO.P,U3,20,PB3/PB4/PB5/PB6_20*%
%TO.N,unconnected-(U3-PB3{slash}PB4{slash}PB5{slash}PB6-Pad20)*%
X27260000Y-56110000D03*
%TD*%
D16*
%TO.P,C12,1,1_1*%
%TO.N,V15*%
X48160000Y-57250000D03*
%TO.P,C12,2,2_2*%
%TO.N,GND*%
X51340000Y-57250000D03*
%TD*%
D21*
%TO.P,R25,1,1_1*%
%TO.N,V3P3*%
X29950000Y-39700000D03*
%TO.P,R25,2,2_2*%
%TO.N,ATT*%
X31950000Y-39700000D03*
%TD*%
D11*
%TO.P,LED8,1,1_1*%
%TO.N,LED_S3_M2*%
X43300000Y-32625000D03*
D12*
%TO.P,LED8,2,2_2*%
%TO.N,LED_S3_M1*%
X43300000Y-30445000D03*
%TD*%
D26*
%TO.P,R21,1,1_1*%
%TO.N,CTRL*%
X17300000Y-49925000D03*
%TO.P,R21,2,2_2*%
%TO.N,GND*%
X17300000Y-48425000D03*
%TD*%
D11*
%TO.P,LED23,1,1_1*%
%TO.N,LED_S8_M2*%
X17225000Y-32950000D03*
D12*
%TO.P,LED23,2,2_2*%
%TO.N,LED_S8_M1*%
X17225000Y-30770000D03*
%TD*%
D11*
%TO.P,LED3,1,1_1*%
%TO.N,LED_N*%
X54290000Y-49815000D03*
D12*
%TO.P,LED3,2,2_2*%
%TO.N,LED_S1_M2*%
X54290000Y-47635000D03*
%TD*%
D11*
%TO.P,LED19,1,1_1*%
%TO.N,LED_S7_M1*%
X6190000Y-49815000D03*
D12*
%TO.P,LED19,2,2_2*%
%TO.N,LED_S7_A*%
X6190000Y-47635000D03*
%TD*%
D11*
%TO.P,LED24,1,1_1*%
%TO.N,LED_N*%
X21275000Y-32950000D03*
D12*
%TO.P,LED24,2,2_2*%
%TO.N,LED_S8_M2*%
X21275000Y-30770000D03*
%TD*%
D27*
%TO.P,C14,1,1_1*%
%TO.N,V15*%
X56250000Y-45340000D03*
%TO.P,C14,2,2_2*%
%TO.N,GND*%
X56250000Y-42160000D03*
%TD*%
D11*
%TO.P,LED2,1,1_1*%
%TO.N,LED_S1_M2*%
X50240000Y-49815000D03*
D12*
%TO.P,LED2,2,2_2*%
%TO.N,LED_S1_M1*%
X50240000Y-47635000D03*
%TD*%
D11*
%TO.P,LED14,1,1_1*%
%TO.N,LED_S5_M2*%
X43225000Y-24000000D03*
D12*
%TO.P,LED14,2,2_2*%
%TO.N,LED_S5_M1*%
X43225000Y-21820000D03*
%TD*%
D20*
%TO.P,R22,1,1*%
%TO.N,BRIGHT_ADC*%
X20325000Y-39600000D03*
%TO.P,R22,2,2*%
%TO.N,GND*%
X18825000Y-39600000D03*
%TD*%
D28*
%TO.P,U2,1,SET_1*%
%TO.N,SET*%
X19745000Y-53200000D03*
%TO.P,U2,2,GND_2*%
%TO.N,GND*%
X19085000Y-53200000D03*
%TO.P,U2,3,GND_3*%
X18435000Y-53200000D03*
%TO.P,U2,4,CTRL_4*%
%TO.N,CTRL*%
X17785000Y-53200000D03*
%TO.P,U2,5,SW_5*%
%TO.N,LED_N*%
X17785000Y-57460000D03*
%TO.P,U2,6,SW_6*%
X18435000Y-57460000D03*
%TO.P,U2,7,NC_7*%
%TO.N,unconnected-(U2-NC-Pad7)*%
X19085000Y-57460000D03*
%TO.P,U2,8,VIN_8*%
%TO.N,V15*%
X19745000Y-57460000D03*
D29*
%TO.P,U2,9,EP_9*%
%TO.N,GND*%
X18765000Y-55330000D03*
%TD*%
D30*
%TO.P,TP1,1,1_1*%
%TO.N,CTRL*%
X21000000Y-58400000D03*
%TD*%
D15*
%TO.P,R35,1,1_1*%
%TO.N,LED_P*%
X4500000Y-20180000D03*
%TO.P,R35,2,2_2*%
%TO.N,LED_S6_A*%
X4500000Y-26320000D03*
%TD*%
%TO.P,R37,1,1_1*%
%TO.N,LED_P*%
X4500000Y-35320000D03*
%TO.P,R37,2,2_2*%
%TO.N,LED_S8_A*%
X4500000Y-29180000D03*
%TD*%
D17*
%TO.P,C24,1,1_1*%
%TO.N,NTC_SENSE*%
X31700000Y-27000000D03*
%TO.P,C24,2,2_2*%
%TO.N,GND*%
X30300000Y-27000000D03*
%TD*%
D31*
%TO.P,L2,1,1_1*%
%TO.N,SW_LOGIC*%
X33675000Y-42775000D03*
%TO.P,L2,2,2_2*%
%TO.N,V3P3*%
X30675000Y-42775000D03*
%TD*%
D21*
%TO.P,R20,1,1_1*%
%TO.N,PWM_DIM*%
X24254000Y-53225000D03*
%TO.P,R20,2,2_2*%
%TO.N,CTRL*%
X22254000Y-53225000D03*
%TD*%
D32*
%TO.P,D10,1,C_1*%
%TO.N,V15*%
X56820000Y-38750000D03*
%TO.P,D10,2,A_2*%
%TO.N,GND*%
X51680000Y-38750000D03*
%TD*%
D33*
%TO.P,C16,1,1_1*%
%TO.N,V3P3*%
X28225000Y-40550000D03*
%TO.P,C16,2,2_2*%
%TO.N,GND*%
X26225000Y-40550000D03*
%TD*%
D11*
%TO.P,LED9,1,1_1*%
%TO.N,LED_N*%
X47350000Y-32625000D03*
D12*
%TO.P,LED9,2,2_2*%
%TO.N,LED_S3_M2*%
X47350000Y-30445000D03*
%TD*%
D11*
%TO.P,LED16,1,1_1*%
%TO.N,LED_S6_M1*%
X13700000Y-23775000D03*
D12*
%TO.P,LED16,2,2_2*%
%TO.N,LED_S6_A*%
X13700000Y-21595000D03*
%TD*%
D11*
%TO.P,LED1,1,1_1*%
%TO.N,LED_S1_M1*%
X46190000Y-49815000D03*
D12*
%TO.P,LED1,2,2_2*%
%TO.N,LED_S1_A*%
X46190000Y-47635000D03*
%TD*%
D11*
%TO.P,LED20,1,1_1*%
%TO.N,LED_S7_M2*%
X10240000Y-49815000D03*
D12*
%TO.P,LED20,2,2_2*%
%TO.N,LED_S7_M1*%
X10240000Y-47635000D03*
%TD*%
D11*
%TO.P,LED5,1,1_1*%
%TO.N,LED_S2_M2*%
X50050000Y-9180000D03*
D12*
%TO.P,LED5,2,2_2*%
%TO.N,LED_S2_M1*%
X50050000Y-7000000D03*
%TD*%
D26*
%TO.P,R27,1,1_1*%
%TO.N,BRIGHT_WIPER*%
X22800000Y-58750000D03*
%TO.P,R27,2,2_2*%
%TO.N,BRIGHT_ADC*%
X22800000Y-57250000D03*
%TD*%
D17*
%TO.P,C13,1,1_1*%
%TO.N,V15*%
X44300000Y-57750000D03*
%TO.P,C13,2,2_2*%
%TO.N,GND*%
X45700000Y-57750000D03*
%TD*%
D11*
%TO.P,LED7,1,1_1*%
%TO.N,LED_S3_M1*%
X39250000Y-32625000D03*
D12*
%TO.P,LED7,2,2_2*%
%TO.N,LED_S3_A*%
X39250000Y-30445000D03*
%TD*%
D18*
%TO.P,R31,1,1_1*%
%TO.N,LED_P*%
X43570000Y-13250000D03*
%TO.P,R31,2,2_2*%
%TO.N,LED_S2_A*%
X37430000Y-13250000D03*
%TD*%
D11*
%TO.P,LED10,1,1_1*%
%TO.N,LED_S4_M1*%
X6960000Y-9815000D03*
D12*
%TO.P,LED10,2,2_2*%
%TO.N,LED_S4_A*%
X6960000Y-7635000D03*
%TD*%
D14*
%TO.P,C18,1,1_1*%
%TO.N,V3P3*%
X55600000Y-32800000D03*
%TO.P,C18,2,2_2*%
%TO.N,GND*%
X55600000Y-34200000D03*
%TD*%
%TO.P,C21,1,1_1*%
%TO.N,CTRL*%
X19500000Y-50200000D03*
%TO.P,C21,2,2_2*%
%TO.N,GND*%
X19500000Y-48800000D03*
%TD*%
D33*
%TO.P,C17,1,1_1*%
%TO.N,V3P3*%
X28200000Y-42525000D03*
%TO.P,C17,2,2_2*%
%TO.N,GND*%
X26200000Y-42525000D03*
%TD*%
D11*
%TO.P,LED22,1,1_1*%
%TO.N,LED_S8_M1*%
X13175000Y-32950000D03*
D12*
%TO.P,LED22,2,2_2*%
%TO.N,LED_S8_A*%
X13175000Y-30770000D03*
%TD*%
D20*
%TO.P,R26,1,1_1*%
%TO.N,V3P3*%
X35250000Y-56500000D03*
%TO.P,R26,2,2_2*%
%TO.N,NTC_SENSE*%
X36750000Y-56500000D03*
%TD*%
D11*
%TO.P,LED21,1,1_1*%
%TO.N,LED_N*%
X14290000Y-49815000D03*
D12*
%TO.P,LED21,2,2_2*%
%TO.N,LED_S7_M2*%
X14290000Y-47635000D03*
%TD*%
D11*
%TO.P,LED17,1,1_1*%
%TO.N,LED_S6_M2*%
X17750000Y-23775000D03*
D12*
%TO.P,LED17,2,2_2*%
%TO.N,LED_S6_M1*%
X17750000Y-21595000D03*
%TD*%
D14*
%TO.P,C15,1,1_1*%
%TO.N,SW_LOGIC*%
X39800000Y-54100000D03*
%TO.P,C15,2,2_2*%
%TO.N,BST*%
X39800000Y-52700000D03*
%TD*%
D17*
%TO.P,C20,1,1_1*%
%TO.N,NRST*%
X35554000Y-53625000D03*
%TO.P,C20,2,2_2*%
%TO.N,GND*%
X36954000Y-53625000D03*
%TD*%
D34*
%TO.P,SW2,1,1*%
%TO.N,V15*%
X9100000Y-30250000D03*
%TO.P,SW2,2,2*%
%TO.N,V15_FUSED*%
X9100000Y-27750000D03*
%TO.P,SW2,3,3*%
%TO.N,unconnected-(SW2-Pad3)*%
X9100000Y-25250000D03*
%TD*%
D35*
%TO.P,RV1,1,LOW*%
%TO.N,GND*%
X47900000Y-4500000D03*
%TO.P,RV1,2,WIPER*%
%TO.N,BRIGHT_WIPER*%
X51900000Y-4500000D03*
%TO.P,RV1,3,HIGH*%
%TO.N,V3P3*%
X55900000Y-4500000D03*
%TO.P,RV1,MP1,DUMMY*%
%TO.N,unconnected-(RV1-DUMMY-PadMP1)*%
X49900000Y-4500000D03*
%TO.P,RV1,MP2,DUMMY*%
%TO.N,unconnected-(RV1-DUMMY-PadMP2)*%
X53900000Y-4500000D03*
D36*
%TO.P,RV1,MP3,SUPPORT*%
%TO.N,unconnected-(RV1-SUPPORT-PadMP3)*%
X56900000Y-14500000D03*
%TO.P,RV1,MP4,SUPPORT*%
%TO.N,unconnected-(RV1-SUPPORT-PadMP4)*%
X46900000Y-14500000D03*
%TD*%
D37*
%TO.P,J3,1,1_1*%
%TO.N,SWDIO*%
X57950000Y-24395000D03*
D38*
%TO.P,J3,2,2_2*%
%TO.N,SWCLK*%
X57950000Y-26935000D03*
%TO.P,J3,3,3_3*%
%TO.N,NRST*%
X57950000Y-29475000D03*
%TO.P,J3,4,4_4*%
%TO.N,V3P3*%
X57950000Y-32015000D03*
%TO.P,J3,5,5_5*%
%TO.N,GND*%
X57950000Y-34555000D03*
%TD*%
D39*
%TO.P,J2,1,1_1*%
%TO.N,VBUS_L*%
X23050000Y-37700000D03*
D35*
%TO.P,J2,2,2_2*%
X25590000Y-37700000D03*
%TO.P,J2,3,3_3*%
%TO.N,ATT*%
X28130000Y-37700000D03*
%TO.P,J2,4,4_4*%
%TO.N,PDOK*%
X30670000Y-37700000D03*
%TO.P,J2,5,5_5*%
%TO.N,GND*%
X33210000Y-37700000D03*
%TO.P,J2,6,6_6*%
X35750000Y-37700000D03*
%TD*%
D40*
%TO.N,LED_S2_A*%
X44250000Y-7250000D03*
X37000000Y-10750000D03*
D41*
%TO.N,UART_TX*%
X34000000Y-49500000D03*
X34500000Y-55500000D03*
%TO.N,UART_RX*%
X33250000Y-49250000D03*
X31250000Y-58500000D03*
%TO.N,GND*%
X29500000Y-51000000D03*
X30500000Y-52000000D03*
X26000000Y-46000000D03*
D42*
X53500000Y-57750000D03*
D41*
X29500000Y-55000000D03*
X30250000Y-26000000D03*
X29500000Y-52000000D03*
X30500000Y-51000000D03*
X53500000Y-41000000D03*
X30500000Y-55000000D03*
X18825000Y-51650000D03*
X55250000Y-29500000D03*
D43*
X18325000Y-47425000D03*
D41*
X25000000Y-42500000D03*
X29500000Y-54000000D03*
X29500000Y-53000000D03*
X30500000Y-54000000D03*
X21500000Y-28000000D03*
X15500000Y-27000000D03*
X39500000Y-57000000D03*
X30500000Y-53000000D03*
X34125000Y-53500000D03*
X22000000Y-27750000D03*
X21000000Y-52000000D03*
X16000000Y-54000000D03*
X46000000Y-56500000D03*
X27500000Y-44750000D03*
%TO.N,V3P3*%
X22254000Y-49225000D03*
X56250000Y-11750000D03*
X36254000Y-55000000D03*
D42*
%TO.N,LED_N*%
X32500000Y-22500000D03*
X27500000Y-22500000D03*
D41*
%TO.N,V15*%
X21000000Y-41500000D03*
D42*
X54750000Y-53000000D03*
X43500000Y-50500000D03*
D41*
X42000000Y-36500000D03*
%TO.N,BRIGHT_ADC*%
X36750000Y-49000000D03*
X39750000Y-50500000D03*
X39500000Y-47000000D03*
X22500000Y-57750000D03*
X20250000Y-42000000D03*
X22750000Y-55750000D03*
%TO.N,BST*%
X40100000Y-51700000D03*
X38309968Y-54432661D03*
%TO.N,NTC_SENSE*%
X28150000Y-47075000D03*
X42050000Y-38550000D03*
X37000000Y-55000000D03*
X25854000Y-49225000D03*
%TO.N,PDOK*%
X26750000Y-47250000D03*
D40*
%TO.N,V15_FUSED*%
X42500000Y-35500000D03*
X44500000Y-46000000D03*
X42000000Y-56250000D03*
X17750000Y-25750000D03*
D41*
%TO.N,NRST*%
X38000000Y-50250000D03*
%TO.N,ATT*%
X31000000Y-39000000D03*
X25654000Y-52625000D03*
%TO.N,SWDIO*%
X21000000Y-46500000D03*
X23000000Y-46500000D03*
X25750000Y-54500000D03*
%TO.N,SWCLK*%
X30150000Y-49250000D03*
X25592173Y-53500000D03*
X38250000Y-49250000D03*
D42*
%TO.N,CTRL*%
X17125000Y-51675000D03*
X21625000Y-55300000D03*
D40*
%TO.N,LED_S8_A*%
X4750000Y-29750000D03*
X12000000Y-31000000D03*
D41*
%TO.N,BRIGHT_WIPER*%
X23250000Y-58500000D03*
X35250000Y-47500000D03*
X34500000Y-51500000D03*
%TD*%
%TO.N,LED_S2_M1*%
D44*
X46595000Y-9180000D02*
X48775000Y-7000000D01*
X46000000Y-9180000D02*
X46595000Y-9180000D01*
X48775000Y-7000000D02*
X50050000Y-7000000D01*
%TO.N,LED_S2_A*%
X37000000Y-12320000D02*
X37000000Y-10750000D01*
X45750000Y-7000000D02*
X46000000Y-7000000D01*
X45750000Y-7000000D02*
X45500000Y-7250000D01*
X37430000Y-13250000D02*
X37680000Y-13000000D01*
X45500000Y-7250000D02*
X44250000Y-7250000D01*
X37680000Y-13000000D02*
X37000000Y-12320000D01*
%TO.N,UART_TX*%
D10*
X34000000Y-50679000D02*
X33779000Y-50900000D01*
X33779000Y-50900000D02*
X33000000Y-50900000D01*
X34000000Y-49879349D02*
X34171000Y-50050349D01*
X34000000Y-50620651D02*
X34000000Y-50679000D01*
D45*
X34500000Y-56330000D02*
X32580000Y-58250000D01*
D10*
X34171000Y-50449651D02*
X34000000Y-50620651D01*
X34000000Y-49500000D02*
X34000000Y-49879349D01*
X34171000Y-50050349D02*
X34171000Y-50449651D01*
D45*
X34500000Y-55500000D02*
X34500000Y-56330000D01*
%TO.N,UART_RX*%
X33000000Y-50250000D02*
X33250000Y-50000000D01*
X30290000Y-58500000D02*
X30040000Y-58250000D01*
X33250000Y-50000000D02*
X33250000Y-49250000D01*
X31250000Y-58500000D02*
X30290000Y-58500000D01*
%TO.N,GND*%
D10*
X36129000Y-54450000D02*
X36954000Y-53625000D01*
D44*
X16500000Y-28000000D02*
X15500000Y-27000000D01*
D45*
X17995006Y-54356000D02*
X18292000Y-54059006D01*
X21362500Y-52211500D02*
X21037000Y-52537000D01*
X30130000Y-53180000D02*
X30130000Y-54646006D01*
D10*
X36954000Y-53625000D02*
X36254000Y-52925000D01*
X36254000Y-52925000D02*
X36254000Y-52425000D01*
D45*
X55600000Y-29850000D02*
X55600000Y-30100000D01*
D44*
X26225000Y-40550000D02*
X26225000Y-42500000D01*
X49340000Y-54750000D02*
X49590000Y-55000000D01*
D10*
X36954000Y-51725000D02*
X36254000Y-52425000D01*
D45*
X16000000Y-54500000D02*
X18000000Y-54500000D01*
X17278000Y-54059006D02*
X17574994Y-54356000D01*
X28159006Y-56617000D02*
X27500000Y-56617000D01*
X16000000Y-54000000D02*
X17278000Y-54000000D01*
D46*
X18875000Y-48800000D02*
X18675000Y-48600000D01*
D45*
X18825000Y-51650000D02*
X19085000Y-52040000D01*
X30130000Y-54646006D02*
X28159006Y-56617000D01*
X55600000Y-34200000D02*
X57595000Y-34200000D01*
X30300000Y-27000000D02*
X30250000Y-26950000D01*
X31000000Y-53500000D02*
X33000000Y-53500000D01*
X27500000Y-56617000D02*
X25157500Y-56617000D01*
X25157500Y-56617000D02*
X23145500Y-54605000D01*
X27500000Y-56617000D02*
X27500000Y-58250000D01*
X30250000Y-26950000D02*
X30250000Y-26000000D01*
X18292000Y-54000000D02*
X18435000Y-54000000D01*
X22000000Y-27750000D02*
X21750000Y-28000000D01*
X18292000Y-54059006D02*
X18292000Y-54000000D01*
D10*
X34125000Y-53500000D02*
X33000000Y-53500000D01*
X37675000Y-56850000D02*
X37825000Y-57000000D01*
D45*
X23549999Y-40550000D02*
X26225000Y-40550000D01*
D44*
X53000000Y-57250000D02*
X53500000Y-57750000D01*
D45*
X26000000Y-46000000D02*
X27250000Y-44750000D01*
X40150000Y-56000000D02*
X39950000Y-56200000D01*
X25000000Y-41775000D02*
X25000000Y-42500000D01*
D44*
X17325000Y-48425000D02*
X18325000Y-47425000D01*
D45*
X16000000Y-52250000D02*
X16000000Y-54500000D01*
X18435000Y-53200000D02*
X18435000Y-54239045D01*
D10*
X37825000Y-57000000D02*
X39500000Y-57000000D01*
D45*
X26000000Y-40775000D02*
X25000000Y-41775000D01*
X39950000Y-56200000D02*
X39950000Y-56550000D01*
D10*
X36954000Y-53625000D02*
X37675000Y-54346000D01*
D45*
X26225000Y-40550000D02*
X26000000Y-40775000D01*
D44*
X21500000Y-28000000D02*
X16500000Y-28000000D01*
D46*
X18675000Y-48600000D02*
X18675000Y-47775000D01*
X18675000Y-47775000D02*
X18325000Y-47425000D01*
D45*
X39950000Y-56550000D02*
X39500000Y-57000000D01*
X18435000Y-53200000D02*
X19085000Y-53200000D01*
X23145500Y-52211500D02*
X21362500Y-52211500D01*
X21037000Y-52537000D02*
X21211500Y-52362500D01*
X16500000Y-49250000D02*
X16000000Y-49750000D01*
X21211500Y-52211500D02*
X21000000Y-52000000D01*
X18435000Y-54239045D02*
X18765000Y-54569045D01*
X18825000Y-39600000D02*
X19675000Y-38750000D01*
X18825000Y-53675000D02*
X18825000Y-51650000D01*
X18875000Y-48800000D02*
X16950000Y-48800000D01*
X55250000Y-29500000D02*
X55600000Y-29850000D01*
X55600000Y-30100000D02*
X54825000Y-30875000D01*
D44*
X17300000Y-48425000D02*
X17325000Y-48425000D01*
X53755000Y-38750000D02*
X57950000Y-34555000D01*
D45*
X30500000Y-53000000D02*
X31000000Y-53500000D01*
X54825000Y-33425000D02*
X55600000Y-34200000D01*
X17574994Y-54356000D02*
X17995006Y-54356000D01*
X23145500Y-54605000D02*
X23145500Y-52211500D01*
X45700000Y-56800000D02*
X46000000Y-56500000D01*
D44*
X49590000Y-55500000D02*
X51340000Y-57250000D01*
D45*
X21750000Y-28000000D02*
X21500000Y-28000000D01*
X19675000Y-38750000D02*
X21750000Y-38750000D01*
D44*
X51680000Y-38750000D02*
X53755000Y-38750000D01*
D45*
X18000000Y-54500000D02*
X18825000Y-53675000D01*
D10*
X37675000Y-54346000D02*
X37675000Y-56850000D01*
D45*
X57595000Y-34200000D02*
X57950000Y-34555000D01*
D10*
X35075000Y-54450000D02*
X36129000Y-54450000D01*
D45*
X16000000Y-49750000D02*
X16000000Y-52250000D01*
D46*
X19500000Y-48800000D02*
X18875000Y-48800000D01*
D44*
X49590000Y-55000000D02*
X49590000Y-55500000D01*
D45*
X16950000Y-48800000D02*
X16500000Y-49250000D01*
X45700000Y-57750000D02*
X45700000Y-56800000D01*
X19085000Y-52040000D02*
X19085000Y-53200000D01*
D44*
X49340000Y-52500000D02*
X49340000Y-54750000D01*
D45*
X30300000Y-28125000D02*
X30300000Y-27000000D01*
D46*
X26200000Y-42525000D02*
X26200000Y-42775000D01*
D44*
X51340000Y-57250000D02*
X53000000Y-57250000D01*
D45*
X21211500Y-52362500D02*
X21211500Y-52211500D01*
X56250000Y-42160000D02*
X54660000Y-42160000D01*
D10*
X34125000Y-53500000D02*
X35075000Y-54450000D01*
D45*
X27250000Y-44750000D02*
X27500000Y-44750000D01*
X17278000Y-54000000D02*
X17278000Y-54059006D01*
X30250000Y-28175000D02*
X30300000Y-28125000D01*
X54825000Y-30875000D02*
X54825000Y-33425000D01*
D44*
X26225000Y-42500000D02*
X26200000Y-42525000D01*
D10*
X36954000Y-51025000D02*
X36954000Y-51725000D01*
D45*
X54660000Y-42160000D02*
X53500000Y-41000000D01*
X21750000Y-38750000D02*
X23549999Y-40550000D01*
%TO.N,V3P3*%
D44*
X28225000Y-40550000D02*
X28225000Y-42500000D01*
D10*
X35104000Y-55193000D02*
X35104000Y-55625000D01*
D45*
X58250000Y-21750000D02*
X56750000Y-23250000D01*
D10*
X35450000Y-56300000D02*
X35250000Y-56500000D01*
X34071000Y-54160000D02*
X35104000Y-55193000D01*
X36254000Y-55000000D02*
X36254000Y-55275000D01*
D46*
X26809761Y-44025000D02*
X22254000Y-48580761D01*
D10*
X35250000Y-56500000D02*
X37150000Y-58400000D01*
D46*
X29425000Y-44025000D02*
X26809761Y-44025000D01*
D45*
X55600000Y-31500000D02*
X57435000Y-31500000D01*
X56750000Y-23250000D02*
X56750000Y-29000000D01*
D46*
X22254000Y-49225000D02*
X22254000Y-50825000D01*
D45*
X58250000Y-13750000D02*
X58250000Y-21750000D01*
D10*
X33000000Y-54160000D02*
X34071000Y-54160000D01*
X36254000Y-55275000D02*
X35504000Y-56025000D01*
X35450000Y-55971000D02*
X35450000Y-56300000D01*
D44*
X29950000Y-42050000D02*
X30675000Y-42775000D01*
D45*
X57165000Y-32800000D02*
X57950000Y-32015000D01*
D44*
X29950000Y-39700000D02*
X29950000Y-42050000D01*
D45*
X35504000Y-56246000D02*
X35250000Y-56500000D01*
D46*
X30675000Y-43700000D02*
X30675000Y-42775000D01*
D45*
X57435000Y-31500000D02*
X57950000Y-32015000D01*
D44*
X29075000Y-39700000D02*
X28225000Y-40550000D01*
D45*
X56750000Y-29000000D02*
X56750000Y-30350000D01*
D44*
X28225000Y-42500000D02*
X28200000Y-42525000D01*
X29950000Y-39700000D02*
X29075000Y-39700000D01*
D46*
X22254000Y-48580761D02*
X22254000Y-49225000D01*
D10*
X37150000Y-58400000D02*
X38250000Y-58400000D01*
X35104000Y-55625000D02*
X35450000Y-55971000D01*
D46*
X30675000Y-42775000D02*
X29425000Y-44025000D01*
D45*
X55600000Y-32800000D02*
X57165000Y-32800000D01*
X56250000Y-11750000D02*
X58250000Y-13750000D01*
X35504000Y-56025000D02*
X35504000Y-56246000D01*
X56750000Y-30350000D02*
X55600000Y-31500000D01*
%TO.N,LED_N*%
D44*
X37510000Y-29490000D02*
X41285000Y-25715000D01*
X23165000Y-32950000D02*
X21275000Y-32950000D01*
X24775000Y-22690000D02*
X24775000Y-22500000D01*
X24775000Y-20550000D02*
X14040000Y-9815000D01*
X51500000Y-14780000D02*
X51500000Y-21000000D01*
X16030000Y-48735000D02*
X14950000Y-49815000D01*
X45635000Y-34340000D02*
X37510000Y-34340000D01*
X10425000Y-39428000D02*
X10425000Y-40930000D01*
X16030000Y-46535000D02*
X16030000Y-48735000D01*
X21800000Y-23775000D02*
X23690000Y-23775000D01*
X54100000Y-9180000D02*
X50000000Y-13280000D01*
X48426500Y-33701500D02*
X48426500Y-42981500D01*
X51500000Y-21000000D02*
X50000000Y-22500000D01*
X37510000Y-27510000D02*
X32500000Y-22500000D01*
X19410000Y-34815000D02*
X15038000Y-34815000D01*
X10425000Y-40930000D02*
X16030000Y-46535000D01*
X47350000Y-32625000D02*
X45635000Y-34340000D01*
X49165000Y-23335000D02*
X49165000Y-24000000D01*
X53630000Y-49815000D02*
X54290000Y-49815000D01*
X14290000Y-49815000D02*
X14290000Y-53965000D01*
X27500000Y-28615000D02*
X23165000Y-32950000D01*
X50000000Y-13280000D02*
X51500000Y-14780000D01*
X47350000Y-32625000D02*
X48426500Y-33701500D01*
X37510000Y-29490000D02*
X37510000Y-27510000D01*
X14950000Y-49815000D02*
X14290000Y-49815000D01*
D45*
X18435000Y-57460000D02*
X17785000Y-57460000D01*
D44*
X12495000Y-53965000D02*
X8650000Y-57810000D01*
X21275000Y-32950000D02*
X19410000Y-34815000D01*
X24775000Y-22500000D02*
X24775000Y-20550000D01*
X41285000Y-25715000D02*
X45560000Y-25715000D01*
X52550000Y-48735000D02*
X53630000Y-49815000D01*
X14290000Y-53965000D02*
X17785000Y-57460000D01*
X27500000Y-22500000D02*
X27500000Y-28615000D01*
X49165000Y-24000000D02*
X47275000Y-24000000D01*
X52550000Y-47105000D02*
X52550000Y-48735000D01*
X14290000Y-53965000D02*
X12495000Y-53965000D01*
X45560000Y-25715000D02*
X47275000Y-24000000D01*
X23690000Y-23775000D02*
X24775000Y-22690000D01*
X50000000Y-22500000D02*
X49165000Y-23335000D01*
X15038000Y-34815000D02*
X10425000Y-39428000D01*
X48426500Y-42981500D02*
X52550000Y-47105000D01*
X27500000Y-22500000D02*
X24775000Y-22500000D01*
X37510000Y-29490000D02*
X37510000Y-34340000D01*
%TO.N,LED_S2_M2*%
X50645000Y-9180000D02*
X52825000Y-7000000D01*
X52825000Y-7000000D02*
X54100000Y-7000000D01*
X50050000Y-9180000D02*
X50645000Y-9180000D01*
%TO.N,LED_S4_M2*%
X12190000Y-8210000D02*
X12765000Y-7635000D01*
X12000000Y-8735000D02*
X12190000Y-8735000D01*
X12190000Y-8735000D02*
X12190000Y-8210000D01*
X12765000Y-7635000D02*
X14040000Y-7635000D01*
X9990000Y-9815000D02*
X12000000Y-9815000D01*
X12000000Y-9815000D02*
X12000000Y-8735000D01*
%TO.N,LED_P*%
X3000000Y-9000000D02*
X2500000Y-8500000D01*
X43570000Y-13250000D02*
X44042000Y-13722000D01*
X6345000Y-39230000D02*
X7415000Y-40300000D01*
X44042000Y-13722000D02*
X44042000Y-15528000D01*
X3000000Y-39230000D02*
X6345000Y-39230000D01*
X43570000Y-13250000D02*
X43570000Y-14524999D01*
X49326500Y-40476500D02*
X53375000Y-44525000D01*
X4500000Y-20180000D02*
X3000000Y-18680000D01*
X55250000Y-18750000D02*
X55840000Y-19340000D01*
X44060500Y-5900000D02*
X46210499Y-3750000D01*
X57500000Y-7250000D02*
X56000000Y-8750000D01*
X46960499Y-3000000D02*
X56250000Y-3000000D01*
X46320000Y-17275000D02*
X46570000Y-17525000D01*
X55840000Y-19340000D02*
X55840000Y-27480000D01*
X46210499Y-3750000D02*
X46960499Y-3000000D01*
X55840000Y-27480000D02*
X52000000Y-31320000D01*
X6160000Y-36980000D02*
X6160000Y-39045000D01*
X43570000Y-14524999D02*
X46320000Y-17275000D01*
X4500000Y-20180000D02*
X2222000Y-22458000D01*
X56250000Y-3000000D02*
X57500000Y-3000000D01*
X56000000Y-10500000D02*
X55250000Y-11250000D01*
X33808452Y-6200000D02*
X38988500Y-11380048D01*
X49326500Y-37188500D02*
X49326500Y-40476500D01*
X44042000Y-15528000D02*
X38988500Y-15528000D01*
X55250000Y-11250000D02*
X55250000Y-18750000D01*
X46570000Y-17525000D02*
X46570000Y-18000000D01*
X52000000Y-31320000D02*
X52000000Y-34515000D01*
X38988500Y-10972000D02*
X44060500Y-5900000D01*
X56000000Y-8750000D02*
X56000000Y-10500000D01*
X2500000Y-8500000D02*
X4800000Y-6200000D01*
X2222000Y-22458000D02*
X2222000Y-33042000D01*
X3000000Y-18680000D02*
X3000000Y-9000000D01*
X8180000Y-14500000D02*
X5360000Y-17320000D01*
X6160000Y-39045000D02*
X7415000Y-40300000D01*
X4800000Y-6200000D02*
X33808452Y-6200000D01*
X2222000Y-33042000D02*
X4500000Y-35320000D01*
X57500000Y-3000000D02*
X57500000Y-7250000D01*
X38988500Y-11380048D02*
X38988500Y-10972000D01*
X38988500Y-15528000D02*
X38988500Y-11380048D01*
X5360000Y-19320000D02*
X4500000Y-20180000D01*
X5360000Y-17320000D02*
X5360000Y-19320000D01*
X4500000Y-35320000D02*
X6160000Y-36980000D01*
X52000000Y-34515000D02*
X49326500Y-37188500D01*
%TO.N,LED_S7_A*%
X3925000Y-45370000D02*
X6190000Y-47635000D01*
X3000000Y-45370000D02*
X3925000Y-45370000D01*
%TO.N,V15*%
X43800000Y-57800000D02*
X43800000Y-57630000D01*
X43500000Y-38000000D02*
X42000000Y-36500000D01*
D45*
X21000000Y-51186827D02*
X20425000Y-51761827D01*
D44*
X56820000Y-38750000D02*
X57664000Y-39594000D01*
D47*
X40350000Y-59000000D02*
X43000000Y-59000000D01*
D45*
X20252000Y-52685604D02*
X20252000Y-54889116D01*
D44*
X57664000Y-39594000D02*
X57664000Y-43926000D01*
X43500000Y-50500000D02*
X43500000Y-38000000D01*
D45*
X20252000Y-54889116D02*
X20500000Y-55137116D01*
D47*
X40150000Y-58000000D02*
X40350000Y-57800000D01*
D44*
X46410000Y-55500000D02*
X48160000Y-57250000D01*
D45*
X19745000Y-57460000D02*
X19745000Y-58177000D01*
X20425000Y-46738173D02*
X21000000Y-47313173D01*
D44*
X21000000Y-41500000D02*
X21295000Y-41500000D01*
D45*
X21000000Y-47313173D02*
X21000000Y-51186827D01*
D44*
X56250000Y-45340000D02*
X56930000Y-46020000D01*
X43800000Y-57630000D02*
X44430000Y-57000000D01*
X46410000Y-55000000D02*
X46410000Y-55500000D01*
D45*
X20500000Y-55137116D02*
X20500000Y-56705000D01*
X20425000Y-51761827D02*
X20425000Y-52238173D01*
X20500000Y-52437604D02*
X20252000Y-52685604D01*
X20500000Y-56705000D02*
X19745000Y-57460000D01*
D44*
X55832792Y-53000000D02*
X54750000Y-53000000D01*
D45*
X20500000Y-46186827D02*
X20425000Y-46261827D01*
D44*
X44410000Y-57190000D02*
X43800000Y-57800000D01*
X56930000Y-46020000D02*
X56930000Y-51902792D01*
D47*
X40150000Y-58400000D02*
X40150000Y-58000000D01*
D44*
X43500000Y-52500000D02*
X44410000Y-53410000D01*
D47*
X43800000Y-58200000D02*
X43800000Y-57800000D01*
D44*
X44410000Y-56500000D02*
X44410000Y-57190000D01*
X46160000Y-54750000D02*
X46410000Y-55000000D01*
X56930000Y-51902792D02*
X55832792Y-53000000D01*
D45*
X20500000Y-52313173D02*
X20500000Y-52437604D01*
D47*
X40350000Y-57800000D02*
X40350000Y-59000000D01*
D44*
X43500000Y-50500000D02*
X43500000Y-52500000D01*
D45*
X22720000Y-42925000D02*
X20500000Y-45145000D01*
X19306000Y-58616000D02*
X16036000Y-58616000D01*
X20500000Y-45145000D02*
X20500000Y-46186827D01*
D44*
X46160000Y-52500000D02*
X46160000Y-54750000D01*
D45*
X16036000Y-58616000D02*
X15210000Y-57790000D01*
D44*
X57664000Y-43926000D02*
X56250000Y-45340000D01*
X44410000Y-53410000D02*
X44410000Y-56500000D01*
X21295000Y-41500000D02*
X22720000Y-42925000D01*
D47*
X43000000Y-59000000D02*
X43800000Y-58200000D01*
D45*
X15210000Y-57790000D02*
X12950000Y-57790000D01*
D44*
X46160000Y-54750000D02*
X44410000Y-56500000D01*
D45*
X20425000Y-46261827D02*
X20425000Y-46738173D01*
X19745000Y-58177000D02*
X19306000Y-58616000D01*
X20425000Y-52238173D02*
X20500000Y-52313173D01*
%TO.N,LED_S3_A*%
D44*
X39250000Y-30445000D02*
X41620000Y-28075000D01*
X49105000Y-28075000D02*
X52000000Y-25180000D01*
X41620000Y-28075000D02*
X49105000Y-28075000D01*
%TO.N,BRIGHT_ADC*%
D45*
X22800000Y-57250000D02*
X22750000Y-57200000D01*
X35750000Y-50000000D02*
X35750000Y-50250000D01*
X39750000Y-50500000D02*
X39500000Y-50250000D01*
X39750000Y-50500000D02*
X39500000Y-50250000D01*
X34750000Y-52250000D02*
X34700000Y-52200000D01*
X35750000Y-50000000D02*
X35750000Y-50500000D01*
X20250000Y-39675000D02*
X20325000Y-39600000D01*
X22500000Y-57550000D02*
X22500000Y-57750000D01*
X22800000Y-57250000D02*
X22500000Y-57550000D01*
X20250000Y-42000000D02*
X20250000Y-39675000D01*
X36750000Y-49000000D02*
X35750000Y-50000000D01*
X22500000Y-57550000D02*
X22500000Y-57750000D01*
X36750000Y-49000000D02*
X35750000Y-50000000D01*
X35554000Y-50696000D02*
X35554000Y-51025000D01*
X35750000Y-50250000D02*
X35750000Y-51250000D01*
X35750000Y-50500000D02*
X35554000Y-50696000D01*
X39500000Y-50250000D02*
X39500000Y-47000000D01*
X35750000Y-51250000D02*
X34750000Y-52250000D01*
X22750000Y-57200000D02*
X22750000Y-55750000D01*
X22800000Y-57250000D02*
X22500000Y-57550000D01*
X34700000Y-52200000D02*
X33000000Y-52200000D01*
X39500000Y-50250000D02*
X39500000Y-47000000D01*
%TO.N,LED_S5_A*%
D44*
X40430000Y-18000000D02*
X40655000Y-18225000D01*
X40655000Y-18225000D02*
X40655000Y-20340000D01*
X40655000Y-20340000D02*
X39175000Y-21820000D01*
%TO.N,SW_LOGIC*%
D46*
X38925000Y-55525000D02*
X39200000Y-55800000D01*
X38800000Y-44025000D02*
X38800000Y-48880761D01*
X38800000Y-54003454D02*
X38959968Y-54163422D01*
X38959968Y-54163422D02*
X38959968Y-54701900D01*
X38800000Y-48880761D02*
X38900000Y-48980761D01*
X39200000Y-55800000D02*
X39200000Y-56000000D01*
X38834968Y-54826900D02*
X38834968Y-55050000D01*
X38959968Y-54701900D02*
X38834968Y-54826900D01*
X33675000Y-42775000D02*
X34925000Y-44025000D01*
X39800000Y-54400000D02*
X39000000Y-55200000D01*
X38834968Y-55050000D02*
X38925000Y-55050000D01*
X38900000Y-49519239D02*
X38800000Y-49619239D01*
X39000000Y-55200000D02*
X39000000Y-55800000D01*
X38800000Y-49619239D02*
X38800000Y-54003454D01*
X39000000Y-55800000D02*
X39200000Y-56000000D01*
X38925000Y-55050000D02*
X38925000Y-55525000D01*
X39800000Y-54100000D02*
X39800000Y-54400000D01*
X38900000Y-48980761D02*
X38900000Y-49519239D01*
X34925000Y-44025000D02*
X38800000Y-44025000D01*
%TO.N,BST*%
D45*
X38309968Y-54432661D02*
X38309968Y-55540032D01*
X38250000Y-55600000D02*
X38250000Y-56000000D01*
D46*
X40000000Y-52500000D02*
X40000000Y-51800000D01*
X39800000Y-52700000D02*
X40000000Y-52500000D01*
X40000000Y-51800000D02*
X40100000Y-51700000D01*
D45*
X38309968Y-55540032D02*
X38250000Y-55600000D01*
%TO.N,LED_S5_M2*%
D44*
X43820000Y-24000000D02*
X46000000Y-21820000D01*
X43225000Y-24000000D02*
X43820000Y-24000000D01*
X46000000Y-21820000D02*
X47275000Y-21820000D01*
%TO.N,NTC_SENSE*%
D10*
X37004000Y-55971000D02*
X36750000Y-56225000D01*
X25854000Y-49225000D02*
X26350000Y-49225000D01*
X28150000Y-47425000D02*
X28150000Y-47075000D01*
D45*
X31700000Y-27000000D02*
X31700000Y-28125000D01*
D10*
X38975000Y-35475000D02*
X37275000Y-35475000D01*
X42050000Y-38550000D02*
X38975000Y-35475000D01*
X37275000Y-35475000D02*
X37275000Y-35300000D01*
X37000000Y-55000000D02*
X37004000Y-55004000D01*
X26350000Y-49225000D02*
X28150000Y-47425000D01*
X36750000Y-56225000D02*
X36750000Y-56500000D01*
X37275000Y-35300000D02*
X31750000Y-29775000D01*
X26879000Y-50250000D02*
X25854000Y-49225000D01*
X37004000Y-55004000D02*
X37004000Y-55971000D01*
X27260000Y-50250000D02*
X26879000Y-50250000D01*
X31750000Y-29775000D02*
X31750000Y-28175000D01*
D45*
X31700000Y-28125000D02*
X31750000Y-28175000D01*
%TO.N,PDOK*%
X24254000Y-49745999D02*
X24254000Y-50825000D01*
X26750000Y-47250000D02*
X24254000Y-49745999D01*
D10*
X24329000Y-50900000D02*
X24254000Y-50825000D01*
X27260000Y-50900000D02*
X24329000Y-50900000D01*
%TO.N,LED_S6_M2*%
D44*
X21800000Y-21595000D02*
X19910000Y-21595000D01*
X18750000Y-23775000D02*
X17750000Y-23775000D01*
X19910000Y-22615000D02*
X18750000Y-23775000D01*
X19910000Y-21595000D02*
X19910000Y-22615000D01*
%TO.N,LED_S1_A*%
X46190000Y-47635000D02*
X46190000Y-45570000D01*
X46190000Y-45570000D02*
X47235000Y-44525000D01*
%TO.N,SET*%
D45*
X19975000Y-52326208D02*
X19802000Y-52499208D01*
X19802000Y-53143000D02*
X19745000Y-53200000D01*
X19975000Y-46320000D02*
X19975000Y-46924569D01*
X19975000Y-46924569D02*
X20550000Y-47499569D01*
X19975000Y-51575431D02*
X19975000Y-52326208D01*
X20550000Y-51000431D02*
X19975000Y-51575431D01*
D44*
X13955000Y-40300000D02*
X16580000Y-42925000D01*
X13675000Y-40300000D02*
X13955000Y-40300000D01*
D45*
X19802000Y-52499208D02*
X19802000Y-53143000D01*
X16580000Y-42925000D02*
X19975000Y-46320000D01*
X20550000Y-47499569D02*
X20550000Y-51000431D01*
%TO.N,LED_S4_M1*%
D44*
X6960000Y-9815000D02*
X6500000Y-9815000D01*
X8700000Y-7800000D02*
X8700000Y-8735000D01*
X7620000Y-9815000D02*
X6960000Y-9815000D01*
X8865000Y-7635000D02*
X8700000Y-7800000D01*
X8700000Y-8735000D02*
X7620000Y-9815000D01*
X10450000Y-7635000D02*
X8865000Y-7635000D01*
%TO.N,LED_S5_M1*%
X39175000Y-24000000D02*
X39770000Y-24000000D01*
X41950000Y-21820000D02*
X43225000Y-21820000D01*
X39770000Y-24000000D02*
X41950000Y-21820000D01*
%TO.N,LED_S4_A*%
X4492000Y-11822000D02*
X9072000Y-11822000D01*
X11750000Y-14500000D02*
X14320000Y-14500000D01*
X4500000Y-11814000D02*
X4492000Y-11822000D01*
X4665000Y-7635000D02*
X4500000Y-7800000D01*
X6500000Y-7635000D02*
X4665000Y-7635000D01*
X9072000Y-11822000D02*
X11750000Y-14500000D01*
X4500000Y-7800000D02*
X4500000Y-11814000D01*
%TO.N,VBUS_L*%
X27040000Y-36250000D02*
X36250000Y-36250000D01*
X42000000Y-42000000D02*
X42000000Y-54900000D01*
X36250000Y-36250000D02*
X42000000Y-42000000D01*
X25590000Y-37700000D02*
X27040000Y-36250000D01*
X23050000Y-37700000D02*
X25590000Y-37700000D01*
%TO.N,V15_FUSED*%
X9100000Y-27750000D02*
X10749999Y-26100000D01*
X10749999Y-26100000D02*
X10750000Y-26100000D01*
X44500000Y-37500000D02*
X42500000Y-35500000D01*
X10750000Y-26100000D02*
X10750000Y-25750000D01*
X44500000Y-46000000D02*
X44500000Y-37500000D01*
X10750000Y-25750000D02*
X17750000Y-25750000D01*
X42000000Y-57800000D02*
X42000000Y-56250000D01*
%TO.N,NRST*%
D10*
X34979000Y-52850000D02*
X35154000Y-53025000D01*
X36254000Y-51647182D02*
X36254000Y-50275000D01*
X36279000Y-50250000D02*
X38000000Y-50250000D01*
X35554000Y-52347182D02*
X36254000Y-51647182D01*
X36254000Y-50275000D02*
X36279000Y-50250000D01*
X35154000Y-53225000D02*
X35554000Y-53625000D01*
X35554000Y-53625000D02*
X35554000Y-52347182D01*
X33000000Y-52850000D02*
X34979000Y-52850000D01*
X35154000Y-53025000D02*
X35154000Y-53225000D01*
%TO.N,PWM_DIM*%
X27260000Y-51550000D02*
X25929000Y-51550000D01*
X25929000Y-51550000D02*
X24254000Y-53225000D01*
%TO.N,ATT*%
D45*
X31000000Y-39000000D02*
X31700000Y-39700000D01*
D10*
X25654000Y-52625000D02*
X26079000Y-52200000D01*
X26079000Y-52200000D02*
X27260000Y-52200000D01*
D45*
X31700000Y-39700000D02*
X31950000Y-39700000D01*
%TO.N,SWDIO*%
X26060000Y-54810000D02*
X25750000Y-54500000D01*
X21000000Y-46500000D02*
X23000000Y-46500000D01*
X27260000Y-54810000D02*
X26060000Y-54810000D01*
%TO.N,SWCLK*%
X38250000Y-48386000D02*
X38250000Y-49250000D01*
X25290000Y-55460000D02*
X27260000Y-55460000D01*
X30950000Y-48450000D02*
X33050000Y-48450000D01*
X34700000Y-46800000D02*
X36664000Y-46800000D01*
X25250000Y-55500000D02*
X25290000Y-55460000D01*
X25145500Y-53604500D02*
X25145500Y-55395500D01*
X25145500Y-55395500D02*
X25250000Y-55500000D01*
X33050000Y-48450000D02*
X34700000Y-46800000D01*
X25250000Y-53500000D02*
X25145500Y-53604500D01*
X36664000Y-46800000D02*
X38250000Y-48386000D01*
X25592173Y-53500000D02*
X25250000Y-53500000D01*
X30150000Y-49250000D02*
X30950000Y-48450000D01*
%TO.N,LED_S3_M2*%
D44*
X43895000Y-32625000D02*
X46075000Y-30445000D01*
X43300000Y-32625000D02*
X43895000Y-32625000D01*
X46075000Y-30445000D02*
X47350000Y-30445000D01*
%TO.N,LED_S3_M1*%
X39845000Y-32625000D02*
X39250000Y-32625000D01*
X42025000Y-30445000D02*
X39845000Y-32625000D01*
X43300000Y-30445000D02*
X42025000Y-30445000D01*
%TO.N,CTRL*%
D46*
X19500000Y-50200000D02*
X19375000Y-50325000D01*
D44*
X17300000Y-49925000D02*
X17300000Y-51500000D01*
D46*
X18475000Y-50325000D02*
X17125000Y-51675000D01*
X22254000Y-54671000D02*
X21625000Y-55300000D01*
X21625000Y-55300000D02*
X21625000Y-57775000D01*
X19375000Y-50325000D02*
X18475000Y-50325000D01*
X22254000Y-53225000D02*
X22254000Y-54671000D01*
X17785000Y-53200000D02*
X17785000Y-52335000D01*
X17785000Y-52335000D02*
X17125000Y-51675000D01*
X21625000Y-57775000D02*
X21000000Y-58400000D01*
D44*
X17300000Y-51500000D02*
X17125000Y-51675000D01*
%TO.N,LED_S8_M2*%
X17225000Y-32950000D02*
X17820000Y-32950000D01*
X20000000Y-30770000D02*
X21275000Y-30770000D01*
X17820000Y-32950000D02*
X20000000Y-30770000D01*
%TO.N,LED_S8_M1*%
X13770000Y-32950000D02*
X15950000Y-30770000D01*
X15950000Y-30770000D02*
X17225000Y-30770000D01*
X13175000Y-32950000D02*
X13770000Y-32950000D01*
%TO.N,LED_S1_M2*%
X55565000Y-47635000D02*
X56030000Y-48100000D01*
X56030000Y-48100000D02*
X56030000Y-51530000D01*
X56030000Y-51530000D02*
X55880000Y-51680000D01*
X52105000Y-51680000D02*
X50240000Y-49815000D01*
X54290000Y-47635000D02*
X55565000Y-47635000D01*
X55880000Y-51680000D02*
X52105000Y-51680000D01*
%TO.N,LED_S7_M1*%
X6190000Y-49815000D02*
X6785000Y-49815000D01*
X6785000Y-49815000D02*
X8965000Y-47635000D01*
X8965000Y-47635000D02*
X10240000Y-47635000D01*
%TO.N,LED_S1_M1*%
X50240000Y-47635000D02*
X49260000Y-47635000D01*
X49260000Y-47635000D02*
X47080000Y-49815000D01*
X47080000Y-49815000D02*
X46190000Y-49815000D01*
%TO.N,LED_S6_A*%
X6000000Y-22000000D02*
X6000000Y-25750000D01*
X6000000Y-25750000D02*
X6325000Y-26075000D01*
X7250000Y-20750000D02*
X6250000Y-21750000D01*
X4500000Y-26320000D02*
X6325000Y-26320000D01*
X6325000Y-26075000D02*
X6325000Y-26320000D01*
X7500000Y-20750000D02*
X7250000Y-20750000D01*
X13700000Y-21595000D02*
X12855000Y-20750000D01*
X12855000Y-20750000D02*
X7500000Y-20750000D01*
X6250000Y-21750000D02*
X6000000Y-22000000D01*
%TO.N,LED_S8_A*%
X4750000Y-29750000D02*
X4500000Y-29500000D01*
X13175000Y-30770000D02*
X11900000Y-30770000D01*
X11900000Y-30770000D02*
X12000000Y-30869999D01*
X4500000Y-29500000D02*
X4500000Y-29180000D01*
X12000000Y-30869999D02*
X12000000Y-31000000D01*
%TO.N,LED_S6_M1*%
X16475000Y-21595000D02*
X17750000Y-21595000D01*
X14295000Y-23775000D02*
X16475000Y-21595000D01*
X13700000Y-23775000D02*
X14295000Y-23775000D01*
%TO.N,LED_S7_M2*%
X10835000Y-49815000D02*
X13015000Y-47635000D01*
X10240000Y-49815000D02*
X10835000Y-49815000D01*
X13015000Y-47635000D02*
X14290000Y-47635000D01*
%TO.N,BRIGHT_WIPER*%
D45*
X23250000Y-58500000D02*
X23000000Y-58750000D01*
X34500000Y-50750000D02*
X34500000Y-51500000D01*
X23000000Y-58750000D02*
X22800000Y-58750000D01*
X35250000Y-47500000D02*
X35250000Y-50000000D01*
X35250000Y-50000000D02*
X34500000Y-50750000D01*
%TD*%
M02*
