%TF.GenerationSoftware,KiCad,Pcbnew,10.0.0*%
%TF.CreationDate,2026-09-19T05:49:36+09:00*%
%TF.ProjectId,board-l,626f6172-642d-46c2-9e6b-696361645f70,rev?*%
%TF.SameCoordinates,Original*%
%TF.FileFunction,Copper,L2,Bot*%
%TF.FilePolarity,Positive*%
%FSLAX46Y46*%
G04 Gerber Fmt 4.6, Leading zero omitted, Abs format (unit mm)*
G04 Created by KiCad (PCBNEW 10.0.0) date 2026-09-19 05:49:36*
%MOMM*%
%LPD*%
G01*
G04 APERTURE LIST*
%TA.AperFunction,ComponentPad*%
%ADD10C,2.250000*%
%TD*%
%TA.AperFunction,ComponentPad*%
%ADD11C,1.600000*%
%TD*%
%TA.AperFunction,ComponentPad*%
%ADD12O,1.600000X2.200000*%
%TD*%
%TA.AperFunction,ComponentPad*%
%ADD13R,1.700000X1.700000*%
%TD*%
%TA.AperFunction,ComponentPad*%
%ADD14C,1.700000*%
%TD*%
%TA.AperFunction,ComponentPad*%
%ADD15R,1.800000X1.800000*%
%TD*%
%TA.AperFunction,ViaPad*%
%ADD16C,0.800000*%
%TD*%
%TA.AperFunction,ViaPad*%
%ADD17C,0.500000*%
%TD*%
%TA.AperFunction,ViaPad*%
%ADD18C,1.500000*%
%TD*%
%TA.AperFunction,ViaPad*%
%ADD19C,1.200000*%
%TD*%
%TA.AperFunction,Conductor*%
%ADD20C,0.700000*%
%TD*%
%TA.AperFunction,Conductor*%
%ADD21C,0.250000*%
%TD*%
%TA.AperFunction,Conductor*%
%ADD22C,0.200000*%
%TD*%
%TA.AperFunction,Conductor*%
%ADD23C,0.400000*%
%TD*%
G04 APERTURE END LIST*
D10*
%TO.P,SW2,1,1*%
%TO.N,V15*%
X9100000Y-30250000D03*
%TO.P,SW2,2,2*%
%TO.N,V15_FUSED*%
X9100000Y-27750000D03*
%TO.P,SW2,3,3*%
%TO.N,unconnected-(SW2-Pad3)*%
X9100000Y-25250000D03*
%TD*%
D11*
%TO.P,RV1,1,LOW*%
%TO.N,GND*%
X47900000Y-4500000D03*
%TO.P,RV1,2,WIPER*%
%TO.N,BRIGHT_WIPER*%
X51900000Y-4500000D03*
%TO.P,RV1,3,HIGH*%
%TO.N,V3P3*%
X55900000Y-4500000D03*
%TO.P,RV1,MP1,DUMMY*%
%TO.N,unconnected-(RV1-DUMMY-PadMP1)*%
X49900000Y-4500000D03*
%TO.P,RV1,MP2,DUMMY*%
%TO.N,unconnected-(RV1-DUMMY-PadMP2)*%
X53900000Y-4500000D03*
D12*
%TO.P,RV1,MP3,SUPPORT*%
%TO.N,unconnected-(RV1-SUPPORT-PadMP3)*%
X56900000Y-14500000D03*
%TO.P,RV1,MP4,SUPPORT*%
%TO.N,unconnected-(RV1-SUPPORT-PadMP4)*%
X46900000Y-14500000D03*
%TD*%
D13*
%TO.P,J3,1,1_1*%
%TO.N,SWDIO*%
X57950000Y-24395000D03*
D14*
%TO.P,J3,2,2_2*%
%TO.N,SWCLK*%
X57950000Y-26935000D03*
%TO.P,J3,3,3_3*%
%TO.N,NRST*%
X57950000Y-29475000D03*
%TO.P,J3,4,4_4*%
%TO.N,V3P3*%
X57950000Y-32015000D03*
%TO.P,J3,5,5_5*%
%TO.N,GND*%
X57950000Y-34555000D03*
%TD*%
D15*
%TO.P,J2,1,1_1*%
%TO.N,VBUS_L*%
X23050000Y-37700000D03*
D11*
%TO.P,J2,2,2_2*%
X25590000Y-37700000D03*
%TO.P,J2,3,3_3*%
%TO.N,ATT*%
X28130000Y-37700000D03*
%TO.P,J2,4,4_4*%
%TO.N,PDOK*%
X30670000Y-37700000D03*
%TO.P,J2,5,5_5*%
%TO.N,GND*%
X33210000Y-37700000D03*
%TO.P,J2,6,6_6*%
X35750000Y-37700000D03*
%TD*%
D16*
%TO.N,LED_S2_A*%
X44250000Y-7250000D03*
X37000000Y-10750000D03*
D17*
%TO.N,UART_TX*%
X34000000Y-49500000D03*
X34500000Y-55500000D03*
%TO.N,UART_RX*%
X33250000Y-49250000D03*
X31250000Y-58500000D03*
%TO.N,GND*%
X29500000Y-51000000D03*
X30500000Y-52000000D03*
X26000000Y-46000000D03*
D18*
X53500000Y-57750000D03*
D17*
X29500000Y-55000000D03*
X30250000Y-26000000D03*
X29500000Y-52000000D03*
X30500000Y-51000000D03*
X53500000Y-41000000D03*
X30500000Y-55000000D03*
X18825000Y-51650000D03*
X55250000Y-29500000D03*
D19*
X18325000Y-47425000D03*
D17*
X25000000Y-42500000D03*
X29500000Y-54000000D03*
X29500000Y-53000000D03*
X30500000Y-54000000D03*
X21500000Y-28000000D03*
X15500000Y-27000000D03*
X39500000Y-57000000D03*
X30500000Y-53000000D03*
X34125000Y-53500000D03*
X22000000Y-27750000D03*
X21000000Y-52000000D03*
X16000000Y-54000000D03*
X46000000Y-56500000D03*
X27500000Y-44750000D03*
%TO.N,V3P3*%
X22254000Y-49225000D03*
X56250000Y-11750000D03*
X36254000Y-55000000D03*
D18*
%TO.N,LED_N*%
X32500000Y-22500000D03*
X27500000Y-22500000D03*
D17*
%TO.N,V15*%
X21000000Y-41500000D03*
D18*
X54750000Y-53000000D03*
X43500000Y-50500000D03*
D17*
X42000000Y-36500000D03*
%TO.N,BRIGHT_ADC*%
X36750000Y-49000000D03*
X39750000Y-50500000D03*
X39500000Y-47000000D03*
X22500000Y-57750000D03*
X20250000Y-42000000D03*
X22750000Y-55750000D03*
%TO.N,BST*%
X40100000Y-51700000D03*
X38309968Y-54432661D03*
%TO.N,NTC_SENSE*%
X28150000Y-47075000D03*
X42050000Y-38550000D03*
X37000000Y-55000000D03*
X25854000Y-49225000D03*
%TO.N,PDOK*%
X26750000Y-47250000D03*
D16*
%TO.N,V15_FUSED*%
X42500000Y-35500000D03*
X44500000Y-46000000D03*
X42000000Y-56250000D03*
X17750000Y-25750000D03*
D17*
%TO.N,NRST*%
X38000000Y-50250000D03*
%TO.N,ATT*%
X31000000Y-39000000D03*
X25654000Y-52625000D03*
%TO.N,SWDIO*%
X21000000Y-46500000D03*
X23000000Y-46500000D03*
X25750000Y-54500000D03*
%TO.N,SWCLK*%
X30150000Y-49250000D03*
X25592173Y-53500000D03*
X38250000Y-49250000D03*
D18*
%TO.N,CTRL*%
X17125000Y-51675000D03*
X21625000Y-55300000D03*
D16*
%TO.N,LED_S8_A*%
X4750000Y-29750000D03*
X12000000Y-31000000D03*
D17*
%TO.N,BRIGHT_WIPER*%
X23250000Y-58500000D03*
X35250000Y-47500000D03*
X34500000Y-51500000D03*
%TD*%
%TO.N,LED_S2_A*%
D20*
X37000000Y-10750000D02*
X40500000Y-7250000D01*
X44250000Y-7250000D02*
X43750000Y-7250000D01*
X40500000Y-7250000D02*
X43750000Y-7250000D01*
%TO.N,UART_TX*%
D21*
X35675000Y-54325000D02*
X35675000Y-51175000D01*
X34500000Y-55500000D02*
X35675000Y-54325000D01*
X35675000Y-51175000D02*
X34000000Y-49500000D01*
%TO.N,UART_RX*%
X35225000Y-51361396D02*
X35225000Y-54138604D01*
X33761827Y-50075000D02*
X33938604Y-50075000D01*
X33425000Y-49425000D02*
X33425000Y-49738173D01*
X33925000Y-55738173D02*
X33968413Y-55781587D01*
X34438604Y-54925000D02*
X34261827Y-54925000D01*
X33968413Y-55781587D02*
X31250000Y-58500000D01*
X33925000Y-55261827D02*
X33925000Y-55738173D01*
X35225000Y-54138604D02*
X34438604Y-54925000D01*
X33938604Y-50075000D02*
X35225000Y-51361396D01*
X34261827Y-54925000D02*
X33925000Y-55261827D01*
X33425000Y-49738173D02*
X33761827Y-50075000D01*
X33250000Y-49250000D02*
X33425000Y-49425000D01*
%TO.N,GND*%
X56250000Y-3250000D02*
X57250000Y-3250000D01*
X29500000Y-26750000D02*
X29500000Y-27750000D01*
X26000000Y-43500000D02*
X26000000Y-46000000D01*
X29500000Y-27750000D02*
X22000000Y-27750000D01*
X25000000Y-42500000D02*
X26000000Y-43500000D01*
X57250000Y-12000000D02*
X55250000Y-14000000D01*
X49150000Y-3250000D02*
X56250000Y-3250000D01*
X33210000Y-39040000D02*
X33210000Y-37700000D01*
X57250000Y-3250000D02*
X57250000Y-12000000D01*
X55250000Y-14000000D02*
X55250000Y-29500000D01*
X47900000Y-4500000D02*
X49150000Y-3250000D01*
X27500000Y-44750000D02*
X33210000Y-39040000D01*
X30250000Y-26000000D02*
X29500000Y-26750000D01*
%TO.N,V3P3*%
D22*
X23179000Y-48300000D02*
X22254000Y-49225000D01*
X37227818Y-55550000D02*
X37550000Y-55227818D01*
D21*
X57935000Y-32000000D02*
X57256497Y-32000000D01*
D22*
X36254000Y-55000000D02*
X36254000Y-55031818D01*
D21*
X55900000Y-4500000D02*
X56250000Y-4850000D01*
X56250000Y-4850000D02*
X56250000Y-11750000D01*
D22*
X34143503Y-48300000D02*
X23179000Y-48300000D01*
X37550000Y-51706497D02*
X34143503Y-48300000D01*
D21*
X57256497Y-32000000D02*
X37550000Y-51706497D01*
D22*
X37550000Y-55227818D02*
X37550000Y-51706497D01*
X36772182Y-55550000D02*
X37227818Y-55550000D01*
X36254000Y-55031818D02*
X36772182Y-55550000D01*
D21*
X57950000Y-32015000D02*
X57935000Y-32000000D01*
%TO.N,LED_N*%
D20*
X32500000Y-22500000D02*
X27500000Y-22500000D01*
%TO.N,V15*%
X21000000Y-37840811D02*
X21000000Y-41500000D01*
X42000000Y-36500000D02*
X41500000Y-36000000D01*
X9100000Y-30250000D02*
X9350000Y-30000000D01*
X21000000Y-35420000D02*
X21000000Y-41500000D01*
X17450000Y-34950000D02*
X21000000Y-34950000D01*
X21000000Y-36000000D02*
X21000000Y-37840811D01*
X28854873Y-35950000D02*
X27405126Y-35950000D01*
X12500000Y-30000000D02*
X17450000Y-34950000D01*
X54250000Y-52500000D02*
X54750000Y-53000000D01*
X28904873Y-36000000D02*
X28854873Y-35950000D01*
X27405126Y-35950000D02*
X27355126Y-36000000D01*
X9350000Y-30000000D02*
X12500000Y-30000000D01*
X21000000Y-34950000D02*
X21000000Y-35420000D01*
X43500000Y-50500000D02*
X45500000Y-52500000D01*
X41500000Y-36000000D02*
X28904873Y-36000000D01*
X27355126Y-36000000D02*
X22840811Y-36000000D01*
X45500000Y-52500000D02*
X54250000Y-52500000D01*
X22840811Y-36000000D02*
X21000000Y-36000000D01*
%TO.N,BRIGHT_ADC*%
D21*
X31500000Y-59250000D02*
X40750000Y-59250000D01*
X22500000Y-57750000D02*
X22500000Y-59250000D01*
X31500000Y-59250000D02*
X40750000Y-59250000D01*
X40750000Y-51500000D02*
X39750000Y-50500000D01*
X22750000Y-55750000D02*
X22750000Y-52500000D01*
X40750000Y-59250000D02*
X40750000Y-51500000D01*
X38750000Y-47000000D02*
X36750000Y-49000000D01*
X40750000Y-51500000D02*
X39750000Y-50500000D01*
X20500000Y-50250000D02*
X20250000Y-50000000D01*
X20250000Y-50000000D02*
X20250000Y-42000000D01*
X22500000Y-57750000D02*
X22500000Y-59250000D01*
X39500000Y-47000000D02*
X38750000Y-47000000D01*
X39500000Y-47000000D02*
X38750000Y-47000000D01*
X40750000Y-59250000D02*
X40750000Y-51500000D01*
X22500000Y-59250000D02*
X31500000Y-59250000D01*
X38750000Y-47000000D02*
X36750000Y-49000000D01*
X22750000Y-52500000D02*
X20500000Y-50250000D01*
X22500000Y-59250000D02*
X31500000Y-59250000D01*
%TO.N,BST*%
D23*
X40100000Y-51700000D02*
X40100000Y-52700000D01*
X40100000Y-52700000D02*
X38400000Y-54400000D01*
%TO.N,NTC_SENSE*%
D22*
X37000000Y-51722182D02*
X33977818Y-48700000D01*
X33977818Y-48700000D02*
X26379000Y-48700000D01*
X26379000Y-48700000D02*
X25854000Y-49225000D01*
X42000000Y-38550000D02*
X42050000Y-38550000D01*
X37000000Y-55000000D02*
X37000000Y-51722182D01*
X38150000Y-42400000D02*
X42000000Y-38550000D01*
X28150000Y-47075000D02*
X32825000Y-42400000D01*
X42050000Y-38550000D02*
X42125000Y-38550000D01*
X32825000Y-42400000D02*
X38150000Y-42400000D01*
%TO.N,PDOK*%
D21*
X30670000Y-37700000D02*
X31750000Y-38780000D01*
X26750000Y-44250000D02*
X26750000Y-47250000D01*
X31750000Y-38780000D02*
X31750000Y-39250000D01*
X31750000Y-39250000D02*
X26750000Y-44250000D01*
%TO.N,V15_FUSED*%
D20*
X42000000Y-48500000D02*
X44500000Y-46000000D01*
X24750000Y-24000000D02*
X19000000Y-24000000D01*
X42000000Y-56250000D02*
X42000000Y-48500000D01*
X42500000Y-35500000D02*
X31000000Y-24000000D01*
X17750000Y-25750000D02*
X19000000Y-24500000D01*
X19000000Y-24500000D02*
X19000000Y-24000000D01*
X31000000Y-24000000D02*
X24750000Y-24000000D01*
%TO.N,NRST*%
D21*
X56750000Y-31870101D02*
X38370101Y-50250000D01*
X57950000Y-29510000D02*
X56750000Y-30710000D01*
X38370101Y-50250000D02*
X38000000Y-50250000D01*
X56750000Y-30710000D02*
X56750000Y-31870101D01*
X57950000Y-29475000D02*
X57950000Y-29510000D01*
%TO.N,ATT*%
X22250000Y-43580000D02*
X22250000Y-48250000D01*
X28130000Y-37700000D02*
X22250000Y-43580000D01*
X21500000Y-49000000D02*
X21500000Y-49500000D01*
X24625000Y-52625000D02*
X25654000Y-52625000D01*
X21500000Y-49500000D02*
X24625000Y-52625000D01*
X29429999Y-39000000D02*
X31000000Y-39000000D01*
X22250000Y-48250000D02*
X21500000Y-49000000D01*
X28130000Y-37700000D02*
X29429999Y-39000000D01*
%TO.N,SWDIO*%
X25750000Y-54500000D02*
X21000000Y-49750000D01*
X57950000Y-24430000D02*
X57950000Y-24395000D01*
X37000000Y-49750000D02*
X37000000Y-49686827D01*
X38013173Y-48673654D02*
X38673655Y-48673654D01*
X37000000Y-49686827D02*
X38013173Y-48673654D01*
X56500000Y-25880000D02*
X57950000Y-24430000D01*
X56500000Y-27750000D02*
X56500000Y-25880000D01*
X25250000Y-47682827D02*
X25250000Y-47875000D01*
X38673655Y-48673654D02*
X55850000Y-31497309D01*
X21000000Y-49750000D02*
X21000000Y-46500000D01*
X34319543Y-47875000D02*
X34444544Y-48000000D01*
X25250000Y-47875000D02*
X34319543Y-47875000D01*
X34750000Y-48000000D02*
X36750000Y-50000000D01*
X23000000Y-46500000D02*
X24067173Y-46500000D01*
X24067173Y-46500000D02*
X25250000Y-47682827D01*
X55850000Y-28400000D02*
X56500000Y-27750000D01*
X34444544Y-48000000D02*
X34750000Y-48000000D01*
X55850000Y-31497309D02*
X55850000Y-28400000D01*
X36750000Y-50000000D02*
X37000000Y-49750000D01*
%TO.N,SWCLK*%
X57950000Y-26935000D02*
X57950000Y-26970000D01*
X30150000Y-49250000D02*
X26750000Y-49250000D01*
X26750000Y-52342173D02*
X25592173Y-53500000D01*
X56300000Y-31683705D02*
X38733705Y-49250000D01*
X57950000Y-26970000D02*
X56300000Y-28620000D01*
X38733705Y-49250000D02*
X38250000Y-49250000D01*
X56300000Y-28620000D02*
X56300000Y-31683705D01*
X26750000Y-49250000D02*
X26750000Y-52342173D01*
%TO.N,CTRL*%
D23*
X20750000Y-55300000D02*
X21625000Y-55300000D01*
X17125000Y-51675000D02*
X20750000Y-55300000D01*
%TO.N,LED_S8_A*%
D20*
X12250000Y-34750000D02*
X7500000Y-34750000D01*
X4750000Y-34750000D02*
X4750000Y-29750000D01*
X12250000Y-31250000D02*
X12250000Y-33250000D01*
X12000000Y-31000000D02*
X12250000Y-31250000D01*
X12250000Y-33250000D02*
X12250000Y-34750000D01*
X7500000Y-34750000D02*
X4750000Y-34750000D01*
%TO.N,BRIGHT_WIPER*%
D21*
X30750000Y-55750000D02*
X28000000Y-58500000D01*
X51900000Y-4500000D02*
X51900000Y-30850000D01*
X28000000Y-58500000D02*
X23250000Y-58500000D01*
X34500000Y-52000000D02*
X30750000Y-55750000D01*
X34500000Y-51500000D02*
X34500000Y-52000000D01*
X51900000Y-30850000D02*
X35250000Y-47500000D01*
%TD*%
%TA.AperFunction,Conductor*%
%TO.N,GND*%
G36*
X59442539Y-520185D02*
G01*
X59488294Y-572989D01*
X59499500Y-624500D01*
X59499500Y-23300951D01*
X59479815Y-23367990D01*
X59427011Y-23413745D01*
X59357853Y-23423689D01*
X59294297Y-23394664D01*
X59259318Y-23344284D01*
X59243797Y-23302671D01*
X59243793Y-23302664D01*
X59157547Y-23187455D01*
X59157544Y-23187452D01*
X59042335Y-23101206D01*
X59042328Y-23101202D01*
X58907482Y-23050908D01*
X58907483Y-23050908D01*
X58847883Y-23044501D01*
X58847881Y-23044500D01*
X58847873Y-23044500D01*
X58847864Y-23044500D01*
X57052129Y-23044500D01*
X57052123Y-23044501D01*
X56992516Y-23050908D01*
X56857671Y-23101202D01*
X56857664Y-23101206D01*
X56742455Y-23187452D01*
X56742452Y-23187455D01*
X56656206Y-23302664D01*
X56656202Y-23302671D01*
X56605908Y-23437517D01*
X56599501Y-23497116D01*
X56599500Y-23497135D01*
X56599500Y-24844546D01*
X56579815Y-24911585D01*
X56563180Y-24932227D01*
X56101269Y-25394140D01*
X56101267Y-25394142D01*
X56065789Y-25429620D01*
X56014141Y-25481267D01*
X56000341Y-25501919D01*
X56000342Y-25501920D01*
X55945689Y-25583712D01*
X55945685Y-25583719D01*
X55913548Y-25661307D01*
X55898538Y-25697543D01*
X55898538Y-25697545D01*
X55898537Y-25697548D01*
X55882147Y-25779949D01*
X55874500Y-25818396D01*
X55874500Y-27439547D01*
X55854815Y-27506586D01*
X55838181Y-27527228D01*
X55364143Y-28001265D01*
X55364141Y-28001267D01*
X55355744Y-28013835D01*
X55355741Y-28013840D01*
X55352603Y-28018537D01*
X55295688Y-28103714D01*
X55262347Y-28184207D01*
X55259850Y-28190233D01*
X55259850Y-28190235D01*
X55248537Y-28217545D01*
X55248535Y-28217553D01*
X55224500Y-28338389D01*
X55224500Y-31186857D01*
X55204815Y-31253896D01*
X55188181Y-31274538D01*
X40090690Y-46372028D01*
X40029367Y-46405513D01*
X39959675Y-46400529D01*
X39934119Y-46387450D01*
X39855499Y-46334918D01*
X39855488Y-46334912D01*
X39718917Y-46278343D01*
X39718907Y-46278340D01*
X39573920Y-46249500D01*
X39573918Y-46249500D01*
X39426082Y-46249500D01*
X39426080Y-46249500D01*
X39281092Y-46278340D01*
X39281082Y-46278343D01*
X39144510Y-46334913D01*
X39144506Y-46334915D01*
X39144505Y-46334916D01*
X39116537Y-46353603D01*
X39049863Y-46374480D01*
X39047649Y-46374500D01*
X38688389Y-46374500D01*
X38632301Y-46385656D01*
X38632290Y-46385658D01*
X38627971Y-46386518D01*
X38567548Y-46398537D01*
X38540077Y-46409916D01*
X38532895Y-46412890D01*
X38532887Y-46412893D01*
X38453713Y-46445688D01*
X38453708Y-46445690D01*
X38351272Y-46514138D01*
X38351264Y-46514144D01*
X38264139Y-46601270D01*
X36627565Y-48237843D01*
X36566242Y-48271328D01*
X36564077Y-48271779D01*
X36531090Y-48278340D01*
X36531084Y-48278342D01*
X36394511Y-48334912D01*
X36394498Y-48334919D01*
X36271584Y-48417048D01*
X36271580Y-48417051D01*
X36249292Y-48439340D01*
X36187969Y-48472825D01*
X36118277Y-48467841D01*
X36073930Y-48439340D01*
X35810659Y-48176069D01*
X35777174Y-48114746D01*
X35782158Y-48045054D01*
X35810658Y-48000708D01*
X35832951Y-47978416D01*
X35915084Y-47855495D01*
X35971658Y-47718913D01*
X35978220Y-47685921D01*
X36010603Y-47624012D01*
X36012098Y-47622490D01*
X52298729Y-31335860D01*
X52298733Y-31335858D01*
X52385858Y-31248733D01*
X52454311Y-31146286D01*
X52454312Y-31146285D01*
X52454313Y-31146282D01*
X52454315Y-31146279D01*
X52454315Y-31146277D01*
X52501462Y-31032453D01*
X52501465Y-31032444D01*
X52504077Y-31019308D01*
X52506668Y-31006286D01*
X52525500Y-30911606D01*
X52525500Y-14097648D01*
X55599500Y-14097648D01*
X55599500Y-14902351D01*
X55631522Y-15104534D01*
X55694781Y-15299223D01*
X55787715Y-15481613D01*
X55908028Y-15647213D01*
X56052786Y-15791971D01*
X56207749Y-15904556D01*
X56218390Y-15912287D01*
X56334607Y-15971503D01*
X56400776Y-16005218D01*
X56400778Y-16005218D01*
X56400781Y-16005220D01*
X56505137Y-16039127D01*
X56595465Y-16068477D01*
X56696557Y-16084488D01*
X56797648Y-16100500D01*
X56797649Y-16100500D01*
X57002351Y-16100500D01*
X57002352Y-16100500D01*
X57204534Y-16068477D01*
X57399219Y-16005220D01*
X57581610Y-15912287D01*
X57674590Y-15844732D01*
X57747213Y-15791971D01*
X57747215Y-15791968D01*
X57747219Y-15791966D01*
X57891966Y-15647219D01*
X57891968Y-15647215D01*
X57891971Y-15647213D01*
X57944732Y-15574590D01*
X58012287Y-15481610D01*
X58105220Y-15299219D01*
X58168477Y-15104534D01*
X58200500Y-14902352D01*
X58200500Y-14097648D01*
X58168477Y-13895466D01*
X58105220Y-13700781D01*
X58105218Y-13700778D01*
X58105218Y-13700776D01*
X58071503Y-13634607D01*
X58012287Y-13518390D01*
X58004556Y-13507749D01*
X57891971Y-13352786D01*
X57747213Y-13208028D01*
X57581613Y-13087715D01*
X57581612Y-13087714D01*
X57581610Y-13087713D01*
X57524653Y-13058691D01*
X57399223Y-12994781D01*
X57204534Y-12931522D01*
X57029995Y-12903878D01*
X57002352Y-12899500D01*
X56797648Y-12899500D01*
X56773329Y-12903351D01*
X56595465Y-12931522D01*
X56400776Y-12994781D01*
X56218386Y-13087715D01*
X56052786Y-13208028D01*
X55908028Y-13352786D01*
X55787715Y-13518386D01*
X55694781Y-13700776D01*
X55631522Y-13895465D01*
X55599500Y-14097648D01*
X52525500Y-14097648D01*
X52525500Y-5716114D01*
X52545185Y-5649075D01*
X52578575Y-5616398D01*
X52577668Y-5615150D01*
X52581605Y-5612289D01*
X52581610Y-5612287D01*
X52747219Y-5491966D01*
X52812319Y-5426866D01*
X52873642Y-5393381D01*
X52943334Y-5398365D01*
X52987681Y-5426866D01*
X53052786Y-5491971D01*
X53173226Y-5579474D01*
X53218390Y-5612287D01*
X53334607Y-5671503D01*
X53400776Y-5705218D01*
X53400778Y-5705218D01*
X53400781Y-5705220D01*
X53505137Y-5739127D01*
X53595465Y-5768477D01*
X53696557Y-5784488D01*
X53797648Y-5800500D01*
X53797649Y-5800500D01*
X54002351Y-5800500D01*
X54002352Y-5800500D01*
X54204534Y-5768477D01*
X54399219Y-5705220D01*
X54581610Y-5612287D01*
X54678446Y-5541932D01*
X54747213Y-5491971D01*
X54747215Y-5491968D01*
X54747219Y-5491966D01*
X54812319Y-5426866D01*
X54873642Y-5393381D01*
X54943334Y-5398365D01*
X54987681Y-5426866D01*
X55052786Y-5491971D01*
X55173226Y-5579474D01*
X55218390Y-5612287D01*
X55400781Y-5705220D01*
X55531965Y-5747844D01*
X55538818Y-5750071D01*
X55596494Y-5789509D01*
X55623692Y-5853867D01*
X55624500Y-5868002D01*
X55624500Y-11297648D01*
X55604815Y-11364687D01*
X55603603Y-11366538D01*
X55584913Y-11394508D01*
X55528343Y-11531082D01*
X55528340Y-11531092D01*
X55499500Y-11676079D01*
X55499500Y-11676082D01*
X55499500Y-11823918D01*
X55499500Y-11823920D01*
X55499499Y-11823920D01*
X55528340Y-11968907D01*
X55528343Y-11968917D01*
X55584912Y-12105488D01*
X55584919Y-12105501D01*
X55667048Y-12228415D01*
X55667051Y-12228419D01*
X55771580Y-12332948D01*
X55771584Y-12332951D01*
X55894498Y-12415080D01*
X55894511Y-12415087D01*
X56031082Y-12471656D01*
X56031087Y-12471658D01*
X56031091Y-12471658D01*
X56031092Y-12471659D01*
X56176079Y-12500500D01*
X56176082Y-12500500D01*
X56323920Y-12500500D01*
X56421462Y-12481096D01*
X56468913Y-12471658D01*
X56605495Y-12415084D01*
X56728416Y-12332951D01*
X56832951Y-12228416D01*
X56915084Y-12105495D01*
X56971658Y-11968913D01*
X57000500Y-11823918D01*
X57000500Y-11676082D01*
X57000500Y-11676079D01*
X56971659Y-11531092D01*
X56971658Y-11531091D01*
X56971658Y-11531087D01*
X56937849Y-11449464D01*
X56915086Y-11394508D01*
X56896397Y-11366538D01*
X56875520Y-11299861D01*
X56875500Y-11297648D01*
X56875500Y-5410173D01*
X56895185Y-5343134D01*
X56899182Y-5337288D01*
X56953757Y-5262169D01*
X57012287Y-5181610D01*
X57105220Y-4999219D01*
X57168477Y-4804534D01*
X57200500Y-4602352D01*
X57200500Y-4397648D01*
X57186144Y-4307008D01*
X57168477Y-4195465D01*
X57116038Y-4034076D01*
X57105220Y-4000781D01*
X57105218Y-4000778D01*
X57105218Y-4000776D01*
X57071503Y-3934607D01*
X57012287Y-3818390D01*
X56980092Y-3774077D01*
X56891971Y-3652786D01*
X56747213Y-3508028D01*
X56581613Y-3387715D01*
X56581612Y-3387714D01*
X56581610Y-3387713D01*
X56524653Y-3358691D01*
X56399223Y-3294781D01*
X56204534Y-3231522D01*
X56029995Y-3203878D01*
X56002352Y-3199500D01*
X55797648Y-3199500D01*
X55773329Y-3203351D01*
X55595465Y-3231522D01*
X55400776Y-3294781D01*
X55218386Y-3387715D01*
X55052786Y-3508028D01*
X55052782Y-3508032D01*
X54987681Y-3573134D01*
X54926358Y-3606619D01*
X54856666Y-3601635D01*
X54812319Y-3573134D01*
X54747213Y-3508028D01*
X54581613Y-3387715D01*
X54581612Y-3387714D01*
X54581610Y-3387713D01*
X54524653Y-3358691D01*
X54399223Y-3294781D01*
X54204534Y-3231522D01*
X54029995Y-3203878D01*
X54002352Y-3199500D01*
X53797648Y-3199500D01*
X53773329Y-3203351D01*
X53595465Y-3231522D01*
X53400776Y-3294781D01*
X53218386Y-3387715D01*
X53052786Y-3508028D01*
X53052782Y-3508032D01*
X52987681Y-3573134D01*
X52926358Y-3606619D01*
X52856666Y-3601635D01*
X52812319Y-3573134D01*
X52747213Y-3508028D01*
X52581613Y-3387715D01*
X52581612Y-3387714D01*
X52581610Y-3387713D01*
X52524653Y-3358691D01*
X52399223Y-3294781D01*
X52204534Y-3231522D01*
X52029995Y-3203878D01*
X52002352Y-3199500D01*
X51797648Y-3199500D01*
X51773329Y-3203351D01*
X51595465Y-3231522D01*
X51400776Y-3294781D01*
X51218386Y-3387715D01*
X51052786Y-3508028D01*
X51052782Y-3508032D01*
X50987681Y-3573134D01*
X50926358Y-3606619D01*
X50856666Y-3601635D01*
X50812319Y-3573134D01*
X50747213Y-3508028D01*
X50581613Y-3387715D01*
X50581612Y-3387714D01*
X50581610Y-3387713D01*
X50524653Y-3358691D01*
X50399223Y-3294781D01*
X50204534Y-3231522D01*
X50029995Y-3203878D01*
X50002352Y-3199500D01*
X49797648Y-3199500D01*
X49773329Y-3203351D01*
X49595465Y-3231522D01*
X49400776Y-3294781D01*
X49218386Y-3387715D01*
X49052786Y-3508028D01*
X48908028Y-3652786D01*
X48787715Y-3818385D01*
X48756978Y-3878711D01*
X48694780Y-4000781D01*
X48694779Y-4000783D01*
X48694778Y-4000786D01*
X48676065Y-4058375D01*
X48645816Y-4107735D01*
X48382961Y-4370590D01*
X48365924Y-4307008D01*
X48300098Y-4192994D01*
X48207006Y-4099902D01*
X48092992Y-4034076D01*
X48029407Y-4017038D01*
X48625922Y-3420524D01*
X48625921Y-3420523D01*
X48581359Y-3388147D01*
X48581350Y-3388141D01*
X48399031Y-3295244D01*
X48204417Y-3232009D01*
X48002317Y-3200000D01*
X47797683Y-3200000D01*
X47595582Y-3232009D01*
X47400968Y-3295244D01*
X47218644Y-3388143D01*
X47174077Y-3420523D01*
X47174077Y-3420524D01*
X47770592Y-4017038D01*
X47707008Y-4034076D01*
X47592994Y-4099902D01*
X47499902Y-4192994D01*
X47434076Y-4307008D01*
X47417038Y-4370591D01*
X46820524Y-3774077D01*
X46820523Y-3774077D01*
X46788143Y-3818644D01*
X46695244Y-4000968D01*
X46632009Y-4195582D01*
X46600000Y-4397682D01*
X46600000Y-4602317D01*
X46632009Y-4804417D01*
X46695244Y-4999031D01*
X46788141Y-5181350D01*
X46788147Y-5181359D01*
X46820523Y-5225921D01*
X46820524Y-5225922D01*
X47417038Y-4629408D01*
X47434076Y-4692992D01*
X47499902Y-4807006D01*
X47592994Y-4900098D01*
X47707008Y-4965924D01*
X47770590Y-4982961D01*
X47174076Y-5579474D01*
X47218650Y-5611859D01*
X47400968Y-5704755D01*
X47595582Y-5767990D01*
X47797683Y-5800000D01*
X48002317Y-5800000D01*
X48204417Y-5767990D01*
X48399031Y-5704755D01*
X48581349Y-5611859D01*
X48625921Y-5579474D01*
X48029408Y-4982961D01*
X48092992Y-4965924D01*
X48207006Y-4900098D01*
X48300098Y-4807006D01*
X48365924Y-4692992D01*
X48382961Y-4629408D01*
X48645816Y-4892263D01*
X48676065Y-4941624D01*
X48694779Y-4999219D01*
X48757939Y-5123176D01*
X48787585Y-5181359D01*
X48787715Y-5181613D01*
X48908028Y-5347213D01*
X49052786Y-5491971D01*
X49173226Y-5579474D01*
X49218390Y-5612287D01*
X49334607Y-5671503D01*
X49400776Y-5705218D01*
X49400778Y-5705218D01*
X49400781Y-5705220D01*
X49505137Y-5739127D01*
X49595465Y-5768477D01*
X49696557Y-5784488D01*
X49797648Y-5800500D01*
X49797649Y-5800500D01*
X50002351Y-5800500D01*
X50002352Y-5800500D01*
X50204534Y-5768477D01*
X50399219Y-5705220D01*
X50581610Y-5612287D01*
X50678446Y-5541932D01*
X50747213Y-5491971D01*
X50747215Y-5491968D01*
X50747219Y-5491966D01*
X50812319Y-5426866D01*
X50873642Y-5393381D01*
X50943334Y-5398365D01*
X50987681Y-5426866D01*
X51052781Y-5491966D01*
X51218390Y-5612287D01*
X51218394Y-5612289D01*
X51222332Y-5615150D01*
X51221111Y-5616829D01*
X51262155Y-5662177D01*
X51274500Y-5716114D01*
X51274500Y-30539547D01*
X51254815Y-30606586D01*
X51238181Y-30627228D01*
X42980045Y-38885363D01*
X42918722Y-38918848D01*
X42849030Y-38913864D01*
X42793097Y-38871992D01*
X42768680Y-38806528D01*
X42770747Y-38773489D01*
X42771656Y-38768916D01*
X42771658Y-38768913D01*
X42800500Y-38623918D01*
X42800500Y-38476082D01*
X42800500Y-38476079D01*
X42771659Y-38331092D01*
X42771658Y-38331091D01*
X42771658Y-38331087D01*
X42770463Y-38328201D01*
X42715087Y-38194511D01*
X42715080Y-38194498D01*
X42632951Y-38071584D01*
X42632948Y-38071580D01*
X42528419Y-37967051D01*
X42528415Y-37967048D01*
X42405501Y-37884919D01*
X42405488Y-37884912D01*
X42268917Y-37828343D01*
X42268907Y-37828340D01*
X42123920Y-37799500D01*
X42123918Y-37799500D01*
X41976082Y-37799500D01*
X41976080Y-37799500D01*
X41831092Y-37828340D01*
X41831082Y-37828343D01*
X41694511Y-37884912D01*
X41694498Y-37884919D01*
X41571584Y-37967048D01*
X41571580Y-37967051D01*
X41467051Y-38071580D01*
X41467048Y-38071584D01*
X41384919Y-38194498D01*
X41384912Y-38194511D01*
X41328343Y-38331082D01*
X41328341Y-38331090D01*
X41325415Y-38345798D01*
X41293028Y-38407708D01*
X41291480Y-38409283D01*
X37937584Y-41763181D01*
X37876261Y-41796666D01*
X37849903Y-41799500D01*
X32745940Y-41799500D01*
X32705019Y-41810464D01*
X32705019Y-41810465D01*
X32667751Y-41820451D01*
X32593214Y-41840423D01*
X32593209Y-41840426D01*
X32456290Y-41919475D01*
X32456282Y-41919481D01*
X32344478Y-42031286D01*
X28071699Y-46304064D01*
X28010376Y-46337549D01*
X28008210Y-46338000D01*
X27931092Y-46353340D01*
X27931084Y-46353342D01*
X27794511Y-46409912D01*
X27794498Y-46409919D01*
X27671584Y-46492048D01*
X27671580Y-46492051D01*
X27587181Y-46576451D01*
X27525858Y-46609936D01*
X27456166Y-46604952D01*
X27400233Y-46563080D01*
X27375816Y-46497616D01*
X27375500Y-46488770D01*
X27375500Y-44560451D01*
X27395185Y-44493412D01*
X27411814Y-44472775D01*
X32148729Y-39735860D01*
X32148733Y-39735858D01*
X32235858Y-39648733D01*
X32304311Y-39546286D01*
X32304312Y-39546285D01*
X32304313Y-39546282D01*
X32304315Y-39546279D01*
X32329341Y-39485858D01*
X32351463Y-39432451D01*
X32375500Y-39311607D01*
X32375500Y-39188393D01*
X32375500Y-38841612D01*
X32375501Y-38841607D01*
X32375501Y-38718394D01*
X32375501Y-38718391D01*
X32355316Y-38616918D01*
X32351463Y-38597549D01*
X32304312Y-38483715D01*
X32254578Y-38409283D01*
X32235859Y-38381268D01*
X32049088Y-38194498D01*
X31972216Y-38117626D01*
X31938733Y-38056306D01*
X31939241Y-38009588D01*
X31937715Y-38009347D01*
X31966383Y-37828343D01*
X31970500Y-37802352D01*
X31970500Y-37597648D01*
X31940000Y-37405081D01*
X31938477Y-37395465D01*
X31892415Y-37253702D01*
X31875220Y-37200781D01*
X31875218Y-37200778D01*
X31875218Y-37200776D01*
X31788608Y-37030795D01*
X31775712Y-36962126D01*
X31801988Y-36897385D01*
X31859095Y-36857128D01*
X31899093Y-36850500D01*
X34521468Y-36850500D01*
X34588507Y-36870185D01*
X34634262Y-36922989D01*
X34644206Y-36992147D01*
X34631953Y-37030795D01*
X34545244Y-37200968D01*
X34482009Y-37395582D01*
X34450000Y-37597682D01*
X34450000Y-37802317D01*
X34482009Y-38004417D01*
X34545244Y-38199031D01*
X34638141Y-38381350D01*
X34638147Y-38381359D01*
X34670523Y-38425921D01*
X34670524Y-38425922D01*
X35258866Y-37837579D01*
X35274749Y-37896855D01*
X35341893Y-38013152D01*
X35436848Y-38108107D01*
X35553145Y-38175251D01*
X35612418Y-38191133D01*
X35024076Y-38779474D01*
X35068650Y-38811859D01*
X35250968Y-38904755D01*
X35445582Y-38967990D01*
X35647683Y-39000000D01*
X35852317Y-39000000D01*
X36054417Y-38967990D01*
X36249031Y-38904755D01*
X36431349Y-38811859D01*
X36475921Y-38779474D01*
X35887580Y-38191133D01*
X35946855Y-38175251D01*
X36063152Y-38108107D01*
X36158107Y-38013152D01*
X36225251Y-37896855D01*
X36241133Y-37837580D01*
X36829474Y-38425921D01*
X36861859Y-38381349D01*
X36954755Y-38199031D01*
X37017990Y-38004417D01*
X37050000Y-37802317D01*
X37050000Y-37597682D01*
X37017990Y-37395582D01*
X36954755Y-37200968D01*
X36868047Y-37030795D01*
X36855151Y-36962126D01*
X36881427Y-36897385D01*
X36938534Y-36857128D01*
X36978532Y-36850500D01*
X41096349Y-36850500D01*
X41163388Y-36870185D01*
X41184030Y-36886819D01*
X41457834Y-37160624D01*
X41457838Y-37160627D01*
X41597133Y-37253702D01*
X41597135Y-37253702D01*
X41597137Y-37253704D01*
X41751919Y-37317816D01*
X41751921Y-37317816D01*
X41751926Y-37317818D01*
X41916228Y-37350499D01*
X41916232Y-37350500D01*
X41916233Y-37350500D01*
X42083768Y-37350500D01*
X42083769Y-37350499D01*
X42138538Y-37339605D01*
X42248073Y-37317818D01*
X42248076Y-37317816D01*
X42248081Y-37317816D01*
X42402863Y-37253704D01*
X42542162Y-37160627D01*
X42660627Y-37042162D01*
X42753704Y-36902863D01*
X42817816Y-36748081D01*
X42850500Y-36583767D01*
X42850500Y-36416233D01*
X42850500Y-36412366D01*
X42870185Y-36345327D01*
X42921275Y-36301057D01*
X42921181Y-36300881D01*
X42921956Y-36300466D01*
X42922989Y-36299572D01*
X42926445Y-36298067D01*
X42926543Y-36298014D01*
X42926547Y-36298013D01*
X43074035Y-36199464D01*
X43199464Y-36074035D01*
X43298013Y-35926547D01*
X43365894Y-35762666D01*
X43368796Y-35748081D01*
X43400499Y-35588695D01*
X43400500Y-35588693D01*
X43400500Y-35411306D01*
X43400499Y-35411304D01*
X43365896Y-35237341D01*
X43365893Y-35237332D01*
X43298016Y-35073459D01*
X43298009Y-35073446D01*
X43199464Y-34925965D01*
X43199461Y-34925961D01*
X43074038Y-34800538D01*
X43074034Y-34800535D01*
X43024290Y-34767297D01*
X42926547Y-34701987D01*
X42926544Y-34701985D01*
X42926543Y-34701985D01*
X42912163Y-34696028D01*
X42871938Y-34669149D01*
X32138779Y-23935990D01*
X32105294Y-23874667D01*
X32110278Y-23804975D01*
X32152150Y-23749042D01*
X32217614Y-23724625D01*
X32245858Y-23725836D01*
X32401578Y-23750500D01*
X32401583Y-23750500D01*
X32598422Y-23750500D01*
X32792826Y-23719709D01*
X32980025Y-23658884D01*
X33155405Y-23569524D01*
X33314646Y-23453828D01*
X33453828Y-23314646D01*
X33569524Y-23155405D01*
X33658884Y-22980025D01*
X33719709Y-22792826D01*
X33750500Y-22598422D01*
X33750500Y-22401577D01*
X33719709Y-22207173D01*
X33658882Y-22019970D01*
X33569523Y-21844594D01*
X33453828Y-21685354D01*
X33314646Y-21546172D01*
X33155405Y-21430476D01*
X32980029Y-21341117D01*
X32792826Y-21280290D01*
X32598422Y-21249500D01*
X32598417Y-21249500D01*
X32401583Y-21249500D01*
X32401578Y-21249500D01*
X32207173Y-21280290D01*
X32019970Y-21341117D01*
X31844594Y-21430476D01*
X31753741Y-21496485D01*
X31685354Y-21546172D01*
X31685352Y-21546174D01*
X31685351Y-21546174D01*
X31618345Y-21613181D01*
X31557022Y-21646666D01*
X31530664Y-21649500D01*
X28469336Y-21649500D01*
X28402297Y-21629815D01*
X28381655Y-21613181D01*
X28314648Y-21546174D01*
X28314646Y-21546172D01*
X28155405Y-21430476D01*
X27980029Y-21341117D01*
X27792826Y-21280290D01*
X27598422Y-21249500D01*
X27598417Y-21249500D01*
X27401583Y-21249500D01*
X27401578Y-21249500D01*
X27207173Y-21280290D01*
X27019970Y-21341117D01*
X26844594Y-21430476D01*
X26753741Y-21496485D01*
X26685354Y-21546172D01*
X26685352Y-21546174D01*
X26685351Y-21546174D01*
X26546174Y-21685351D01*
X26546174Y-21685352D01*
X26546172Y-21685354D01*
X26496485Y-21753741D01*
X26430476Y-21844594D01*
X26341117Y-22019970D01*
X26280290Y-22207173D01*
X26249500Y-22401577D01*
X26249500Y-22598422D01*
X26280290Y-22792826D01*
X26318339Y-22909925D01*
X26341116Y-22980025D01*
X26341117Y-22980028D01*
X26342622Y-22984658D01*
X26341062Y-22985164D01*
X26347765Y-23047519D01*
X26316489Y-23109998D01*
X26256400Y-23145649D01*
X26225736Y-23149500D01*
X18916228Y-23149500D01*
X18751925Y-23182182D01*
X18751917Y-23182184D01*
X18597139Y-23246295D01*
X18457837Y-23339373D01*
X18339373Y-23457837D01*
X18246295Y-23597139D01*
X18182184Y-23751917D01*
X18182182Y-23751925D01*
X18149500Y-23916228D01*
X18149500Y-24096348D01*
X18129815Y-24163387D01*
X18113181Y-24184029D01*
X17378058Y-24919151D01*
X17337836Y-24946029D01*
X17323452Y-24951987D01*
X17175965Y-25050535D01*
X17175961Y-25050538D01*
X17050538Y-25175961D01*
X17050535Y-25175965D01*
X16951990Y-25323446D01*
X16951983Y-25323459D01*
X16884106Y-25487332D01*
X16884103Y-25487341D01*
X16849500Y-25661304D01*
X16849500Y-25838695D01*
X16884103Y-26012658D01*
X16884106Y-26012667D01*
X16951983Y-26176540D01*
X16951990Y-26176553D01*
X17050535Y-26324034D01*
X17050538Y-26324038D01*
X17175961Y-26449461D01*
X17175965Y-26449464D01*
X17323446Y-26548009D01*
X17323459Y-26548016D01*
X17419221Y-26587681D01*
X17487334Y-26615894D01*
X17487336Y-26615894D01*
X17487341Y-26615896D01*
X17661304Y-26650499D01*
X17661307Y-26650500D01*
X17661309Y-26650500D01*
X17838693Y-26650500D01*
X17838694Y-26650499D01*
X17896682Y-26638964D01*
X18012658Y-26615896D01*
X18012661Y-26615894D01*
X18012666Y-26615894D01*
X18176547Y-26548013D01*
X18324035Y-26449464D01*
X18449464Y-26324035D01*
X18548013Y-26176547D01*
X18553968Y-26162167D01*
X18580846Y-26121941D01*
X19660627Y-25042162D01*
X19701426Y-24981100D01*
X19751870Y-24905609D01*
X19805482Y-24860804D01*
X19854972Y-24850500D01*
X24666233Y-24850500D01*
X30596349Y-24850500D01*
X30663388Y-24870185D01*
X30684030Y-24886819D01*
X40735030Y-34937819D01*
X40768515Y-34999142D01*
X40763531Y-35068834D01*
X40721659Y-35124767D01*
X40656195Y-35149184D01*
X40647349Y-35149500D01*
X29169424Y-35149500D01*
X29121972Y-35140061D01*
X29102955Y-35132184D01*
X29102947Y-35132182D01*
X28938644Y-35099500D01*
X28938640Y-35099500D01*
X27321359Y-35099500D01*
X27321354Y-35099500D01*
X27157051Y-35132182D01*
X27157043Y-35132184D01*
X27144555Y-35137356D01*
X27138026Y-35140061D01*
X27090575Y-35149500D01*
X21974500Y-35149500D01*
X21907461Y-35129815D01*
X21861706Y-35077011D01*
X21850500Y-35025500D01*
X21850500Y-34866232D01*
X21850499Y-34866228D01*
X21842586Y-34826448D01*
X21817816Y-34701918D01*
X21768227Y-34582201D01*
X21753704Y-34547139D01*
X21660626Y-34407837D01*
X21542162Y-34289373D01*
X21402860Y-34196295D01*
X21248082Y-34132184D01*
X21248074Y-34132182D01*
X21083771Y-34099500D01*
X21083767Y-34099500D01*
X17853650Y-34099500D01*
X17786611Y-34079815D01*
X17765969Y-34063181D01*
X13042165Y-29339375D01*
X13042161Y-29339372D01*
X12902866Y-29246297D01*
X12902863Y-29246296D01*
X12793416Y-29200962D01*
X12793414Y-29200961D01*
X12748086Y-29182185D01*
X12748074Y-29182182D01*
X12583771Y-29149500D01*
X12583767Y-29149500D01*
X10349666Y-29149500D01*
X10282627Y-29129815D01*
X10261985Y-29113181D01*
X10236485Y-29087681D01*
X10203000Y-29026358D01*
X10207984Y-28956666D01*
X10236485Y-28912319D01*
X10264701Y-28884103D01*
X10339862Y-28808942D01*
X10490252Y-28601947D01*
X10606410Y-28373975D01*
X10685474Y-28130639D01*
X10725500Y-27877930D01*
X10725500Y-27622070D01*
X10685474Y-27369361D01*
X10606410Y-27126025D01*
X10606410Y-27126024D01*
X10563234Y-27041287D01*
X10490252Y-26898053D01*
X10439874Y-26828713D01*
X10339867Y-26691064D01*
X10339863Y-26691059D01*
X10236485Y-26587681D01*
X10203000Y-26526358D01*
X10207984Y-26456666D01*
X10236485Y-26412319D01*
X10339862Y-26308942D01*
X10490252Y-26101947D01*
X10606410Y-25873975D01*
X10685474Y-25630639D01*
X10725500Y-25377930D01*
X10725500Y-25122070D01*
X10685474Y-24869361D01*
X10606410Y-24626025D01*
X10606410Y-24626024D01*
X10566185Y-24547080D01*
X10490252Y-24398053D01*
X10471038Y-24371607D01*
X10339867Y-24191064D01*
X10339863Y-24191059D01*
X10158940Y-24010136D01*
X10158935Y-24010132D01*
X9951950Y-23859750D01*
X9951949Y-23859749D01*
X9951947Y-23859748D01*
X9878910Y-23822533D01*
X9723975Y-23743589D01*
X9723972Y-23743588D01*
X9480640Y-23664526D01*
X9354284Y-23644513D01*
X9227930Y-23624500D01*
X8972070Y-23624500D01*
X8887833Y-23637842D01*
X8719359Y-23664526D01*
X8476027Y-23743588D01*
X8476024Y-23743589D01*
X8248049Y-23859750D01*
X8041064Y-24010132D01*
X8041059Y-24010136D01*
X7860136Y-24191059D01*
X7860132Y-24191064D01*
X7709750Y-24398049D01*
X7593589Y-24626024D01*
X7593588Y-24626027D01*
X7514526Y-24869359D01*
X7507838Y-24911585D01*
X7474500Y-25122070D01*
X7474500Y-25377930D01*
X7477068Y-25394142D01*
X7514526Y-25630640D01*
X7593588Y-25873972D01*
X7593589Y-25873975D01*
X7709750Y-26101950D01*
X7860131Y-26308934D01*
X7860135Y-26308938D01*
X7860138Y-26308942D01*
X7963515Y-26412319D01*
X7996999Y-26473642D01*
X7992015Y-26543334D01*
X7963515Y-26587681D01*
X7860131Y-26691065D01*
X7709750Y-26898049D01*
X7593589Y-27126024D01*
X7593588Y-27126027D01*
X7514526Y-27369359D01*
X7474500Y-27622070D01*
X7474500Y-27877929D01*
X7514526Y-28130640D01*
X7593588Y-28373972D01*
X7593589Y-28373975D01*
X7629723Y-28444890D01*
X7706314Y-28595208D01*
X7709750Y-28601950D01*
X7860131Y-28808934D01*
X7860135Y-28808938D01*
X7860138Y-28808942D01*
X7935299Y-28884103D01*
X7963515Y-28912319D01*
X7996999Y-28973642D01*
X7992015Y-29043334D01*
X7963515Y-29087681D01*
X7860131Y-29191065D01*
X7709750Y-29398049D01*
X7593589Y-29626024D01*
X7593588Y-29626027D01*
X7514526Y-29869359D01*
X7474500Y-30122070D01*
X7474500Y-30377929D01*
X7514526Y-30630640D01*
X7593588Y-30873972D01*
X7593589Y-30873975D01*
X7709750Y-31101950D01*
X7860132Y-31308935D01*
X7860136Y-31308940D01*
X8041059Y-31489863D01*
X8041064Y-31489867D01*
X8221607Y-31621038D01*
X8248053Y-31640252D01*
X8397080Y-31716185D01*
X8476024Y-31756410D01*
X8476027Y-31756411D01*
X8597693Y-31795942D01*
X8719361Y-31835474D01*
X8972070Y-31875500D01*
X8972071Y-31875500D01*
X9227929Y-31875500D01*
X9227930Y-31875500D01*
X9480639Y-31835474D01*
X9723975Y-31756410D01*
X9951947Y-31640252D01*
X10158942Y-31489862D01*
X10339862Y-31308942D01*
X10490252Y-31101947D01*
X10583874Y-30918203D01*
X10631848Y-30867409D01*
X10694358Y-30850500D01*
X10975500Y-30850500D01*
X11042539Y-30870185D01*
X11088294Y-30922989D01*
X11099500Y-30974500D01*
X11099500Y-31088695D01*
X11134103Y-31262658D01*
X11134106Y-31262667D01*
X11201983Y-31426540D01*
X11201990Y-31426553D01*
X11300534Y-31574033D01*
X11300535Y-31574034D01*
X11300536Y-31574035D01*
X11363182Y-31636681D01*
X11396666Y-31698002D01*
X11399500Y-31724361D01*
X11399500Y-33775500D01*
X11379815Y-33842539D01*
X11327011Y-33888294D01*
X11275500Y-33899500D01*
X5724500Y-33899500D01*
X5657461Y-33879815D01*
X5611706Y-33827011D01*
X5600500Y-33775500D01*
X5600500Y-30074495D01*
X5609939Y-30027042D01*
X5615894Y-30012666D01*
X5650500Y-29838691D01*
X5650500Y-29661309D01*
X5650500Y-29661306D01*
X5650499Y-29661304D01*
X5615896Y-29487341D01*
X5615893Y-29487332D01*
X5548016Y-29323459D01*
X5548009Y-29323446D01*
X5449464Y-29175965D01*
X5449461Y-29175961D01*
X5324038Y-29050538D01*
X5324034Y-29050535D01*
X5176553Y-28951990D01*
X5176540Y-28951983D01*
X5012667Y-28884106D01*
X5012658Y-28884103D01*
X4838694Y-28849500D01*
X4838691Y-28849500D01*
X4661309Y-28849500D01*
X4661306Y-28849500D01*
X4487341Y-28884103D01*
X4487332Y-28884106D01*
X4323459Y-28951983D01*
X4323446Y-28951990D01*
X4175965Y-29050535D01*
X4175961Y-29050538D01*
X4050538Y-29175961D01*
X4050535Y-29175965D01*
X3951990Y-29323446D01*
X3951983Y-29323459D01*
X3884106Y-29487332D01*
X3884103Y-29487341D01*
X3849500Y-29661304D01*
X3849500Y-29838695D01*
X3884104Y-30012658D01*
X3884106Y-30012666D01*
X3890061Y-30027042D01*
X3899500Y-30074495D01*
X3899500Y-34833771D01*
X3932182Y-34998074D01*
X3932184Y-34998082D01*
X3996295Y-35152860D01*
X4089373Y-35292162D01*
X4207837Y-35410626D01*
X4300494Y-35472537D01*
X4347137Y-35503703D01*
X4501918Y-35567816D01*
X4606865Y-35588691D01*
X4666228Y-35600499D01*
X4666232Y-35600500D01*
X4666233Y-35600500D01*
X12333768Y-35600500D01*
X12333769Y-35600499D01*
X12498082Y-35567816D01*
X12652863Y-35503703D01*
X12792162Y-35410626D01*
X12910626Y-35292162D01*
X13003703Y-35152863D01*
X13067816Y-34998082D01*
X13100500Y-34833767D01*
X13100500Y-33166233D01*
X13100500Y-32102650D01*
X13120185Y-32035611D01*
X13172989Y-31989856D01*
X13242147Y-31979912D01*
X13305703Y-32008937D01*
X13312181Y-32014969D01*
X16907831Y-35610620D01*
X16907834Y-35610622D01*
X16907838Y-35610626D01*
X17047137Y-35703704D01*
X17154274Y-35748081D01*
X17201918Y-35767816D01*
X17366228Y-35800499D01*
X17366232Y-35800500D01*
X17366233Y-35800500D01*
X20025500Y-35800500D01*
X20092539Y-35820185D01*
X20138294Y-35872989D01*
X20149500Y-35924500D01*
X20149500Y-41153023D01*
X20129815Y-41220062D01*
X20077011Y-41265817D01*
X20049695Y-41274640D01*
X20031087Y-41278341D01*
X20031084Y-41278342D01*
X19894511Y-41334912D01*
X19894498Y-41334919D01*
X19771584Y-41417048D01*
X19771580Y-41417051D01*
X19667051Y-41521580D01*
X19667048Y-41521584D01*
X19584919Y-41644498D01*
X19584912Y-41644511D01*
X19528343Y-41781082D01*
X19528340Y-41781092D01*
X19499500Y-41926079D01*
X19499500Y-41926082D01*
X19499500Y-42073918D01*
X19499500Y-42073920D01*
X19499499Y-42073920D01*
X19528340Y-42218907D01*
X19528343Y-42218917D01*
X19584913Y-42355490D01*
X19584914Y-42355492D01*
X19603602Y-42383460D01*
X19624480Y-42450138D01*
X19624500Y-42452351D01*
X19624500Y-50061606D01*
X19631567Y-50097138D01*
X19631566Y-50097138D01*
X19648535Y-50182444D01*
X19648538Y-50182456D01*
X19655496Y-50199253D01*
X19657344Y-50203714D01*
X19695688Y-50296286D01*
X19729915Y-50347509D01*
X19734005Y-50353630D01*
X19734006Y-50353632D01*
X19764140Y-50398731D01*
X19764141Y-50398732D01*
X19764142Y-50398733D01*
X19851267Y-50485858D01*
X19851268Y-50485858D01*
X19858335Y-50492925D01*
X19858334Y-50492925D01*
X19858338Y-50492928D01*
X20108331Y-50742922D01*
X20108337Y-50742927D01*
X22088181Y-52722771D01*
X22121666Y-52784094D01*
X22124500Y-52810452D01*
X22124500Y-53976771D01*
X22104815Y-54043810D01*
X22052011Y-54089565D01*
X21982853Y-54099509D01*
X21962183Y-54094702D01*
X21917834Y-54080292D01*
X21917827Y-54080291D01*
X21723422Y-54049500D01*
X21723417Y-54049500D01*
X21526583Y-54049500D01*
X21526578Y-54049500D01*
X21332173Y-54080290D01*
X21144970Y-54141117D01*
X20969591Y-54230478D01*
X20882407Y-54293821D01*
X20816601Y-54317301D01*
X20748547Y-54301475D01*
X20721841Y-54281184D01*
X18398103Y-51957446D01*
X18364618Y-51896123D01*
X18363311Y-51850372D01*
X18375500Y-51773417D01*
X18375500Y-51576583D01*
X18375500Y-51576577D01*
X18344709Y-51382173D01*
X18292530Y-51221584D01*
X18283884Y-51194975D01*
X18283882Y-51194972D01*
X18283882Y-51194970D01*
X18217102Y-51063908D01*
X18194524Y-51019595D01*
X18078828Y-50860354D01*
X17939646Y-50721172D01*
X17780405Y-50605476D01*
X17738315Y-50584030D01*
X17605029Y-50516117D01*
X17417826Y-50455290D01*
X17223422Y-50424500D01*
X17223417Y-50424500D01*
X17026583Y-50424500D01*
X17026578Y-50424500D01*
X16832173Y-50455290D01*
X16644970Y-50516117D01*
X16469594Y-50605476D01*
X16378741Y-50671485D01*
X16310354Y-50721172D01*
X16310352Y-50721174D01*
X16310351Y-50721174D01*
X16171174Y-50860351D01*
X16171174Y-50860352D01*
X16171172Y-50860354D01*
X16142701Y-50899541D01*
X16055476Y-51019594D01*
X15966117Y-51194970D01*
X15905290Y-51382173D01*
X15874500Y-51576577D01*
X15874500Y-51773422D01*
X15905290Y-51967826D01*
X15966117Y-52155029D01*
X16027465Y-52275430D01*
X16055476Y-52330405D01*
X16171172Y-52489646D01*
X16310354Y-52628828D01*
X16469595Y-52744524D01*
X16498183Y-52759090D01*
X16644970Y-52833882D01*
X16644972Y-52833882D01*
X16644975Y-52833884D01*
X16745317Y-52866487D01*
X16832173Y-52894709D01*
X17026578Y-52925500D01*
X17026583Y-52925500D01*
X17223414Y-52925500D01*
X17223417Y-52925500D01*
X17300369Y-52913311D01*
X17369659Y-52922265D01*
X17407446Y-52948103D01*
X20303453Y-55844111D01*
X20303454Y-55844112D01*
X20303457Y-55844114D01*
X20418189Y-55920775D01*
X20545671Y-55973580D01*
X20545673Y-55973580D01*
X20546276Y-55973830D01*
X20599140Y-56015503D01*
X20671172Y-56114646D01*
X20810354Y-56253828D01*
X20969595Y-56369524D01*
X21008300Y-56389245D01*
X21144970Y-56458882D01*
X21144972Y-56458882D01*
X21144975Y-56458884D01*
X21245317Y-56491487D01*
X21332173Y-56519709D01*
X21526578Y-56550500D01*
X21526583Y-56550500D01*
X21723422Y-56550500D01*
X21917826Y-56519709D01*
X21939502Y-56512666D01*
X22105025Y-56458884D01*
X22241701Y-56389244D01*
X22310367Y-56376349D01*
X22366884Y-56396628D01*
X22394505Y-56415084D01*
X22394507Y-56415084D01*
X22394511Y-56415087D01*
X22531082Y-56471656D01*
X22531087Y-56471658D01*
X22531091Y-56471658D01*
X22531092Y-56471659D01*
X22676079Y-56500500D01*
X22676082Y-56500500D01*
X22823920Y-56500500D01*
X22921462Y-56481096D01*
X22968913Y-56471658D01*
X23105495Y-56415084D01*
X23228416Y-56332951D01*
X23332951Y-56228416D01*
X23415084Y-56105495D01*
X23471658Y-55968913D01*
X23496483Y-55844112D01*
X23500500Y-55823920D01*
X23500500Y-55676079D01*
X23471659Y-55531092D01*
X23471658Y-55531091D01*
X23471658Y-55531087D01*
X23455171Y-55491283D01*
X23415086Y-55394508D01*
X23396397Y-55366538D01*
X23375520Y-55299861D01*
X23375500Y-55297648D01*
X23375500Y-53309452D01*
X23395185Y-53242413D01*
X23447989Y-53196658D01*
X23517147Y-53186714D01*
X23580703Y-53215739D01*
X23587179Y-53221769D01*
X24319234Y-53953825D01*
X24987843Y-54622434D01*
X25021328Y-54683757D01*
X25021779Y-54685923D01*
X25028340Y-54718907D01*
X25028342Y-54718915D01*
X25084912Y-54855488D01*
X25084919Y-54855501D01*
X25167048Y-54978415D01*
X25167051Y-54978419D01*
X25271580Y-55082948D01*
X25271584Y-55082951D01*
X25394498Y-55165080D01*
X25394511Y-55165087D01*
X25511336Y-55213477D01*
X25531087Y-55221658D01*
X25531091Y-55221658D01*
X25531092Y-55221659D01*
X25676079Y-55250500D01*
X25676082Y-55250500D01*
X25823920Y-55250500D01*
X25934708Y-55228462D01*
X25968913Y-55221658D01*
X26074547Y-55177902D01*
X26105488Y-55165087D01*
X26105488Y-55165086D01*
X26105495Y-55165084D01*
X26228416Y-55082951D01*
X26332951Y-54978416D01*
X26415084Y-54855495D01*
X26471658Y-54718913D01*
X26485559Y-54649032D01*
X26500500Y-54573920D01*
X26500500Y-54426079D01*
X26471659Y-54281092D01*
X26471658Y-54281091D01*
X26471658Y-54281087D01*
X26461945Y-54257637D01*
X26415087Y-54144511D01*
X26415080Y-54144498D01*
X26332951Y-54021584D01*
X26332948Y-54021580D01*
X26289368Y-53978000D01*
X26255883Y-53916677D01*
X26260397Y-53848268D01*
X26261379Y-53845541D01*
X26313831Y-53718913D01*
X26322206Y-53676803D01*
X26325358Y-53668062D01*
X26340717Y-53647066D01*
X26352776Y-53624012D01*
X26354268Y-53622493D01*
X27235858Y-52740906D01*
X27304312Y-52638458D01*
X27336424Y-52560931D01*
X27351463Y-52524625D01*
X27359174Y-52485858D01*
X27375501Y-52403779D01*
X27375501Y-52280566D01*
X27375501Y-52275456D01*
X27375500Y-52275430D01*
X27375500Y-49999500D01*
X27395185Y-49932461D01*
X27447989Y-49886706D01*
X27499500Y-49875500D01*
X29697649Y-49875500D01*
X29764688Y-49895185D01*
X29766455Y-49896341D01*
X29794505Y-49915084D01*
X29931087Y-49971658D01*
X29931091Y-49971658D01*
X29931092Y-49971659D01*
X30076079Y-50000500D01*
X30076082Y-50000500D01*
X30223920Y-50000500D01*
X30349598Y-49975500D01*
X30368913Y-49971658D01*
X30474547Y-49927902D01*
X30505488Y-49915087D01*
X30505488Y-49915086D01*
X30505495Y-49915084D01*
X30628416Y-49832951D01*
X30732951Y-49728416D01*
X30815084Y-49605495D01*
X30871658Y-49468913D01*
X30885305Y-49400308D01*
X30917690Y-49338397D01*
X30978406Y-49303823D01*
X31006922Y-49300500D01*
X32393078Y-49300500D01*
X32460117Y-49320185D01*
X32505872Y-49372989D01*
X32514695Y-49400308D01*
X32528340Y-49468907D01*
X32528343Y-49468917D01*
X32584912Y-49605488D01*
X32584919Y-49605501D01*
X32667048Y-49728415D01*
X32667051Y-49728419D01*
X32771580Y-49832948D01*
X32776292Y-49836815D01*
X32774991Y-49838400D01*
X32812434Y-49882275D01*
X32818553Y-49895573D01*
X32823537Y-49920624D01*
X32870688Y-50034459D01*
X32903090Y-50082951D01*
X32908533Y-50091097D01*
X32908534Y-50091099D01*
X32939141Y-50136905D01*
X32939144Y-50136909D01*
X33030586Y-50228351D01*
X33030608Y-50228371D01*
X33272843Y-50470606D01*
X33272872Y-50470637D01*
X33363090Y-50560855D01*
X33363094Y-50560858D01*
X33465534Y-50629307D01*
X33465540Y-50629310D01*
X33465541Y-50629311D01*
X33579375Y-50676463D01*
X33589227Y-50678422D01*
X33609478Y-50682451D01*
X33609479Y-50682451D01*
X33637479Y-50688020D01*
X33699391Y-50720404D01*
X33700971Y-50721957D01*
X33878555Y-50899541D01*
X33912040Y-50960864D01*
X33907056Y-51030556D01*
X33893977Y-51056112D01*
X33834918Y-51144500D01*
X33834912Y-51144511D01*
X33778343Y-51281082D01*
X33778340Y-51281092D01*
X33749500Y-51426079D01*
X33749500Y-51426082D01*
X33749500Y-51573918D01*
X33749500Y-51573920D01*
X33749499Y-51573920D01*
X33778340Y-51718906D01*
X33778342Y-51718912D01*
X33781245Y-51725922D01*
X33788708Y-51795392D01*
X33757429Y-51857869D01*
X33754361Y-51861047D01*
X30351268Y-55264142D01*
X27777229Y-57838181D01*
X27715906Y-57871666D01*
X27689548Y-57874500D01*
X23702351Y-57874500D01*
X23635312Y-57854815D01*
X23633544Y-57853658D01*
X23605495Y-57834916D01*
X23605491Y-57834914D01*
X23605489Y-57834913D01*
X23468917Y-57778343D01*
X23468907Y-57778340D01*
X23343942Y-57753482D01*
X23282031Y-57721096D01*
X23247457Y-57660380D01*
X23246517Y-57656057D01*
X23221659Y-57531092D01*
X23221658Y-57531091D01*
X23221658Y-57531087D01*
X23221656Y-57531082D01*
X23165087Y-57394511D01*
X23165080Y-57394498D01*
X23082951Y-57271584D01*
X23082948Y-57271580D01*
X22978419Y-57167051D01*
X22978415Y-57167048D01*
X22855501Y-57084919D01*
X22855488Y-57084912D01*
X22718917Y-57028343D01*
X22718907Y-57028340D01*
X22573920Y-56999500D01*
X22573918Y-56999500D01*
X22426082Y-56999500D01*
X22426080Y-56999500D01*
X22281092Y-57028340D01*
X22281082Y-57028343D01*
X22144511Y-57084912D01*
X22144498Y-57084919D01*
X22021584Y-57167048D01*
X22021580Y-57167051D01*
X21917051Y-57271580D01*
X21917048Y-57271584D01*
X21834919Y-57394498D01*
X21834912Y-57394511D01*
X21778343Y-57531082D01*
X21778340Y-57531092D01*
X21749500Y-57676079D01*
X21749500Y-57676082D01*
X21749500Y-57823918D01*
X21749500Y-57823920D01*
X21749499Y-57823920D01*
X21778340Y-57968907D01*
X21778343Y-57968917D01*
X21834913Y-58105490D01*
X21834914Y-58105492D01*
X21853602Y-58133460D01*
X21874480Y-58200138D01*
X21874500Y-58202351D01*
X21874500Y-59311609D01*
X21882397Y-59351309D01*
X21876170Y-59420900D01*
X21833307Y-59476078D01*
X21767417Y-59499322D01*
X21760780Y-59499500D01*
X624500Y-59499500D01*
X557461Y-59479815D01*
X511706Y-59427011D01*
X500500Y-59375500D01*
X500500Y-55878711D01*
X2149500Y-55878711D01*
X2149500Y-56121288D01*
X2178121Y-56338695D01*
X2181162Y-56361789D01*
X2195443Y-56415087D01*
X2243947Y-56596104D01*
X2336773Y-56820205D01*
X2336777Y-56820214D01*
X2338983Y-56824035D01*
X2458064Y-57030289D01*
X2458066Y-57030292D01*
X2458067Y-57030293D01*
X2605733Y-57222736D01*
X2605739Y-57222743D01*
X2777256Y-57394260D01*
X2777263Y-57394266D01*
X2890321Y-57481018D01*
X2969711Y-57541936D01*
X3179788Y-57663224D01*
X3319504Y-57721096D01*
X3397690Y-57753482D01*
X3403900Y-57756054D01*
X3638211Y-57818838D01*
X3818586Y-57842584D01*
X3878711Y-57850500D01*
X3878712Y-57850500D01*
X4121289Y-57850500D01*
X4169388Y-57844167D01*
X4361789Y-57818838D01*
X4596100Y-57756054D01*
X4820212Y-57663224D01*
X5030289Y-57541936D01*
X5222738Y-57394265D01*
X5394265Y-57222738D01*
X5541936Y-57030289D01*
X5663224Y-56820212D01*
X5756054Y-56596100D01*
X5818838Y-56361789D01*
X5850500Y-56121288D01*
X5850500Y-55878712D01*
X5847443Y-55855495D01*
X5829824Y-55721658D01*
X5818838Y-55638211D01*
X5756054Y-55403900D01*
X5752162Y-55394505D01*
X5695308Y-55257247D01*
X5663224Y-55179788D01*
X5541936Y-54969711D01*
X5394265Y-54777262D01*
X5394260Y-54777256D01*
X5222743Y-54605739D01*
X5222736Y-54605733D01*
X5030293Y-54458067D01*
X5030292Y-54458066D01*
X5030289Y-54458064D01*
X4856859Y-54357934D01*
X4820214Y-54336777D01*
X4820205Y-54336773D01*
X4596104Y-54243947D01*
X4361785Y-54181161D01*
X4121289Y-54149500D01*
X4121288Y-54149500D01*
X3878712Y-54149500D01*
X3878711Y-54149500D01*
X3638214Y-54181161D01*
X3403895Y-54243947D01*
X3179794Y-54336773D01*
X3179785Y-54336777D01*
X2969706Y-54458067D01*
X2777263Y-54605733D01*
X2777256Y-54605739D01*
X2605739Y-54777256D01*
X2605733Y-54777263D01*
X2458067Y-54969706D01*
X2458064Y-54969710D01*
X2458064Y-54969711D01*
X2441817Y-54997851D01*
X2336777Y-55179785D01*
X2336773Y-55179794D01*
X2243947Y-55403895D01*
X2181161Y-55638214D01*
X2149500Y-55878711D01*
X500500Y-55878711D01*
X500500Y-14097648D01*
X45599500Y-14097648D01*
X45599500Y-14902351D01*
X45631522Y-15104534D01*
X45694781Y-15299223D01*
X45787715Y-15481613D01*
X45908028Y-15647213D01*
X46052786Y-15791971D01*
X46207749Y-15904556D01*
X46218390Y-15912287D01*
X46334607Y-15971503D01*
X46400776Y-16005218D01*
X46400778Y-16005218D01*
X46400781Y-16005220D01*
X46505137Y-16039127D01*
X46595465Y-16068477D01*
X46696557Y-16084488D01*
X46797648Y-16100500D01*
X46797649Y-16100500D01*
X47002351Y-16100500D01*
X47002352Y-16100500D01*
X47204534Y-16068477D01*
X47399219Y-16005220D01*
X47581610Y-15912287D01*
X47674590Y-15844732D01*
X47747213Y-15791971D01*
X47747215Y-15791968D01*
X47747219Y-15791966D01*
X47891966Y-15647219D01*
X47891968Y-15647215D01*
X47891971Y-15647213D01*
X47944732Y-15574590D01*
X48012287Y-15481610D01*
X48105220Y-15299219D01*
X48168477Y-15104534D01*
X48200500Y-14902352D01*
X48200500Y-14097648D01*
X48168477Y-13895466D01*
X48105220Y-13700781D01*
X48105218Y-13700778D01*
X48105218Y-13700776D01*
X48071503Y-13634607D01*
X48012287Y-13518390D01*
X48004556Y-13507749D01*
X47891971Y-13352786D01*
X47747213Y-13208028D01*
X47581613Y-13087715D01*
X47581612Y-13087714D01*
X47581610Y-13087713D01*
X47524653Y-13058691D01*
X47399223Y-12994781D01*
X47204534Y-12931522D01*
X47029995Y-12903878D01*
X47002352Y-12899500D01*
X46797648Y-12899500D01*
X46773329Y-12903351D01*
X46595465Y-12931522D01*
X46400776Y-12994781D01*
X46218386Y-13087715D01*
X46052786Y-13208028D01*
X45908028Y-13352786D01*
X45787715Y-13518386D01*
X45694781Y-13700776D01*
X45631522Y-13895465D01*
X45599500Y-14097648D01*
X500500Y-14097648D01*
X500500Y-10661304D01*
X36099500Y-10661304D01*
X36099500Y-10838695D01*
X36134103Y-11012658D01*
X36134106Y-11012667D01*
X36201983Y-11176540D01*
X36201990Y-11176553D01*
X36300535Y-11324034D01*
X36300538Y-11324038D01*
X36425961Y-11449461D01*
X36425965Y-11449464D01*
X36573446Y-11548009D01*
X36573459Y-11548016D01*
X36696363Y-11598923D01*
X36737334Y-11615894D01*
X36737336Y-11615894D01*
X36737341Y-11615896D01*
X36911304Y-11650499D01*
X36911307Y-11650500D01*
X36911309Y-11650500D01*
X37088693Y-11650500D01*
X37088694Y-11650499D01*
X37146682Y-11638964D01*
X37262658Y-11615896D01*
X37262661Y-11615894D01*
X37262666Y-11615894D01*
X37426547Y-11548013D01*
X37574035Y-11449464D01*
X37699464Y-11324035D01*
X37798013Y-11176547D01*
X37803968Y-11162167D01*
X37830846Y-11121941D01*
X40815969Y-8136819D01*
X40877292Y-8103334D01*
X40903650Y-8100500D01*
X43666233Y-8100500D01*
X43925505Y-8100500D01*
X43972953Y-8109937D01*
X43987334Y-8115894D01*
X43987338Y-8115894D01*
X43987341Y-8115896D01*
X44161304Y-8150499D01*
X44161307Y-8150500D01*
X44161309Y-8150500D01*
X44338693Y-8150500D01*
X44338694Y-8150499D01*
X44407470Y-8136819D01*
X44512658Y-8115896D01*
X44512661Y-8115894D01*
X44512666Y-8115894D01*
X44676547Y-8048013D01*
X44824035Y-7949464D01*
X44949464Y-7824035D01*
X45048013Y-7676547D01*
X45115894Y-7512666D01*
X45150500Y-7338691D01*
X45150500Y-7161309D01*
X45150500Y-7161306D01*
X45150499Y-7161304D01*
X45115896Y-6987341D01*
X45115893Y-6987332D01*
X45048016Y-6823459D01*
X45048009Y-6823446D01*
X44949464Y-6675965D01*
X44949461Y-6675961D01*
X44824038Y-6550538D01*
X44824034Y-6550535D01*
X44676553Y-6451990D01*
X44676540Y-6451983D01*
X44512667Y-6384106D01*
X44512658Y-6384103D01*
X44338694Y-6349500D01*
X44338691Y-6349500D01*
X44161309Y-6349500D01*
X44161306Y-6349500D01*
X43987341Y-6384103D01*
X43987337Y-6384105D01*
X43987335Y-6384105D01*
X43987334Y-6384106D01*
X43972953Y-6390062D01*
X43925505Y-6399500D01*
X40416228Y-6399500D01*
X40251925Y-6432182D01*
X40251917Y-6432184D01*
X40097139Y-6496295D01*
X39957837Y-6589373D01*
X39957834Y-6589376D01*
X36628058Y-9919151D01*
X36587836Y-9946029D01*
X36573452Y-9951987D01*
X36425965Y-10050535D01*
X36425961Y-10050538D01*
X36300538Y-10175961D01*
X36300535Y-10175965D01*
X36201990Y-10323446D01*
X36201983Y-10323459D01*
X36134106Y-10487332D01*
X36134103Y-10487341D01*
X36099500Y-10661304D01*
X500500Y-10661304D01*
X500500Y-3878711D01*
X2149500Y-3878711D01*
X2149500Y-4121288D01*
X2159265Y-4195466D01*
X2181162Y-4361789D01*
X2190780Y-4397682D01*
X2243947Y-4596104D01*
X2330282Y-4804534D01*
X2336776Y-4820212D01*
X2458064Y-5030289D01*
X2458066Y-5030292D01*
X2458067Y-5030293D01*
X2605733Y-5222736D01*
X2605739Y-5222743D01*
X2777256Y-5394260D01*
X2777263Y-5394266D01*
X2828836Y-5433839D01*
X2969711Y-5541936D01*
X3179788Y-5663224D01*
X3403900Y-5756054D01*
X3638211Y-5818838D01*
X3818586Y-5842584D01*
X3878711Y-5850500D01*
X3878712Y-5850500D01*
X4121289Y-5850500D01*
X4169388Y-5844167D01*
X4361789Y-5818838D01*
X4596100Y-5756054D01*
X4820212Y-5663224D01*
X5030289Y-5541936D01*
X5222738Y-5394265D01*
X5394265Y-5222738D01*
X5541936Y-5030289D01*
X5663224Y-4820212D01*
X5756054Y-4596100D01*
X5818838Y-4361789D01*
X5850500Y-4121288D01*
X5850500Y-3878712D01*
X5850500Y-3878711D01*
X18649500Y-3878711D01*
X18649500Y-4121288D01*
X18659265Y-4195466D01*
X18681162Y-4361789D01*
X18690780Y-4397682D01*
X18743947Y-4596104D01*
X18830282Y-4804534D01*
X18836776Y-4820212D01*
X18958064Y-5030289D01*
X18958066Y-5030292D01*
X18958067Y-5030293D01*
X19105733Y-5222736D01*
X19105739Y-5222743D01*
X19277256Y-5394260D01*
X19277263Y-5394266D01*
X19328836Y-5433839D01*
X19469711Y-5541936D01*
X19679788Y-5663224D01*
X19903900Y-5756054D01*
X20138211Y-5818838D01*
X20318586Y-5842584D01*
X20378711Y-5850500D01*
X20378712Y-5850500D01*
X20621289Y-5850500D01*
X20669388Y-5844167D01*
X20861789Y-5818838D01*
X21096100Y-5756054D01*
X21320212Y-5663224D01*
X21530289Y-5541936D01*
X21722738Y-5394265D01*
X21894265Y-5222738D01*
X22041936Y-5030289D01*
X22163224Y-4820212D01*
X22256054Y-4596100D01*
X22318838Y-4361789D01*
X22350500Y-4121288D01*
X22350500Y-3878712D01*
X22350500Y-3878711D01*
X37649500Y-3878711D01*
X37649500Y-4121288D01*
X37659265Y-4195466D01*
X37681162Y-4361789D01*
X37690780Y-4397682D01*
X37743947Y-4596104D01*
X37830282Y-4804534D01*
X37836776Y-4820212D01*
X37958064Y-5030289D01*
X37958066Y-5030292D01*
X37958067Y-5030293D01*
X38105733Y-5222736D01*
X38105739Y-5222743D01*
X38277256Y-5394260D01*
X38277263Y-5394266D01*
X38328836Y-5433839D01*
X38469711Y-5541936D01*
X38679788Y-5663224D01*
X38903900Y-5756054D01*
X39138211Y-5818838D01*
X39318586Y-5842584D01*
X39378711Y-5850500D01*
X39378712Y-5850500D01*
X39621289Y-5850500D01*
X39669388Y-5844167D01*
X39861789Y-5818838D01*
X40096100Y-5756054D01*
X40320212Y-5663224D01*
X40530289Y-5541936D01*
X40722738Y-5394265D01*
X40894265Y-5222738D01*
X41041936Y-5030289D01*
X41163224Y-4820212D01*
X41256054Y-4596100D01*
X41318838Y-4361789D01*
X41350500Y-4121288D01*
X41350500Y-3878712D01*
X41318838Y-3638211D01*
X41256054Y-3403900D01*
X41163224Y-3179788D01*
X41041936Y-2969711D01*
X40894265Y-2777262D01*
X40894260Y-2777256D01*
X40722743Y-2605739D01*
X40722736Y-2605733D01*
X40530293Y-2458067D01*
X40530292Y-2458066D01*
X40530289Y-2458064D01*
X40320212Y-2336776D01*
X40320205Y-2336773D01*
X40096104Y-2243947D01*
X39861785Y-2181161D01*
X39621289Y-2149500D01*
X39621288Y-2149500D01*
X39378712Y-2149500D01*
X39378711Y-2149500D01*
X39138214Y-2181161D01*
X38903895Y-2243947D01*
X38679794Y-2336773D01*
X38679785Y-2336777D01*
X38469706Y-2458067D01*
X38277263Y-2605733D01*
X38277256Y-2605739D01*
X38105739Y-2777256D01*
X38105733Y-2777263D01*
X37958067Y-2969706D01*
X37836777Y-3179785D01*
X37836773Y-3179794D01*
X37743947Y-3403895D01*
X37681161Y-3638214D01*
X37649500Y-3878711D01*
X22350500Y-3878711D01*
X22318838Y-3638211D01*
X22256054Y-3403900D01*
X22163224Y-3179788D01*
X22041936Y-2969711D01*
X21894265Y-2777262D01*
X21894260Y-2777256D01*
X21722743Y-2605739D01*
X21722736Y-2605733D01*
X21530293Y-2458067D01*
X21530292Y-2458066D01*
X21530289Y-2458064D01*
X21320212Y-2336776D01*
X21320205Y-2336773D01*
X21096104Y-2243947D01*
X20861785Y-2181161D01*
X20621289Y-2149500D01*
X20621288Y-2149500D01*
X20378712Y-2149500D01*
X20378711Y-2149500D01*
X20138214Y-2181161D01*
X19903895Y-2243947D01*
X19679794Y-2336773D01*
X19679785Y-2336777D01*
X19469706Y-2458067D01*
X19277263Y-2605733D01*
X19277256Y-2605739D01*
X19105739Y-2777256D01*
X19105733Y-2777263D01*
X18958067Y-2969706D01*
X18836777Y-3179785D01*
X18836773Y-3179794D01*
X18743947Y-3403895D01*
X18681161Y-3638214D01*
X18649500Y-3878711D01*
X5850500Y-3878711D01*
X5818838Y-3638211D01*
X5756054Y-3403900D01*
X5663224Y-3179788D01*
X5541936Y-2969711D01*
X5394265Y-2777262D01*
X5394260Y-2777256D01*
X5222743Y-2605739D01*
X5222736Y-2605733D01*
X5030293Y-2458067D01*
X5030292Y-2458066D01*
X5030289Y-2458064D01*
X4820212Y-2336776D01*
X4820205Y-2336773D01*
X4596104Y-2243947D01*
X4361785Y-2181161D01*
X4121289Y-2149500D01*
X4121288Y-2149500D01*
X3878712Y-2149500D01*
X3878711Y-2149500D01*
X3638214Y-2181161D01*
X3403895Y-2243947D01*
X3179794Y-2336773D01*
X3179785Y-2336777D01*
X2969706Y-2458067D01*
X2777263Y-2605733D01*
X2777256Y-2605739D01*
X2605739Y-2777256D01*
X2605733Y-2777263D01*
X2458067Y-2969706D01*
X2336777Y-3179785D01*
X2336773Y-3179794D01*
X2243947Y-3403895D01*
X2181161Y-3638214D01*
X2149500Y-3878711D01*
X500500Y-3878711D01*
X500500Y-624500D01*
X520185Y-557461D01*
X572989Y-511706D01*
X624500Y-500500D01*
X59375500Y-500500D01*
X59442539Y-520185D01*
G37*
%TD.AperFunction*%
%TA.AperFunction,Conductor*%
G36*
X57141265Y-33102335D02*
G01*
X57168102Y-33116282D01*
X57169460Y-33117214D01*
X57242184Y-33170051D01*
X57258704Y-33178468D01*
X57265372Y-33183045D01*
X57282533Y-33204107D01*
X57302290Y-33222766D01*
X57304279Y-33230798D01*
X57309505Y-33237212D01*
X57312554Y-33264211D01*
X57319087Y-33290587D01*
X57316418Y-33298418D01*
X57317347Y-33306640D01*
X57305316Y-33331000D01*
X57296552Y-33356722D01*
X57289667Y-33362688D01*
X57286409Y-33369286D01*
X57272219Y-33377808D01*
X57251505Y-33395760D01*
X57242446Y-33400376D01*
X57242440Y-33400380D01*
X57188282Y-33439727D01*
X57188282Y-33439728D01*
X57779756Y-34031202D01*
X57737703Y-34042470D01*
X57612285Y-34114881D01*
X57509881Y-34217285D01*
X57437470Y-34342703D01*
X57426202Y-34384756D01*
X56834728Y-33793282D01*
X56834727Y-33793282D01*
X56795380Y-33847439D01*
X56698904Y-34036782D01*
X56633242Y-34238869D01*
X56633242Y-34238872D01*
X56600000Y-34448753D01*
X56600000Y-34661246D01*
X56633242Y-34871127D01*
X56633242Y-34871130D01*
X56698904Y-35073217D01*
X56795375Y-35262550D01*
X56834728Y-35316716D01*
X57426201Y-34725243D01*
X57437470Y-34767297D01*
X57509881Y-34892715D01*
X57612285Y-34995119D01*
X57737703Y-35067530D01*
X57779755Y-35078797D01*
X57188282Y-35670269D01*
X57188282Y-35670270D01*
X57242449Y-35709624D01*
X57431782Y-35806095D01*
X57633870Y-35871757D01*
X57843754Y-35905000D01*
X58056246Y-35905000D01*
X58266127Y-35871757D01*
X58266130Y-35871757D01*
X58468217Y-35806095D01*
X58657554Y-35709622D01*
X58711716Y-35670270D01*
X58711717Y-35670270D01*
X58120244Y-35078797D01*
X58162297Y-35067530D01*
X58287715Y-34995119D01*
X58390119Y-34892715D01*
X58462530Y-34767297D01*
X58473797Y-34725244D01*
X59065270Y-35316717D01*
X59065270Y-35316716D01*
X59104622Y-35262554D01*
X59201095Y-35073217D01*
X59257569Y-34899408D01*
X59297006Y-34841733D01*
X59361365Y-34814534D01*
X59430211Y-34826448D01*
X59481687Y-34873692D01*
X59499500Y-34937726D01*
X59499500Y-59375500D01*
X59479815Y-59442539D01*
X59427011Y-59488294D01*
X59375500Y-59499500D01*
X41489220Y-59499500D01*
X41422181Y-59479815D01*
X41376426Y-59427011D01*
X41366482Y-59357853D01*
X41367603Y-59351309D01*
X41375499Y-59311609D01*
X41375500Y-59311607D01*
X41375500Y-57147733D01*
X41395185Y-57080694D01*
X41447989Y-57034939D01*
X41517147Y-57024995D01*
X41568393Y-57044632D01*
X41573453Y-57048013D01*
X41573455Y-57048013D01*
X41573459Y-57048016D01*
X41662553Y-57084919D01*
X41737334Y-57115894D01*
X41737336Y-57115894D01*
X41737341Y-57115896D01*
X41911304Y-57150499D01*
X41911307Y-57150500D01*
X41911309Y-57150500D01*
X42088693Y-57150500D01*
X42088694Y-57150499D01*
X42146682Y-57138964D01*
X42262658Y-57115896D01*
X42262661Y-57115894D01*
X42262666Y-57115894D01*
X42426547Y-57048013D01*
X42574035Y-56949464D01*
X42699464Y-56824035D01*
X42798013Y-56676547D01*
X42865894Y-56512666D01*
X42874052Y-56471656D01*
X42900499Y-56338695D01*
X42900500Y-56338693D01*
X42900500Y-56161306D01*
X42900499Y-56161304D01*
X42865896Y-55987341D01*
X42865894Y-55987338D01*
X42865894Y-55987334D01*
X42859937Y-55972953D01*
X42850500Y-55925505D01*
X42850500Y-51774264D01*
X42870185Y-51707225D01*
X42922989Y-51661470D01*
X42992147Y-51651526D01*
X43015189Y-51657847D01*
X43015342Y-51657378D01*
X43019971Y-51658882D01*
X43019975Y-51658884D01*
X43091685Y-51682184D01*
X43207173Y-51719709D01*
X43401578Y-51750500D01*
X43401583Y-51750500D01*
X43496349Y-51750500D01*
X43563388Y-51770185D01*
X43584030Y-51786819D01*
X44957831Y-53160620D01*
X44957834Y-53160622D01*
X44957838Y-53160626D01*
X45097137Y-53253704D01*
X45191587Y-53292826D01*
X45251918Y-53317816D01*
X45416228Y-53350499D01*
X45416232Y-53350500D01*
X45416233Y-53350500D01*
X53458939Y-53350500D01*
X53525978Y-53370185D01*
X53571733Y-53422989D01*
X53576870Y-53436181D01*
X53591116Y-53480025D01*
X53680476Y-53655405D01*
X53796172Y-53814646D01*
X53935354Y-53953828D01*
X54094595Y-54069524D01*
X54177455Y-54111743D01*
X54269970Y-54158882D01*
X54269972Y-54158882D01*
X54269975Y-54158884D01*
X54370317Y-54191487D01*
X54457173Y-54219709D01*
X54651578Y-54250500D01*
X54651583Y-54250500D01*
X54848421Y-54250500D01*
X54859871Y-54248686D01*
X54929165Y-54257637D01*
X54982619Y-54302631D01*
X55003262Y-54369382D01*
X54984540Y-54436696D01*
X54954762Y-54469534D01*
X54777256Y-54605739D01*
X54605739Y-54777256D01*
X54605733Y-54777263D01*
X54458067Y-54969706D01*
X54458064Y-54969710D01*
X54458064Y-54969711D01*
X54441817Y-54997851D01*
X54336777Y-55179785D01*
X54336773Y-55179794D01*
X54243947Y-55403895D01*
X54181161Y-55638214D01*
X54149500Y-55878711D01*
X54149500Y-56121288D01*
X54178121Y-56338695D01*
X54181162Y-56361789D01*
X54195443Y-56415087D01*
X54243947Y-56596104D01*
X54336773Y-56820205D01*
X54336777Y-56820214D01*
X54338983Y-56824035D01*
X54458064Y-57030289D01*
X54458066Y-57030292D01*
X54458067Y-57030293D01*
X54605733Y-57222736D01*
X54605739Y-57222743D01*
X54777256Y-57394260D01*
X54777263Y-57394266D01*
X54890321Y-57481018D01*
X54969711Y-57541936D01*
X55179788Y-57663224D01*
X55319504Y-57721096D01*
X55397690Y-57753482D01*
X55403900Y-57756054D01*
X55638211Y-57818838D01*
X55818586Y-57842584D01*
X55878711Y-57850500D01*
X55878712Y-57850500D01*
X56121289Y-57850500D01*
X56169388Y-57844167D01*
X56361789Y-57818838D01*
X56596100Y-57756054D01*
X56820212Y-57663224D01*
X57030289Y-57541936D01*
X57222738Y-57394265D01*
X57394265Y-57222738D01*
X57541936Y-57030289D01*
X57663224Y-56820212D01*
X57756054Y-56596100D01*
X57818838Y-56361789D01*
X57850500Y-56121288D01*
X57850500Y-55878712D01*
X57847443Y-55855495D01*
X57829824Y-55721658D01*
X57818838Y-55638211D01*
X57756054Y-55403900D01*
X57752162Y-55394505D01*
X57695308Y-55257247D01*
X57663224Y-55179788D01*
X57541936Y-54969711D01*
X57394265Y-54777262D01*
X57394260Y-54777256D01*
X57222743Y-54605739D01*
X57222736Y-54605733D01*
X57030293Y-54458067D01*
X57030292Y-54458066D01*
X57030289Y-54458064D01*
X56856859Y-54357934D01*
X56820214Y-54336777D01*
X56820205Y-54336773D01*
X56596104Y-54243947D01*
X56361785Y-54181161D01*
X56121289Y-54149500D01*
X56121288Y-54149500D01*
X55878712Y-54149500D01*
X55878711Y-54149500D01*
X55650293Y-54179571D01*
X55581258Y-54168805D01*
X55529002Y-54122425D01*
X55510117Y-54055156D01*
X55530598Y-53988356D01*
X55561227Y-53956311D01*
X55564646Y-53953828D01*
X55703828Y-53814646D01*
X55819524Y-53655405D01*
X55908884Y-53480025D01*
X55969709Y-53292826D01*
X55980963Y-53221771D01*
X56000500Y-53098422D01*
X56000500Y-52901577D01*
X55969709Y-52707173D01*
X55908882Y-52519970D01*
X55852769Y-52409843D01*
X55819524Y-52344595D01*
X55703828Y-52185354D01*
X55564646Y-52046172D01*
X55405405Y-51930476D01*
X55382711Y-51918913D01*
X55230029Y-51841117D01*
X55042826Y-51780290D01*
X54848422Y-51749500D01*
X54848417Y-51749500D01*
X54685263Y-51749500D01*
X54637811Y-51740061D01*
X54543416Y-51700962D01*
X54543414Y-51700961D01*
X54498086Y-51682185D01*
X54498074Y-51682182D01*
X54333771Y-51649500D01*
X54333767Y-51649500D01*
X45903650Y-51649500D01*
X45836611Y-51629815D01*
X45815969Y-51613181D01*
X44786819Y-50584030D01*
X44753334Y-50522707D01*
X44750500Y-50496349D01*
X44750500Y-50401577D01*
X44719709Y-50207173D01*
X44663590Y-50034459D01*
X44658884Y-50019975D01*
X44658882Y-50019972D01*
X44658882Y-50019970D01*
X44592703Y-49890087D01*
X44569524Y-49844595D01*
X44453828Y-49685354D01*
X44314646Y-49546172D01*
X44155405Y-49430476D01*
X43980029Y-49341117D01*
X43792826Y-49280290D01*
X43598422Y-49249500D01*
X43598417Y-49249500D01*
X43401583Y-49249500D01*
X43401578Y-49249500D01*
X43207173Y-49280290D01*
X43077704Y-49322358D01*
X43019975Y-49341116D01*
X43019971Y-49341117D01*
X43015342Y-49342622D01*
X43014838Y-49341070D01*
X42952440Y-49347757D01*
X42889972Y-49316460D01*
X42854341Y-49256358D01*
X42850500Y-49225735D01*
X42850500Y-48903650D01*
X42870185Y-48836611D01*
X42886814Y-48815974D01*
X44871941Y-46830846D01*
X44912167Y-46803968D01*
X44926547Y-46798013D01*
X45074035Y-46699464D01*
X45199464Y-46574035D01*
X45298013Y-46426547D01*
X45365894Y-46262666D01*
X45400500Y-46088691D01*
X45400500Y-45911309D01*
X45400500Y-45911306D01*
X45400499Y-45911304D01*
X45365896Y-45737341D01*
X45365893Y-45737332D01*
X45362779Y-45729815D01*
X45340908Y-45677011D01*
X45298016Y-45573459D01*
X45298009Y-45573446D01*
X45199464Y-45425965D01*
X45199461Y-45425961D01*
X45074038Y-45300538D01*
X45074034Y-45300535D01*
X45059701Y-45290958D01*
X45014896Y-45237346D01*
X45006189Y-45168021D01*
X45036343Y-45104994D01*
X45040892Y-45100194D01*
X57010252Y-33130834D01*
X57071573Y-33097351D01*
X57141265Y-33102335D01*
G37*
%TD.AperFunction*%
%TA.AperFunction,Conductor*%
G36*
X34518834Y-52968270D02*
G01*
X34574767Y-53010142D01*
X34599184Y-53075606D01*
X34599500Y-53084452D01*
X34599500Y-53828151D01*
X34579815Y-53895190D01*
X34563181Y-53915832D01*
X34200970Y-54278042D01*
X34139647Y-54311527D01*
X34137482Y-54311978D01*
X34079379Y-54323536D01*
X34079376Y-54323536D01*
X34079375Y-54323537D01*
X34079373Y-54323537D01*
X34079372Y-54323538D01*
X33965543Y-54370687D01*
X33965534Y-54370692D01*
X33863095Y-54439140D01*
X33832702Y-54469534D01*
X33775969Y-54526267D01*
X33775966Y-54526270D01*
X33526270Y-54775966D01*
X33526267Y-54775969D01*
X33482705Y-54819530D01*
X33439144Y-54863091D01*
X33439142Y-54863094D01*
X33415329Y-54898733D01*
X33415328Y-54898735D01*
X33415327Y-54898734D01*
X33370689Y-54965539D01*
X33370687Y-54965543D01*
X33347809Y-55020776D01*
X33323539Y-55079367D01*
X33323535Y-55079382D01*
X33299500Y-55200216D01*
X33299500Y-55514547D01*
X33279815Y-55581586D01*
X33263181Y-55602228D01*
X31127565Y-57737843D01*
X31066242Y-57771328D01*
X31064077Y-57771779D01*
X31031090Y-57778340D01*
X31031084Y-57778342D01*
X30894511Y-57834912D01*
X30894498Y-57834919D01*
X30771584Y-57917048D01*
X30771580Y-57917051D01*
X30667051Y-58021580D01*
X30667048Y-58021584D01*
X30584919Y-58144498D01*
X30584912Y-58144511D01*
X30528343Y-58281082D01*
X30528340Y-58281092D01*
X30499500Y-58426079D01*
X30499500Y-58500500D01*
X30479815Y-58567539D01*
X30427011Y-58613294D01*
X30375500Y-58624500D01*
X29059452Y-58624500D01*
X28992413Y-58604815D01*
X28946658Y-58552011D01*
X28936714Y-58482853D01*
X28965739Y-58419297D01*
X28971771Y-58412819D01*
X34387819Y-52996771D01*
X34449142Y-52963286D01*
X34518834Y-52968270D01*
G37*
%TD.AperFunction*%
%TA.AperFunction,Conductor*%
G36*
X40043834Y-53849336D02*
G01*
X40099767Y-53891208D01*
X40124184Y-53956672D01*
X40124500Y-53965518D01*
X40124500Y-58500500D01*
X40104815Y-58567539D01*
X40052011Y-58613294D01*
X40000500Y-58624500D01*
X32309452Y-58624500D01*
X32242413Y-58604815D01*
X32196658Y-58552011D01*
X32186714Y-58482853D01*
X32215739Y-58419297D01*
X32221771Y-58412819D01*
X34347771Y-56286819D01*
X34409094Y-56253334D01*
X34435452Y-56250500D01*
X34573920Y-56250500D01*
X34684944Y-56228415D01*
X34718913Y-56221658D01*
X34855495Y-56165084D01*
X34978416Y-56082951D01*
X35082951Y-55978416D01*
X35165084Y-55855495D01*
X35221658Y-55718913D01*
X35228220Y-55685921D01*
X35260603Y-55624012D01*
X35262098Y-55622490D01*
X35458116Y-55426472D01*
X35519437Y-55392989D01*
X35589129Y-55397973D01*
X35645062Y-55439845D01*
X35648897Y-55445264D01*
X35671048Y-55478415D01*
X35671051Y-55478419D01*
X35775580Y-55582948D01*
X35775584Y-55582951D01*
X35898498Y-55665080D01*
X35898511Y-55665087D01*
X35948817Y-55685924D01*
X36035087Y-55721658D01*
X36072492Y-55729098D01*
X36134401Y-55761482D01*
X36135981Y-55763034D01*
X36287321Y-55914374D01*
X36287331Y-55914385D01*
X36291661Y-55918715D01*
X36291662Y-55918716D01*
X36403466Y-56030520D01*
X36483046Y-56076465D01*
X36540397Y-56109577D01*
X36693125Y-56150501D01*
X36693128Y-56150501D01*
X36858835Y-56150501D01*
X36858851Y-56150500D01*
X37141149Y-56150500D01*
X37141165Y-56150501D01*
X37148761Y-56150501D01*
X37306872Y-56150501D01*
X37306875Y-56150501D01*
X37459603Y-56109577D01*
X37516954Y-56076465D01*
X37596534Y-56030520D01*
X37708338Y-55918716D01*
X37708338Y-55918714D01*
X37718542Y-55908511D01*
X37718546Y-55908506D01*
X37908506Y-55718546D01*
X37908511Y-55718542D01*
X37918714Y-55708338D01*
X37918716Y-55708338D01*
X38030520Y-55596534D01*
X38098715Y-55478416D01*
X38109577Y-55459603D01*
X38150500Y-55306875D01*
X38150500Y-55289353D01*
X38155510Y-55272269D01*
X38165156Y-55257247D01*
X38170185Y-55240122D01*
X38183641Y-55228462D01*
X38193264Y-55213477D01*
X38209500Y-55206054D01*
X38222989Y-55194367D01*
X38246037Y-55189352D01*
X38256809Y-55184429D01*
X38263958Y-55185454D01*
X38274500Y-55183161D01*
X38383888Y-55183161D01*
X38481430Y-55163757D01*
X38528881Y-55154319D01*
X38665463Y-55097745D01*
X38788384Y-55015612D01*
X38892919Y-54911077D01*
X38892921Y-54911073D01*
X38892923Y-54911072D01*
X38904267Y-54894092D01*
X38912994Y-54881030D01*
X38928411Y-54862244D01*
X39912820Y-53877836D01*
X39974142Y-53844352D01*
X40043834Y-53849336D01*
G37*
%TD.AperFunction*%
%TA.AperFunction,Conductor*%
G36*
X28439672Y-38969767D02*
G01*
X28500743Y-38972802D01*
X28547627Y-39002217D01*
X28944138Y-39398729D01*
X28944141Y-39398733D01*
X29031266Y-39485858D01*
X29082489Y-39520084D01*
X29133713Y-39554312D01*
X29202855Y-39582951D01*
X29247547Y-39601463D01*
X29307970Y-39613481D01*
X29368392Y-39625500D01*
X29368393Y-39625500D01*
X30190548Y-39625500D01*
X30257587Y-39645185D01*
X30303342Y-39697989D01*
X30313286Y-39767147D01*
X30284261Y-39830703D01*
X30278229Y-39837180D01*
X26351270Y-43764139D01*
X26351267Y-43764142D01*
X26312639Y-43802770D01*
X26264141Y-43851267D01*
X26247423Y-43876286D01*
X26247424Y-43876287D01*
X26195686Y-43953717D01*
X26195685Y-43953718D01*
X26162346Y-44034208D01*
X26153454Y-44055676D01*
X26153453Y-44055680D01*
X26149238Y-44065857D01*
X26148537Y-44067549D01*
X26125879Y-44181463D01*
X26125652Y-44182603D01*
X26125643Y-44182645D01*
X26124500Y-44188391D01*
X26124500Y-46797648D01*
X26104815Y-46864687D01*
X26103603Y-46866538D01*
X26084913Y-46894508D01*
X26028343Y-47031082D01*
X26028340Y-47031092D01*
X26004749Y-47149692D01*
X25972364Y-47211603D01*
X25911648Y-47246177D01*
X25883132Y-47249500D01*
X25752627Y-47249500D01*
X25685588Y-47229815D01*
X25664946Y-47213181D01*
X25645637Y-47193872D01*
X25645606Y-47193843D01*
X24560323Y-46108560D01*
X24553033Y-46101270D01*
X24553031Y-46101267D01*
X24465906Y-46014142D01*
X24414682Y-45979915D01*
X24363459Y-45945688D01*
X24363456Y-45945686D01*
X24363453Y-45945685D01*
X24287423Y-45914193D01*
X24287419Y-45914191D01*
X24280459Y-45911309D01*
X24249625Y-45898537D01*
X24189202Y-45886518D01*
X24184656Y-45885613D01*
X24184646Y-45885611D01*
X24128783Y-45874500D01*
X24128780Y-45874500D01*
X24128779Y-45874500D01*
X23452351Y-45874500D01*
X23385312Y-45854815D01*
X23383544Y-45853658D01*
X23355495Y-45834916D01*
X23355491Y-45834914D01*
X23355489Y-45834913D01*
X23218917Y-45778343D01*
X23218907Y-45778340D01*
X23073920Y-45749500D01*
X23073918Y-45749500D01*
X22999500Y-45749500D01*
X22932461Y-45729815D01*
X22886706Y-45677011D01*
X22875500Y-45625500D01*
X22875500Y-43890451D01*
X22895185Y-43823412D01*
X22911814Y-43802775D01*
X27712373Y-39002215D01*
X27773694Y-38968732D01*
X27820410Y-38969249D01*
X27820654Y-38967715D01*
X27924101Y-38984099D01*
X28027648Y-39000500D01*
X28027649Y-39000500D01*
X28232351Y-39000500D01*
X28232352Y-39000500D01*
X28301371Y-38989568D01*
X28439347Y-38967715D01*
X28439672Y-38969767D01*
G37*
%TD.AperFunction*%
%TA.AperFunction,Conductor*%
G36*
X59430211Y-32288065D02*
G01*
X59481687Y-32335309D01*
X59499500Y-32399342D01*
X59499500Y-34172273D01*
X59479815Y-34239312D01*
X59427011Y-34285067D01*
X59357853Y-34295011D01*
X59294297Y-34265986D01*
X59257569Y-34210591D01*
X59201095Y-34036782D01*
X59104624Y-33847449D01*
X59065270Y-33793282D01*
X59065269Y-33793282D01*
X58473797Y-34384754D01*
X58462530Y-34342703D01*
X58390119Y-34217285D01*
X58287715Y-34114881D01*
X58162297Y-34042470D01*
X58120244Y-34031202D01*
X58711716Y-33439728D01*
X58657547Y-33400373D01*
X58657547Y-33400372D01*
X58648500Y-33395763D01*
X58597706Y-33347788D01*
X58580912Y-33279966D01*
X58603451Y-33213832D01*
X58648508Y-33174793D01*
X58657816Y-33170051D01*
X58814864Y-33055950D01*
X58829786Y-33045109D01*
X58829788Y-33045106D01*
X58829792Y-33045104D01*
X58980104Y-32894792D01*
X58980106Y-32894788D01*
X58980109Y-32894786D01*
X59105048Y-32722820D01*
X59105047Y-32722820D01*
X59105051Y-32722816D01*
X59201557Y-32533412D01*
X59257569Y-32361022D01*
X59297006Y-32303348D01*
X59361365Y-32276150D01*
X59430211Y-32288065D01*
G37*
%TD.AperFunction*%
%TD*%
M02*
