M48
; DRILL file KiCad 10.0.0 date 2026-09-19T05:49:37
; FORMAT={-:-/ absolute / metric / decimal}
; #@! TF.CreationDate,2026-09-19T05:49:37+09:00
; #@! TF.GenerationSoftware,Kicad,Pcbnew,10.0.0
; #@! TF.FileFunction,Plated,1,2,PTH
FMAT,2
METRIC
; #@! TA.AperFunction,Plated,PTH,ViaDrill
T1C0.250
; #@! TA.AperFunction,Plated,PTH,ViaDrill
T2C0.300
; #@! TA.AperFunction,Plated,PTH,ViaDrill
T3C0.400
; #@! TA.AperFunction,Plated,PTH,ViaDrill
T4C0.600
; #@! TA.AperFunction,Plated,PTH,ComponentDrill
T5C0.900
; #@! TA.AperFunction,Plated,PTH,ComponentDrill
T6C1.000
; #@! TA.AperFunction,Plated,PTH,ComponentDrill
T7C1.020
; #@! TA.AperFunction,Plated,PTH,ComponentDrill
T8C1.100
; #@! TA.AperFunction,Plated,PTH,ComponentDrill
T9C1.600
%
G90
G05
T1
X20.25Y-42.0
X22.0Y-27.75
X22.5Y-57.75
X22.75Y-55.75
X23.25Y-58.5
X25.0Y-42.5
X26.0Y-46.0
X26.75Y-47.25
X27.5Y-44.75
X30.25Y-26.0
X31.0Y-39.0
X34.5Y-51.5
X35.25Y-47.5
X36.75Y-49.0
X39.5Y-47.0
X39.75Y-50.5
X55.25Y-29.5
X56.25Y-11.75
T2
X15.5Y-27.0
X16.0Y-54.0
X18.825Y-51.65
X21.0Y-41.5
X21.0Y-46.5
X21.0Y-52.0
X21.5Y-28.0
X22.254Y-49.225
X23.0Y-46.5
X25.592Y-53.5
X25.654Y-52.625
X25.75Y-54.5
X25.854Y-49.225
X28.15Y-47.075
X29.5Y-51.0
X29.5Y-52.0
X29.5Y-53.0
X29.5Y-54.0
X29.5Y-55.0
X30.15Y-49.25
X30.5Y-51.0
X30.5Y-52.0
X30.5Y-53.0
X30.5Y-54.0
X30.5Y-55.0
X31.25Y-58.5
X33.25Y-49.25
X34.0Y-49.5
X34.125Y-53.5
X34.5Y-55.5
X36.254Y-55.0
X37.0Y-55.0
X38.0Y-50.25
X38.25Y-49.25
X38.31Y-54.433
X39.5Y-57.0
X40.1Y-51.7
X42.0Y-36.5
X42.05Y-38.55
X46.0Y-56.5
X53.5Y-41.0
T3
X4.75Y-29.75
X12.0Y-31.0
X17.125Y-51.675
X17.75Y-25.75
X21.625Y-55.3
X27.5Y-22.5
X32.5Y-22.5
X37.0Y-10.75
X42.0Y-56.25
X42.5Y-35.5
X43.5Y-50.5
X44.25Y-7.25
X44.5Y-46.0
X53.5Y-57.75
X54.75Y-53.0
T4
X18.325Y-47.425
T6
X47.9Y-4.5
X49.9Y-4.5
X51.9Y-4.5
X53.9Y-4.5
X55.9Y-4.5
T7
X23.05Y-37.7
X25.59Y-37.7
X28.13Y-37.7
X30.67Y-37.7
X33.21Y-37.7
X35.75Y-37.7
T8
X57.95Y-24.395
X57.95Y-26.935
X57.95Y-29.475
X57.95Y-32.015
X57.95Y-34.555
T9
X9.1Y-25.25
X9.1Y-27.75
X9.1Y-30.25
T5
G00X46.9Y-14.25
M15
G01X46.9Y-14.75
M16
G05
G00X56.9Y-14.25
M15
G01X56.9Y-14.75
M16
G05
M30
