%TF.GenerationSoftware,KiCad,Pcbnew,10.0.0*%
%TF.CreationDate,2026-09-19T05:49:36+09:00*%
%TF.ProjectId,board-l,626f6172-642d-46c2-9e6b-696361645f70,rev?*%
%TF.SameCoordinates,Original*%
%TF.FileFunction,Soldermask,Top*%
%TF.FilePolarity,Negative*%
%FSLAX46Y46*%
G04 Gerber Fmt 4.6, Leading zero omitted, Abs format (unit mm)*
G04 Created by KiCad (PCBNEW 10.0.0) date 2026-09-19 05:49:36*
%MOMM*%
%LPD*%
G01*
G04 APERTURE LIST*
%ADD10R,2.380000X2.330000*%
%ADD11R,2.380000X1.100000*%
%ADD12R,1.500000X2.500000*%
%ADD13R,0.900000X0.800000*%
%ADD14C,3.200000*%
%ADD15R,3.456000X1.283000*%
%ADD16R,1.485000X1.728000*%
%ADD17R,0.800000X0.900000*%
%ADD18R,1.283000X3.456000*%
%ADD19R,0.550000X1.100000*%
%ADD20R,0.806000X0.864000*%
%ADD21R,1.133000X1.377000*%
%ADD22R,2.424000X3.620000*%
%ADD23R,1.800000X1.620000*%
%ADD24R,1.728000X1.190000*%
%ADD25O,1.742000X0.364000*%
%ADD26R,0.864000X0.806000*%
%ADD27R,1.728000X1.485000*%
%ADD28O,0.364000X1.662000*%
%ADD29R,1.800000X1.500000*%
%ADD30C,1.500000*%
%ADD31R,1.600000X3.900000*%
%ADD32R,2.200000X1.700000*%
%ADD33R,1.410000X1.350000*%
%ADD34C,2.250000*%
%ADD35C,1.600000*%
%ADD36O,1.600000X2.200000*%
%ADD37R,1.700000X1.700000*%
%ADD38C,1.700000*%
%ADD39R,1.800000X1.800000*%
G04 APERTURE END LIST*
D10*
%TO.C,LED4*%
X46000000Y-9180000D03*
D11*
X46000000Y-7000000D03*
%TD*%
D12*
%TO.C,J4*%
X32580000Y-58250000D03*
X30040000Y-58250000D03*
X27500000Y-58250000D03*
%TD*%
D13*
%TO.C,C19*%
X55600000Y-31500000D03*
X55600000Y-30100000D03*
%TD*%
D14*
%TO.C,REF\u002A\u002A*%
X4000000Y-4000000D03*
%TD*%
D10*
%TO.C,LED6*%
X54100000Y-9180000D03*
D11*
X54100000Y-7000000D03*
%TD*%
D10*
%TO.C,LED12*%
X14500000Y-9815000D03*
D11*
X14500000Y-7635000D03*
%TD*%
D15*
%TO.C,R36*%
X3000000Y-39230000D03*
X3000000Y-45370000D03*
%TD*%
D16*
%TO.C,C10*%
X46160000Y-52500000D03*
X49340000Y-52500000D03*
%TD*%
D15*
%TO.C,R32*%
X52000000Y-31320000D03*
X52000000Y-25180000D03*
%TD*%
D17*
%TO.C,C22*%
X35554000Y-51025000D03*
X36954000Y-51025000D03*
%TD*%
D18*
%TO.C,R34*%
X46570000Y-18000000D03*
X40430000Y-18000000D03*
%TD*%
D19*
%TO.C,U4*%
X38250000Y-58400000D03*
X39200000Y-58400000D03*
X40150000Y-58400000D03*
X40150000Y-56000000D03*
X39200000Y-56000000D03*
X38250000Y-56000000D03*
%TD*%
D10*
%TO.C,LED15*%
X47275000Y-24000000D03*
D11*
X47275000Y-21820000D03*
%TD*%
D20*
%TO.C,RT1*%
X31750000Y-28175000D03*
X30250000Y-28175000D03*
%TD*%
D21*
%TO.C,R24*%
X22254000Y-50825000D03*
X24254000Y-50825000D03*
%TD*%
D10*
%TO.C,LED18*%
X21800000Y-23775000D03*
D11*
X21800000Y-21595000D03*
%TD*%
D18*
%TO.C,R30*%
X53375000Y-44525000D03*
X47235000Y-44525000D03*
%TD*%
%TO.C,RS1*%
X22720000Y-42925000D03*
X16580000Y-42925000D03*
%TD*%
D10*
%TO.C,LED11*%
X10450000Y-9815000D03*
D11*
X10450000Y-7635000D03*
%TD*%
D22*
%TO.C,L1*%
X13675000Y-40300000D03*
X7415000Y-40300000D03*
%TD*%
D10*
%TO.C,LED13*%
X39175000Y-24000000D03*
D11*
X39175000Y-21820000D03*
%TD*%
D18*
%TO.C,R33*%
X8180000Y-14500000D03*
X14320000Y-14500000D03*
%TD*%
D23*
%TO.C,D11*%
X8650000Y-57810000D03*
X12950000Y-57790000D03*
%TD*%
D16*
%TO.C,C11*%
X46160000Y-54750000D03*
X49340000Y-54750000D03*
%TD*%
D24*
%TO.C,F1*%
X42000000Y-54900000D03*
X42000000Y-57800000D03*
%TD*%
D25*
%TO.C,U3*%
X33000000Y-56110000D03*
X33000000Y-55460000D03*
X33000000Y-54810000D03*
X33000000Y-54160000D03*
X33000000Y-53500000D03*
X33000000Y-52850000D03*
X33000000Y-52200000D03*
X33000000Y-51550000D03*
X33000000Y-50900000D03*
X33000000Y-50250000D03*
X27260000Y-50250000D03*
X27260000Y-50900000D03*
X27260000Y-51550000D03*
X27260000Y-52200000D03*
X27260000Y-52850000D03*
X27260000Y-53500000D03*
X27260000Y-54160000D03*
X27260000Y-54810000D03*
X27260000Y-55460000D03*
X27260000Y-56110000D03*
%TD*%
D16*
%TO.C,C12*%
X48160000Y-57250000D03*
X51340000Y-57250000D03*
%TD*%
D21*
%TO.C,R25*%
X29950000Y-39700000D03*
X31950000Y-39700000D03*
%TD*%
D10*
%TO.C,LED8*%
X43300000Y-32625000D03*
D11*
X43300000Y-30445000D03*
%TD*%
D26*
%TO.C,R21*%
X17300000Y-49925000D03*
X17300000Y-48425000D03*
%TD*%
D10*
%TO.C,LED23*%
X17225000Y-32950000D03*
D11*
X17225000Y-30770000D03*
%TD*%
D10*
%TO.C,LED3*%
X54290000Y-49815000D03*
D11*
X54290000Y-47635000D03*
%TD*%
D10*
%TO.C,LED19*%
X6190000Y-49815000D03*
D11*
X6190000Y-47635000D03*
%TD*%
D10*
%TO.C,LED24*%
X21275000Y-32950000D03*
D11*
X21275000Y-30770000D03*
%TD*%
D27*
%TO.C,C14*%
X56250000Y-45340000D03*
X56250000Y-42160000D03*
%TD*%
D10*
%TO.C,LED2*%
X50240000Y-49815000D03*
D11*
X50240000Y-47635000D03*
%TD*%
D10*
%TO.C,LED14*%
X43225000Y-24000000D03*
D11*
X43225000Y-21820000D03*
%TD*%
D20*
%TO.C,R22*%
X20325000Y-39600000D03*
X18825000Y-39600000D03*
%TD*%
D28*
%TO.C,U2*%
X19745000Y-53200000D03*
X19085000Y-53200000D03*
X18435000Y-53200000D03*
X17785000Y-53200000D03*
X17785000Y-57460000D03*
X18435000Y-57460000D03*
X19085000Y-57460000D03*
X19745000Y-57460000D03*
D29*
X18765000Y-55330000D03*
%TD*%
D30*
%TO.C,TP1*%
X21000000Y-58400000D03*
%TD*%
D15*
%TO.C,R35*%
X4500000Y-20180000D03*
X4500000Y-26320000D03*
%TD*%
D14*
%TO.C,REF\u002A\u002A*%
X4000000Y-56000000D03*
%TD*%
D15*
%TO.C,R37*%
X4500000Y-35320000D03*
X4500000Y-29180000D03*
%TD*%
D17*
%TO.C,C24*%
X31700000Y-27000000D03*
X30300000Y-27000000D03*
%TD*%
D31*
%TO.C,L2*%
X33675000Y-42775000D03*
X30675000Y-42775000D03*
%TD*%
D21*
%TO.C,R20*%
X24254000Y-53225000D03*
X22254000Y-53225000D03*
%TD*%
D32*
%TO.C,D10*%
X56820000Y-38750000D03*
X51680000Y-38750000D03*
%TD*%
D33*
%TO.C,C16*%
X28225000Y-40550000D03*
X26225000Y-40550000D03*
%TD*%
D10*
%TO.C,LED9*%
X47350000Y-32625000D03*
D11*
X47350000Y-30445000D03*
%TD*%
D10*
%TO.C,LED16*%
X13700000Y-23775000D03*
D11*
X13700000Y-21595000D03*
%TD*%
D10*
%TO.C,LED1*%
X46190000Y-49815000D03*
D11*
X46190000Y-47635000D03*
%TD*%
D14*
%TO.C,REF\u002A\u002A*%
X39500000Y-4000000D03*
%TD*%
D10*
%TO.C,LED20*%
X10240000Y-49815000D03*
D11*
X10240000Y-47635000D03*
%TD*%
D10*
%TO.C,LED5*%
X50050000Y-9180000D03*
D11*
X50050000Y-7000000D03*
%TD*%
D26*
%TO.C,R27*%
X22800000Y-58750000D03*
X22800000Y-57250000D03*
%TD*%
D17*
%TO.C,C13*%
X44300000Y-57750000D03*
X45700000Y-57750000D03*
%TD*%
D10*
%TO.C,LED7*%
X39250000Y-32625000D03*
D11*
X39250000Y-30445000D03*
%TD*%
D18*
%TO.C,R31*%
X43570000Y-13250000D03*
X37430000Y-13250000D03*
%TD*%
D10*
%TO.C,LED10*%
X6960000Y-9815000D03*
D11*
X6960000Y-7635000D03*
%TD*%
D13*
%TO.C,C18*%
X55600000Y-32800000D03*
X55600000Y-34200000D03*
%TD*%
%TO.C,C21*%
X19500000Y-50200000D03*
X19500000Y-48800000D03*
%TD*%
D33*
%TO.C,C17*%
X28200000Y-42525000D03*
X26200000Y-42525000D03*
%TD*%
D10*
%TO.C,LED22*%
X13175000Y-32950000D03*
D11*
X13175000Y-30770000D03*
%TD*%
D20*
%TO.C,R26*%
X35250000Y-56500000D03*
X36750000Y-56500000D03*
%TD*%
D10*
%TO.C,LED21*%
X14290000Y-49815000D03*
D11*
X14290000Y-47635000D03*
%TD*%
D14*
%TO.C,REF\u002A\u002A*%
X20500000Y-4000000D03*
%TD*%
D10*
%TO.C,LED17*%
X17750000Y-23775000D03*
D11*
X17750000Y-21595000D03*
%TD*%
D14*
%TO.C,REF\u002A\u002A*%
X56000000Y-56000000D03*
%TD*%
D13*
%TO.C,C15*%
X39800000Y-54100000D03*
X39800000Y-52700000D03*
%TD*%
D17*
%TO.C,C20*%
X35554000Y-53625000D03*
X36954000Y-53625000D03*
%TD*%
D34*
%TO.C,SW2*%
X9100000Y-30250000D03*
X9100000Y-27750000D03*
X9100000Y-25250000D03*
%TD*%
D35*
%TO.C,RV1*%
X47900000Y-4500000D03*
X51900000Y-4500000D03*
X55900000Y-4500000D03*
X49900000Y-4500000D03*
X53900000Y-4500000D03*
D36*
X56900000Y-14500000D03*
X46900000Y-14500000D03*
%TD*%
D37*
%TO.C,J3*%
X57950000Y-24395000D03*
D38*
X57950000Y-26935000D03*
X57950000Y-29475000D03*
X57950000Y-32015000D03*
X57950000Y-34555000D03*
%TD*%
D39*
%TO.C,J2*%
X23050000Y-37700000D03*
D35*
X25590000Y-37700000D03*
X28130000Y-37700000D03*
X30670000Y-37700000D03*
X33210000Y-37700000D03*
X35750000Y-37700000D03*
%TD*%
M02*
