#VRML V2.0 utf8
# 3D model generated by easyeda2kicad.py (https://github.com/uPesy/easyeda2kicad.py)

Shape{
    appearance Appearance {
        material  Material 	{
            diffuseColor 0.6862745098039216 0.403921568627451 0.23921568627450981
            specularColor 0.7529411764705882 0.7529411764705882 0.7529411764705882
            ambientIntensity 1.0
            transparency 1.0
            shininess 0.5
        }
    }
    geometry IndexedFaceSet {
        ccw TRUE
        solid FALSE
        coord DEF co Coordinate {
            point [
                0.6889 0.6299 0.1954, 0.4015 0.4128 0.1954, 0.3731 0.4128 0.1954, 1.7322 -0.7677 0.1954, 1.2401 -0.7677 0.1954, 1.2401 -0.6299 0.1954, 1.7322 0.7677 0.1954, 1.0826 0.0591 0.1954, 1.2401 0.6299 0.1954, -0.689 0.7677 0.1954, 0.6889 0.7677 0.1954, -0.0618 0.4128 0.1954, 0.5622 0.4128 0.1954, 0.8858 0.0591 0.1954, 0.4866 0.1859 0.1954, 1.2401 0.7677 0.1954, -0.689 0.6299 0.1954, -1.2402 0.7677 0.1954, -1.2402 0.6299 0.1954, -1.7323 0.7677 0.1954, -1.7323 -0.7677 0.1954, -1.0827 -0.0591 0.1954, -0.8859 -0.0591 0.1954, -1.2402 -0.6299 0.1954, 0.6889 -0.7677 0.1954, -0.689 -0.6299 0.1954, 0.6889 -0.6299 0.1954, 0.2596 0.1859 0.1954, 0.2833 0.1907 0.1954, 0.4488 0.1859 0.1954, -1.2402 -0.7677 0.1954, -0.689 -0.7677 0.1954, 0.0984 0.0591 0.1954, -0.1328 0.3693 0.1954, -0.2415 0.3693 0.1954, -0.2084 0.3838 0.1954, 0.4204 0.3549 0.1954, 0.5149 0.3549 0.1954, 0.1084 0.4128 0.1954, 0.5339 0.4128 0.1954, -0.0618 0.1859 0.1954, 0.1084 0.1859 0.1954, 0.2596 0.4128 0.1954, 0.1462 0.4128 0.1954, 0.2833 0.408 0.1954, 0.3022 0.3983 0.1954, 0.3306 0.3597 0.1954, 0.3211 0.379 0.1954, 0.3353 0.3355 0.1954, 0.3353 0.2631 0.1954, 0.3306 0.239 0.1954, 0.3211 0.2197 0.1954, 0.3022 0.2004 0.1954, 0.1462 0.1859 0.1954, -0.0335 0.3838 0.1954, 0.0894 0.3066 0.1954, -0.0335 0.3066 0.1954, -0.1658 0.3838 0.1954, 0.0894 0.2776 0.1954, -0.0335 0.2776 0.1954, -0.0335 0.2148 0.1954, 0.1084 0.2148 0.1954, -0.0985 0.0591 0.1954, -0.1658 0.1859 0.1954, -1.0827 0.0591 0.1954, 0.8858 -0.0591 0.1954, 0.0984 -0.0591 0.1954, 0.1084 0.3838 0.1954, -0.1469 0.379 0.1954, -0.1044 0.379 0.1954, -0.1233 0.3983 0.1954, -0.4637 0.1859 0.1954, -0.2509 0.2004 0.1954, -0.232 0.1907 0.1954, -0.3219 0.4128 0.1954, -0.2084 0.4128 0.1954, -0.232 0.408 0.1954, -0.3219 0.3838 0.1954, -0.284 0.3355 0.1954, -0.4637 0.3838 0.1954, -0.2273 0.379 0.1954, -0.128 0.3549 0.1954, -0.2509 0.3983 0.1954, -0.2509 0.3549 0.1954, -0.2557 0.3355 0.1954, -0.2699 0.379 0.1954, -0.284 0.2631 0.1954, -0.2557 0.2631 0.1954, -0.128 0.2438 0.1954, -0.4921 0.1859 0.1954, -0.2415 0.2293 0.1954, -0.1328 0.2293 0.1954, -0.2699 0.2197 0.1954, -0.1469 0.2197 0.1954, -0.1658 0.2148 0.1954, -0.2084 0.2148 0.1954, -0.2273 0.2197 0.1954, -0.2509 0.2438 0.1954, -0.0997 0.2438 0.1954, -0.0997 0.3549 0.1954, -0.1044 0.2197 0.1954, -0.1233 0.2004 0.1954, -0.1422 0.1907 0.1954, -0.2084 0.1859 0.1954, -0.8859 0.0591 0.1954, -0.1658 0.4128 0.1954, -0.1422 0.408 0.1954, -0.2793 0.3597 0.1954, -0.4921 0.4128 0.1954, -0.2793 0.239 0.1954, -0.0985 -0.0591 0.1954, 1.0826 -0.0591 0.1954, 0.3069 0.2631 0.1954, 0.3022 0.2438 0.1954, 0.2927 0.2293 0.1954, 0.3069 0.3355 0.1954, 0.2596 0.3838 0.1954, 0.2786 0.379 0.1954, 0.2786 0.2197 0.1954, 0.2927 0.3693 0.1954, 0.3022 0.3549 0.1954, 0.2596 0.2148 0.1954, 0.1745 0.2148 0.1954, 0.1745 0.3838 0.1954, 0.4251 0.3355 0.1954, 0.5102 0.3355 0.1954, 0.4677 0.2052 0.1954, -0.689 -0.6299 0.5103, 0.6889 -0.7677 0.5103, 0.6889 -0.6299 0.5103, 1.5267 -0.5311 0.5103, 1.2401 -0.6299 0.5103, 1.7322 -0.7677 0.5103, 1.2401 -0.7677 0.5103, 1.5267 0.5311 0.5103, 0.6889 0.6299 0.5103, -0.689 0.6299 0.5103, 1.2401 0.6299 0.5103, -0.689 0.7677 0.5103, 1.7322 0.7677 0.5103, 1.2401 0.7677 0.5103, 0.6889 0.7677 0.5103, -1.2402 0.6299 0.5103, -1.2402 0.7677 0.5103, -1.7323 0.7677 0.5103, -1.5268 -0.5311 0.5103, -1.5268 0.5311 0.5103, -0.689 -0.7677 0.5103, -1.7323 -0.7677 0.5103, -1.2402 -0.7677 0.5103, -1.2402 -0.6299 0.5103
            ]
        }
        coordIndex [
            0,1,2,-1,3,4,5,-1,6,7,8,-1,9,10,11,-1,12,13,14,-1,7,6,3,-1,6,8,15,-1,11,16,9,-1,17,18,19,-1,20,19,21,-1,21,22,23,-1,24,25,26,-1,27,28,29,-1,20,23,30,-1,24,31,25,-1,32,14,13,-1,33,34,35,-1,36,1,37,-1,10,0,38,-1,39,0,12,-1,39,1,0,-1,1,39,37,-1,0,8,12,-1,29,32,27,-1,14,32,29,-1,32,40,41,-1,0,2,42,-1,0,42,43,-1,2,44,42,-1,2,45,44,-1,2,46,47,-1,2,47,45,-1,46,2,48,-1,2,29,48,-1,29,49,48,-1,29,50,49,-1,29,51,50,-1,29,52,51,-1,29,28,52,-1,53,32,41,-1,27,32,53,-1,54,55,56,-1,33,35,57,-1,53,55,43,-1,53,58,55,-1,59,58,60,-1,58,61,60,-1,53,61,58,-1,40,62,63,-1,61,53,41,-1,19,64,21,-1,65,66,32,-1,67,55,54,-1,43,38,0,-1,10,38,11,-1,55,67,43,-1,43,67,38,-1,57,68,33,-1,11,69,70,-1,71,72,73,-1,74,75,76,-1,77,78,79,-1,80,35,34,-1,81,34,33,-1,74,76,82,-1,34,81,83,-1,77,74,82,-1,83,81,84,-1,85,77,82,-1,86,79,78,-1,87,84,88,-1,62,89,71,-1,90,88,91,-1,92,72,71,-1,93,94,91,-1,90,95,96,-1,94,95,90,-1,94,90,91,-1,97,88,90,-1,97,87,88,-1,84,81,88,-1,98,88,81,-1,99,11,40,-1,40,100,98,-1,100,40,101,-1,40,63,102,-1,101,40,102,-1,62,103,63,-1,71,73,62,-1,62,104,89,-1,86,71,79,-1,16,75,74,-1,11,105,16,-1,16,105,75,-1,11,106,105,-1,11,70,106,-1,99,98,81,-1,40,98,99,-1,11,99,69,-1,77,107,78,-1,16,108,18,-1,16,74,108,-1,85,107,77,-1,71,86,109,-1,18,108,64,-1,62,110,104,-1,71,109,92,-1,22,104,110,-1,7,3,111,-1,12,8,7,-1,5,65,111,-1,3,5,111,-1,5,26,65,-1,12,7,13,-1,73,103,62,-1,65,32,13,-1,26,110,66,-1,65,26,66,-1,26,25,110,-1,62,40,32,-1,19,18,64,-1,108,89,104,-1,23,22,25,-1,110,25,22,-1,23,20,21,-1,108,104,64,-1,112,113,114,-1,115,116,117,-1,112,114,118,-1,115,119,120,-1,117,119,115,-1,115,112,116,-1,121,116,112,-1,122,123,121,-1,112,118,121,-1,121,123,116,-1,124,125,126,-1,127,128,129,-1,130,129,131,-1,132,131,133,-1,134,135,136,-1,137,135,134,-1,135,138,136,-1,139,140,137,-1,141,138,135,-1,142,143,144,-1,130,145,129,-1,146,134,136,-1,146,144,145,-1,127,147,128,-1,145,144,148,-1,148,149,150,-1,146,136,142,-1,127,129,145,-1,142,144,146,-1,132,139,134,-1,139,137,134,-1,131,132,130,-1,132,134,130,-1,148,150,145,-1,127,145,150,-1,
        ]
    }
}
Shape{
    appearance Appearance {
        material  Material 	{
            diffuseColor 0.6862745098039216 0.5333333333333333 0.43529411764705883
            specularColor 0.7529411764705882 0.7529411764705882 0.7529411764705882
            ambientIntensity 1.0
            transparency 1.0
            shininess 0.5
        }
    }
    geometry IndexedFaceSet {
        ccw TRUE
        solid FALSE
        coord DEF co Coordinate {
            point [
                -0.689 -0.7677 0.5103, -0.689 -0.6299 0.1954, -0.689 -0.7677 0.1954, -0.689 -0.6299 0.5103, -1.2402 -0.6299 0.1954, -1.2402 -0.6299 0.5103, -1.2402 -0.7677 0.1954, -1.2402 -0.7677 0.5103, 0.6889 -0.7677 0.1954, 0.6889 -0.7677 0.5103, -1.7323 -0.7677 0.5103, -1.7323 -0.7677 0.1954, 1.2401 -0.7677 0.5103, 1.7322 -0.7677 0.1954, 1.7322 -0.7677 0.5103, 1.2401 -0.7677 0.1954, -1.7323 0.7677 0.5103, -1.7323 0.7677 0.1954, -1.2402 0.7677 0.5103, -1.2402 0.7677 0.1954, 0.6889 0.7677 0.5103, 0.6889 0.7677 0.1954, -0.689 0.7677 0.1954, -0.689 0.7677 0.5103, 1.7322 0.7677 0.5103, 1.7322 0.7677 0.1954, 1.2401 0.7677 0.1954, 1.2401 0.7677 0.5103, -1.2402 0.6299 0.1954, -1.2402 0.6299 0.5103, -0.689 0.6299 0.1954, -0.689 0.6299 0.5103, 0.6889 0.6299 0.1954, 0.6889 0.6299 0.5103, 1.2401 0.6299 0.1954, 1.2401 0.6299 0.5103, 1.2401 -0.6299 0.1954, 1.2401 -0.6299 0.5103, 0.6889 -0.6299 0.1954, 0.6889 -0.6299 0.5103
            ]
        }
        coordIndex [
            0,1,2,-1,0,3,1,-1,3,4,1,-1,3,5,4,-1,5,6,4,-1,5,7,6,-1,0,8,9,-1,8,0,2,-1,10,11,6,-1,10,6,7,-1,12,13,14,-1,13,12,15,-1,11,10,16,-1,11,16,17,-1,18,17,16,-1,17,18,19,-1,20,21,22,-1,20,22,23,-1,24,25,26,-1,24,26,27,-1,18,28,19,-1,18,29,28,-1,29,30,28,-1,29,31,30,-1,31,22,30,-1,31,23,22,-1,20,32,21,-1,20,33,32,-1,33,34,32,-1,33,35,34,-1,35,26,34,-1,35,27,26,-1,25,24,14,-1,25,14,13,-1,12,36,15,-1,12,37,36,-1,37,38,36,-1,37,39,38,-1,39,8,38,-1,39,9,8,-1,
        ]
    }
}
Shape{
    appearance Appearance {
        material  Material 	{
            diffuseColor 0.2549019607843137 0.2549019607843137 0.2549019607843137
            specularColor 0.7529411764705882 0.7529411764705882 0.7529411764705882
            ambientIntensity 1.0
            transparency 1.0
            shininess 0.5
        }
    }
    geometry IndexedFaceSet {
        ccw TRUE
        solid FALSE
        coord DEF co Coordinate {
            point [
                -1.5268 0.5311 0.5103, -1.5268 0.5311 1.4158, 1.5267 0.5311 1.4158, 1.5267 0.5311 0.5103, 1.5267 -0.5311 1.4158, 1.5267 -0.5311 0.5103, -1.5268 -0.5311 1.4158, -1.5268 -0.5311 0.5103, -0.689 0.2953 1.4158, -0.0985 0.2953 1.4158, -0.0985 -0.2953 1.4158, -0.689 -0.2953 1.4158, -0.689 0.2953 1.4552, -0.689 0.2953 1.5733, -0.689 0.2953 1.8646, -0.689 0.2953 2.156, -0.0985 0.2953 3.03, -0.689 0.2953 2.4473, -0.689 0.2953 2.7387, -0.689 0.2953 3.03, -0.5709 0.1772 3.1481, -0.2166 0.1772 3.1481, -0.0985 -0.2953 3.03, -0.2166 -0.1772 3.1481, -0.5709 -0.1772 3.1481, -0.689 -0.2953 3.03, -0.689 -0.2953 2.7387, -0.689 -0.2953 2.156, -0.689 -0.2953 1.8646, -0.689 -0.2953 1.5733, -0.689 -0.2953 1.4552, -0.689 -0.2953 2.4473, -0.689 -0.0591 1.4552, -0.689 0.0591 1.4552, -0.689 -0.1772 1.4552, -0.689 0.1772 1.4552, -0.689 -0.0591 1.5733, -0.689 -0.1772 1.5733, -0.689 0.0591 1.5733, -0.689 0.1772 1.5733, -0.4921 0.4128 0.1954, -0.4921 0.4128 0.1914, -0.4921 0.1859 0.1914, -0.4921 0.1859 0.1954, -0.4637 0.1859 0.1914, -0.4637 0.1859 0.1954, -0.4637 0.3838 0.1914, -0.4637 0.3838 0.1954, -0.3219 0.3838 0.1914, -0.3219 0.3838 0.1954, -0.3219 0.4128 0.1914, -0.3219 0.4128 0.1954, -0.2415 0.2293 0.1914, -0.2699 0.2197 0.1914, -0.2509 0.2438 0.1914, -0.0997 0.2438 0.1914, -0.1044 0.2197 0.1914, -0.128 0.2438 0.1914, -0.232 0.408 0.1914, -0.2084 0.3838 0.1914, -0.2273 0.379 0.1914, -0.1658 0.3838 0.1914, -0.1422 0.408 0.1914, -0.1469 0.379 0.1914, -0.1233 0.3983 0.1914, -0.1328 0.3693 0.1914, -0.1658 0.4128 0.1914, -0.2084 0.4128 0.1914, -0.2415 0.3693 0.1914, -0.2509 0.3983 0.1914, -0.2509 0.3549 0.1914, -0.2699 0.379 0.1914, -0.2793 0.3597 0.1914, -0.2557 0.3355 0.1914, -0.2793 0.239 0.1914, -0.2557 0.2631 0.1914, -0.284 0.2631 0.1914, -0.284 0.3355 0.1914, -0.2273 0.2197 0.1914, -0.2509 0.2004 0.1914, -0.232 0.1907 0.1914, -0.2084 0.2148 0.1914, -0.1658 0.1859 0.1914, -0.2084 0.1859 0.1914, -0.1658 0.2148 0.1914, -0.1469 0.2197 0.1914, -0.1422 0.1907 0.1914, -0.1328 0.2293 0.1914, -0.1233 0.2004 0.1914, -0.1044 0.379 0.1914, -0.128 0.3549 0.1914, -0.0997 0.3549 0.1914, -0.0618 0.4128 0.1914, -0.0335 0.3066 0.1914, -0.0618 0.1859 0.1914, -0.0335 0.2776 0.1914, 0.1084 0.4128 0.1914, -0.0335 0.3838 0.1914, 0.0894 0.3066 0.1914, 0.0894 0.2776 0.1914, -0.0335 0.2148 0.1914, 0.1084 0.2148 0.1914, 0.1084 0.1859 0.1914, 0.1084 0.3838 0.1914, 0.3306 0.3597 0.1914, 0.3069 0.3355 0.1914, 0.3022 0.3549 0.1914, 0.3353 0.3355 0.1914, 0.3069 0.2631 0.1914, 0.3353 0.2631 0.1914, 0.3211 0.2197 0.1914, 0.2927 0.2293 0.1914, 0.3022 0.2438 0.1914, 0.2786 0.2197 0.1914, 0.3022 0.2004 0.1914, 0.2833 0.1907 0.1914, 0.2596 0.2148 0.1914, 0.2596 0.1859 0.1914, 0.3306 0.239 0.1914, 0.1745 0.2148 0.1914, 0.1462 0.1859 0.1914, 0.1745 0.3838 0.1914, 0.1462 0.4128 0.1914, 0.2596 0.3838 0.1914, 0.2833 0.408 0.1914, 0.2786 0.379 0.1914, 0.2927 0.3693 0.1914, 0.3022 0.3983 0.1914, 0.3211 0.379 0.1914, 0.2596 0.4128 0.1914, 0.5622 0.4128 0.1914, 0.4866 0.1859 0.1914, 0.5102 0.3355 0.1914, 0.4204 0.3549 0.1914, 0.3731 0.4128 0.1914, 0.4015 0.4128 0.1914, 0.4251 0.3355 0.1914, 0.5339 0.4128 0.1914, 0.5149 0.3549 0.1914, 0.4488 0.1859 0.1914, 0.4677 0.2052 0.1914, -0.128 0.3549 0.1954, -0.0997 0.3549 0.1954, -0.1044 0.379 0.1954, -0.1233 0.3983 0.1954, -0.1422 0.408 0.1954, -0.1658 0.4128 0.1954, -0.2084 0.4128 0.1954, -0.232 0.408 0.1954, -0.2509 0.3983 0.1954, -0.2699 0.379 0.1954, -0.2793 0.3597 0.1954, -0.284 0.3355 0.1954, -0.284 0.2631 0.1954, -0.2793 0.239 0.1954, -0.2699 0.2197 0.1954, -0.2509 0.2004 0.1954, -0.232 0.1907 0.1954, -0.2084 0.1859 0.1954, -0.1658 0.1859 0.1954, -0.1422 0.1907 0.1954, -0.1233 0.2004 0.1954, -0.1044 0.2197 0.1954, -0.0997 0.2438 0.1954, -0.128 0.2438 0.1954, -0.1328 0.2293 0.1954, -0.1469 0.2197 0.1954, -0.1658 0.2148 0.1954, -0.2084 0.2148 0.1954, -0.2273 0.2197 0.1954, -0.2415 0.2293 0.1954, -0.2509 0.2438 0.1954, -0.2557 0.2631 0.1954, -0.2557 0.3355 0.1954, -0.2509 0.3549 0.1954, -0.2415 0.3693 0.1954, -0.2273 0.379 0.1954, -0.2084 0.3838 0.1954, -0.1658 0.3838 0.1954, -0.1469 0.379 0.1954, -0.1328 0.3693 0.1954, -0.0335 0.3838 0.1954, 0.1084 0.3838 0.1954, 0.1084 0.4128 0.1954, -0.0618 0.4128 0.1954, -0.0618 0.1859 0.1954, 0.1084 0.1859 0.1954, 0.1084 0.2148 0.1954, -0.0335 0.2148 0.1954, -0.0335 0.2776 0.1954, 0.0894 0.2776 0.1954, 0.0894 0.3066 0.1954, -0.0335 0.3066 0.1954, 0.1462 0.1859 0.1954, 0.2596 0.1859 0.1954, 0.2833 0.1907 0.1954, 0.3022 0.2004 0.1954, 0.3211 0.2197 0.1954, 0.3306 0.239 0.1954, 0.3353 0.2631 0.1954, 0.3353 0.3355 0.1954, 0.3306 0.3597 0.1954, 0.3211 0.379 0.1954, 0.3022 0.3983 0.1954, 0.2833 0.408 0.1954, 0.2596 0.4128 0.1954, 0.1462 0.4128 0.1954, 0.2596 0.2148 0.1954, 0.1745 0.2148 0.1954, 0.1745 0.3838 0.1954, 0.2596 0.3838 0.1954, 0.2786 0.379 0.1954, 0.2927 0.3693 0.1954, 0.3022 0.3549 0.1954, 0.3069 0.3355 0.1954, 0.3069 0.2631 0.1954, 0.3022 0.2438 0.1954, 0.2927 0.2293 0.1954, 0.2786 0.2197 0.1954, 0.4488 0.1859 0.1954, 0.4866 0.1859 0.1954, 0.5622 0.4128 0.1954, 0.5339 0.4128 0.1954, 0.5149 0.3549 0.1954, 0.4204 0.3549 0.1954, 0.4015 0.4128 0.1954, 0.3731 0.4128 0.1954, 0.5102 0.3355 0.1954, 0.4677 0.2052 0.1954, 0.4251 0.3355 0.1954
            ]
        }
        coordIndex [
            0,1,2,-1,0,2,3,-1,3,2,4,-1,3,4,5,-1,5,4,6,-1,5,6,7,-1,7,6,1,-1,7,1,0,-1,8,9,1,-1,10,4,9,-1,11,1,6,-1,4,2,9,-1,1,9,2,-1,6,4,10,-1,1,11,8,-1,6,10,11,-1,12,13,9,-1,12,9,8,-1,14,9,13,-1,15,9,14,-1,16,15,17,-1,15,16,9,-1,16,18,19,-1,17,18,16,-1,20,21,16,-1,20,16,19,-1,21,22,16,-1,22,21,23,-1,23,21,20,-1,23,20,24,-1,23,24,25,-1,23,25,22,-1,26,22,25,-1,22,27,10,-1,28,29,10,-1,10,29,30,-1,28,10,27,-1,10,30,11,-1,22,31,27,-1,22,26,31,-1,22,9,16,-1,9,22,10,-1,32,33,11,-1,32,11,34,-1,11,30,34,-1,35,8,33,-1,11,33,8,-1,12,8,35,-1,28,36,37,-1,17,15,36,-1,38,36,15,-1,14,13,39,-1,14,39,38,-1,15,14,38,-1,27,36,28,-1,36,27,17,-1,28,37,29,-1,31,18,17,-1,17,27,31,-1,18,26,19,-1,26,18,31,-1,26,25,19,-1,24,20,19,-1,24,19,25,-1,40,41,42,-1,40,42,43,-1,43,42,44,-1,43,44,45,-1,45,44,46,-1,45,46,47,-1,47,46,48,-1,47,48,49,-1,49,48,50,-1,49,50,51,-1,51,50,41,-1,51,41,40,-1,46,50,48,-1,46,42,41,-1,46,44,42,-1,50,46,41,-1,52,53,54,-1,55,56,57,-1,58,59,60,-1,61,62,63,-1,63,64,65,-1,66,59,67,-1,68,69,60,-1,70,71,68,-1,72,71,70,-1,70,73,72,-1,54,74,75,-1,73,76,77,-1,78,79,52,-1,80,79,78,-1,81,80,78,-1,82,83,84,-1,85,86,84,-1,87,88,85,-1,57,56,87,-1,65,89,90,-1,56,88,87,-1,88,86,85,-1,86,82,84,-1,83,81,84,-1,83,80,81,-1,52,79,53,-1,53,74,54,-1,74,76,75,-1,75,76,73,-1,77,72,73,-1,68,71,69,-1,60,69,58,-1,58,67,59,-1,66,61,59,-1,66,62,61,-1,62,64,63,-1,64,89,65,-1,89,91,90,-1,92,93,94,-1,93,95,94,-1,92,96,97,-1,95,98,99,-1,100,101,102,-1,102,94,100,-1,100,94,95,-1,98,95,93,-1,93,92,97,-1,96,103,97,-1,104,105,106,-1,107,105,104,-1,107,108,105,-1,107,109,108,-1,110,111,112,-1,113,111,114,-1,115,113,114,-1,115,116,113,-1,116,115,117,-1,108,118,112,-1,119,117,120,-1,121,120,122,-1,123,124,125,-1,119,116,117,-1,126,125,127,-1,114,111,110,-1,110,112,118,-1,118,108,109,-1,126,128,106,-1,128,104,106,-1,128,126,127,-1,127,125,124,-1,129,123,121,-1,124,123,129,-1,120,121,119,-1,129,121,122,-1,130,131,132,-1,133,134,135,-1,133,136,134,-1,137,130,138,-1,132,136,138,-1,132,138,130,-1,131,139,140,-1,136,133,138,-1,131,140,132,-1,140,139,136,-1,134,136,139,-1,141,90,91,-1,141,91,142,-1,142,91,89,-1,142,89,143,-1,143,89,64,-1,143,64,144,-1,144,64,62,-1,144,62,145,-1,145,62,66,-1,145,66,146,-1,146,66,67,-1,146,67,147,-1,147,67,58,-1,147,58,148,-1,148,58,69,-1,148,69,149,-1,149,69,71,-1,149,71,150,-1,150,71,72,-1,150,72,151,-1,151,72,77,-1,151,77,152,-1,152,77,76,-1,152,76,153,-1,153,76,74,-1,153,74,154,-1,154,74,53,-1,154,53,155,-1,155,53,79,-1,155,79,156,-1,156,79,80,-1,156,80,157,-1,157,80,83,-1,157,83,158,-1,158,83,82,-1,158,82,159,-1,159,82,86,-1,159,86,160,-1,160,86,88,-1,160,88,161,-1,161,88,56,-1,161,56,162,-1,162,56,55,-1,162,55,163,-1,163,55,57,-1,163,57,164,-1,164,57,87,-1,164,87,165,-1,165,87,85,-1,165,85,166,-1,166,85,84,-1,166,84,167,-1,167,84,81,-1,167,81,168,-1,168,81,78,-1,168,78,169,-1,169,78,52,-1,169,52,170,-1,170,52,54,-1,170,54,171,-1,171,54,75,-1,171,75,172,-1,172,75,73,-1,172,73,173,-1,173,73,70,-1,173,70,174,-1,174,70,68,-1,174,68,175,-1,175,68,60,-1,175,60,176,-1,176,60,59,-1,176,59,177,-1,177,59,61,-1,177,61,178,-1,178,61,63,-1,178,63,179,-1,179,63,65,-1,179,65,180,-1,180,65,90,-1,180,90,141,-1,181,97,103,-1,181,103,182,-1,182,103,96,-1,182,96,183,-1,183,96,92,-1,183,92,184,-1,184,92,94,-1,184,94,185,-1,185,94,102,-1,185,102,186,-1,186,102,101,-1,186,101,187,-1,187,101,100,-1,187,100,188,-1,188,100,95,-1,188,95,189,-1,189,95,99,-1,189,99,190,-1,190,99,98,-1,190,98,191,-1,191,98,93,-1,191,93,192,-1,192,93,97,-1,192,97,181,-1,193,120,117,-1,193,117,194,-1,194,117,115,-1,194,115,195,-1,195,115,114,-1,195,114,196,-1,196,114,110,-1,196,110,197,-1,197,110,118,-1,197,118,198,-1,198,118,109,-1,198,109,199,-1,199,109,107,-1,199,107,200,-1,200,107,104,-1,200,104,201,-1,201,104,128,-1,201,128,202,-1,202,128,127,-1,202,127,203,-1,203,127,124,-1,203,124,204,-1,204,124,129,-1,204,129,205,-1,205,129,122,-1,205,122,206,-1,206,122,120,-1,206,120,193,-1,207,116,119,-1,207,119,208,-1,208,119,121,-1,208,121,209,-1,209,121,123,-1,209,123,210,-1,210,123,125,-1,210,125,211,-1,211,125,126,-1,211,126,212,-1,212,126,106,-1,212,106,213,-1,213,106,105,-1,213,105,214,-1,214,105,108,-1,214,108,215,-1,215,108,112,-1,215,112,216,-1,216,112,111,-1,216,111,217,-1,217,111,113,-1,217,113,218,-1,218,113,116,-1,218,116,207,-1,219,139,131,-1,219,131,220,-1,220,131,130,-1,220,130,221,-1,221,130,137,-1,221,137,222,-1,222,137,138,-1,222,138,223,-1,223,138,133,-1,223,133,224,-1,224,133,135,-1,224,135,225,-1,225,135,134,-1,225,134,226,-1,226,134,139,-1,226,139,219,-1,227,132,140,-1,227,140,228,-1,228,140,136,-1,228,136,229,-1,229,136,132,-1,229,132,227,-1,
        ]
    }
}
Shape{
    appearance Appearance {
        material  Material 	{
            diffuseColor 0.8196078431372549 0.8196078431372549 0.8196078431372549
            specularColor 0.7529411764705882 0.7529411764705882 0.7529411764705882
            ambientIntensity 1.0
            transparency 1.0
            shininess 0.5
        }
    }
    geometry IndexedFaceSet {
        ccw TRUE
        solid FALSE
        coord DEF co Coordinate {
            point [
                -1.5285 0.6299 1.4552, 0.6889 0.315 1.4552, -0.689 0.315 1.4552, -0.689 -0.0591 1.4552, -0.689 -0.1772 1.4552, -1.5985 -0.5612 1.4552, -1.56 0.5921 1.4552, 1.5599 0.5921 1.4552, 1.5284 0.6299 1.4552, 1.5984 0.5612 1.4552, -1.5985 0.5612 1.4552, -0.689 0.2953 1.4552, -0.689 0.1772 1.4552, 0.6889 -0.315 1.4552, 1.5984 -0.5612 1.4552, 1.5284 -0.6299 1.4552, 1.5599 -0.5921 1.4552, -0.689 0.0591 1.4552, -0.689 -0.315 1.4552, -0.689 -0.2953 1.4552, -1.56 -0.5921 1.4552, -1.5285 -0.6299 1.4552, 1.5984 -0.5612 1.5733, 1.6141 -0.5519 1.4918, 1.6254 -0.5461 1.5706, 1.6099 -0.5542 1.4502, 1.6141 -0.5519 1.4395, 1.6479 -0.5366 1.4932, 1.5284 -0.6299 1.5733, 1.5164 -0.6496 1.4918, 1.5224 -0.6391 1.4529, 1.5599 -0.5921 1.5733, 1.5124 -0.6572 1.5706, 1.5012 -0.6829 1.4932, 1.5181 -0.6465 1.4462, 1.5164 -0.6496 1.4355, 1.4913 -0.7179 1.494, 1.4922 -0.7137 1.545, 1.5001 -0.6862 1.5613, 1.4881 -0.7368 1.5225, 1.4865 -0.7546 1.4941, 1.6541 -0.5344 1.5611, 1.6834 -0.5266 1.494, 1.681 -0.527 1.5448, 1.7034 -0.5233 1.5224, 1.7205 -0.5219 1.4941, 1.6965 -0.6299 1.3765, 1.7138 -0.6299 1.3765, 1.7087 -0.5978 1.3843, 1.7322 -0.6299 1.3765, 1.7322 -0.6009 1.3826, 1.6633 -0.6015 1.3867, 1.6856 -0.5992 1.3852, 1.6762 -0.5704 1.4042, 1.6802 -0.6299 1.3765, 1.7294 -0.5249 1.467, 1.7001 -0.5431 1.4295, 1.7322 -0.5351 1.4395, 1.704 -0.5673 1.4023, 1.7322 -0.552 1.4151, 1.6974 -0.5286 1.462, 1.6684 -0.548 1.4321, 1.6493 -0.5756 1.407, 1.6237 -0.5834 1.4099, 1.6376 -0.5564 1.4358, 1.6141 -0.553 1.4798, 1.6299 -0.5465 1.4693, 1.6141 -0.555 1.4677, 1.6649 -0.6299 1.3765, 1.6141 -0.5624 1.4446, 1.6141 -0.5686 1.4342, 1.6422 -0.605 1.3883, 1.6141 -0.5754 1.4241, 1.6506 -0.6299 1.3765, 1.6228 -0.6097 1.3895, 1.6141 -0.601 1.3984, 1.6374 -0.6299 1.3765, 1.6141 -0.6205 1.3841, 1.6253 -0.6299 1.3765, 1.6141 -0.6106 1.3911, 1.6141 -0.6299 1.3765, 1.6141 -0.5918 1.4063, 1.6141 -0.5832 1.4149, 1.7322 -0.5744 1.3958, 1.6141 -0.558 1.456, 1.6632 -0.5352 1.4651, 1.6141 -0.6299 0.5361, 1.7322 -0.6299 0.5361, 1.7322 0.6299 0.5361, 1.7322 0.5744 1.3958, 1.7322 0.6299 1.3765, 1.7322 0.6009 1.3826, 1.7322 0.552 1.4151, 1.7322 0.5351 1.4395, 1.7205 0.5219 1.4941, 1.7294 0.5248 1.467, 1.6541 0.5344 1.5612, 1.6253 0.5461 1.5706, 1.7034 0.5234 1.5225, 1.5984 0.5612 1.5733, 1.6809 0.5271 1.5448, 0.6889 -0.315 1.5733, -1.5985 0.5612 1.5733, -0.689 0.0591 1.5733, -0.689 0.1772 1.5733, -1.5985 -0.5612 1.5733, -0.689 -0.2953 1.5733, -0.689 -0.1772 1.5733, -1.5285 -0.6299 1.5733, -0.689 -0.315 1.5733, -1.56 -0.5921 1.5733, 0.6889 0.315 1.5733, 1.5284 0.6299 1.5733, 1.5599 0.5921 1.5733, -0.689 -0.0591 1.5733, -0.689 0.315 1.5733, -0.689 0.2953 1.5733, -1.56 0.5921 1.5733, -1.5285 0.6299 1.5733, -1.4923 -0.7136 1.545, -1.5002 -0.6862 1.5613, -1.49 -0.7645 1.465, -1.4866 -0.7546 1.4941, -1.5125 -0.6572 1.5706, -1.4882 -0.7367 1.5226, -1.5019 -0.7677 1.4355, 1.5018 -0.7677 1.4355, 1.4899 -0.7645 1.465, 1.5253 -0.6496 1.4481, 1.511 -0.6654 1.4693, 1.5209 -0.6731 1.4358, 1.5695 -0.6777 1.3882, 1.566 -0.6988 1.3867, 1.5944 -0.7004 1.3765, 1.5192 -0.6496 1.4695, 1.5175 -0.6496 1.4807, 1.5217 -0.6496 1.4587, 1.4931 -0.7329 1.462, 1.4997 -0.6987 1.465, 1.5125 -0.7038 1.4321, 1.5402 -0.6848 1.4069, 1.5305 -0.6496 1.438, 1.5366 -0.6496 1.4287, 1.5077 -0.7355 1.4295, 1.5319 -0.7395 1.4023, 1.5944 -0.7156 1.3765, 1.5637 -0.7211 1.3852, 1.5479 -0.6592 1.4099, 1.5434 -0.6496 1.4198, 1.5944 -0.6861 1.3765, 1.5944 -0.732 1.3765, 1.5742 -0.6583 1.3895, 1.5591 -0.6496 1.4038, 1.5858 -0.6496 1.3835, 1.5944 -0.6729 1.3765, 1.5944 -0.6607 1.3765, 1.5944 -0.6496 1.3765, 1.5767 -0.6496 1.39, 1.5623 -0.7442 1.3843, 1.5664 -0.7677 1.3823, 1.5944 -0.7493 1.3765, 1.541 -0.7677 1.3944, 1.5944 -0.7677 1.3765, 1.5189 -0.7677 1.4126, 1.5349 -0.7117 1.4042, 1.5677 -0.6496 1.3967, 1.5509 -0.6496 1.4115, 1.5944 0.732 1.3765, 1.5944 0.7156 1.3765, 1.5944 0.7677 0.53, 1.5944 0.7493 1.3765, 1.5944 0.7677 1.3765, 1.5944 0.6496 0.53, 1.5944 0.7004 1.3765, 1.5944 0.6729 1.3765, 1.5944 0.6861 1.3765, 1.5944 0.6496 1.3765, 1.5944 0.6607 1.3765, 1.5944 -0.6496 0.53, 1.5944 -0.7677 0.53, 1.5637 0.7211 1.3852, 1.566 0.6988 1.3867, 1.5664 0.7677 1.3823, 1.5319 0.7395 1.4023, 1.5623 0.7442 1.3843, 1.4899 0.7645 1.465, 1.5077 0.7355 1.4295, 1.5018 0.7677 1.4355, 1.5349 0.7117 1.4042, 1.4865 0.7546 1.4941, 1.4931 0.7329 1.462, 1.5125 0.7038 1.4321, 1.5402 0.6848 1.4069, 1.5479 0.6592 1.4099, 1.5209 0.6731 1.4358, 1.5176 0.6496 1.4797, 1.511 0.6654 1.4693, 1.5164 0.6496 1.4918, 1.5195 0.6496 1.4677, 1.5012 0.6829 1.4932, 1.5332 0.6496 1.4342, 1.5275 0.6496 1.4449, 1.5695 0.6777 1.3882, 1.5401 0.6496 1.4242, 1.5742 0.6583 1.3895, 1.5655 0.6496 1.3985, 1.585 0.6496 1.3841, 1.5752 0.6496 1.3911, 1.5564 0.6496 1.4064, 1.5478 0.6496 1.415, 1.5406 0.7677 1.3947, 1.5227 0.6496 1.4561, 1.5189 0.7677 1.4126, 1.4997 0.6987 1.465, 1.4913 0.7179 1.494, -1.5175 0.6496 1.4807, -1.5165 0.6496 1.4355, -1.5165 0.6496 1.4918, -1.5367 0.6496 1.4286, -1.5436 0.6496 1.4198, 0.7228 0.6496 0.53, 1.2164 0.6496 0.53, -1.2165 0.6496 0.53, -1.2165 0.6496 0.156, -0.7229 0.6496 0.53, -1.5217 0.6496 1.4587, -1.5192 0.6496 1.4695, -1.5308 0.6496 1.4382, -1.5255 0.6496 1.4481, -1.5511 0.6496 1.4115, -1.5592 0.6496 1.4038, -1.5678 0.6496 1.3967, -1.5945 0.6496 1.3765, -1.5768 0.6496 1.39, -1.5859 0.6496 1.3835, -1.5945 0.6496 0.53, -0.7229 0.6496 0.156, 0.7228 0.6496 0.156, 1.2164 0.6496 0.156, 1.5164 0.6496 1.4355, -1.5182 0.6465 1.4461, 1.5224 0.6391 1.4529, -1.5225 0.6392 1.4529, 1.5181 0.6465 1.4461, 1.6479 0.5366 1.4932, 1.6141 0.5519 1.4918, 1.4922 0.7136 1.545, 1.4881 0.7367 1.5226, 1.5001 0.6862 1.5613, 1.5124 0.6572 1.5706, 1.6099 0.5542 1.4502, 1.6834 0.5266 1.494, 1.6141 0.5519 1.4395, 1.6632 0.5352 1.4651, 1.6376 0.5564 1.4358, 1.6299 0.5465 1.4693, 1.6422 0.605 1.3883, 1.6633 0.6015 1.3867, 1.6649 0.6299 1.3765, 1.6974 0.5286 1.462, 1.6141 0.5686 1.4342, 1.6141 0.5756 1.4242, 1.6141 0.5531 1.4797, 1.6141 0.5551 1.4677, 1.6684 0.548 1.4321, 1.6493 0.5756 1.407, 1.6141 0.5582 1.4561, 1.704 0.5673 1.4023, 1.7001 0.5431 1.4295, 1.6141 0.563 1.4449, 1.6802 0.6299 1.3765, 1.6856 0.5992 1.3852, 1.6965 0.6299 1.3765, 1.6506 0.6299 1.3765, 1.6228 0.6097 1.3895, 1.6141 0.5918 1.4064, 1.6141 0.6205 1.3841, 1.6374 0.6299 1.3765, 1.6253 0.6299 1.3765, 1.7087 0.5978 1.3843, 1.7138 0.6299 1.3765, 1.6141 0.6299 1.3765, 1.6141 0.6107 1.3911, 1.6237 0.5834 1.4099, 1.6762 0.5704 1.4042, 1.6141 0.601 1.3985, 1.6141 0.5833 1.415, 1.6141 0.6299 0.5361, -1.49 0.7645 1.465, -1.5019 0.7677 1.4355, -1.4866 0.7546 1.4941, -1.5002 0.6862 1.5613, -1.5125 0.6572 1.5706, -1.4882 0.7368 1.5225, -1.4923 0.7137 1.5449, 0.1577 0.7677 1.1716, -0.2381 0.7677 1.1501, -0.2714 0.7677 1.1245, -1.5411 0.7677 1.3944, -0.7229 0.7677 0.156, -1.2165 0.7677 0.156, -1.2165 0.7677 0.53, -1.519 0.7677 1.4126, -0.7229 0.7677 0.53, -1.5945 0.7677 0.53, -1.5945 0.7677 1.3765, -0.1994 0.7677 1.1661, 0.2713 0.7677 1.1245, 0.2968 0.7677 1.0913, -0.1578 0.7677 1.1716, 0.3129 0.7677 1.0525, 1.2164 0.7677 0.53, 0.7228 0.7677 0.53, 0.3183 0.7677 1.0109, -0.3184 0.7677 1.0109, 1.2164 0.7677 0.156, 0.7228 0.7677 0.156, 0.3183 0.7677 0.53, 0.238 0.7677 1.1501, 0.1993 0.7677 1.1661, -0.2969 0.7677 1.0913, -0.313 0.7677 1.0525, -1.5665 0.7677 1.3823, -0.3184 0.7677 0.53, -0.2844 0.7627 0.53, -0.2843 0.7627 1.0109, -0.2684 0.7566 0.53, -0.3011 0.7664 0.53, -0.2532 0.748 1.0109, -0.2533 0.7478 0.53, 0.2052 0.7297 0.53, -0.222 0.7334 0.53, -0.2053 0.7297 0.53, -0.2379 0.7396 0.53, -0.1879 0.7283 0.53, 0.1878 0.7283 0.53, 0.2379 0.7395 0.53, 0.2532 0.7478 0.53, 0.2219 0.7334 0.53, 0.2684 0.7565 0.53, 0.2843 0.7627 0.53, 0.301 0.7664 0.53, -1.2165 0.6861 0.0437, -1.2165 0.6496 0.0379, -1.2165 0.7452 0.0866, -1.2165 0.7619 0.1195, -1.2165 0.719 0.0604, -1.2165 0.4826 0.156, -1.2165 0.4826 0.0379, -1.1934 0.4269 0.156, -1.1934 0.4269 0.0379, -1.1679 0.4098 0.0379, -1.1378 0.4039 0.0379, -1.1679 0.4098 0.156, -1.1378 0.4039 0.156, -1.2105 0.4525 0.156, -1.2105 0.4525 0.0379, -0.746 0.4269 0.0379, -0.7715 0.4098 0.0379, -0.8016 0.4039 0.0379, -0.7289 0.4525 0.0379, -0.7229 0.6496 0.0379, -0.7229 0.4826 0.0379, -0.8016 0.4039 0.156, -0.746 0.4269 0.156, -0.7715 0.4098 0.156, -0.7229 0.4826 0.156, -0.7289 0.4525 0.156, -0.7229 0.7452 0.0866, -0.7229 0.7619 0.1195, -0.7229 0.719 0.0604, -0.7229 0.6861 0.0437, -1.5945 0.7493 1.3765, -1.5945 0.732 1.3765, -1.5945 0.7156 1.3765, -1.5945 0.7004 1.3765, -1.5945 0.6729 1.3765, -1.5945 0.6861 1.3765, -1.5945 0.6607 1.3765, -1.5945 -0.6607 1.3765, -1.5945 -0.6496 1.3765, -1.5945 -0.6496 0.53, -1.5945 -0.6729 1.3765, -1.5945 -0.6861 1.3765, -1.5945 -0.7004 1.3765, -1.5945 -0.7156 1.3765, -1.5945 -0.7677 0.53, -1.5945 -0.732 1.3765, -1.5945 -0.7677 1.3765, -1.5945 -0.7493 1.3765, -1.5111 0.6654 1.4693, -1.521 0.6731 1.4358, -1.5696 0.6777 1.3882, -1.5661 0.6988 1.3867, -1.5013 0.6829 1.4932, -1.4932 0.7329 1.462, -1.4998 0.6987 1.465, -1.4914 0.7179 1.494, -1.5126 0.7038 1.4321, -1.5403 0.6848 1.4069, -1.5078 0.7355 1.4295, -1.532 0.7395 1.4023, -1.5638 0.7211 1.3852, -1.548 0.6592 1.4099, -1.5743 0.6583 1.3895, -1.5624 0.7442 1.3843, -1.535 0.7117 1.4042, -1.6142 0.5519 1.4918, -1.6255 0.5461 1.5706, -1.61 0.5542 1.4502, -1.6142 0.5519 1.4395, -1.648 0.5366 1.4932, -1.6542 0.5344 1.5611, -1.6835 0.5266 1.494, -1.6811 0.527 1.5448, -1.7035 0.5233 1.5224, -1.7206 0.5219 1.4941, -1.6966 0.6299 1.3765, -1.7139 0.6299 1.3765, -1.7088 0.5978 1.3843, -1.7323 0.6299 1.3765, -1.7323 0.6009 1.3826, -1.6634 0.6015 1.3867, -1.6857 0.5992 1.3852, -1.6763 0.5704 1.4042, -1.6803 0.6299 1.3765, -1.7295 0.5249 1.467, -1.7002 0.5431 1.4295, -1.7323 0.5351 1.4395, -1.7041 0.5673 1.4023, -1.7323 0.552 1.4151, -1.6976 0.5286 1.462, -1.6685 0.548 1.4321, -1.6494 0.5756 1.407, -1.6238 0.5834 1.4099, -1.6377 0.5564 1.4358, -1.6142 0.5531 1.4797, -1.63 0.5465 1.4693, -1.6142 0.5551 1.4677, -1.665 0.6299 1.3765, -1.6142 0.563 1.4449, -1.6142 0.5686 1.4342, -1.6423 0.605 1.3883, -1.6142 0.5756 1.4243, -1.6507 0.6299 1.3765, -1.6229 0.6097 1.3895, -1.6142 0.601 1.3985, -1.6375 0.6299 1.3765, -1.6142 0.6205 1.3841, -1.6142 0.6299 1.3765, -1.6254 0.6299 1.3765, -1.6142 0.6107 1.3911, -1.6142 0.5918 1.4064, -1.6142 0.5833 1.415, -1.7323 0.5744 1.3958, -1.6142 0.5582 1.456, -1.6633 0.5352 1.4651, -1.6142 0.6299 0.5361, -1.7323 0.6299 0.5361, -1.7323 -0.5744 1.3958, -1.7323 -0.6299 0.5361, -1.7323 -0.6009 1.3826, -1.7323 -0.6299 1.3765, -1.7323 -0.552 1.4151, -1.7323 -0.5351 1.4395, -1.681 -0.5271 1.5448, -1.6542 -0.5344 1.5612, -1.7206 -0.5219 1.4941, -1.6254 -0.5461 1.5706, -1.7035 -0.5234 1.5225, -1.7295 -0.5248 1.467, -1.648 -0.5366 1.4932, -1.6142 -0.5519 1.4918, -1.5013 -0.6829 1.4932, -1.4914 -0.7179 1.494, -1.5182 -0.6465 1.4462, -1.5165 -0.6496 1.4355, -1.5165 -0.6496 1.4918, -1.5225 -0.6391 1.4529, -1.61 -0.5542 1.4502, -1.6835 -0.5266 1.494, -1.6142 -0.5519 1.4395, -1.6142 -0.5572 1.4587, -1.63 -0.5465 1.4693, -1.6142 -0.5608 1.4481, -1.6423 -0.605 1.3883, -1.6634 -0.6015 1.3867, -1.665 -0.6299 1.3765, -1.6633 -0.5352 1.4651, -1.6976 -0.5286 1.462, -1.6377 -0.5564 1.4358, -1.6142 -0.5529 1.4807, -1.6142 -0.5547 1.4695, -1.6685 -0.548 1.4321, -1.6494 -0.5756 1.407, -1.7041 -0.5673 1.4023, -1.7002 -0.5431 1.4295, -1.6142 -0.5721 1.4287, -1.6142 -0.566 1.438, -1.6803 -0.6299 1.3765, -1.6857 -0.5992 1.3852, -1.6966 -0.6299 1.3765, -1.6238 -0.5834 1.4099, -1.6142 -0.5789 1.4198, -1.6507 -0.6299 1.3765, -1.6229 -0.6097 1.3895, -1.6142 -0.5945 1.4038, -1.6142 -0.6213 1.3835, -1.6375 -0.6299 1.3765, -1.6254 -0.6299 1.3765, -1.6142 -0.6122 1.39, -1.6142 -0.6299 1.3765, -1.7088 -0.5978 1.3843, -1.7139 -0.6299 1.3765, -1.6763 -0.5704 1.4042, -1.6142 -0.6032 1.3967, -1.6142 -0.5864 1.4115, -1.6142 -0.6299 0.5361, -1.5638 -0.7211 1.3852, -1.5661 -0.6988 1.3867, -1.5665 -0.7677 1.3823, -1.532 -0.7395 1.4023, -1.5624 -0.7442 1.3843, -1.5078 -0.7355 1.4295, -1.535 -0.7117 1.4042, -1.4932 -0.7329 1.462, -1.5126 -0.7038 1.4321, -1.5403 -0.6848 1.4069, -1.548 -0.6592 1.4099, -1.521 -0.6731 1.4358, -1.5177 -0.6496 1.4797, -1.5111 -0.6654 1.4693, -1.5196 -0.6496 1.4677, -1.5333 -0.6496 1.4342, -1.5276 -0.6496 1.4449, -1.5696 -0.6777 1.3882, -1.5402 -0.6496 1.4242, -1.5743 -0.6583 1.3895, -1.5656 -0.6496 1.3985, -1.5851 -0.6496 1.3841, -1.5753 -0.6496 1.3911, -1.5565 -0.6496 1.4064, -1.5479 -0.6496 1.415, -1.5407 -0.7677 1.3947, -1.5228 -0.6496 1.4561, -1.519 -0.7677 1.4126, -1.4998 -0.6987 1.465, 1.2164 -0.6496 0.156, 0.7228 -0.6496 0.156, 0.7228 -0.6496 0.53, -0.7229 -0.6496 0.53, -1.2165 -0.6496 0.53, -0.7229 -0.6496 0.156, -1.2165 -0.6496 0.156, 1.2164 -0.6496 0.53, -1.2165 -0.7677 0.53, 1.2164 -0.7677 0.53, -0.2379 -0.7395 0.53, -0.253 -0.7483 0.53, -0.7229 -0.7677 0.53, 0.3183 -0.7677 0.53, 0.301 -0.7664 0.53, 0.2843 -0.7627 0.53, -0.1879 -0.7283 0.53, -0.2053 -0.7297 0.53, 0.2683 -0.7566 0.53, 0.2532 -0.7478 0.53, 0.7228 -0.7677 0.53, 0.2052 -0.7297 0.53, 0.2219 -0.7334 0.53, 0.2378 -0.7396 0.53, 0.1878 -0.7283 0.53, -0.2219 -0.7334 0.53, -0.2843 -0.7627 0.53, -0.301 -0.7664 0.53, -0.3184 -0.7677 0.53, -0.2684 -0.7564 0.53, -1.2165 -0.7452 0.0866, -1.2165 -0.7619 0.1195, -1.2165 -0.7677 0.156, -1.2165 -0.719 0.0604, -1.2165 -0.6861 0.0437, -1.2165 -0.6496 0.0379, -1.2165 -0.4826 0.0379, -1.2165 -0.4826 0.156, -1.1934 -0.4269 0.0379, -1.1934 -0.4269 0.156, -1.1679 -0.4098 0.156, -1.1378 -0.4039 0.156, -1.1679 -0.4098 0.0379, -1.1378 -0.4039 0.0379, -1.2105 -0.4525 0.0379, -1.2105 -0.4525 0.156, -0.746 -0.4269 0.156, -0.7715 -0.4098 0.156, -0.8016 -0.4039 0.156, -0.7289 -0.4525 0.156, -0.7229 -0.4826 0.156, -0.8016 -0.4039 0.0379, -0.746 -0.4269 0.0379, -0.7715 -0.4098 0.0379, -0.7229 -0.4826 0.0379, -0.7289 -0.4525 0.0379, -0.7229 -0.6496 0.0379, -0.7229 -0.7452 0.0866, -0.7229 -0.7619 0.1195, -0.7229 -0.7677 0.156, -0.7229 -0.719 0.0604, -0.7229 -0.6861 0.0437, -0.313 -0.7677 1.0525, 0.238 -0.7677 1.1501, 0.2713 -0.7677 1.1245, -0.2969 -0.7677 1.0913, 0.7228 -0.7677 0.156, 1.2164 -0.7677 0.156, -0.2714 -0.7677 1.1245, 0.1993 -0.7677 1.1661, 0.1577 -0.7677 1.1716, -0.1578 -0.7677 1.1716, -0.3184 -0.7677 1.0109, 0.3183 -0.7677 1.0109, -0.2381 -0.7677 1.1501, -0.1994 -0.7677 1.1661, 0.2968 -0.7677 1.0913, 0.3129 -0.7677 1.0525, 0.2842 -0.7627 1.0109, 0.2531 -0.748 1.0109, 0.2219 -0.7334 1.0109, 0.1878 -0.7283 1.0109, -0.1578 -0.7283 1.041, 0.1821 -0.7283 1.0285, 0.1755 -0.7283 1.0351, 0.1862 -0.7283 1.0204, 0.1672 -0.7283 1.0394, 0.1577 -0.7283 1.041, -0.1879 -0.7283 1.0109, -0.1754 -0.7283 1.0353, -0.182 -0.7283 1.0287, -0.1863 -0.7283 1.0204, -0.1673 -0.7283 1.0394, -0.222 -0.7334 1.0109, -0.2532 -0.748 1.0109, -0.2843 -0.7627 1.0109, -0.2499 -0.748 1.0357, -0.28 -0.7627 1.0437, -0.2674 -0.7627 1.0742, -0.2473 -0.7627 1.1004, -0.2211 -0.7627 1.1205, -0.1905 -0.7627 1.1332, -0.1578 -0.7627 1.1375, -0.1578 -0.748 1.1063, -0.1826 -0.748 1.103, -0.2404 -0.748 1.0585, -0.2253 -0.748 1.0782, -0.2056 -0.748 1.0934, 0.1577 -0.748 1.1063, 0.1577 -0.7627 1.1375, 0.1825 -0.748 1.103, 0.1904 -0.7627 1.1332, 0.221 -0.7627 1.1205, 0.2472 -0.7627 1.1004, 0.2673 -0.7627 1.0742, 0.2799 -0.7627 1.0437, 0.2498 -0.748 1.0357, 0.2052 -0.748 1.0936, 0.225 -0.748 1.0785, 0.2402 -0.748 1.0587, 0.1765 -0.7334 1.0723, 0.219 -0.7334 1.0298, 0.195 -0.7334 1.0632, 0.2099 -0.7334 1.0482, 0.1577 -0.7334 1.0751, -0.1578 -0.7334 1.0751, -0.2191 -0.7334 1.0298, -0.1766 -0.7334 1.0723, -0.21 -0.7334 1.0482, -0.1951 -0.7334 1.0632, 1.2164 -0.6861 0.0437, 1.2164 -0.6496 0.0379, 1.2164 -0.7452 0.0866, 1.2164 -0.7619 0.1195, 1.2164 -0.719 0.0604, 1.2164 -0.4826 0.156, 1.2164 -0.4826 0.0379, 1.1933 -0.4269 0.156, 1.1933 -0.4269 0.0379, 1.1678 -0.4098 0.0379, 1.1377 -0.4039 0.0379, 1.1678 -0.4098 0.156, 1.1377 -0.4039 0.156, 1.2104 -0.4525 0.156, 1.2104 -0.4525 0.0379, 0.7459 -0.4269 0.0379, 0.7714 -0.4098 0.0379, 0.8015 -0.4039 0.0379, 0.7288 -0.4525 0.0379, 0.7228 -0.6496 0.0379, 0.7228 -0.4826 0.0379, 0.8015 -0.4039 0.156, 0.7459 -0.4269 0.156, 0.7714 -0.4098 0.156, 0.7228 -0.4826 0.156, 0.7288 -0.4525 0.156, 0.7228 -0.7452 0.0866, 0.7228 -0.7619 0.1195, 0.7228 -0.719 0.0604, 0.7228 -0.6861 0.0437, 1.2164 0.7452 0.0866, 1.2164 0.7619 0.1195, 1.2164 0.719 0.0604, 1.2164 0.6861 0.0437, 1.2164 0.6496 0.0379, 1.2164 0.4826 0.0379, 1.2164 0.4826 0.156, 1.1933 0.4269 0.0379, 1.1933 0.4269 0.156, 1.1678 0.4098 0.156, 1.1377 0.4039 0.156, 1.1678 0.4098 0.0379, 1.1377 0.4039 0.0379, 1.2104 0.4525 0.0379, 1.2104 0.4525 0.156, 0.7459 0.4269 0.156, 0.7714 0.4098 0.156, 0.8015 0.4039 0.156, 0.7288 0.4525 0.156, 0.7228 0.4826 0.156, 0.8015 0.4039 0.0379, 0.7459 0.4269 0.0379, 0.7714 0.4098 0.0379, 0.7228 0.4826 0.0379, 0.7288 0.4525 0.0379, 0.7228 0.6496 0.0379, 0.7228 0.7452 0.0866, 0.7228 0.7619 0.1195, 0.7228 0.719 0.0604, 0.7228 0.6861 0.0437, 0.2842 0.7627 1.0109, 0.2531 0.748 1.0109, 0.1904 0.7627 1.1332, 0.2498 0.748 1.0357, 0.2799 0.7627 1.0437, 0.2472 0.7627 1.1004, 0.2055 0.748 1.0934, 0.221 0.7627 1.1205, 0.2403 0.748 1.0585, 0.2673 0.7627 1.0742, 0.1577 0.7627 1.1375, 0.1577 0.748 1.1063, 0.1825 0.748 1.103, 0.2252 0.748 1.0782, -0.1578 0.748 1.1063, -0.1578 0.7627 1.1375, -0.28 0.7627 1.0437, -0.1826 0.748 1.103, -0.1905 0.7627 1.1332, -0.2473 0.7627 1.1004, -0.2403 0.748 1.0587, -0.2674 0.7627 1.0742, -0.2053 0.748 1.0936, -0.2211 0.7627 1.1205, -0.2499 0.748 1.0357, -0.2251 0.748 1.0785, -0.2191 0.7334 1.0298, -0.222 0.7334 1.0109, -0.1863 0.7283 1.0204, -0.1879 0.7283 1.0109, -0.182 0.7283 1.0287, -0.21 0.7334 1.0482, -0.1766 0.7334 1.0723, -0.1578 0.7283 1.041, -0.1673 0.7283 1.0394, -0.1578 0.7334 1.0751, -0.1951 0.7334 1.0632, -0.1754 0.7283 1.0353, 0.1878 0.7283 1.0109, 0.1819 0.7283 1.0287, 0.1862 0.7283 1.0204, 0.1753 0.7283 1.0353, 0.1672 0.7283 1.0394, 0.1577 0.7283 1.041, 0.2219 0.7334 1.0109, 0.1765 0.7334 1.0723, 0.1577 0.7334 1.0751, 0.195 0.7334 1.0632, 0.219 0.7334 1.0298, 0.2099 0.7334 1.0482, -0.8859 0.0591 -1.596, -0.8918 0.0591 -1.6296, -0.9089 0.0591 -1.6592, -0.9351 0.0591 -1.6812, -0.8859 0.0591 0.1954, -0.9672 0.0591 -1.6929, -1.0014 0.0591 -1.6929, -1.0827 0.0591 0.1954, -1.0335 0.0591 -1.6812, -1.0827 0.0591 -1.596, -1.0597 0.0591 -1.6592, -1.0768 0.0591 -1.6296, -0.9672 -0.0591 -1.6929, -1.0014 -0.0591 -1.6929, -0.9351 -0.0591 -1.6812, -0.9089 -0.0591 -1.6592, -0.8918 -0.0591 -1.6296, -0.8859 -0.0591 -1.596, -1.0335 -0.0591 -1.6812, -1.0597 -0.0591 -1.6592, -1.0768 -0.0591 -1.6296, -1.0827 -0.0591 -1.596, -1.0827 -0.0591 0.1954, -0.8859 -0.0591 0.1954, 0.0984 0.0591 -1.596, 0.0924 0.0591 -1.6296, 0.0753 0.0591 -1.6592, 0.0492 0.0591 -1.6812, 0.0984 0.0591 0.1954, 0.017 0.0591 -1.6929, -0.0171 0.0591 -1.6929, -0.0985 0.0591 0.1954, -0.0493 0.0591 -1.6812, -0.0985 0.0591 -1.596, -0.0754 0.0591 -1.6592, -0.0925 0.0591 -1.6296, 0.017 -0.0591 -1.6929, -0.0171 -0.0591 -1.6929, 0.0492 -0.0591 -1.6812, 0.0753 -0.0591 -1.6592, 0.0924 -0.0591 -1.6296, 0.0984 -0.0591 -1.596, -0.0493 -0.0591 -1.6812, -0.0754 -0.0591 -1.6592, -0.0925 -0.0591 -1.6296, -0.0985 -0.0591 -1.596, -0.0985 -0.0591 0.1954, 0.0984 -0.0591 0.1954, 1.0826 0.0591 -1.596, 1.0767 0.0591 -1.6296, 1.0596 0.0591 -1.6592, 1.0334 0.0591 -1.6812, 1.0826 0.0591 0.1954, 1.0013 0.0591 -1.6929, 0.9671 0.0591 -1.6929, 0.8858 0.0591 0.1954, 0.935 0.0591 -1.6812, 0.8858 0.0591 -1.596, 0.9088 0.0591 -1.6592, 0.8917 0.0591 -1.6296, 1.0013 -0.0591 -1.6929, 0.9671 -0.0591 -1.6929, 1.0334 -0.0591 -1.6812, 1.0596 -0.0591 -1.6592, 1.0767 -0.0591 -1.6296, 1.0826 -0.0591 -1.596, 0.935 -0.0591 -1.6812, 0.9088 -0.0591 -1.6592, 0.8917 -0.0591 -1.6296, 0.8858 -0.0591 -1.596, 0.8858 -0.0591 0.1954, 1.0826 -0.0591 0.1954
            ]
        }
        coordIndex [
            0,1,2,-1,3,4,5,-1,0,2,6,-1,7,1,8,-1,8,1,0,-1,1,7,9,-1,6,2,10,-1,10,2,11,-1,11,12,10,-1,13,1,14,-1,15,13,16,-1,17,3,10,-1,17,10,12,-1,15,18,13,-1,19,5,4,-1,3,5,10,-1,18,5,19,-1,18,20,5,-1,15,21,18,-1,20,18,21,-1,16,13,14,-1,14,1,9,-1,22,23,24,-1,25,26,23,-1,23,27,24,-1,25,22,14,-1,28,29,30,-1,31,16,22,-1,29,32,33,-1,32,29,28,-1,30,29,34,-1,34,29,35,-1,36,33,37,-1,33,38,37,-1,39,36,37,-1,32,38,33,-1,36,39,40,-1,28,15,31,-1,28,30,15,-1,15,16,31,-1,25,23,22,-1,14,22,16,-1,41,42,43,-1,24,27,41,-1,44,43,42,-1,44,42,45,-1,41,27,42,-1,46,47,48,-1,47,49,50,-1,51,52,53,-1,54,46,52,-1,55,56,57,-1,56,58,59,-1,56,53,58,-1,55,45,60,-1,53,61,62,-1,63,62,64,-1,65,66,23,-1,65,67,66,-1,68,54,51,-1,23,66,27,-1,54,52,51,-1,46,48,52,-1,64,69,70,-1,51,71,68,-1,63,64,72,-1,68,71,73,-1,74,73,71,-1,75,74,71,-1,76,73,74,-1,76,77,78,-1,79,77,76,-1,76,74,79,-1,77,80,78,-1,79,74,75,-1,71,81,75,-1,82,81,63,-1,82,63,72,-1,81,71,63,-1,48,83,58,-1,51,62,71,-1,48,47,50,-1,52,58,53,-1,83,48,50,-1,72,64,70,-1,71,62,63,-1,84,69,64,-1,51,53,62,-1,62,61,64,-1,52,48,58,-1,53,56,61,-1,83,59,58,-1,66,67,84,-1,61,85,64,-1,64,85,66,-1,60,61,56,-1,85,61,60,-1,59,57,56,-1,66,85,27,-1,84,64,66,-1,27,85,42,-1,45,42,60,-1,42,85,60,-1,55,60,56,-1,78,80,86,-1,78,86,76,-1,86,73,76,-1,68,86,54,-1,68,73,86,-1,87,46,54,-1,54,86,87,-1,87,49,47,-1,46,87,47,-1,88,89,83,-1,88,90,91,-1,88,91,89,-1,57,92,93,-1,50,87,83,-1,50,49,87,-1,88,83,87,-1,83,89,59,-1,57,59,92,-1,89,92,59,-1,94,45,55,-1,57,93,95,-1,96,97,41,-1,98,43,44,-1,24,97,99,-1,97,24,41,-1,100,96,41,-1,24,99,22,-1,98,100,43,-1,41,43,100,-1,44,45,98,-1,94,98,45,-1,94,55,95,-1,57,95,55,-1,31,101,28,-1,102,103,104,-1,105,106,107,-1,108,101,109,-1,109,106,105,-1,110,108,109,-1,105,110,109,-1,28,101,108,-1,31,22,101,-1,111,101,99,-1,112,111,113,-1,114,103,105,-1,114,105,107,-1,112,115,111,-1,116,102,104,-1,103,102,105,-1,115,102,116,-1,115,117,102,-1,112,118,115,-1,117,115,118,-1,113,111,99,-1,99,101,22,-1,119,38,120,-1,121,40,122,-1,123,120,32,-1,38,32,120,-1,28,108,123,-1,123,32,28,-1,38,119,37,-1,37,124,39,-1,124,37,119,-1,124,122,39,-1,39,122,40,-1,125,126,127,-1,127,121,125,-1,40,121,127,-1,128,129,130,-1,131,132,133,-1,134,135,129,-1,128,136,129,-1,29,33,135,-1,137,138,36,-1,139,140,130,-1,138,130,129,-1,141,130,142,-1,143,126,144,-1,145,132,146,-1,147,148,142,-1,133,149,131,-1,147,130,140,-1,146,150,145,-1,132,145,133,-1,131,151,152,-1,151,131,149,-1,153,154,155,-1,149,154,151,-1,153,155,156,-1,127,143,137,-1,154,153,157,-1,146,158,150,-1,159,160,158,-1,160,150,158,-1,158,161,159,-1,162,160,159,-1,163,161,144,-1,36,40,137,-1,161,158,144,-1,131,140,132,-1,144,146,164,-1,147,131,152,-1,164,132,140,-1,151,165,152,-1,165,151,157,-1,154,157,151,-1,158,146,144,-1,163,144,126,-1,142,130,147,-1,146,132,164,-1,164,139,143,-1,147,166,148,-1,152,166,147,-1,131,147,140,-1,144,164,143,-1,126,143,127,-1,129,136,134,-1,164,140,139,-1,137,139,138,-1,128,130,141,-1,143,139,137,-1,127,137,40,-1,33,36,138,-1,130,138,139,-1,138,129,33,-1,135,33,129,-1,167,168,169,-1,167,169,170,-1,169,171,170,-1,172,169,173,-1,168,173,169,-1,174,172,175,-1,172,173,175,-1,176,172,177,-1,172,174,177,-1,154,149,178,-1,154,178,155,-1,178,156,155,-1,178,133,145,-1,149,133,178,-1,150,179,145,-1,178,145,179,-1,162,179,160,-1,179,150,160,-1,168,180,181,-1,170,171,182,-1,183,180,184,-1,168,167,180,-1,185,186,187,-1,188,181,180,-1,186,188,183,-1,185,189,190,-1,188,191,192,-1,193,192,194,-1,195,196,197,-1,195,198,196,-1,173,168,181,-1,197,196,199,-1,184,167,170,-1,167,184,180,-1,200,194,201,-1,181,202,173,-1,193,194,203,-1,173,202,175,-1,204,175,202,-1,205,204,202,-1,174,175,204,-1,174,206,177,-1,207,206,174,-1,174,204,207,-1,206,176,177,-1,207,204,205,-1,202,208,205,-1,209,208,193,-1,209,193,203,-1,208,202,193,-1,184,210,183,-1,181,192,202,-1,184,170,182,-1,180,183,188,-1,210,184,182,-1,203,194,200,-1,202,192,193,-1,211,201,194,-1,181,188,192,-1,191,194,192,-1,186,183,212,-1,188,186,191,-1,210,212,183,-1,196,198,211,-1,191,213,194,-1,194,213,196,-1,190,191,186,-1,213,191,190,-1,212,187,186,-1,196,213,199,-1,211,194,196,-1,199,213,214,-1,189,214,190,-1,214,213,190,-1,185,190,186,-1,215,216,217,-1,216,218,219,-1,220,221,176,-1,222,223,224,-1,225,216,226,-1,216,215,226,-1,227,216,228,-1,216,225,228,-1,219,229,216,-1,216,227,218,-1,216,230,231,-1,229,230,216,-1,232,222,224,-1,232,233,234,-1,232,235,222,-1,233,232,224,-1,231,233,224,-1,224,216,231,-1,223,236,224,-1,237,238,221,-1,176,207,220,-1,206,207,176,-1,221,172,176,-1,207,205,220,-1,237,221,220,-1,208,239,205,-1,239,220,205,-1,209,239,208,-1,203,239,209,-1,220,239,224,-1,201,211,239,-1,239,203,200,-1,195,239,198,-1,239,211,198,-1,239,195,197,-1,216,224,239,-1,200,201,239,-1,240,216,239,-1,0,241,8,-1,0,242,241,-1,242,243,241,-1,239,243,240,-1,242,240,243,-1,244,245,97,-1,9,113,99,-1,97,245,99,-1,112,113,7,-1,246,199,214,-1,243,239,197,-1,214,247,246,-1,189,247,214,-1,248,249,199,-1,246,248,199,-1,199,249,197,-1,112,197,249,-1,112,8,241,-1,243,197,241,-1,7,113,9,-1,96,244,97,-1,7,8,112,-1,197,112,241,-1,99,250,9,-1,100,98,251,-1,251,244,96,-1,99,245,250,-1,252,250,245,-1,96,100,251,-1,94,251,98,-1,253,254,255,-1,256,257,258,-1,253,251,259,-1,260,254,261,-1,244,262,245,-1,263,262,255,-1,264,265,254,-1,254,266,255,-1,92,267,268,-1,254,269,266,-1,270,271,272,-1,256,265,257,-1,258,273,256,-1,258,257,270,-1,271,270,257,-1,256,274,275,-1,274,256,273,-1,276,277,278,-1,273,277,274,-1,279,91,280,-1,281,276,278,-1,268,259,95,-1,276,282,277,-1,280,272,279,-1,271,279,272,-1,90,280,91,-1,91,279,89,-1,92,89,267,-1,251,94,259,-1,89,279,267,-1,283,254,265,-1,271,284,267,-1,283,256,275,-1,284,257,265,-1,274,285,275,-1,285,274,282,-1,277,282,274,-1,279,271,267,-1,93,92,268,-1,261,254,283,-1,271,257,284,-1,264,268,284,-1,283,286,261,-1,275,286,283,-1,256,283,265,-1,267,284,268,-1,93,268,95,-1,266,263,255,-1,284,265,264,-1,259,264,253,-1,269,254,260,-1,268,264,259,-1,95,259,94,-1,244,251,253,-1,254,253,264,-1,253,255,244,-1,262,244,255,-1,277,273,287,-1,277,287,278,-1,287,281,278,-1,287,258,270,-1,273,258,287,-1,272,88,270,-1,287,270,88,-1,90,88,280,-1,88,272,280,-1,252,275,81,-1,81,275,75,-1,286,275,252,-1,285,86,75,-1,75,275,285,-1,282,287,285,-1,86,285,287,-1,286,252,261,-1,282,281,287,-1,86,79,75,-1,281,282,276,-1,79,80,77,-1,80,79,86,-1,81,26,252,-1,26,81,82,-1,261,252,260,-1,252,269,260,-1,82,72,26,-1,26,69,84,-1,252,263,266,-1,84,67,26,-1,262,263,252,-1,65,26,67,-1,262,252,245,-1,23,26,65,-1,266,269,252,-1,69,26,70,-1,72,70,26,-1,9,25,14,-1,26,250,252,-1,9,250,25,-1,26,25,250,-1,87,287,88,-1,87,86,287,-1,288,187,289,-1,290,189,185,-1,248,291,292,-1,247,293,294,-1,118,249,292,-1,248,292,249,-1,112,249,118,-1,291,248,246,-1,294,246,247,-1,246,294,291,-1,247,189,293,-1,290,185,288,-1,293,189,290,-1,187,288,185,-1,187,295,289,-1,296,297,298,-1,299,300,301,-1,296,298,302,-1,299,301,303,-1,304,305,301,-1,296,302,289,-1,289,306,296,-1,307,182,308,-1,289,295,309,-1,310,182,171,-1,171,169,311,-1,312,313,311,-1,171,311,313,-1,305,314,301,-1,310,171,313,-1,315,316,312,-1,315,312,311,-1,312,317,313,-1,308,182,310,-1,307,318,210,-1,210,182,307,-1,187,212,318,-1,318,212,210,-1,187,319,295,-1,187,318,319,-1,309,306,289,-1,320,321,322,-1,320,322,298,-1,320,298,297,-1,321,314,305,-1,321,305,322,-1,323,303,314,-1,301,314,303,-1,324,325,326,-1,327,314,325,-1,325,324,327,-1,323,314,327,-1,325,328,326,-1,326,328,329,-1,222,304,301,-1,304,222,235,-1,311,169,172,-1,311,172,221,-1,323,324,326,-1,303,326,329,-1,323,327,324,-1,220,330,312,-1,303,331,332,-1,333,331,303,-1,332,224,303,-1,303,329,333,-1,224,334,220,-1,334,335,220,-1,335,330,220,-1,336,337,312,-1,330,338,312,-1,317,339,340,-1,339,317,312,-1,340,341,317,-1,337,339,312,-1,338,336,312,-1,334,224,332,-1,303,323,326,-1,223,342,343,-1,344,223,300,-1,344,300,345,-1,223,346,342,-1,344,346,223,-1,222,301,223,-1,347,223,348,-1,301,300,223,-1,223,343,348,-1,349,350,351,-1,352,353,351,-1,349,351,353,-1,354,353,352,-1,355,350,349,-1,356,355,347,-1,355,356,350,-1,356,347,348,-1,357,358,359,-1,359,360,357,-1,361,362,343,-1,359,362,360,-1,348,343,362,-1,356,352,350,-1,362,359,348,-1,352,356,348,-1,350,352,351,-1,348,359,352,-1,363,352,359,-1,363,354,352,-1,364,363,365,-1,223,347,366,-1,367,366,363,-1,367,363,364,-1,347,363,366,-1,236,223,366,-1,355,354,347,-1,347,354,363,-1,353,354,349,-1,354,355,349,-1,299,303,224,-1,299,368,369,-1,366,362,361,-1,224,236,299,-1,370,368,236,-1,299,236,368,-1,236,371,370,-1,236,361,371,-1,361,236,366,-1,364,357,360,-1,362,367,360,-1,364,360,367,-1,366,367,362,-1,365,357,364,-1,358,365,363,-1,365,358,357,-1,358,363,359,-1,370,344,368,-1,369,368,345,-1,344,345,368,-1,300,299,369,-1,369,345,300,-1,344,370,346,-1,346,371,342,-1,371,346,370,-1,371,361,342,-1,342,361,343,-1,372,305,304,-1,372,304,373,-1,304,374,373,-1,304,235,375,-1,375,374,304,-1,235,376,377,-1,375,235,377,-1,235,232,378,-1,376,235,378,-1,379,380,381,-1,379,381,382,-1,381,383,382,-1,384,381,385,-1,384,383,381,-1,386,387,385,-1,385,381,386,-1,386,388,389,-1,387,386,389,-1,228,390,391,-1,392,393,375,-1,226,215,390,-1,228,225,390,-1,217,394,215,-1,395,396,397,-1,398,399,391,-1,396,391,390,-1,227,391,218,-1,400,289,401,-1,374,393,402,-1,403,219,218,-1,375,377,392,-1,403,391,399,-1,402,373,374,-1,393,374,375,-1,392,404,230,-1,404,392,377,-1,234,376,378,-1,377,376,404,-1,234,378,232,-1,288,400,395,-1,376,234,233,-1,402,405,373,-1,322,372,405,-1,372,373,405,-1,405,298,322,-1,305,372,322,-1,302,298,401,-1,397,290,395,-1,298,405,401,-1,392,399,393,-1,401,402,406,-1,403,392,230,-1,406,393,399,-1,404,231,230,-1,231,404,233,-1,376,233,404,-1,405,402,401,-1,302,401,289,-1,218,391,403,-1,402,393,406,-1,406,398,400,-1,403,229,219,-1,230,229,403,-1,392,403,399,-1,401,406,400,-1,289,400,288,-1,390,225,226,-1,406,399,398,-1,395,398,396,-1,228,391,227,-1,400,398,395,-1,288,395,290,-1,394,397,396,-1,391,396,398,-1,396,390,394,-1,215,394,390,-1,102,407,408,-1,409,410,407,-1,407,411,408,-1,409,102,10,-1,118,217,242,-1,117,6,102,-1,217,292,394,-1,292,217,118,-1,242,217,240,-1,240,217,216,-1,397,394,294,-1,394,291,294,-1,293,397,294,-1,292,291,394,-1,397,293,290,-1,118,0,117,-1,118,242,0,-1,0,6,117,-1,409,407,102,-1,10,102,6,-1,412,413,414,-1,408,411,412,-1,415,414,413,-1,415,413,416,-1,412,411,413,-1,417,418,419,-1,418,420,421,-1,422,423,424,-1,425,417,423,-1,426,427,428,-1,427,429,430,-1,427,424,429,-1,426,416,431,-1,424,432,433,-1,434,433,435,-1,436,437,407,-1,436,438,437,-1,439,425,422,-1,407,437,411,-1,425,423,422,-1,417,419,423,-1,435,440,441,-1,422,442,439,-1,434,435,443,-1,439,442,444,-1,445,444,442,-1,446,445,442,-1,447,444,445,-1,448,449,450,-1,448,447,451,-1,447,445,451,-1,448,450,447,-1,451,445,446,-1,442,452,446,-1,453,452,434,-1,453,434,443,-1,452,442,434,-1,419,454,429,-1,422,433,442,-1,419,418,421,-1,423,429,424,-1,454,419,421,-1,443,435,441,-1,442,433,434,-1,455,440,435,-1,422,424,433,-1,433,432,435,-1,423,419,429,-1,424,427,432,-1,454,430,429,-1,437,438,455,-1,432,456,435,-1,435,456,437,-1,431,432,427,-1,456,432,431,-1,430,428,427,-1,437,456,411,-1,455,435,437,-1,411,456,413,-1,416,413,431,-1,413,456,431,-1,426,431,427,-1,450,449,457,-1,450,457,447,-1,457,444,447,-1,439,457,425,-1,439,444,457,-1,458,417,425,-1,425,457,458,-1,458,420,418,-1,417,458,418,-1,421,458,454,-1,454,458,459,-1,460,461,459,-1,462,461,460,-1,420,458,421,-1,458,460,459,-1,454,463,430,-1,463,454,459,-1,430,464,428,-1,463,464,430,-1,412,465,466,-1,426,467,416,-1,408,412,468,-1,466,468,412,-1,105,102,408,-1,408,468,105,-1,465,412,414,-1,469,414,415,-1,414,469,465,-1,415,416,469,-1,469,416,467,-1,428,464,470,-1,470,426,428,-1,467,426,470,-1,471,472,468,-1,5,110,105,-1,468,472,105,-1,108,110,20,-1,119,473,474,-1,475,476,477,-1,474,124,119,-1,122,124,474,-1,120,123,473,-1,119,120,473,-1,473,123,477,-1,108,477,123,-1,108,21,478,-1,475,477,478,-1,20,110,5,-1,466,471,468,-1,20,21,108,-1,477,108,478,-1,105,479,5,-1,465,469,480,-1,480,471,466,-1,105,472,479,-1,481,479,472,-1,466,465,480,-1,467,480,469,-1,482,483,484,-1,485,486,487,-1,488,480,489,-1,490,483,488,-1,471,491,472,-1,492,491,483,-1,490,493,494,-1,490,484,483,-1,463,495,496,-1,497,498,490,-1,499,500,501,-1,502,503,497,-1,487,504,485,-1,499,486,500,-1,490,494,502,-1,486,499,487,-1,485,505,506,-1,505,485,504,-1,507,508,509,-1,504,508,505,-1,510,508,507,-1,511,507,509,-1,496,489,470,-1,512,461,513,-1,513,501,512,-1,500,512,501,-1,462,513,461,-1,461,512,459,-1,463,459,495,-1,480,467,489,-1,459,512,495,-1,485,494,486,-1,495,500,514,-1,502,485,506,-1,514,486,494,-1,505,515,506,-1,515,505,510,-1,508,510,505,-1,512,500,495,-1,464,463,496,-1,497,490,502,-1,500,486,514,-1,514,493,496,-1,502,516,503,-1,506,516,502,-1,485,502,494,-1,495,514,496,-1,464,496,470,-1,483,482,492,-1,514,494,493,-1,489,493,488,-1,484,490,498,-1,496,493,489,-1,470,489,467,-1,471,480,488,-1,490,488,493,-1,488,483,471,-1,491,471,483,-1,508,504,517,-1,508,517,509,-1,517,511,509,-1,517,487,499,-1,504,487,517,-1,501,460,499,-1,517,499,460,-1,462,460,513,-1,460,501,513,-1,451,457,449,-1,451,449,448,-1,446,457,451,-1,446,517,457,-1,452,453,410,-1,410,481,506,-1,443,441,410,-1,443,410,453,-1,516,506,481,-1,440,410,441,-1,436,407,410,-1,436,410,438,-1,481,503,516,-1,440,455,410,-1,438,410,455,-1,481,472,491,-1,491,492,481,-1,481,482,484,-1,492,482,481,-1,481,498,497,-1,484,498,481,-1,410,506,452,-1,497,503,481,-1,446,506,515,-1,506,446,452,-1,510,517,515,-1,446,515,517,-1,510,507,511,-1,510,511,517,-1,409,10,5,-1,410,479,481,-1,479,410,409,-1,5,479,409,-1,457,517,460,-1,457,460,458,-1,385,518,519,-1,389,388,520,-1,521,518,522,-1,385,387,518,-1,121,523,125,-1,524,519,518,-1,523,524,521,-1,121,122,525,-1,524,526,527,-1,528,527,529,-1,530,531,477,-1,530,532,531,-1,384,385,519,-1,477,531,473,-1,522,387,389,-1,387,522,518,-1,533,529,534,-1,519,535,384,-1,528,529,536,-1,384,535,383,-1,537,383,535,-1,538,537,535,-1,382,383,537,-1,539,380,379,-1,539,382,540,-1,382,537,540,-1,539,379,382,-1,540,537,538,-1,535,541,538,-1,542,541,528,-1,542,528,536,-1,541,535,528,-1,522,543,521,-1,519,527,535,-1,522,389,520,-1,518,521,524,-1,543,522,520,-1,536,529,533,-1,535,527,528,-1,544,534,529,-1,519,524,527,-1,526,529,527,-1,523,521,545,-1,524,523,526,-1,543,545,521,-1,531,532,544,-1,526,546,529,-1,529,546,531,-1,525,526,523,-1,546,526,525,-1,545,125,523,-1,531,546,473,-1,544,529,531,-1,473,546,474,-1,122,474,525,-1,474,546,525,-1,121,525,523,-1,538,541,476,-1,547,548,549,-1,540,550,380,-1,551,552,553,-1,547,549,554,-1,380,550,551,-1,381,380,551,-1,552,551,550,-1,539,540,380,-1,542,476,541,-1,540,538,550,-1,550,538,476,-1,476,536,533,-1,542,536,476,-1,476,544,532,-1,476,533,534,-1,476,530,477,-1,532,530,476,-1,549,476,35,-1,35,142,148,-1,35,148,166,-1,544,476,534,-1,549,550,476,-1,35,29,135,-1,135,134,35,-1,35,136,128,-1,134,136,35,-1,35,141,142,-1,128,141,35,-1,165,35,152,-1,166,152,35,-1,165,157,549,-1,549,35,165,-1,156,157,153,-1,549,156,554,-1,549,157,156,-1,554,156,178,-1,478,21,15,-1,476,34,35,-1,475,30,34,-1,34,476,475,-1,475,478,30,-1,15,30,478,-1,555,381,551,-1,381,555,386,-1,554,178,179,-1,554,179,556,-1,557,558,559,-1,560,561,562,-1,550,563,564,-1,562,565,560,-1,566,567,565,-1,568,567,569,-1,567,570,569,-1,570,567,566,-1,571,550,549,-1,568,549,567,-1,568,571,549,-1,564,572,559,-1,564,559,550,-1,573,574,575,-1,576,573,575,-1,558,576,559,-1,559,576,575,-1,572,557,559,-1,571,563,550,-1,567,560,565,-1,577,578,579,-1,577,553,580,-1,553,577,579,-1,551,553,555,-1,580,553,581,-1,579,555,553,-1,581,553,582,-1,583,582,553,-1,553,584,583,-1,585,586,587,-1,588,589,587,-1,585,587,589,-1,590,589,588,-1,591,586,585,-1,592,591,583,-1,591,592,586,-1,592,583,584,-1,593,594,595,-1,595,596,593,-1,552,597,553,-1,595,597,596,-1,584,553,597,-1,592,588,586,-1,597,595,584,-1,588,592,584,-1,586,588,587,-1,584,595,588,-1,590,595,598,-1,595,590,588,-1,599,598,600,-1,582,583,601,-1,602,601,598,-1,602,598,599,-1,583,598,601,-1,603,582,601,-1,591,590,583,-1,583,590,598,-1,589,590,585,-1,590,591,585,-1,580,604,577,-1,578,577,605,-1,604,605,577,-1,606,579,578,-1,578,605,606,-1,604,580,607,-1,607,581,608,-1,581,607,580,-1,581,582,608,-1,608,582,603,-1,606,605,604,-1,606,604,552,-1,606,550,559,-1,550,606,552,-1,552,607,608,-1,604,607,552,-1,608,603,552,-1,552,603,597,-1,597,603,601,-1,599,593,596,-1,597,602,596,-1,599,596,602,-1,601,602,597,-1,600,593,599,-1,594,600,598,-1,600,594,593,-1,594,598,595,-1,388,609,520,-1,556,179,162,-1,161,610,611,-1,520,609,612,-1,556,613,614,-1,520,612,615,-1,610,161,163,-1,613,556,567,-1,126,616,610,-1,617,126,618,-1,615,543,520,-1,386,555,388,-1,559,619,555,-1,559,579,606,-1,619,609,388,-1,555,619,388,-1,579,559,555,-1,575,619,559,-1,556,162,620,-1,125,618,126,-1,543,621,545,-1,621,543,615,-1,622,125,621,-1,545,621,125,-1,125,622,618,-1,617,616,126,-1,623,624,159,-1,163,126,610,-1,623,159,161,-1,623,161,611,-1,624,620,162,-1,624,162,159,-1,560,567,620,-1,556,620,567,-1,562,625,565,-1,561,620,625,-1,625,562,561,-1,560,620,561,-1,625,626,565,-1,565,626,566,-1,569,570,627,-1,568,627,628,-1,627,568,569,-1,571,568,628,-1,627,570,626,-1,570,566,626,-1,629,563,571,-1,628,630,631,-1,628,632,630,-1,628,633,634,-1,631,633,628,-1,635,636,637,-1,637,638,635,-1,629,639,635,-1,635,639,636,-1,563,629,635,-1,629,571,634,-1,634,571,628,-1,635,640,564,-1,563,635,564,-1,572,564,640,-1,641,557,640,-1,572,640,557,-1,641,558,557,-1,576,642,573,-1,641,576,558,-1,641,642,576,-1,642,574,573,-1,642,619,574,-1,574,619,575,-1,641,643,644,-1,615,612,645,-1,621,646,647,-1,644,643,645,-1,618,648,649,-1,622,648,618,-1,650,649,651,-1,649,648,651,-1,646,621,615,-1,621,647,622,-1,643,652,645,-1,615,645,646,-1,619,642,609,-1,642,641,644,-1,612,609,644,-1,642,644,609,-1,652,653,646,-1,612,644,645,-1,652,646,645,-1,653,654,647,-1,653,647,646,-1,654,651,648,-1,654,648,647,-1,622,647,648,-1,649,617,618,-1,650,655,656,-1,656,617,649,-1,650,656,649,-1,655,657,658,-1,611,610,659,-1,623,660,661,-1,658,657,659,-1,620,662,625,-1,624,662,620,-1,626,625,663,-1,625,662,663,-1,660,623,611,-1,623,661,624,-1,657,664,659,-1,611,659,660,-1,617,656,616,-1,656,655,658,-1,610,616,658,-1,656,658,616,-1,664,665,660,-1,610,658,659,-1,664,660,659,-1,665,666,661,-1,665,661,660,-1,666,663,662,-1,666,662,661,-1,624,661,662,-1,655,667,657,-1,628,668,632,-1,669,631,630,-1,669,630,670,-1,671,634,633,-1,667,671,633,-1,655,671,667,-1,667,631,669,-1,669,664,667,-1,630,632,670,-1,668,628,627,-1,627,663,668,-1,626,663,627,-1,664,657,667,-1,631,667,633,-1,664,669,665,-1,669,670,665,-1,665,670,666,-1,666,668,663,-1,666,670,668,-1,632,668,670,-1,634,671,672,-1,629,634,672,-1,650,672,671,-1,671,655,650,-1,641,673,643,-1,629,674,639,-1,675,637,636,-1,675,636,676,-1,640,635,638,-1,673,640,638,-1,641,640,673,-1,673,637,675,-1,675,652,673,-1,636,639,676,-1,674,629,672,-1,672,651,674,-1,650,651,672,-1,652,643,673,-1,637,673,638,-1,652,675,653,-1,675,676,653,-1,653,676,654,-1,654,674,651,-1,654,676,674,-1,639,674,676,-1,547,677,678,-1,679,547,614,-1,679,614,680,-1,547,681,677,-1,679,681,547,-1,554,556,547,-1,682,547,683,-1,556,614,547,-1,547,678,683,-1,684,685,686,-1,687,688,686,-1,684,686,688,-1,689,688,687,-1,690,685,684,-1,691,690,682,-1,690,691,685,-1,691,682,683,-1,692,693,694,-1,694,695,692,-1,696,697,678,-1,694,697,695,-1,683,678,697,-1,691,687,685,-1,697,694,683,-1,687,691,683,-1,685,687,686,-1,683,694,687,-1,698,687,694,-1,698,689,687,-1,699,698,700,-1,547,682,701,-1,702,701,698,-1,702,698,699,-1,682,698,701,-1,548,547,701,-1,690,689,682,-1,682,689,698,-1,688,689,684,-1,689,690,684,-1,613,567,549,-1,613,703,704,-1,701,697,696,-1,549,548,613,-1,705,703,548,-1,613,548,703,-1,548,706,705,-1,548,696,706,-1,696,548,701,-1,699,692,695,-1,697,702,695,-1,699,695,702,-1,701,702,697,-1,700,692,699,-1,693,700,698,-1,700,693,692,-1,693,698,694,-1,705,679,703,-1,704,703,680,-1,679,680,703,-1,614,613,704,-1,704,680,614,-1,679,705,681,-1,681,706,677,-1,706,681,705,-1,706,696,677,-1,677,696,678,-1,707,708,315,-1,707,238,709,-1,238,707,315,-1,221,238,311,-1,709,238,710,-1,315,311,238,-1,710,238,711,-1,712,711,238,-1,238,713,712,-1,714,715,716,-1,717,718,716,-1,714,716,718,-1,719,718,717,-1,720,715,714,-1,721,720,712,-1,720,721,715,-1,721,712,713,-1,722,723,724,-1,724,725,722,-1,237,726,238,-1,724,726,725,-1,713,238,726,-1,721,717,715,-1,726,724,713,-1,717,721,713,-1,715,717,716,-1,713,724,717,-1,719,724,727,-1,724,719,717,-1,728,727,729,-1,711,712,730,-1,731,730,727,-1,731,727,728,-1,712,727,730,-1,732,711,730,-1,720,719,712,-1,712,719,727,-1,718,719,714,-1,719,720,714,-1,709,733,707,-1,708,707,734,-1,733,734,707,-1,316,315,708,-1,708,734,316,-1,733,709,735,-1,735,710,736,-1,710,735,709,-1,710,711,736,-1,736,711,732,-1,316,734,733,-1,316,733,237,-1,316,220,312,-1,220,316,237,-1,237,735,736,-1,733,735,237,-1,736,732,237,-1,237,732,726,-1,726,732,730,-1,728,722,725,-1,726,731,725,-1,728,725,731,-1,730,731,726,-1,729,722,728,-1,723,729,727,-1,729,723,722,-1,723,727,724,-1,341,340,737,-1,737,339,738,-1,339,737,340,-1,339,337,738,-1,737,313,341,-1,341,313,317,-1,318,739,319,-1,737,738,740,-1,741,310,313,-1,742,743,744,-1,745,746,741,-1,747,739,748,-1,747,319,739,-1,295,319,747,-1,749,739,744,-1,307,742,744,-1,746,750,742,-1,742,750,743,-1,737,741,313,-1,740,741,737,-1,744,739,318,-1,739,749,748,-1,307,744,318,-1,749,744,743,-1,307,308,742,-1,750,746,745,-1,742,308,746,-1,310,746,308,-1,746,310,741,-1,745,741,740,-1,747,309,295,-1,748,751,752,-1,752,309,747,-1,748,752,747,-1,320,753,321,-1,752,751,754,-1,755,306,309,-1,756,757,758,-1,759,760,755,-1,325,753,328,-1,325,321,753,-1,314,321,325,-1,761,753,758,-1,297,756,758,-1,760,762,756,-1,756,762,757,-1,752,755,309,-1,754,755,752,-1,758,753,320,-1,753,761,328,-1,297,758,320,-1,761,758,757,-1,297,296,756,-1,762,760,759,-1,756,296,760,-1,306,760,296,-1,760,306,755,-1,759,755,754,-1,757,763,761,-1,764,765,766,-1,767,763,768,-1,769,770,771,-1,770,769,772,-1,751,772,754,-1,768,762,773,-1,769,754,772,-1,773,759,769,-1,763,757,768,-1,768,773,774,-1,328,763,764,-1,763,765,764,-1,763,328,761,-1,765,763,767,-1,774,767,768,-1,762,768,757,-1,771,774,773,-1,759,773,762,-1,773,769,771,-1,759,754,769,-1,331,333,764,-1,332,764,766,-1,764,332,331,-1,334,332,766,-1,764,333,328,-1,333,329,328,-1,775,776,777,-1,778,775,779,-1,778,776,775,-1,775,335,780,-1,780,779,775,-1,780,335,770,-1,765,767,766,-1,771,766,774,-1,766,767,774,-1,766,771,770,-1,766,770,334,-1,770,335,334,-1,775,781,330,-1,335,775,330,-1,338,330,781,-1,738,336,781,-1,338,781,336,-1,738,337,336,-1,743,782,749,-1,783,779,780,-1,778,782,784,-1,785,775,777,-1,775,785,781,-1,738,781,740,-1,784,750,786,-1,785,740,781,-1,786,745,785,-1,782,743,784,-1,784,786,776,-1,748,782,783,-1,782,779,783,-1,782,748,749,-1,779,782,778,-1,776,778,784,-1,750,784,743,-1,777,776,786,-1,745,786,750,-1,786,785,777,-1,745,740,785,-1,770,772,783,-1,780,770,783,-1,748,783,772,-1,772,751,748,-1,115,116,11,-1,11,2,115,-1,18,106,109,-1,18,19,106,-1,111,2,1,-1,111,115,2,-1,101,1,13,-1,101,111,1,-1,109,13,18,-1,109,101,13,-1,787,788,789,-1,790,791,789,-1,789,791,787,-1,792,793,791,-1,791,790,792,-1,794,793,795,-1,793,794,791,-1,796,794,797,-1,795,797,794,-1,796,797,798,-1,799,800,792,-1,790,801,799,-1,799,792,790,-1,801,789,802,-1,789,801,790,-1,803,802,788,-1,789,788,802,-1,787,804,803,-1,803,788,787,-1,792,800,793,-1,795,793,805,-1,800,805,793,-1,806,797,795,-1,795,805,806,-1,797,807,798,-1,807,797,806,-1,807,808,798,-1,798,808,796,-1,808,794,796,-1,794,808,809,-1,808,807,806,-1,805,809,806,-1,806,809,808,-1,800,799,809,-1,809,805,800,-1,810,799,801,-1,799,810,809,-1,804,810,802,-1,801,802,810,-1,804,802,803,-1,787,810,804,-1,810,787,791,-1,811,812,813,-1,814,815,813,-1,813,815,811,-1,816,817,815,-1,815,814,816,-1,818,817,819,-1,817,818,815,-1,820,818,821,-1,819,821,818,-1,820,821,822,-1,823,824,816,-1,814,825,823,-1,823,816,814,-1,825,813,826,-1,813,825,814,-1,827,826,812,-1,813,812,826,-1,811,828,827,-1,827,812,811,-1,816,824,817,-1,819,817,829,-1,824,829,817,-1,830,821,819,-1,819,829,830,-1,821,831,822,-1,831,821,830,-1,831,832,822,-1,822,832,820,-1,832,818,820,-1,818,832,833,-1,832,831,830,-1,829,833,830,-1,830,833,832,-1,824,823,833,-1,833,829,824,-1,834,823,825,-1,823,834,833,-1,828,834,826,-1,825,826,834,-1,828,826,827,-1,811,834,828,-1,834,811,815,-1,835,836,837,-1,838,839,837,-1,837,839,835,-1,840,841,839,-1,839,838,840,-1,842,841,843,-1,841,842,839,-1,844,842,845,-1,843,845,842,-1,844,845,846,-1,847,848,840,-1,838,849,847,-1,847,840,838,-1,849,837,850,-1,837,849,838,-1,851,850,836,-1,837,836,850,-1,835,852,851,-1,851,836,835,-1,840,848,841,-1,843,841,853,-1,848,853,841,-1,854,845,843,-1,843,853,854,-1,845,855,846,-1,855,845,854,-1,855,856,846,-1,846,856,844,-1,856,842,844,-1,842,856,857,-1,856,855,854,-1,853,857,854,-1,854,857,856,-1,848,847,857,-1,857,853,848,-1,858,847,849,-1,847,858,857,-1,852,858,850,-1,849,850,858,-1,852,850,851,-1,835,858,852,-1,858,835,839,-1,
        ]
    }
}