M48
; DRILL file KiCad 10.0.0 date 2026-09-19T05:45:28
; FORMAT={-:-/ absolute / metric / decimal}
; #@! TF.CreationDate,2026-09-19T05:45:28+09:00
; #@! TF.GenerationSoftware,Kicad,Pcbnew,10.0.0
; #@! TF.FileFunction,Plated,1,2,PTH
FMAT,2
METRIC
; #@! TA.AperFunction,Plated,PTH,ComponentDrill
T1C1.100
%
G90
G05
T1
X106.57Y-98.73
X106.57Y-101.27
X109.11Y-98.73
X109.11Y-101.27
X111.65Y-98.73
X111.65Y-101.27
X112.92Y-109.5
X114.19Y-98.73
X114.19Y-101.27
X115.46Y-109.5
X116.73Y-98.73
X116.73Y-101.27
X118.0Y-109.5
X119.27Y-98.73
X119.27Y-101.27
X120.54Y-109.5
X121.81Y-98.73
X121.81Y-101.27
X123.08Y-109.5
X124.35Y-98.73
X124.35Y-101.27
X126.89Y-98.73
X126.89Y-101.27
X129.43Y-98.73
X129.43Y-101.27
M30
