%TF.GenerationSoftware,KiCad,Pcbnew,10.0.0*%
%TF.CreationDate,2026-09-19T05:45:27+09:00*%
%TF.ProjectId,swd-adapter,7377642d-6164-4617-9074-65722e6b6963,rev?*%
%TF.SameCoordinates,Original*%
%TF.FileFunction,Copper,L2,Bot*%
%TF.FilePolarity,Positive*%
%FSLAX46Y46*%
G04 Gerber Fmt 4.6, Leading zero omitted, Abs format (unit mm)*
G04 Created by KiCad (PCBNEW 10.0.0) date 2026-09-19 05:45:27*
%MOMM*%
%LPD*%
G01*
G04 APERTURE LIST*
%TA.AperFunction,ComponentPad*%
%ADD10R,1.700000X1.700000*%
%TD*%
%TA.AperFunction,ComponentPad*%
%ADD11C,1.700000*%
%TD*%
%TA.AperFunction,ComponentPad*%
%ADD12R,1.800000X1.800000*%
%TD*%
%TA.AperFunction,ComponentPad*%
%ADD13C,1.800000*%
%TD*%
%TA.AperFunction,Conductor*%
%ADD14C,0.400000*%
%TD*%
G04 APERTURE END LIST*
D10*
%TO.P,J2,1*%
%TO.N,SWDIO*%
X112920000Y-109500000D03*
D11*
%TO.P,J2,2*%
%TO.N,SWCLK*%
X115460000Y-109500000D03*
%TO.P,J2,3*%
%TO.N,NRST*%
X118000000Y-109500000D03*
%TO.P,J2,4*%
%TO.N,VAPP*%
X120540000Y-109500000D03*
%TO.P,J2,5*%
%TO.N,GND*%
X123080000Y-109500000D03*
%TD*%
D12*
%TO.P,J1,1*%
%TO.N,VAPP*%
X106570000Y-101270000D03*
D13*
%TO.P,J1,2*%
X106570000Y-98730000D03*
%TO.P,J1,3*%
%TO.N,GND*%
X109110000Y-101270000D03*
%TO.P,J1,4*%
X109110000Y-98730000D03*
%TO.P,J1,5*%
X111650000Y-101270000D03*
%TO.P,J1,6*%
X111650000Y-98730000D03*
%TO.P,J1,7*%
%TO.N,SWDIO*%
X114190000Y-101270000D03*
%TO.P,J1,8*%
%TO.N,GND*%
X114190000Y-98730000D03*
%TO.P,J1,9*%
%TO.N,SWCLK*%
X116730000Y-101270000D03*
%TO.P,J1,10*%
%TO.N,GND*%
X116730000Y-98730000D03*
%TO.P,J1,11*%
%TO.N,unconnected-(J1-Pad11)*%
X119270000Y-101270000D03*
%TO.P,J1,12*%
%TO.N,GND*%
X119270000Y-98730000D03*
%TO.P,J1,13*%
%TO.N,unconnected-(J1-Pad13)*%
X121810000Y-101270000D03*
%TO.P,J1,14*%
%TO.N,GND*%
X121810000Y-98730000D03*
%TO.P,J1,15*%
%TO.N,NRST*%
X124350000Y-101270000D03*
%TO.P,J1,16*%
%TO.N,GND*%
X124350000Y-98730000D03*
%TO.P,J1,17*%
%TO.N,unconnected-(J1-Pad17)*%
X126890000Y-101270000D03*
%TO.P,J1,18*%
%TO.N,GND*%
X126890000Y-98730000D03*
%TO.P,J1,19*%
%TO.N,unconnected-(J1-Pad19)*%
X129430000Y-101270000D03*
%TO.P,J1,20*%
%TO.N,GND*%
X129430000Y-98730000D03*
%TD*%
%TO.N,VAPP*%
D14*
X106570000Y-101270000D02*
X105500000Y-105500000D01*
X105500000Y-105500000D02*
X105500000Y-110800000D01*
X105500000Y-110800000D02*
X120540000Y-110800000D01*
X106570000Y-98730000D02*
X106570000Y-101270000D01*
X120540000Y-110800000D02*
X120540000Y-109500000D01*
%TD*%
%TA.AperFunction,Conductor*%
%TO.N,GND*%
G36*
X135409191Y-95268907D02*
G01*
X135445155Y-95318407D01*
X135450000Y-95349000D01*
X135450000Y-112151000D01*
X135431093Y-112209191D01*
X135381593Y-112245155D01*
X135351000Y-112250000D01*
X100649000Y-112250000D01*
X100590809Y-112231093D01*
X100554845Y-112181593D01*
X100550000Y-112151000D01*
X100550000Y-105447021D01*
X105048712Y-105447021D01*
X105049500Y-105503154D01*
X105049500Y-110740691D01*
X105049500Y-110859309D01*
X105076574Y-110960351D01*
X105080202Y-110973890D01*
X105139507Y-111076608D01*
X105139509Y-111076610D01*
X105139511Y-111076613D01*
X105223387Y-111160489D01*
X105223389Y-111160490D01*
X105223391Y-111160492D01*
X105326110Y-111219797D01*
X105326111Y-111219797D01*
X105326114Y-111219799D01*
X105440691Y-111250500D01*
X105440693Y-111250500D01*
X120599307Y-111250500D01*
X120599309Y-111250500D01*
X120713886Y-111219799D01*
X120713888Y-111219797D01*
X120713890Y-111219797D01*
X120816608Y-111160492D01*
X120816608Y-111160491D01*
X120816613Y-111160489D01*
X120900489Y-111076613D01*
X120959799Y-110973886D01*
X120990500Y-110859309D01*
X120990500Y-110566245D01*
X121009407Y-110508054D01*
X121044554Y-110478036D01*
X121116788Y-110441232D01*
X121256928Y-110339414D01*
X121379414Y-110216928D01*
X121481232Y-110076788D01*
X121559873Y-109922445D01*
X121559874Y-109922440D01*
X121559876Y-109922438D01*
X121613401Y-109757706D01*
X121613402Y-109757702D01*
X121640500Y-109586614D01*
X121640500Y-109413424D01*
X121980000Y-109413424D01*
X121980000Y-109586575D01*
X122007084Y-109757579D01*
X122060588Y-109922248D01*
X122139195Y-110076524D01*
X122139197Y-110076528D01*
X122203219Y-110164646D01*
X122599716Y-109768148D01*
X122639881Y-109837715D01*
X122742285Y-109940119D01*
X122811848Y-109980282D01*
X122415352Y-110376778D01*
X122503477Y-110440805D01*
X122657751Y-110519411D01*
X122822420Y-110572915D01*
X122993425Y-110600000D01*
X123166575Y-110600000D01*
X123337579Y-110572915D01*
X123502248Y-110519411D01*
X123656524Y-110440804D01*
X123656530Y-110440800D01*
X123744646Y-110376779D01*
X123744646Y-110376778D01*
X123348150Y-109980282D01*
X123417715Y-109940119D01*
X123520119Y-109837715D01*
X123560282Y-109768150D01*
X123956778Y-110164646D01*
X123956779Y-110164646D01*
X124020800Y-110076530D01*
X124020804Y-110076524D01*
X124099411Y-109922248D01*
X124152915Y-109757579D01*
X124180000Y-109586575D01*
X124180000Y-109413424D01*
X124152915Y-109242420D01*
X124099411Y-109077751D01*
X124020805Y-108923477D01*
X123956778Y-108835352D01*
X123560282Y-109231848D01*
X123520119Y-109162285D01*
X123417715Y-109059881D01*
X123348148Y-109019716D01*
X123744646Y-108623219D01*
X123656528Y-108559197D01*
X123656524Y-108559195D01*
X123502248Y-108480588D01*
X123337579Y-108427084D01*
X123166575Y-108400000D01*
X122993425Y-108400000D01*
X122822420Y-108427084D01*
X122657751Y-108480588D01*
X122503476Y-108559195D01*
X122415352Y-108623219D01*
X122811850Y-109019717D01*
X122742285Y-109059881D01*
X122639881Y-109162285D01*
X122599717Y-109231850D01*
X122203219Y-108835352D01*
X122139195Y-108923476D01*
X122060588Y-109077751D01*
X122007084Y-109242420D01*
X121980000Y-109413424D01*
X121640500Y-109413424D01*
X121640500Y-109413385D01*
X121613402Y-109242297D01*
X121613401Y-109242293D01*
X121559876Y-109077561D01*
X121559874Y-109077558D01*
X121559873Y-109077557D01*
X121559873Y-109077555D01*
X121481232Y-108923212D01*
X121379414Y-108783072D01*
X121256928Y-108660586D01*
X121116788Y-108558768D01*
X121116787Y-108558767D01*
X121116785Y-108558766D01*
X120962441Y-108480125D01*
X120962438Y-108480123D01*
X120797706Y-108426598D01*
X120797702Y-108426597D01*
X120626614Y-108399500D01*
X120626611Y-108399500D01*
X120453389Y-108399500D01*
X120453386Y-108399500D01*
X120282297Y-108426597D01*
X120282293Y-108426598D01*
X120117561Y-108480123D01*
X120117558Y-108480125D01*
X119963214Y-108558766D01*
X119823073Y-108660585D01*
X119700585Y-108783073D01*
X119598766Y-108923214D01*
X119520125Y-109077558D01*
X119520123Y-109077561D01*
X119466598Y-109242293D01*
X119466597Y-109242297D01*
X119439500Y-109413385D01*
X119439500Y-109586614D01*
X119466597Y-109757702D01*
X119466598Y-109757706D01*
X119520123Y-109922438D01*
X119520125Y-109922441D01*
X119598767Y-110076787D01*
X119598771Y-110076793D01*
X119682699Y-110192309D01*
X119701607Y-110250500D01*
X119682700Y-110308690D01*
X119633200Y-110344654D01*
X119602607Y-110349500D01*
X118937393Y-110349500D01*
X118879202Y-110330593D01*
X118843238Y-110281093D01*
X118843238Y-110219907D01*
X118857301Y-110192309D01*
X118941228Y-110076793D01*
X118941232Y-110076788D01*
X119019873Y-109922445D01*
X119019874Y-109922440D01*
X119019876Y-109922438D01*
X119073401Y-109757706D01*
X119073402Y-109757702D01*
X119100500Y-109586614D01*
X119100500Y-109413385D01*
X119073402Y-109242297D01*
X119073401Y-109242293D01*
X119019876Y-109077561D01*
X119019874Y-109077558D01*
X119019873Y-109077557D01*
X119019873Y-109077555D01*
X118941232Y-108923212D01*
X118839414Y-108783072D01*
X118716928Y-108660586D01*
X118576788Y-108558768D01*
X118576787Y-108558767D01*
X118576785Y-108558766D01*
X118422441Y-108480125D01*
X118422438Y-108480123D01*
X118257706Y-108426598D01*
X118257702Y-108426597D01*
X118086614Y-108399500D01*
X118086611Y-108399500D01*
X117913389Y-108399500D01*
X117913386Y-108399500D01*
X117742297Y-108426597D01*
X117742293Y-108426598D01*
X117577561Y-108480123D01*
X117577558Y-108480125D01*
X117423214Y-108558766D01*
X117283073Y-108660585D01*
X117160585Y-108783073D01*
X117058766Y-108923214D01*
X116980125Y-109077558D01*
X116980123Y-109077561D01*
X116926598Y-109242293D01*
X116926597Y-109242297D01*
X116899500Y-109413385D01*
X116899500Y-109586614D01*
X116926597Y-109757702D01*
X116926598Y-109757706D01*
X116980123Y-109922438D01*
X116980125Y-109922441D01*
X117058767Y-110076787D01*
X117058771Y-110076793D01*
X117142699Y-110192309D01*
X117161607Y-110250500D01*
X117142700Y-110308690D01*
X117093200Y-110344654D01*
X117062607Y-110349500D01*
X116397393Y-110349500D01*
X116339202Y-110330593D01*
X116303238Y-110281093D01*
X116303238Y-110219907D01*
X116317301Y-110192309D01*
X116401228Y-110076793D01*
X116401232Y-110076788D01*
X116479873Y-109922445D01*
X116479874Y-109922440D01*
X116479876Y-109922438D01*
X116533401Y-109757706D01*
X116533402Y-109757702D01*
X116560500Y-109586614D01*
X116560500Y-109413385D01*
X116533402Y-109242297D01*
X116533401Y-109242293D01*
X116479876Y-109077561D01*
X116479874Y-109077558D01*
X116479873Y-109077557D01*
X116479873Y-109077555D01*
X116401232Y-108923212D01*
X116299414Y-108783072D01*
X116176928Y-108660586D01*
X116036788Y-108558768D01*
X116036787Y-108558767D01*
X116036785Y-108558766D01*
X115882441Y-108480125D01*
X115882438Y-108480123D01*
X115717706Y-108426598D01*
X115717702Y-108426597D01*
X115546614Y-108399500D01*
X115546611Y-108399500D01*
X115373389Y-108399500D01*
X115373386Y-108399500D01*
X115202297Y-108426597D01*
X115202293Y-108426598D01*
X115037561Y-108480123D01*
X115037558Y-108480125D01*
X114883214Y-108558766D01*
X114743073Y-108660585D01*
X114620585Y-108783073D01*
X114518766Y-108923214D01*
X114440125Y-109077558D01*
X114440123Y-109077561D01*
X114386598Y-109242293D01*
X114386597Y-109242297D01*
X114359500Y-109413385D01*
X114359500Y-109586614D01*
X114386597Y-109757702D01*
X114386598Y-109757706D01*
X114440123Y-109922438D01*
X114440125Y-109922441D01*
X114518767Y-110076787D01*
X114518771Y-110076793D01*
X114602699Y-110192309D01*
X114621607Y-110250500D01*
X114602700Y-110308690D01*
X114553200Y-110344654D01*
X114522607Y-110349500D01*
X114119500Y-110349500D01*
X114061309Y-110330593D01*
X114025345Y-110281093D01*
X114020500Y-110250500D01*
X114020500Y-108625327D01*
X114020498Y-108625315D01*
X114017015Y-108607808D01*
X114005966Y-108552260D01*
X113957768Y-108480125D01*
X113950602Y-108469400D01*
X113950599Y-108469397D01*
X113867742Y-108414035D01*
X113867740Y-108414034D01*
X113867737Y-108414033D01*
X113867736Y-108414033D01*
X113794684Y-108399501D01*
X113794674Y-108399500D01*
X112045326Y-108399500D01*
X112045325Y-108399500D01*
X112045315Y-108399501D01*
X111972263Y-108414033D01*
X111972257Y-108414035D01*
X111889400Y-108469397D01*
X111889397Y-108469400D01*
X111834035Y-108552257D01*
X111834033Y-108552263D01*
X111819501Y-108625315D01*
X111819500Y-108625327D01*
X111819500Y-110250500D01*
X111800593Y-110308691D01*
X111751093Y-110344655D01*
X111720500Y-110349500D01*
X106049500Y-110349500D01*
X105991309Y-110330593D01*
X105955345Y-110281093D01*
X105950500Y-110250500D01*
X105950500Y-105568420D01*
X105953523Y-105544142D01*
X105978879Y-105443905D01*
X106089749Y-105005602D01*
X106724763Y-102495222D01*
X106757363Y-102443445D01*
X106814171Y-102420718D01*
X106820740Y-102420500D01*
X107494673Y-102420500D01*
X107494674Y-102420500D01*
X107567740Y-102405966D01*
X107650601Y-102350601D01*
X107705966Y-102267740D01*
X107720500Y-102194674D01*
X107720500Y-101179489D01*
X107960000Y-101179489D01*
X107960000Y-101360510D01*
X107988316Y-101539289D01*
X108044250Y-101711440D01*
X108126430Y-101872728D01*
X108197424Y-101970442D01*
X108629716Y-101538148D01*
X108669881Y-101607715D01*
X108772285Y-101710119D01*
X108841848Y-101750282D01*
X108409556Y-102182574D01*
X108409556Y-102182575D01*
X108507263Y-102253564D01*
X108507269Y-102253568D01*
X108668559Y-102335749D01*
X108840710Y-102391683D01*
X109019490Y-102420000D01*
X109200510Y-102420000D01*
X109379289Y-102391683D01*
X109551440Y-102335749D01*
X109712730Y-102253568D01*
X109712735Y-102253564D01*
X109810442Y-102182575D01*
X109810442Y-102182574D01*
X109378150Y-101750282D01*
X109447715Y-101710119D01*
X109550119Y-101607715D01*
X109590282Y-101538150D01*
X110022574Y-101970442D01*
X110022575Y-101970442D01*
X110093564Y-101872735D01*
X110093568Y-101872730D01*
X110175749Y-101711440D01*
X110231683Y-101539289D01*
X110260000Y-101360510D01*
X110260000Y-101179489D01*
X110500000Y-101179489D01*
X110500000Y-101360510D01*
X110528316Y-101539289D01*
X110584250Y-101711440D01*
X110666430Y-101872728D01*
X110737424Y-101970442D01*
X111169716Y-101538148D01*
X111209881Y-101607715D01*
X111312285Y-101710119D01*
X111381848Y-101750282D01*
X110949556Y-102182574D01*
X110949556Y-102182575D01*
X111047263Y-102253564D01*
X111047269Y-102253568D01*
X111208559Y-102335749D01*
X111380710Y-102391683D01*
X111559490Y-102420000D01*
X111740510Y-102420000D01*
X111919289Y-102391683D01*
X112091440Y-102335749D01*
X112252730Y-102253568D01*
X112252735Y-102253564D01*
X112350442Y-102182575D01*
X112350442Y-102182574D01*
X111918150Y-101750282D01*
X111987715Y-101710119D01*
X112090119Y-101607715D01*
X112130282Y-101538150D01*
X112562574Y-101970442D01*
X112562575Y-101970442D01*
X112633564Y-101872735D01*
X112633568Y-101872730D01*
X112715749Y-101711440D01*
X112771683Y-101539289D01*
X112800000Y-101360510D01*
X112800000Y-101179489D01*
X112799994Y-101179450D01*
X113039500Y-101179450D01*
X113039500Y-101360549D01*
X113067828Y-101539406D01*
X113090022Y-101607715D01*
X113123789Y-101711639D01*
X113206004Y-101872994D01*
X113312447Y-102019501D01*
X113440499Y-102147553D01*
X113587006Y-102253996D01*
X113748361Y-102336211D01*
X113920591Y-102392171D01*
X113992136Y-102403502D01*
X114099451Y-102420500D01*
X114099454Y-102420500D01*
X114280549Y-102420500D01*
X114372323Y-102405964D01*
X114459409Y-102392171D01*
X114631639Y-102336211D01*
X114792994Y-102253996D01*
X114939501Y-102147553D01*
X115067553Y-102019501D01*
X115173996Y-101872994D01*
X115256211Y-101711639D01*
X115312171Y-101539409D01*
X115340500Y-101360546D01*
X115340500Y-101179454D01*
X115340500Y-101179450D01*
X115579500Y-101179450D01*
X115579500Y-101360549D01*
X115607828Y-101539406D01*
X115630022Y-101607715D01*
X115663789Y-101711639D01*
X115746004Y-101872994D01*
X115852447Y-102019501D01*
X115980499Y-102147553D01*
X116127006Y-102253996D01*
X116288361Y-102336211D01*
X116460591Y-102392171D01*
X116532136Y-102403502D01*
X116639451Y-102420500D01*
X116639454Y-102420500D01*
X116820549Y-102420500D01*
X116912323Y-102405964D01*
X116999409Y-102392171D01*
X117171639Y-102336211D01*
X117332994Y-102253996D01*
X117479501Y-102147553D01*
X117607553Y-102019501D01*
X117713996Y-101872994D01*
X117796211Y-101711639D01*
X117852171Y-101539409D01*
X117880500Y-101360546D01*
X117880500Y-101179454D01*
X117880500Y-101179450D01*
X118119500Y-101179450D01*
X118119500Y-101360549D01*
X118147828Y-101539406D01*
X118170022Y-101607715D01*
X118203789Y-101711639D01*
X118286004Y-101872994D01*
X118392447Y-102019501D01*
X118520499Y-102147553D01*
X118667006Y-102253996D01*
X118828361Y-102336211D01*
X119000591Y-102392171D01*
X119072136Y-102403502D01*
X119179451Y-102420500D01*
X119179454Y-102420500D01*
X119360549Y-102420500D01*
X119452323Y-102405964D01*
X119539409Y-102392171D01*
X119711639Y-102336211D01*
X119872994Y-102253996D01*
X120019501Y-102147553D01*
X120147553Y-102019501D01*
X120253996Y-101872994D01*
X120336211Y-101711639D01*
X120392171Y-101539409D01*
X120420500Y-101360546D01*
X120420500Y-101179454D01*
X120420500Y-101179450D01*
X120659500Y-101179450D01*
X120659500Y-101360549D01*
X120687828Y-101539406D01*
X120710022Y-101607715D01*
X120743789Y-101711639D01*
X120826004Y-101872994D01*
X120932447Y-102019501D01*
X121060499Y-102147553D01*
X121207006Y-102253996D01*
X121368361Y-102336211D01*
X121540591Y-102392171D01*
X121612136Y-102403502D01*
X121719451Y-102420500D01*
X121719454Y-102420500D01*
X121900549Y-102420500D01*
X121992323Y-102405964D01*
X122079409Y-102392171D01*
X122251639Y-102336211D01*
X122412994Y-102253996D01*
X122559501Y-102147553D01*
X122687553Y-102019501D01*
X122793996Y-101872994D01*
X122876211Y-101711639D01*
X122932171Y-101539409D01*
X122960500Y-101360546D01*
X122960500Y-101179454D01*
X122960500Y-101179450D01*
X123199500Y-101179450D01*
X123199500Y-101360549D01*
X123227828Y-101539406D01*
X123250022Y-101607715D01*
X123283789Y-101711639D01*
X123366004Y-101872994D01*
X123472447Y-102019501D01*
X123600499Y-102147553D01*
X123747006Y-102253996D01*
X123908361Y-102336211D01*
X124080591Y-102392171D01*
X124152136Y-102403502D01*
X124259451Y-102420500D01*
X124259454Y-102420500D01*
X124440549Y-102420500D01*
X124532323Y-102405964D01*
X124619409Y-102392171D01*
X124791639Y-102336211D01*
X124952994Y-102253996D01*
X125099501Y-102147553D01*
X125227553Y-102019501D01*
X125333996Y-101872994D01*
X125416211Y-101711639D01*
X125472171Y-101539409D01*
X125500500Y-101360546D01*
X125500500Y-101179454D01*
X125500500Y-101179450D01*
X125739500Y-101179450D01*
X125739500Y-101360549D01*
X125767828Y-101539406D01*
X125790022Y-101607715D01*
X125823789Y-101711639D01*
X125906004Y-101872994D01*
X126012447Y-102019501D01*
X126140499Y-102147553D01*
X126287006Y-102253996D01*
X126448361Y-102336211D01*
X126620591Y-102392171D01*
X126692136Y-102403502D01*
X126799451Y-102420500D01*
X126799454Y-102420500D01*
X126980549Y-102420500D01*
X127072323Y-102405964D01*
X127159409Y-102392171D01*
X127331639Y-102336211D01*
X127492994Y-102253996D01*
X127639501Y-102147553D01*
X127767553Y-102019501D01*
X127873996Y-101872994D01*
X127956211Y-101711639D01*
X128012171Y-101539409D01*
X128040500Y-101360546D01*
X128040500Y-101179454D01*
X128040500Y-101179450D01*
X128279500Y-101179450D01*
X128279500Y-101360549D01*
X128307828Y-101539406D01*
X128330022Y-101607715D01*
X128363789Y-101711639D01*
X128446004Y-101872994D01*
X128552447Y-102019501D01*
X128680499Y-102147553D01*
X128827006Y-102253996D01*
X128988361Y-102336211D01*
X129160591Y-102392171D01*
X129232136Y-102403502D01*
X129339451Y-102420500D01*
X129339454Y-102420500D01*
X129520549Y-102420500D01*
X129612323Y-102405964D01*
X129699409Y-102392171D01*
X129871639Y-102336211D01*
X130032994Y-102253996D01*
X130179501Y-102147553D01*
X130307553Y-102019501D01*
X130413996Y-101872994D01*
X130496211Y-101711639D01*
X130552171Y-101539409D01*
X130580500Y-101360546D01*
X130580500Y-101179454D01*
X130580500Y-101179450D01*
X130552171Y-101000593D01*
X130552171Y-101000591D01*
X130496211Y-100828361D01*
X130413996Y-100667006D01*
X130307553Y-100520499D01*
X130179501Y-100392447D01*
X130032994Y-100286004D01*
X130032993Y-100286003D01*
X130032991Y-100286002D01*
X129871637Y-100203788D01*
X129699406Y-100147828D01*
X129520549Y-100119500D01*
X129520546Y-100119500D01*
X129339454Y-100119500D01*
X129339451Y-100119500D01*
X129160593Y-100147828D01*
X128988362Y-100203788D01*
X128827008Y-100286002D01*
X128753752Y-100339225D01*
X128680499Y-100392447D01*
X128552447Y-100520499D01*
X128516805Y-100569556D01*
X128446002Y-100667008D01*
X128363788Y-100828362D01*
X128307828Y-101000593D01*
X128279500Y-101179450D01*
X128040500Y-101179450D01*
X128012171Y-101000593D01*
X128012171Y-101000591D01*
X127956211Y-100828361D01*
X127873996Y-100667006D01*
X127767553Y-100520499D01*
X127639501Y-100392447D01*
X127492994Y-100286004D01*
X127492993Y-100286003D01*
X127492991Y-100286002D01*
X127331637Y-100203788D01*
X127159406Y-100147828D01*
X126980549Y-100119500D01*
X126980546Y-100119500D01*
X126799454Y-100119500D01*
X126799451Y-100119500D01*
X126620593Y-100147828D01*
X126448362Y-100203788D01*
X126287008Y-100286002D01*
X126213752Y-100339225D01*
X126140499Y-100392447D01*
X126012447Y-100520499D01*
X125976805Y-100569556D01*
X125906002Y-100667008D01*
X125823788Y-100828362D01*
X125767828Y-101000593D01*
X125739500Y-101179450D01*
X125500500Y-101179450D01*
X125472171Y-101000593D01*
X125472171Y-101000591D01*
X125416211Y-100828361D01*
X125333996Y-100667006D01*
X125227553Y-100520499D01*
X125099501Y-100392447D01*
X124952994Y-100286004D01*
X124952993Y-100286003D01*
X124952991Y-100286002D01*
X124791637Y-100203788D01*
X124619406Y-100147828D01*
X124440549Y-100119500D01*
X124440546Y-100119500D01*
X124259454Y-100119500D01*
X124259451Y-100119500D01*
X124080593Y-100147828D01*
X123908362Y-100203788D01*
X123747008Y-100286002D01*
X123673752Y-100339225D01*
X123600499Y-100392447D01*
X123472447Y-100520499D01*
X123436805Y-100569556D01*
X123366002Y-100667008D01*
X123283788Y-100828362D01*
X123227828Y-101000593D01*
X123199500Y-101179450D01*
X122960500Y-101179450D01*
X122932171Y-101000593D01*
X122932171Y-101000591D01*
X122876211Y-100828361D01*
X122793996Y-100667006D01*
X122687553Y-100520499D01*
X122559501Y-100392447D01*
X122412994Y-100286004D01*
X122412993Y-100286003D01*
X122412991Y-100286002D01*
X122251637Y-100203788D01*
X122079406Y-100147828D01*
X121900549Y-100119500D01*
X121900546Y-100119500D01*
X121719454Y-100119500D01*
X121719451Y-100119500D01*
X121540593Y-100147828D01*
X121368362Y-100203788D01*
X121207008Y-100286002D01*
X121133752Y-100339225D01*
X121060499Y-100392447D01*
X120932447Y-100520499D01*
X120896805Y-100569556D01*
X120826002Y-100667008D01*
X120743788Y-100828362D01*
X120687828Y-101000593D01*
X120659500Y-101179450D01*
X120420500Y-101179450D01*
X120392171Y-101000593D01*
X120392171Y-101000591D01*
X120336211Y-100828361D01*
X120253996Y-100667006D01*
X120147553Y-100520499D01*
X120019501Y-100392447D01*
X119872994Y-100286004D01*
X119872993Y-100286003D01*
X119872991Y-100286002D01*
X119711637Y-100203788D01*
X119539406Y-100147828D01*
X119360549Y-100119500D01*
X119360546Y-100119500D01*
X119179454Y-100119500D01*
X119179451Y-100119500D01*
X119000593Y-100147828D01*
X118828362Y-100203788D01*
X118667008Y-100286002D01*
X118593752Y-100339225D01*
X118520499Y-100392447D01*
X118392447Y-100520499D01*
X118356805Y-100569556D01*
X118286002Y-100667008D01*
X118203788Y-100828362D01*
X118147828Y-101000593D01*
X118119500Y-101179450D01*
X117880500Y-101179450D01*
X117852171Y-101000593D01*
X117852171Y-101000591D01*
X117796211Y-100828361D01*
X117713996Y-100667006D01*
X117607553Y-100520499D01*
X117479501Y-100392447D01*
X117332994Y-100286004D01*
X117332993Y-100286003D01*
X117332991Y-100286002D01*
X117171637Y-100203788D01*
X116999406Y-100147828D01*
X116820549Y-100119500D01*
X116820546Y-100119500D01*
X116639454Y-100119500D01*
X116639451Y-100119500D01*
X116460593Y-100147828D01*
X116288362Y-100203788D01*
X116127008Y-100286002D01*
X116053752Y-100339225D01*
X115980499Y-100392447D01*
X115852447Y-100520499D01*
X115816805Y-100569556D01*
X115746002Y-100667008D01*
X115663788Y-100828362D01*
X115607828Y-101000593D01*
X115579500Y-101179450D01*
X115340500Y-101179450D01*
X115312171Y-101000593D01*
X115312171Y-101000591D01*
X115256211Y-100828361D01*
X115173996Y-100667006D01*
X115067553Y-100520499D01*
X114939501Y-100392447D01*
X114792994Y-100286004D01*
X114792993Y-100286003D01*
X114792991Y-100286002D01*
X114631637Y-100203788D01*
X114459406Y-100147828D01*
X114280549Y-100119500D01*
X114280546Y-100119500D01*
X114099454Y-100119500D01*
X114099451Y-100119500D01*
X113920593Y-100147828D01*
X113748362Y-100203788D01*
X113587008Y-100286002D01*
X113513752Y-100339225D01*
X113440499Y-100392447D01*
X113312447Y-100520499D01*
X113276805Y-100569556D01*
X113206002Y-100667008D01*
X113123788Y-100828362D01*
X113067828Y-101000593D01*
X113039500Y-101179450D01*
X112799994Y-101179450D01*
X112771683Y-101000710D01*
X112715749Y-100828559D01*
X112633568Y-100667269D01*
X112633564Y-100667263D01*
X112562575Y-100569556D01*
X112562574Y-100569556D01*
X112130282Y-101001848D01*
X112090119Y-100932285D01*
X111987715Y-100829881D01*
X111918148Y-100789716D01*
X112350442Y-100357424D01*
X112252728Y-100286430D01*
X112091440Y-100204250D01*
X111919289Y-100148316D01*
X111740510Y-100120000D01*
X111559490Y-100120000D01*
X111380710Y-100148316D01*
X111208559Y-100204250D01*
X111047269Y-100286431D01*
X111047265Y-100286433D01*
X110949556Y-100357423D01*
X111381850Y-100789717D01*
X111312285Y-100829881D01*
X111209881Y-100932285D01*
X111169717Y-101001850D01*
X110737423Y-100569556D01*
X110666433Y-100667265D01*
X110666431Y-100667269D01*
X110584250Y-100828559D01*
X110528316Y-101000710D01*
X110500000Y-101179489D01*
X110260000Y-101179489D01*
X110231683Y-101000710D01*
X110175749Y-100828559D01*
X110093568Y-100667269D01*
X110093564Y-100667263D01*
X110022575Y-100569556D01*
X110022574Y-100569556D01*
X109590282Y-101001848D01*
X109550119Y-100932285D01*
X109447715Y-100829881D01*
X109378148Y-100789716D01*
X109810442Y-100357424D01*
X109712728Y-100286430D01*
X109551440Y-100204250D01*
X109379289Y-100148316D01*
X109200510Y-100120000D01*
X109019490Y-100120000D01*
X108840710Y-100148316D01*
X108668559Y-100204250D01*
X108507269Y-100286431D01*
X108507265Y-100286433D01*
X108409556Y-100357423D01*
X108841850Y-100789717D01*
X108772285Y-100829881D01*
X108669881Y-100932285D01*
X108629717Y-101001850D01*
X108197423Y-100569556D01*
X108126433Y-100667265D01*
X108126431Y-100667269D01*
X108044250Y-100828559D01*
X107988316Y-101000710D01*
X107960000Y-101179489D01*
X107720500Y-101179489D01*
X107720500Y-100345326D01*
X107705966Y-100272260D01*
X107660216Y-100203789D01*
X107650602Y-100189400D01*
X107650599Y-100189397D01*
X107567742Y-100134035D01*
X107567740Y-100134034D01*
X107567737Y-100134033D01*
X107567736Y-100134033D01*
X107494684Y-100119501D01*
X107494674Y-100119500D01*
X107494673Y-100119500D01*
X107119500Y-100119500D01*
X107061309Y-100100593D01*
X107025345Y-100051093D01*
X107020500Y-100020500D01*
X107020500Y-99852363D01*
X107039407Y-99794172D01*
X107074553Y-99764154D01*
X107172994Y-99713996D01*
X107319501Y-99607553D01*
X107447553Y-99479501D01*
X107553996Y-99332994D01*
X107636211Y-99171639D01*
X107692171Y-98999409D01*
X107720500Y-98820546D01*
X107720500Y-98639489D01*
X107960000Y-98639489D01*
X107960000Y-98820510D01*
X107988316Y-98999289D01*
X108044250Y-99171440D01*
X108126430Y-99332728D01*
X108197424Y-99430442D01*
X108629716Y-98998148D01*
X108669881Y-99067715D01*
X108772285Y-99170119D01*
X108841848Y-99210282D01*
X108409556Y-99642574D01*
X108409556Y-99642575D01*
X108507263Y-99713564D01*
X108507269Y-99713568D01*
X108668559Y-99795749D01*
X108840710Y-99851683D01*
X109019490Y-99880000D01*
X109200510Y-99880000D01*
X109379289Y-99851683D01*
X109551440Y-99795749D01*
X109712730Y-99713568D01*
X109712735Y-99713564D01*
X109810442Y-99642575D01*
X109810442Y-99642574D01*
X109378150Y-99210282D01*
X109447715Y-99170119D01*
X109550119Y-99067715D01*
X109590282Y-98998150D01*
X110022574Y-99430442D01*
X110022575Y-99430442D01*
X110093564Y-99332735D01*
X110093568Y-99332730D01*
X110175749Y-99171440D01*
X110231683Y-98999289D01*
X110260000Y-98820510D01*
X110260000Y-98639489D01*
X110500000Y-98639489D01*
X110500000Y-98820510D01*
X110528316Y-98999289D01*
X110584250Y-99171440D01*
X110666430Y-99332728D01*
X110737424Y-99430442D01*
X111169716Y-98998148D01*
X111209881Y-99067715D01*
X111312285Y-99170119D01*
X111381848Y-99210282D01*
X110949556Y-99642574D01*
X110949556Y-99642575D01*
X111047263Y-99713564D01*
X111047269Y-99713568D01*
X111208559Y-99795749D01*
X111380710Y-99851683D01*
X111559490Y-99880000D01*
X111740510Y-99880000D01*
X111919289Y-99851683D01*
X112091440Y-99795749D01*
X112252730Y-99713568D01*
X112252735Y-99713564D01*
X112350442Y-99642575D01*
X112350442Y-99642574D01*
X111918150Y-99210282D01*
X111987715Y-99170119D01*
X112090119Y-99067715D01*
X112130282Y-98998150D01*
X112562574Y-99430442D01*
X112562575Y-99430442D01*
X112633564Y-99332735D01*
X112633568Y-99332730D01*
X112715749Y-99171440D01*
X112771683Y-98999289D01*
X112800000Y-98820510D01*
X112800000Y-98639489D01*
X113040000Y-98639489D01*
X113040000Y-98820510D01*
X113068316Y-98999289D01*
X113124250Y-99171440D01*
X113206430Y-99332728D01*
X113277424Y-99430442D01*
X113709716Y-98998148D01*
X113749881Y-99067715D01*
X113852285Y-99170119D01*
X113921848Y-99210282D01*
X113489556Y-99642574D01*
X113489556Y-99642575D01*
X113587263Y-99713564D01*
X113587269Y-99713568D01*
X113748559Y-99795749D01*
X113920710Y-99851683D01*
X114099490Y-99880000D01*
X114280510Y-99880000D01*
X114459289Y-99851683D01*
X114631440Y-99795749D01*
X114792730Y-99713568D01*
X114792735Y-99713564D01*
X114890442Y-99642575D01*
X114890442Y-99642574D01*
X114458150Y-99210282D01*
X114527715Y-99170119D01*
X114630119Y-99067715D01*
X114670282Y-98998150D01*
X115102574Y-99430442D01*
X115102575Y-99430442D01*
X115173564Y-99332735D01*
X115173568Y-99332730D01*
X115255749Y-99171440D01*
X115311683Y-98999289D01*
X115340000Y-98820510D01*
X115340000Y-98639489D01*
X115580000Y-98639489D01*
X115580000Y-98820510D01*
X115608316Y-98999289D01*
X115664250Y-99171440D01*
X115746430Y-99332728D01*
X115817424Y-99430442D01*
X116249716Y-98998148D01*
X116289881Y-99067715D01*
X116392285Y-99170119D01*
X116461848Y-99210282D01*
X116029556Y-99642574D01*
X116029556Y-99642575D01*
X116127263Y-99713564D01*
X116127269Y-99713568D01*
X116288559Y-99795749D01*
X116460710Y-99851683D01*
X116639490Y-99880000D01*
X116820510Y-99880000D01*
X116999289Y-99851683D01*
X117171440Y-99795749D01*
X117332730Y-99713568D01*
X117332735Y-99713564D01*
X117430442Y-99642575D01*
X117430442Y-99642574D01*
X116998150Y-99210282D01*
X117067715Y-99170119D01*
X117170119Y-99067715D01*
X117210282Y-98998150D01*
X117642574Y-99430442D01*
X117642575Y-99430442D01*
X117713564Y-99332735D01*
X117713568Y-99332730D01*
X117795749Y-99171440D01*
X117851683Y-98999289D01*
X117880000Y-98820510D01*
X117880000Y-98639489D01*
X118120000Y-98639489D01*
X118120000Y-98820510D01*
X118148316Y-98999289D01*
X118204250Y-99171440D01*
X118286430Y-99332728D01*
X118357424Y-99430442D01*
X118789716Y-98998148D01*
X118829881Y-99067715D01*
X118932285Y-99170119D01*
X119001848Y-99210282D01*
X118569556Y-99642574D01*
X118569556Y-99642575D01*
X118667263Y-99713564D01*
X118667269Y-99713568D01*
X118828559Y-99795749D01*
X119000710Y-99851683D01*
X119179490Y-99880000D01*
X119360510Y-99880000D01*
X119539289Y-99851683D01*
X119711440Y-99795749D01*
X119872730Y-99713568D01*
X119872735Y-99713564D01*
X119970442Y-99642575D01*
X119970442Y-99642574D01*
X119538150Y-99210282D01*
X119607715Y-99170119D01*
X119710119Y-99067715D01*
X119750282Y-98998150D01*
X120182574Y-99430442D01*
X120182575Y-99430442D01*
X120253564Y-99332735D01*
X120253568Y-99332730D01*
X120335749Y-99171440D01*
X120391683Y-98999289D01*
X120420000Y-98820510D01*
X120420000Y-98639489D01*
X120660000Y-98639489D01*
X120660000Y-98820510D01*
X120688316Y-98999289D01*
X120744250Y-99171440D01*
X120826430Y-99332728D01*
X120897424Y-99430442D01*
X121329716Y-98998148D01*
X121369881Y-99067715D01*
X121472285Y-99170119D01*
X121541848Y-99210282D01*
X121109556Y-99642574D01*
X121109556Y-99642575D01*
X121207263Y-99713564D01*
X121207269Y-99713568D01*
X121368559Y-99795749D01*
X121540710Y-99851683D01*
X121719490Y-99880000D01*
X121900510Y-99880000D01*
X122079289Y-99851683D01*
X122251440Y-99795749D01*
X122412730Y-99713568D01*
X122412735Y-99713564D01*
X122510442Y-99642575D01*
X122510442Y-99642574D01*
X122078150Y-99210282D01*
X122147715Y-99170119D01*
X122250119Y-99067715D01*
X122290282Y-98998150D01*
X122722574Y-99430442D01*
X122722575Y-99430442D01*
X122793564Y-99332735D01*
X122793568Y-99332730D01*
X122875749Y-99171440D01*
X122931683Y-98999289D01*
X122960000Y-98820510D01*
X122960000Y-98639489D01*
X123200000Y-98639489D01*
X123200000Y-98820510D01*
X123228316Y-98999289D01*
X123284250Y-99171440D01*
X123366430Y-99332728D01*
X123437424Y-99430442D01*
X123869716Y-98998148D01*
X123909881Y-99067715D01*
X124012285Y-99170119D01*
X124081848Y-99210282D01*
X123649556Y-99642574D01*
X123649556Y-99642575D01*
X123747263Y-99713564D01*
X123747269Y-99713568D01*
X123908559Y-99795749D01*
X124080710Y-99851683D01*
X124259490Y-99880000D01*
X124440510Y-99880000D01*
X124619289Y-99851683D01*
X124791440Y-99795749D01*
X124952730Y-99713568D01*
X124952735Y-99713564D01*
X125050442Y-99642575D01*
X125050442Y-99642574D01*
X124618150Y-99210282D01*
X124687715Y-99170119D01*
X124790119Y-99067715D01*
X124830282Y-98998150D01*
X125262574Y-99430442D01*
X125262575Y-99430442D01*
X125333564Y-99332735D01*
X125333568Y-99332730D01*
X125415749Y-99171440D01*
X125471683Y-98999289D01*
X125500000Y-98820510D01*
X125500000Y-98639489D01*
X125740000Y-98639489D01*
X125740000Y-98820510D01*
X125768316Y-98999289D01*
X125824250Y-99171440D01*
X125906430Y-99332728D01*
X125977424Y-99430442D01*
X126409716Y-98998148D01*
X126449881Y-99067715D01*
X126552285Y-99170119D01*
X126621848Y-99210282D01*
X126189556Y-99642574D01*
X126189556Y-99642575D01*
X126287263Y-99713564D01*
X126287269Y-99713568D01*
X126448559Y-99795749D01*
X126620710Y-99851683D01*
X126799490Y-99880000D01*
X126980510Y-99880000D01*
X127159289Y-99851683D01*
X127331440Y-99795749D01*
X127492730Y-99713568D01*
X127492735Y-99713564D01*
X127590442Y-99642575D01*
X127590442Y-99642574D01*
X127158150Y-99210282D01*
X127227715Y-99170119D01*
X127330119Y-99067715D01*
X127370282Y-98998150D01*
X127802574Y-99430442D01*
X127802575Y-99430442D01*
X127873564Y-99332735D01*
X127873568Y-99332730D01*
X127955749Y-99171440D01*
X128011683Y-98999289D01*
X128040000Y-98820510D01*
X128040000Y-98639489D01*
X128280000Y-98639489D01*
X128280000Y-98820510D01*
X128308316Y-98999289D01*
X128364250Y-99171440D01*
X128446430Y-99332728D01*
X128517424Y-99430442D01*
X128949716Y-98998148D01*
X128989881Y-99067715D01*
X129092285Y-99170119D01*
X129161848Y-99210282D01*
X128729556Y-99642574D01*
X128729556Y-99642575D01*
X128827263Y-99713564D01*
X128827269Y-99713568D01*
X128988559Y-99795749D01*
X129160710Y-99851683D01*
X129339490Y-99880000D01*
X129520510Y-99880000D01*
X129699289Y-99851683D01*
X129871440Y-99795749D01*
X130032730Y-99713568D01*
X130032735Y-99713564D01*
X130130442Y-99642575D01*
X130130442Y-99642574D01*
X129698150Y-99210282D01*
X129767715Y-99170119D01*
X129870119Y-99067715D01*
X129910282Y-98998150D01*
X130342574Y-99430442D01*
X130342575Y-99430442D01*
X130413564Y-99332735D01*
X130413568Y-99332730D01*
X130495749Y-99171440D01*
X130551683Y-98999289D01*
X130580000Y-98820510D01*
X130580000Y-98639489D01*
X130551683Y-98460710D01*
X130495749Y-98288559D01*
X130413568Y-98127269D01*
X130413564Y-98127263D01*
X130342575Y-98029556D01*
X130342574Y-98029556D01*
X129910282Y-98461848D01*
X129870119Y-98392285D01*
X129767715Y-98289881D01*
X129698148Y-98249716D01*
X130130442Y-97817424D01*
X130032728Y-97746430D01*
X129871440Y-97664250D01*
X129699289Y-97608316D01*
X129520510Y-97580000D01*
X129339490Y-97580000D01*
X129160710Y-97608316D01*
X128988559Y-97664250D01*
X128827269Y-97746431D01*
X128827265Y-97746433D01*
X128729556Y-97817423D01*
X129161850Y-98249717D01*
X129092285Y-98289881D01*
X128989881Y-98392285D01*
X128949717Y-98461850D01*
X128517423Y-98029556D01*
X128446433Y-98127265D01*
X128446431Y-98127269D01*
X128364250Y-98288559D01*
X128308316Y-98460710D01*
X128280000Y-98639489D01*
X128040000Y-98639489D01*
X128011683Y-98460710D01*
X127955749Y-98288559D01*
X127873568Y-98127269D01*
X127873564Y-98127263D01*
X127802575Y-98029556D01*
X127802574Y-98029556D01*
X127370282Y-98461848D01*
X127330119Y-98392285D01*
X127227715Y-98289881D01*
X127158148Y-98249716D01*
X127590442Y-97817424D01*
X127492728Y-97746430D01*
X127331440Y-97664250D01*
X127159289Y-97608316D01*
X126980510Y-97580000D01*
X126799490Y-97580000D01*
X126620710Y-97608316D01*
X126448559Y-97664250D01*
X126287269Y-97746431D01*
X126287265Y-97746433D01*
X126189556Y-97817423D01*
X126621850Y-98249717D01*
X126552285Y-98289881D01*
X126449881Y-98392285D01*
X126409717Y-98461850D01*
X125977423Y-98029556D01*
X125906433Y-98127265D01*
X125906431Y-98127269D01*
X125824250Y-98288559D01*
X125768316Y-98460710D01*
X125740000Y-98639489D01*
X125500000Y-98639489D01*
X125471683Y-98460710D01*
X125415749Y-98288559D01*
X125333568Y-98127269D01*
X125333564Y-98127263D01*
X125262575Y-98029556D01*
X125262574Y-98029556D01*
X124830282Y-98461848D01*
X124790119Y-98392285D01*
X124687715Y-98289881D01*
X124618148Y-98249716D01*
X125050442Y-97817424D01*
X124952728Y-97746430D01*
X124791440Y-97664250D01*
X124619289Y-97608316D01*
X124440510Y-97580000D01*
X124259490Y-97580000D01*
X124080710Y-97608316D01*
X123908559Y-97664250D01*
X123747269Y-97746431D01*
X123747265Y-97746433D01*
X123649556Y-97817423D01*
X124081850Y-98249717D01*
X124012285Y-98289881D01*
X123909881Y-98392285D01*
X123869717Y-98461850D01*
X123437423Y-98029556D01*
X123366433Y-98127265D01*
X123366431Y-98127269D01*
X123284250Y-98288559D01*
X123228316Y-98460710D01*
X123200000Y-98639489D01*
X122960000Y-98639489D01*
X122931683Y-98460710D01*
X122875749Y-98288559D01*
X122793568Y-98127269D01*
X122793564Y-98127263D01*
X122722575Y-98029556D01*
X122722574Y-98029556D01*
X122290282Y-98461848D01*
X122250119Y-98392285D01*
X122147715Y-98289881D01*
X122078148Y-98249716D01*
X122510442Y-97817424D01*
X122412728Y-97746430D01*
X122251440Y-97664250D01*
X122079289Y-97608316D01*
X121900510Y-97580000D01*
X121719490Y-97580000D01*
X121540710Y-97608316D01*
X121368559Y-97664250D01*
X121207269Y-97746431D01*
X121207265Y-97746433D01*
X121109556Y-97817423D01*
X121541850Y-98249717D01*
X121472285Y-98289881D01*
X121369881Y-98392285D01*
X121329717Y-98461850D01*
X120897423Y-98029556D01*
X120826433Y-98127265D01*
X120826431Y-98127269D01*
X120744250Y-98288559D01*
X120688316Y-98460710D01*
X120660000Y-98639489D01*
X120420000Y-98639489D01*
X120391683Y-98460710D01*
X120335749Y-98288559D01*
X120253568Y-98127269D01*
X120253564Y-98127263D01*
X120182575Y-98029556D01*
X120182574Y-98029556D01*
X119750282Y-98461848D01*
X119710119Y-98392285D01*
X119607715Y-98289881D01*
X119538148Y-98249716D01*
X119970442Y-97817424D01*
X119872728Y-97746430D01*
X119711440Y-97664250D01*
X119539289Y-97608316D01*
X119360510Y-97580000D01*
X119179490Y-97580000D01*
X119000710Y-97608316D01*
X118828559Y-97664250D01*
X118667269Y-97746431D01*
X118667265Y-97746433D01*
X118569556Y-97817423D01*
X119001850Y-98249717D01*
X118932285Y-98289881D01*
X118829881Y-98392285D01*
X118789717Y-98461850D01*
X118357423Y-98029556D01*
X118286433Y-98127265D01*
X118286431Y-98127269D01*
X118204250Y-98288559D01*
X118148316Y-98460710D01*
X118120000Y-98639489D01*
X117880000Y-98639489D01*
X117851683Y-98460710D01*
X117795749Y-98288559D01*
X117713568Y-98127269D01*
X117713564Y-98127263D01*
X117642575Y-98029556D01*
X117642574Y-98029556D01*
X117210282Y-98461848D01*
X117170119Y-98392285D01*
X117067715Y-98289881D01*
X116998148Y-98249716D01*
X117430442Y-97817424D01*
X117332728Y-97746430D01*
X117171440Y-97664250D01*
X116999289Y-97608316D01*
X116820510Y-97580000D01*
X116639490Y-97580000D01*
X116460710Y-97608316D01*
X116288559Y-97664250D01*
X116127269Y-97746431D01*
X116127265Y-97746433D01*
X116029556Y-97817423D01*
X116461850Y-98249717D01*
X116392285Y-98289881D01*
X116289881Y-98392285D01*
X116249717Y-98461850D01*
X115817423Y-98029556D01*
X115746433Y-98127265D01*
X115746431Y-98127269D01*
X115664250Y-98288559D01*
X115608316Y-98460710D01*
X115580000Y-98639489D01*
X115340000Y-98639489D01*
X115311683Y-98460710D01*
X115255749Y-98288559D01*
X115173568Y-98127269D01*
X115173564Y-98127263D01*
X115102575Y-98029556D01*
X115102574Y-98029556D01*
X114670282Y-98461848D01*
X114630119Y-98392285D01*
X114527715Y-98289881D01*
X114458148Y-98249716D01*
X114890442Y-97817424D01*
X114792728Y-97746430D01*
X114631440Y-97664250D01*
X114459289Y-97608316D01*
X114280510Y-97580000D01*
X114099490Y-97580000D01*
X113920710Y-97608316D01*
X113748559Y-97664250D01*
X113587269Y-97746431D01*
X113587265Y-97746433D01*
X113489556Y-97817423D01*
X113921850Y-98249717D01*
X113852285Y-98289881D01*
X113749881Y-98392285D01*
X113709717Y-98461850D01*
X113277423Y-98029556D01*
X113206433Y-98127265D01*
X113206431Y-98127269D01*
X113124250Y-98288559D01*
X113068316Y-98460710D01*
X113040000Y-98639489D01*
X112800000Y-98639489D01*
X112771683Y-98460710D01*
X112715749Y-98288559D01*
X112633568Y-98127269D01*
X112633564Y-98127263D01*
X112562575Y-98029556D01*
X112562574Y-98029556D01*
X112130282Y-98461848D01*
X112090119Y-98392285D01*
X111987715Y-98289881D01*
X111918148Y-98249716D01*
X112350442Y-97817424D01*
X112252728Y-97746430D01*
X112091440Y-97664250D01*
X111919289Y-97608316D01*
X111740510Y-97580000D01*
X111559490Y-97580000D01*
X111380710Y-97608316D01*
X111208559Y-97664250D01*
X111047269Y-97746431D01*
X111047265Y-97746433D01*
X110949556Y-97817423D01*
X111381850Y-98249717D01*
X111312285Y-98289881D01*
X111209881Y-98392285D01*
X111169717Y-98461850D01*
X110737423Y-98029556D01*
X110666433Y-98127265D01*
X110666431Y-98127269D01*
X110584250Y-98288559D01*
X110528316Y-98460710D01*
X110500000Y-98639489D01*
X110260000Y-98639489D01*
X110231683Y-98460710D01*
X110175749Y-98288559D01*
X110093568Y-98127269D01*
X110093564Y-98127263D01*
X110022575Y-98029556D01*
X110022574Y-98029556D01*
X109590282Y-98461848D01*
X109550119Y-98392285D01*
X109447715Y-98289881D01*
X109378148Y-98249716D01*
X109810442Y-97817424D01*
X109712728Y-97746430D01*
X109551440Y-97664250D01*
X109379289Y-97608316D01*
X109200510Y-97580000D01*
X109019490Y-97580000D01*
X108840710Y-97608316D01*
X108668559Y-97664250D01*
X108507269Y-97746431D01*
X108507265Y-97746433D01*
X108409556Y-97817423D01*
X108841850Y-98249717D01*
X108772285Y-98289881D01*
X108669881Y-98392285D01*
X108629717Y-98461850D01*
X108197423Y-98029556D01*
X108126433Y-98127265D01*
X108126431Y-98127269D01*
X108044250Y-98288559D01*
X107988316Y-98460710D01*
X107960000Y-98639489D01*
X107720500Y-98639489D01*
X107720500Y-98639454D01*
X107720500Y-98639450D01*
X107692171Y-98460593D01*
X107692171Y-98460591D01*
X107636211Y-98288361D01*
X107553996Y-98127006D01*
X107447553Y-97980499D01*
X107319501Y-97852447D01*
X107172994Y-97746004D01*
X107172993Y-97746003D01*
X107172991Y-97746002D01*
X107011637Y-97663788D01*
X106839406Y-97607828D01*
X106660549Y-97579500D01*
X106660546Y-97579500D01*
X106479454Y-97579500D01*
X106479451Y-97579500D01*
X106300593Y-97607828D01*
X106128362Y-97663788D01*
X105967008Y-97746002D01*
X105893752Y-97799225D01*
X105820499Y-97852447D01*
X105692447Y-97980499D01*
X105656805Y-98029556D01*
X105586002Y-98127008D01*
X105503788Y-98288362D01*
X105447828Y-98460593D01*
X105419500Y-98639450D01*
X105419500Y-98820549D01*
X105447828Y-98999406D01*
X105470022Y-99067715D01*
X105503789Y-99171639D01*
X105586004Y-99332994D01*
X105692447Y-99479501D01*
X105820499Y-99607553D01*
X105967006Y-99713996D01*
X106065445Y-99764153D01*
X106108710Y-99807418D01*
X106119500Y-99852363D01*
X106119500Y-100020500D01*
X106100593Y-100078691D01*
X106051093Y-100114655D01*
X106020500Y-100119500D01*
X105645326Y-100119500D01*
X105645325Y-100119500D01*
X105645315Y-100119501D01*
X105572263Y-100134033D01*
X105572257Y-100134035D01*
X105489400Y-100189397D01*
X105489397Y-100189400D01*
X105434035Y-100272257D01*
X105434033Y-100272263D01*
X105419501Y-100345315D01*
X105419500Y-100345327D01*
X105419500Y-102194672D01*
X105419501Y-102194684D01*
X105434033Y-102267736D01*
X105434035Y-102267742D01*
X105489397Y-102350599D01*
X105489400Y-102350602D01*
X105551614Y-102392171D01*
X105572260Y-102405966D01*
X105627808Y-102417015D01*
X105645315Y-102420498D01*
X105645320Y-102420498D01*
X105645326Y-102420500D01*
X105687125Y-102420500D01*
X105745316Y-102439407D01*
X105781280Y-102488907D01*
X105783102Y-102543778D01*
X105064200Y-105385783D01*
X105064201Y-105385784D01*
X105064030Y-105386461D01*
X105049500Y-105440691D01*
X105049500Y-105443905D01*
X105048712Y-105447021D01*
X100550000Y-105447021D01*
X100550000Y-95349000D01*
X100568907Y-95290809D01*
X100618407Y-95254845D01*
X100649000Y-95250000D01*
X135351000Y-95250000D01*
X135409191Y-95268907D01*
G37*
%TD.AperFunction*%
%TD*%
M02*
