%TF.GenerationSoftware,KiCad,Pcbnew,10.0.0*%
%TF.CreationDate,2026-09-19T05:45:27+09:00*%
%TF.ProjectId,swd-adapter,7377642d-6164-4617-9074-65722e6b6963,rev?*%
%TF.SameCoordinates,Original*%
%TF.FileFunction,Legend,Bot*%
%TF.FilePolarity,Positive*%
%FSLAX46Y46*%
G04 Gerber Fmt 4.6, Leading zero omitted, Abs format (unit mm)*
G04 Created by KiCad (PCBNEW 10.0.0) date 2026-09-19 05:45:27*
%MOMM*%
%LPD*%
G01*
G04 APERTURE LIST*
%ADD10C,0.120000*%
%ADD11C,0.130000*%
%ADD12R,1.700000X1.700000*%
%ADD13C,1.700000*%
%ADD14R,1.800000X1.800000*%
%ADD15C,1.800000*%
G04 APERTURE END LIST*
D10*
X133466668Y-104463855D02*
X133009525Y-104463855D01*
X133238097Y-105263855D02*
X133238097Y-104463855D01*
X132780954Y-105035283D02*
X132400001Y-105035283D01*
X132857144Y-105263855D02*
X132590477Y-104463855D01*
X132590477Y-104463855D02*
X132323811Y-105263855D01*
X131600001Y-105263855D02*
X131866668Y-104882902D01*
X132057144Y-105263855D02*
X132057144Y-104463855D01*
X132057144Y-104463855D02*
X131752382Y-104463855D01*
X131752382Y-104463855D02*
X131676192Y-104501950D01*
X131676192Y-104501950D02*
X131638097Y-104540045D01*
X131638097Y-104540045D02*
X131600001Y-104616236D01*
X131600001Y-104616236D02*
X131600001Y-104730521D01*
X131600001Y-104730521D02*
X131638097Y-104806712D01*
X131638097Y-104806712D02*
X131676192Y-104844807D01*
X131676192Y-104844807D02*
X131752382Y-104882902D01*
X131752382Y-104882902D02*
X132057144Y-104882902D01*
X130838097Y-104501950D02*
X130914287Y-104463855D01*
X130914287Y-104463855D02*
X131028573Y-104463855D01*
X131028573Y-104463855D02*
X131142859Y-104501950D01*
X131142859Y-104501950D02*
X131219049Y-104578140D01*
X131219049Y-104578140D02*
X131257144Y-104654331D01*
X131257144Y-104654331D02*
X131295240Y-104806712D01*
X131295240Y-104806712D02*
X131295240Y-104920998D01*
X131295240Y-104920998D02*
X131257144Y-105073379D01*
X131257144Y-105073379D02*
X131219049Y-105149569D01*
X131219049Y-105149569D02*
X131142859Y-105225760D01*
X131142859Y-105225760D02*
X131028573Y-105263855D01*
X131028573Y-105263855D02*
X130952382Y-105263855D01*
X130952382Y-105263855D02*
X130838097Y-105225760D01*
X130838097Y-105225760D02*
X130800001Y-105187664D01*
X130800001Y-105187664D02*
X130800001Y-104920998D01*
X130800001Y-104920998D02*
X130952382Y-104920998D01*
X130457144Y-104844807D02*
X130190478Y-104844807D01*
X130076192Y-105263855D02*
X130457144Y-105263855D01*
X130457144Y-105263855D02*
X130457144Y-104463855D01*
X130457144Y-104463855D02*
X130076192Y-104463855D01*
X129847620Y-104463855D02*
X129390477Y-104463855D01*
X129619049Y-105263855D02*
X129619049Y-104463855D01*
X128514286Y-105263855D02*
X128514286Y-104463855D01*
X128514286Y-104463855D02*
X128209524Y-104463855D01*
X128209524Y-104463855D02*
X128133334Y-104501950D01*
X128133334Y-104501950D02*
X128095239Y-104540045D01*
X128095239Y-104540045D02*
X128057143Y-104616236D01*
X128057143Y-104616236D02*
X128057143Y-104730521D01*
X128057143Y-104730521D02*
X128095239Y-104806712D01*
X128095239Y-104806712D02*
X128133334Y-104844807D01*
X128133334Y-104844807D02*
X128209524Y-104882902D01*
X128209524Y-104882902D02*
X128514286Y-104882902D01*
X127561905Y-104463855D02*
X127409524Y-104463855D01*
X127409524Y-104463855D02*
X127333334Y-104501950D01*
X127333334Y-104501950D02*
X127257143Y-104578140D01*
X127257143Y-104578140D02*
X127219048Y-104730521D01*
X127219048Y-104730521D02*
X127219048Y-104997188D01*
X127219048Y-104997188D02*
X127257143Y-105149569D01*
X127257143Y-105149569D02*
X127333334Y-105225760D01*
X127333334Y-105225760D02*
X127409524Y-105263855D01*
X127409524Y-105263855D02*
X127561905Y-105263855D01*
X127561905Y-105263855D02*
X127638096Y-105225760D01*
X127638096Y-105225760D02*
X127714286Y-105149569D01*
X127714286Y-105149569D02*
X127752382Y-104997188D01*
X127752382Y-104997188D02*
X127752382Y-104730521D01*
X127752382Y-104730521D02*
X127714286Y-104578140D01*
X127714286Y-104578140D02*
X127638096Y-104501950D01*
X127638096Y-104501950D02*
X127561905Y-104463855D01*
X126952382Y-104463855D02*
X126761906Y-105263855D01*
X126761906Y-105263855D02*
X126609525Y-104692426D01*
X126609525Y-104692426D02*
X126457144Y-105263855D01*
X126457144Y-105263855D02*
X126266668Y-104463855D01*
X125961905Y-104844807D02*
X125695239Y-104844807D01*
X125580953Y-105263855D02*
X125961905Y-105263855D01*
X125961905Y-105263855D02*
X125961905Y-104463855D01*
X125961905Y-104463855D02*
X125580953Y-104463855D01*
X124780952Y-105263855D02*
X125047619Y-104882902D01*
X125238095Y-105263855D02*
X125238095Y-104463855D01*
X125238095Y-104463855D02*
X124933333Y-104463855D01*
X124933333Y-104463855D02*
X124857143Y-104501950D01*
X124857143Y-104501950D02*
X124819048Y-104540045D01*
X124819048Y-104540045D02*
X124780952Y-104616236D01*
X124780952Y-104616236D02*
X124780952Y-104730521D01*
X124780952Y-104730521D02*
X124819048Y-104806712D01*
X124819048Y-104806712D02*
X124857143Y-104844807D01*
X124857143Y-104844807D02*
X124933333Y-104882902D01*
X124933333Y-104882902D02*
X125238095Y-104882902D01*
X124438095Y-104844807D02*
X124171429Y-104844807D01*
X124057143Y-105263855D02*
X124438095Y-105263855D01*
X124438095Y-105263855D02*
X124438095Y-104463855D01*
X124438095Y-104463855D02*
X124057143Y-104463855D01*
X123714285Y-105263855D02*
X123714285Y-104463855D01*
X123714285Y-104463855D02*
X123523809Y-104463855D01*
X123523809Y-104463855D02*
X123409523Y-104501950D01*
X123409523Y-104501950D02*
X123333333Y-104578140D01*
X123333333Y-104578140D02*
X123295238Y-104654331D01*
X123295238Y-104654331D02*
X123257142Y-104806712D01*
X123257142Y-104806712D02*
X123257142Y-104920998D01*
X123257142Y-104920998D02*
X123295238Y-105073379D01*
X123295238Y-105073379D02*
X123333333Y-105149569D01*
X123333333Y-105149569D02*
X123409523Y-105225760D01*
X123409523Y-105225760D02*
X123523809Y-105263855D01*
X123523809Y-105263855D02*
X123714285Y-105263855D01*
X121466666Y-104882902D02*
X121466666Y-105035283D01*
X121428571Y-105035283D02*
X121428571Y-104882902D01*
X121390475Y-104844807D02*
X121390475Y-105073379D01*
X121352380Y-105035283D02*
X121352380Y-104882902D01*
X121314285Y-104882902D02*
X121314285Y-105035283D01*
X121466666Y-104997188D02*
X121390475Y-105073379D01*
X121390475Y-105073379D02*
X121314285Y-104997188D01*
X121466666Y-104920998D02*
X121390475Y-104844807D01*
X121390475Y-104844807D02*
X121314285Y-104920998D01*
X121466666Y-104882902D02*
X121390475Y-104844807D01*
X121390475Y-104844807D02*
X121314285Y-104882902D01*
X121314285Y-104882902D02*
X121276190Y-104959093D01*
X121276190Y-104959093D02*
X121314285Y-105035283D01*
X121314285Y-105035283D02*
X121390475Y-105073379D01*
X121390475Y-105073379D02*
X121466666Y-105035283D01*
X121466666Y-105035283D02*
X121504761Y-104959093D01*
X121504761Y-104959093D02*
X121466666Y-104882902D01*
X119599999Y-104463855D02*
X119333332Y-105263855D01*
X119333332Y-105263855D02*
X119066666Y-104463855D01*
X118838095Y-105035283D02*
X118457142Y-105035283D01*
X118914285Y-105263855D02*
X118647618Y-104463855D01*
X118647618Y-104463855D02*
X118380952Y-105263855D01*
X118114285Y-105263855D02*
X118114285Y-104463855D01*
X118114285Y-104463855D02*
X117809523Y-104463855D01*
X117809523Y-104463855D02*
X117733333Y-104501950D01*
X117733333Y-104501950D02*
X117695238Y-104540045D01*
X117695238Y-104540045D02*
X117657142Y-104616236D01*
X117657142Y-104616236D02*
X117657142Y-104730521D01*
X117657142Y-104730521D02*
X117695238Y-104806712D01*
X117695238Y-104806712D02*
X117733333Y-104844807D01*
X117733333Y-104844807D02*
X117809523Y-104882902D01*
X117809523Y-104882902D02*
X118114285Y-104882902D01*
X117314285Y-105263855D02*
X117314285Y-104463855D01*
X117314285Y-104463855D02*
X117009523Y-104463855D01*
X117009523Y-104463855D02*
X116933333Y-104501950D01*
X116933333Y-104501950D02*
X116895238Y-104540045D01*
X116895238Y-104540045D02*
X116857142Y-104616236D01*
X116857142Y-104616236D02*
X116857142Y-104730521D01*
X116857142Y-104730521D02*
X116895238Y-104806712D01*
X116895238Y-104806712D02*
X116933333Y-104844807D01*
X116933333Y-104844807D02*
X117009523Y-104882902D01*
X117009523Y-104882902D02*
X117314285Y-104882902D01*
X115942857Y-105225760D02*
X115828571Y-105263855D01*
X115828571Y-105263855D02*
X115638095Y-105263855D01*
X115638095Y-105263855D02*
X115561904Y-105225760D01*
X115561904Y-105225760D02*
X115523809Y-105187664D01*
X115523809Y-105187664D02*
X115485714Y-105111474D01*
X115485714Y-105111474D02*
X115485714Y-105035283D01*
X115485714Y-105035283D02*
X115523809Y-104959093D01*
X115523809Y-104959093D02*
X115561904Y-104920998D01*
X115561904Y-104920998D02*
X115638095Y-104882902D01*
X115638095Y-104882902D02*
X115790476Y-104844807D01*
X115790476Y-104844807D02*
X115866666Y-104806712D01*
X115866666Y-104806712D02*
X115904761Y-104768617D01*
X115904761Y-104768617D02*
X115942857Y-104692426D01*
X115942857Y-104692426D02*
X115942857Y-104616236D01*
X115942857Y-104616236D02*
X115904761Y-104540045D01*
X115904761Y-104540045D02*
X115866666Y-104501950D01*
X115866666Y-104501950D02*
X115790476Y-104463855D01*
X115790476Y-104463855D02*
X115599999Y-104463855D01*
X115599999Y-104463855D02*
X115485714Y-104501950D01*
X115142856Y-104844807D02*
X114876190Y-104844807D01*
X114761904Y-105263855D02*
X115142856Y-105263855D01*
X115142856Y-105263855D02*
X115142856Y-104463855D01*
X115142856Y-104463855D02*
X114761904Y-104463855D01*
X114419046Y-105263855D02*
X114419046Y-104463855D01*
X114419046Y-104463855D02*
X113961903Y-105263855D01*
X113961903Y-105263855D02*
X113961903Y-104463855D01*
X113619047Y-105225760D02*
X113504761Y-105263855D01*
X113504761Y-105263855D02*
X113314285Y-105263855D01*
X113314285Y-105263855D02*
X113238094Y-105225760D01*
X113238094Y-105225760D02*
X113199999Y-105187664D01*
X113199999Y-105187664D02*
X113161904Y-105111474D01*
X113161904Y-105111474D02*
X113161904Y-105035283D01*
X113161904Y-105035283D02*
X113199999Y-104959093D01*
X113199999Y-104959093D02*
X113238094Y-104920998D01*
X113238094Y-104920998D02*
X113314285Y-104882902D01*
X113314285Y-104882902D02*
X113466666Y-104844807D01*
X113466666Y-104844807D02*
X113542856Y-104806712D01*
X113542856Y-104806712D02*
X113580951Y-104768617D01*
X113580951Y-104768617D02*
X113619047Y-104692426D01*
X113619047Y-104692426D02*
X113619047Y-104616236D01*
X113619047Y-104616236D02*
X113580951Y-104540045D01*
X113580951Y-104540045D02*
X113542856Y-104501950D01*
X113542856Y-104501950D02*
X113466666Y-104463855D01*
X113466666Y-104463855D02*
X113276189Y-104463855D01*
X113276189Y-104463855D02*
X113161904Y-104501950D01*
X112819046Y-104844807D02*
X112552380Y-104844807D01*
X112438094Y-105263855D02*
X112819046Y-105263855D01*
X112819046Y-105263855D02*
X112819046Y-104463855D01*
X112819046Y-104463855D02*
X112438094Y-104463855D01*
X110647617Y-104882902D02*
X110647617Y-105035283D01*
X110609522Y-105035283D02*
X110609522Y-104882902D01*
X110571426Y-104844807D02*
X110571426Y-105073379D01*
X110533331Y-105035283D02*
X110533331Y-104882902D01*
X110495236Y-104882902D02*
X110495236Y-105035283D01*
X110647617Y-104997188D02*
X110571426Y-105073379D01*
X110571426Y-105073379D02*
X110495236Y-104997188D01*
X110647617Y-104920998D02*
X110571426Y-104844807D01*
X110571426Y-104844807D02*
X110495236Y-104920998D01*
X110647617Y-104882902D02*
X110571426Y-104844807D01*
X110571426Y-104844807D02*
X110495236Y-104882902D01*
X110495236Y-104882902D02*
X110457141Y-104959093D01*
X110457141Y-104959093D02*
X110495236Y-105035283D01*
X110495236Y-105035283D02*
X110571426Y-105073379D01*
X110571426Y-105073379D02*
X110647617Y-105035283D01*
X110647617Y-105035283D02*
X110685712Y-104959093D01*
X110685712Y-104959093D02*
X110647617Y-104882902D01*
X108666664Y-105263855D02*
X108666664Y-104463855D01*
X108666664Y-104463855D02*
X108361902Y-104463855D01*
X108361902Y-104463855D02*
X108285712Y-104501950D01*
X108285712Y-104501950D02*
X108247617Y-104540045D01*
X108247617Y-104540045D02*
X108209521Y-104616236D01*
X108209521Y-104616236D02*
X108209521Y-104730521D01*
X108209521Y-104730521D02*
X108247617Y-104806712D01*
X108247617Y-104806712D02*
X108285712Y-104844807D01*
X108285712Y-104844807D02*
X108361902Y-104882902D01*
X108361902Y-104882902D02*
X108666664Y-104882902D01*
X107866664Y-105263855D02*
X107866664Y-104463855D01*
X107485712Y-105263855D02*
X107485712Y-104463855D01*
X107485712Y-104463855D02*
X107028569Y-105263855D01*
X107028569Y-105263855D02*
X107028569Y-104463855D01*
X105619046Y-105263855D02*
X106076189Y-105263855D01*
X105847617Y-105263855D02*
X105847617Y-104463855D01*
X105847617Y-104463855D02*
X105923808Y-104578140D01*
X105923808Y-104578140D02*
X105999998Y-104654331D01*
X105999998Y-104654331D02*
X106076189Y-104692426D01*
X105238093Y-105263855D02*
X105085712Y-105263855D01*
X105085712Y-105263855D02*
X105009522Y-105225760D01*
X105009522Y-105225760D02*
X104971426Y-105187664D01*
X104971426Y-105187664D02*
X104895236Y-105073379D01*
X104895236Y-105073379D02*
X104857141Y-104920998D01*
X104857141Y-104920998D02*
X104857141Y-104616236D01*
X104857141Y-104616236D02*
X104895236Y-104540045D01*
X104895236Y-104540045D02*
X104933331Y-104501950D01*
X104933331Y-104501950D02*
X105009522Y-104463855D01*
X105009522Y-104463855D02*
X105161903Y-104463855D01*
X105161903Y-104463855D02*
X105238093Y-104501950D01*
X105238093Y-104501950D02*
X105276188Y-104540045D01*
X105276188Y-104540045D02*
X105314284Y-104616236D01*
X105314284Y-104616236D02*
X105314284Y-104806712D01*
X105314284Y-104806712D02*
X105276188Y-104882902D01*
X105276188Y-104882902D02*
X105238093Y-104920998D01*
X105238093Y-104920998D02*
X105161903Y-104959093D01*
X105161903Y-104959093D02*
X105009522Y-104959093D01*
X105009522Y-104959093D02*
X104933331Y-104920998D01*
X104933331Y-104920998D02*
X104895236Y-104882902D01*
X104895236Y-104882902D02*
X104857141Y-104806712D01*
X103904759Y-105263855D02*
X103904759Y-104463855D01*
X103904759Y-104463855D02*
X103447616Y-105263855D01*
X103447616Y-105263855D02*
X103447616Y-104463855D01*
X102609521Y-105187664D02*
X102647617Y-105225760D01*
X102647617Y-105225760D02*
X102761902Y-105263855D01*
X102761902Y-105263855D02*
X102838093Y-105263855D01*
X102838093Y-105263855D02*
X102952379Y-105225760D01*
X102952379Y-105225760D02*
X103028569Y-105149569D01*
X103028569Y-105149569D02*
X103066664Y-105073379D01*
X103066664Y-105073379D02*
X103104760Y-104920998D01*
X103104760Y-104920998D02*
X103104760Y-104806712D01*
X103104760Y-104806712D02*
X103066664Y-104654331D01*
X103066664Y-104654331D02*
X103028569Y-104578140D01*
X103028569Y-104578140D02*
X102952379Y-104501950D01*
X102952379Y-104501950D02*
X102838093Y-104463855D01*
X102838093Y-104463855D02*
X102761902Y-104463855D01*
X102761902Y-104463855D02*
X102647617Y-104501950D01*
X102647617Y-104501950D02*
X102609521Y-104540045D01*
X133600000Y-105863855D02*
X133600000Y-106435283D01*
X133600000Y-106435283D02*
X133638095Y-106549569D01*
X133638095Y-106549569D02*
X133714286Y-106625760D01*
X133714286Y-106625760D02*
X133828571Y-106663855D01*
X133828571Y-106663855D02*
X133904762Y-106663855D01*
X133257143Y-105940045D02*
X133219047Y-105901950D01*
X133219047Y-105901950D02*
X133142857Y-105863855D01*
X133142857Y-105863855D02*
X132952381Y-105863855D01*
X132952381Y-105863855D02*
X132876190Y-105901950D01*
X132876190Y-105901950D02*
X132838095Y-105940045D01*
X132838095Y-105940045D02*
X132800000Y-106016236D01*
X132800000Y-106016236D02*
X132800000Y-106092426D01*
X132800000Y-106092426D02*
X132838095Y-106206712D01*
X132838095Y-106206712D02*
X133295238Y-106663855D01*
X133295238Y-106663855D02*
X132800000Y-106663855D01*
X132457142Y-106587664D02*
X132419047Y-106625760D01*
X132419047Y-106625760D02*
X132457142Y-106663855D01*
X132457142Y-106663855D02*
X132495238Y-106625760D01*
X132495238Y-106625760D02*
X132457142Y-106587664D01*
X132457142Y-106587664D02*
X132457142Y-106663855D01*
X132457142Y-106168617D02*
X132419047Y-106206712D01*
X132419047Y-106206712D02*
X132457142Y-106244807D01*
X132457142Y-106244807D02*
X132495238Y-106206712D01*
X132495238Y-106206712D02*
X132457142Y-106168617D01*
X132457142Y-106168617D02*
X132457142Y-106244807D01*
X131047619Y-106663855D02*
X131504762Y-106663855D01*
X131276190Y-106663855D02*
X131276190Y-105863855D01*
X131276190Y-105863855D02*
X131352381Y-105978140D01*
X131352381Y-105978140D02*
X131428571Y-106054331D01*
X131428571Y-106054331D02*
X131504762Y-106092426D01*
X130704761Y-106244807D02*
X130095238Y-106244807D01*
X130095238Y-106473379D02*
X130704761Y-106473379D01*
X129752381Y-106625760D02*
X129638095Y-106663855D01*
X129638095Y-106663855D02*
X129447619Y-106663855D01*
X129447619Y-106663855D02*
X129371428Y-106625760D01*
X129371428Y-106625760D02*
X129333333Y-106587664D01*
X129333333Y-106587664D02*
X129295238Y-106511474D01*
X129295238Y-106511474D02*
X129295238Y-106435283D01*
X129295238Y-106435283D02*
X129333333Y-106359093D01*
X129333333Y-106359093D02*
X129371428Y-106320998D01*
X129371428Y-106320998D02*
X129447619Y-106282902D01*
X129447619Y-106282902D02*
X129600000Y-106244807D01*
X129600000Y-106244807D02*
X129676190Y-106206712D01*
X129676190Y-106206712D02*
X129714285Y-106168617D01*
X129714285Y-106168617D02*
X129752381Y-106092426D01*
X129752381Y-106092426D02*
X129752381Y-106016236D01*
X129752381Y-106016236D02*
X129714285Y-105940045D01*
X129714285Y-105940045D02*
X129676190Y-105901950D01*
X129676190Y-105901950D02*
X129600000Y-105863855D01*
X129600000Y-105863855D02*
X129409523Y-105863855D01*
X129409523Y-105863855D02*
X129295238Y-105901950D01*
X129028571Y-105863855D02*
X128838095Y-106663855D01*
X128838095Y-106663855D02*
X128685714Y-106092426D01*
X128685714Y-106092426D02*
X128533333Y-106663855D01*
X128533333Y-106663855D02*
X128342857Y-105863855D01*
X128038094Y-106663855D02*
X128038094Y-105863855D01*
X128038094Y-105863855D02*
X127847618Y-105863855D01*
X127847618Y-105863855D02*
X127733332Y-105901950D01*
X127733332Y-105901950D02*
X127657142Y-105978140D01*
X127657142Y-105978140D02*
X127619047Y-106054331D01*
X127619047Y-106054331D02*
X127580951Y-106206712D01*
X127580951Y-106206712D02*
X127580951Y-106320998D01*
X127580951Y-106320998D02*
X127619047Y-106473379D01*
X127619047Y-106473379D02*
X127657142Y-106549569D01*
X127657142Y-106549569D02*
X127733332Y-106625760D01*
X127733332Y-106625760D02*
X127847618Y-106663855D01*
X127847618Y-106663855D02*
X128038094Y-106663855D01*
X127238094Y-106663855D02*
X127238094Y-105863855D01*
X126704761Y-105863855D02*
X126552380Y-105863855D01*
X126552380Y-105863855D02*
X126476190Y-105901950D01*
X126476190Y-105901950D02*
X126399999Y-105978140D01*
X126399999Y-105978140D02*
X126361904Y-106130521D01*
X126361904Y-106130521D02*
X126361904Y-106397188D01*
X126361904Y-106397188D02*
X126399999Y-106549569D01*
X126399999Y-106549569D02*
X126476190Y-106625760D01*
X126476190Y-106625760D02*
X126552380Y-106663855D01*
X126552380Y-106663855D02*
X126704761Y-106663855D01*
X126704761Y-106663855D02*
X126780952Y-106625760D01*
X126780952Y-106625760D02*
X126857142Y-106549569D01*
X126857142Y-106549569D02*
X126895238Y-106397188D01*
X126895238Y-106397188D02*
X126895238Y-106130521D01*
X126895238Y-106130521D02*
X126857142Y-105978140D01*
X126857142Y-105978140D02*
X126780952Y-105901950D01*
X126780952Y-105901950D02*
X126704761Y-105863855D01*
X124838095Y-105940045D02*
X124799999Y-105901950D01*
X124799999Y-105901950D02*
X124723809Y-105863855D01*
X124723809Y-105863855D02*
X124533333Y-105863855D01*
X124533333Y-105863855D02*
X124457142Y-105901950D01*
X124457142Y-105901950D02*
X124419047Y-105940045D01*
X124419047Y-105940045D02*
X124380952Y-106016236D01*
X124380952Y-106016236D02*
X124380952Y-106092426D01*
X124380952Y-106092426D02*
X124419047Y-106206712D01*
X124419047Y-106206712D02*
X124876190Y-106663855D01*
X124876190Y-106663855D02*
X124380952Y-106663855D01*
X124038094Y-106244807D02*
X123428571Y-106244807D01*
X123428571Y-106473379D02*
X124038094Y-106473379D01*
X123085714Y-106625760D02*
X122971428Y-106663855D01*
X122971428Y-106663855D02*
X122780952Y-106663855D01*
X122780952Y-106663855D02*
X122704761Y-106625760D01*
X122704761Y-106625760D02*
X122666666Y-106587664D01*
X122666666Y-106587664D02*
X122628571Y-106511474D01*
X122628571Y-106511474D02*
X122628571Y-106435283D01*
X122628571Y-106435283D02*
X122666666Y-106359093D01*
X122666666Y-106359093D02*
X122704761Y-106320998D01*
X122704761Y-106320998D02*
X122780952Y-106282902D01*
X122780952Y-106282902D02*
X122933333Y-106244807D01*
X122933333Y-106244807D02*
X123009523Y-106206712D01*
X123009523Y-106206712D02*
X123047618Y-106168617D01*
X123047618Y-106168617D02*
X123085714Y-106092426D01*
X123085714Y-106092426D02*
X123085714Y-106016236D01*
X123085714Y-106016236D02*
X123047618Y-105940045D01*
X123047618Y-105940045D02*
X123009523Y-105901950D01*
X123009523Y-105901950D02*
X122933333Y-105863855D01*
X122933333Y-105863855D02*
X122742856Y-105863855D01*
X122742856Y-105863855D02*
X122628571Y-105901950D01*
X122361904Y-105863855D02*
X122171428Y-106663855D01*
X122171428Y-106663855D02*
X122019047Y-106092426D01*
X122019047Y-106092426D02*
X121866666Y-106663855D01*
X121866666Y-106663855D02*
X121676190Y-105863855D01*
X120914284Y-106587664D02*
X120952380Y-106625760D01*
X120952380Y-106625760D02*
X121066665Y-106663855D01*
X121066665Y-106663855D02*
X121142856Y-106663855D01*
X121142856Y-106663855D02*
X121257142Y-106625760D01*
X121257142Y-106625760D02*
X121333332Y-106549569D01*
X121333332Y-106549569D02*
X121371427Y-106473379D01*
X121371427Y-106473379D02*
X121409523Y-106320998D01*
X121409523Y-106320998D02*
X121409523Y-106206712D01*
X121409523Y-106206712D02*
X121371427Y-106054331D01*
X121371427Y-106054331D02*
X121333332Y-105978140D01*
X121333332Y-105978140D02*
X121257142Y-105901950D01*
X121257142Y-105901950D02*
X121142856Y-105863855D01*
X121142856Y-105863855D02*
X121066665Y-105863855D01*
X121066665Y-105863855D02*
X120952380Y-105901950D01*
X120952380Y-105901950D02*
X120914284Y-105940045D01*
X120190475Y-106663855D02*
X120571427Y-106663855D01*
X120571427Y-106663855D02*
X120571427Y-105863855D01*
X119923808Y-106663855D02*
X119923808Y-105863855D01*
X119466665Y-106663855D02*
X119809523Y-106206712D01*
X119466665Y-105863855D02*
X119923808Y-106320998D01*
X117980951Y-105863855D02*
X117485713Y-105863855D01*
X117485713Y-105863855D02*
X117752379Y-106168617D01*
X117752379Y-106168617D02*
X117638094Y-106168617D01*
X117638094Y-106168617D02*
X117561903Y-106206712D01*
X117561903Y-106206712D02*
X117523808Y-106244807D01*
X117523808Y-106244807D02*
X117485713Y-106320998D01*
X117485713Y-106320998D02*
X117485713Y-106511474D01*
X117485713Y-106511474D02*
X117523808Y-106587664D01*
X117523808Y-106587664D02*
X117561903Y-106625760D01*
X117561903Y-106625760D02*
X117638094Y-106663855D01*
X117638094Y-106663855D02*
X117866665Y-106663855D01*
X117866665Y-106663855D02*
X117942856Y-106625760D01*
X117942856Y-106625760D02*
X117980951Y-106587664D01*
X117142855Y-106244807D02*
X116533332Y-106244807D01*
X116533332Y-106473379D02*
X117142855Y-106473379D01*
X116152379Y-106663855D02*
X116152379Y-105863855D01*
X116152379Y-105863855D02*
X115695236Y-106663855D01*
X115695236Y-106663855D02*
X115695236Y-105863855D01*
X114857141Y-106663855D02*
X115123808Y-106282902D01*
X115314284Y-106663855D02*
X115314284Y-105863855D01*
X115314284Y-105863855D02*
X115009522Y-105863855D01*
X115009522Y-105863855D02*
X114933332Y-105901950D01*
X114933332Y-105901950D02*
X114895237Y-105940045D01*
X114895237Y-105940045D02*
X114857141Y-106016236D01*
X114857141Y-106016236D02*
X114857141Y-106130521D01*
X114857141Y-106130521D02*
X114895237Y-106206712D01*
X114895237Y-106206712D02*
X114933332Y-106244807D01*
X114933332Y-106244807D02*
X115009522Y-106282902D01*
X115009522Y-106282902D02*
X115314284Y-106282902D01*
X114552380Y-106625760D02*
X114438094Y-106663855D01*
X114438094Y-106663855D02*
X114247618Y-106663855D01*
X114247618Y-106663855D02*
X114171427Y-106625760D01*
X114171427Y-106625760D02*
X114133332Y-106587664D01*
X114133332Y-106587664D02*
X114095237Y-106511474D01*
X114095237Y-106511474D02*
X114095237Y-106435283D01*
X114095237Y-106435283D02*
X114133332Y-106359093D01*
X114133332Y-106359093D02*
X114171427Y-106320998D01*
X114171427Y-106320998D02*
X114247618Y-106282902D01*
X114247618Y-106282902D02*
X114399999Y-106244807D01*
X114399999Y-106244807D02*
X114476189Y-106206712D01*
X114476189Y-106206712D02*
X114514284Y-106168617D01*
X114514284Y-106168617D02*
X114552380Y-106092426D01*
X114552380Y-106092426D02*
X114552380Y-106016236D01*
X114552380Y-106016236D02*
X114514284Y-105940045D01*
X114514284Y-105940045D02*
X114476189Y-105901950D01*
X114476189Y-105901950D02*
X114399999Y-105863855D01*
X114399999Y-105863855D02*
X114209522Y-105863855D01*
X114209522Y-105863855D02*
X114095237Y-105901950D01*
X113866665Y-105863855D02*
X113409522Y-105863855D01*
X113638094Y-106663855D02*
X113638094Y-105863855D01*
X111580950Y-106130521D02*
X111580950Y-106663855D01*
X111771426Y-105825760D02*
X111961903Y-106397188D01*
X111961903Y-106397188D02*
X111466664Y-106397188D01*
X111161902Y-106244807D02*
X110552379Y-106244807D01*
X110552379Y-106473379D02*
X111161902Y-106473379D01*
X110285712Y-105863855D02*
X110019045Y-106663855D01*
X110019045Y-106663855D02*
X109752379Y-105863855D01*
X109523808Y-106435283D02*
X109142855Y-106435283D01*
X109599998Y-106663855D02*
X109333331Y-105863855D01*
X109333331Y-105863855D02*
X109066665Y-106663855D01*
X108799998Y-106663855D02*
X108799998Y-105863855D01*
X108799998Y-105863855D02*
X108495236Y-105863855D01*
X108495236Y-105863855D02*
X108419046Y-105901950D01*
X108419046Y-105901950D02*
X108380951Y-105940045D01*
X108380951Y-105940045D02*
X108342855Y-106016236D01*
X108342855Y-106016236D02*
X108342855Y-106130521D01*
X108342855Y-106130521D02*
X108380951Y-106206712D01*
X108380951Y-106206712D02*
X108419046Y-106244807D01*
X108419046Y-106244807D02*
X108495236Y-106282902D01*
X108495236Y-106282902D02*
X108799998Y-106282902D01*
X107999998Y-106663855D02*
X107999998Y-105863855D01*
X107999998Y-105863855D02*
X107695236Y-105863855D01*
X107695236Y-105863855D02*
X107619046Y-105901950D01*
X107619046Y-105901950D02*
X107580951Y-105940045D01*
X107580951Y-105940045D02*
X107542855Y-106016236D01*
X107542855Y-106016236D02*
X107542855Y-106130521D01*
X107542855Y-106130521D02*
X107580951Y-106206712D01*
X107580951Y-106206712D02*
X107619046Y-106244807D01*
X107619046Y-106244807D02*
X107695236Y-106282902D01*
X107695236Y-106282902D02*
X107999998Y-106282902D01*
X105599998Y-105863855D02*
X105980950Y-105863855D01*
X105980950Y-105863855D02*
X106019046Y-106244807D01*
X106019046Y-106244807D02*
X105980950Y-106206712D01*
X105980950Y-106206712D02*
X105904760Y-106168617D01*
X105904760Y-106168617D02*
X105714284Y-106168617D01*
X105714284Y-106168617D02*
X105638093Y-106206712D01*
X105638093Y-106206712D02*
X105599998Y-106244807D01*
X105599998Y-106244807D02*
X105561903Y-106320998D01*
X105561903Y-106320998D02*
X105561903Y-106511474D01*
X105561903Y-106511474D02*
X105599998Y-106587664D01*
X105599998Y-106587664D02*
X105638093Y-106625760D01*
X105638093Y-106625760D02*
X105714284Y-106663855D01*
X105714284Y-106663855D02*
X105904760Y-106663855D01*
X105904760Y-106663855D02*
X105980950Y-106625760D01*
X105980950Y-106625760D02*
X106019046Y-106587664D01*
X105219045Y-106244807D02*
X104609522Y-106244807D01*
X104609522Y-106473379D02*
X105219045Y-106473379D01*
X103809522Y-105901950D02*
X103885712Y-105863855D01*
X103885712Y-105863855D02*
X103999998Y-105863855D01*
X103999998Y-105863855D02*
X104114284Y-105901950D01*
X104114284Y-105901950D02*
X104190474Y-105978140D01*
X104190474Y-105978140D02*
X104228569Y-106054331D01*
X104228569Y-106054331D02*
X104266665Y-106206712D01*
X104266665Y-106206712D02*
X104266665Y-106320998D01*
X104266665Y-106320998D02*
X104228569Y-106473379D01*
X104228569Y-106473379D02*
X104190474Y-106549569D01*
X104190474Y-106549569D02*
X104114284Y-106625760D01*
X104114284Y-106625760D02*
X103999998Y-106663855D01*
X103999998Y-106663855D02*
X103923807Y-106663855D01*
X103923807Y-106663855D02*
X103809522Y-106625760D01*
X103809522Y-106625760D02*
X103771426Y-106587664D01*
X103771426Y-106587664D02*
X103771426Y-106320998D01*
X103771426Y-106320998D02*
X103923807Y-106320998D01*
X103428569Y-106663855D02*
X103428569Y-105863855D01*
X103428569Y-105863855D02*
X102971426Y-106663855D01*
X102971426Y-106663855D02*
X102971426Y-105863855D01*
X102590474Y-106663855D02*
X102590474Y-105863855D01*
X102590474Y-105863855D02*
X102399998Y-105863855D01*
X102399998Y-105863855D02*
X102285712Y-105901950D01*
X102285712Y-105901950D02*
X102209522Y-105978140D01*
X102209522Y-105978140D02*
X102171427Y-106054331D01*
X102171427Y-106054331D02*
X102133331Y-106206712D01*
X102133331Y-106206712D02*
X102133331Y-106320998D01*
X102133331Y-106320998D02*
X102171427Y-106473379D01*
X102171427Y-106473379D02*
X102209522Y-106549569D01*
X102209522Y-106549569D02*
X102285712Y-106625760D01*
X102285712Y-106625760D02*
X102399998Y-106663855D01*
X102399998Y-106663855D02*
X102590474Y-106663855D01*
X127199999Y-107925760D02*
X127085713Y-107963855D01*
X127085713Y-107963855D02*
X126895237Y-107963855D01*
X126895237Y-107963855D02*
X126819046Y-107925760D01*
X126819046Y-107925760D02*
X126780951Y-107887664D01*
X126780951Y-107887664D02*
X126742856Y-107811474D01*
X126742856Y-107811474D02*
X126742856Y-107735283D01*
X126742856Y-107735283D02*
X126780951Y-107659093D01*
X126780951Y-107659093D02*
X126819046Y-107620998D01*
X126819046Y-107620998D02*
X126895237Y-107582902D01*
X126895237Y-107582902D02*
X127047618Y-107544807D01*
X127047618Y-107544807D02*
X127123808Y-107506712D01*
X127123808Y-107506712D02*
X127161903Y-107468617D01*
X127161903Y-107468617D02*
X127199999Y-107392426D01*
X127199999Y-107392426D02*
X127199999Y-107316236D01*
X127199999Y-107316236D02*
X127161903Y-107240045D01*
X127161903Y-107240045D02*
X127123808Y-107201950D01*
X127123808Y-107201950D02*
X127047618Y-107163855D01*
X127047618Y-107163855D02*
X126857141Y-107163855D01*
X126857141Y-107163855D02*
X126742856Y-107201950D01*
X126514284Y-107163855D02*
X126057141Y-107163855D01*
X126285713Y-107963855D02*
X126285713Y-107163855D01*
X125333331Y-107963855D02*
X125599998Y-107582902D01*
X125790474Y-107963855D02*
X125790474Y-107163855D01*
X125790474Y-107163855D02*
X125485712Y-107163855D01*
X125485712Y-107163855D02*
X125409522Y-107201950D01*
X125409522Y-107201950D02*
X125371427Y-107240045D01*
X125371427Y-107240045D02*
X125333331Y-107316236D01*
X125333331Y-107316236D02*
X125333331Y-107430521D01*
X125333331Y-107430521D02*
X125371427Y-107506712D01*
X125371427Y-107506712D02*
X125409522Y-107544807D01*
X125409522Y-107544807D02*
X125485712Y-107582902D01*
X125485712Y-107582902D02*
X125790474Y-107582902D01*
X125028570Y-107735283D02*
X124647617Y-107735283D01*
X125104760Y-107963855D02*
X124838093Y-107163855D01*
X124838093Y-107163855D02*
X124571427Y-107963855D01*
X124304760Y-107963855D02*
X124304760Y-107163855D01*
X123504761Y-107201950D02*
X123580951Y-107163855D01*
X123580951Y-107163855D02*
X123695237Y-107163855D01*
X123695237Y-107163855D02*
X123809523Y-107201950D01*
X123809523Y-107201950D02*
X123885713Y-107278140D01*
X123885713Y-107278140D02*
X123923808Y-107354331D01*
X123923808Y-107354331D02*
X123961904Y-107506712D01*
X123961904Y-107506712D02*
X123961904Y-107620998D01*
X123961904Y-107620998D02*
X123923808Y-107773379D01*
X123923808Y-107773379D02*
X123885713Y-107849569D01*
X123885713Y-107849569D02*
X123809523Y-107925760D01*
X123809523Y-107925760D02*
X123695237Y-107963855D01*
X123695237Y-107963855D02*
X123619046Y-107963855D01*
X123619046Y-107963855D02*
X123504761Y-107925760D01*
X123504761Y-107925760D02*
X123466665Y-107887664D01*
X123466665Y-107887664D02*
X123466665Y-107620998D01*
X123466665Y-107620998D02*
X123619046Y-107620998D01*
X123123808Y-107963855D02*
X123123808Y-107163855D01*
X123123808Y-107544807D02*
X122666665Y-107544807D01*
X122666665Y-107963855D02*
X122666665Y-107163855D01*
X122399999Y-107163855D02*
X121942856Y-107163855D01*
X122171428Y-107963855D02*
X122171428Y-107163855D01*
X121066665Y-107963855D02*
X121066665Y-107163855D01*
X121066665Y-107163855D02*
X120761903Y-107163855D01*
X120761903Y-107163855D02*
X120685713Y-107201950D01*
X120685713Y-107201950D02*
X120647618Y-107240045D01*
X120647618Y-107240045D02*
X120609522Y-107316236D01*
X120609522Y-107316236D02*
X120609522Y-107430521D01*
X120609522Y-107430521D02*
X120647618Y-107506712D01*
X120647618Y-107506712D02*
X120685713Y-107544807D01*
X120685713Y-107544807D02*
X120761903Y-107582902D01*
X120761903Y-107582902D02*
X121066665Y-107582902D01*
X120266665Y-107963855D02*
X120266665Y-107163855D01*
X119885713Y-107963855D02*
X119885713Y-107163855D01*
X119885713Y-107163855D02*
X119428570Y-107963855D01*
X119428570Y-107963855D02*
X119428570Y-107163855D01*
X119047618Y-107659093D02*
X118438095Y-107659093D01*
X117790476Y-107544807D02*
X118057142Y-107544807D01*
X118057142Y-107963855D02*
X118057142Y-107163855D01*
X118057142Y-107163855D02*
X117676190Y-107163855D01*
X117219047Y-107163855D02*
X117066666Y-107163855D01*
X117066666Y-107163855D02*
X116990476Y-107201950D01*
X116990476Y-107201950D02*
X116914285Y-107278140D01*
X116914285Y-107278140D02*
X116876190Y-107430521D01*
X116876190Y-107430521D02*
X116876190Y-107697188D01*
X116876190Y-107697188D02*
X116914285Y-107849569D01*
X116914285Y-107849569D02*
X116990476Y-107925760D01*
X116990476Y-107925760D02*
X117066666Y-107963855D01*
X117066666Y-107963855D02*
X117219047Y-107963855D01*
X117219047Y-107963855D02*
X117295238Y-107925760D01*
X117295238Y-107925760D02*
X117371428Y-107849569D01*
X117371428Y-107849569D02*
X117409524Y-107697188D01*
X117409524Y-107697188D02*
X117409524Y-107430521D01*
X117409524Y-107430521D02*
X117371428Y-107278140D01*
X117371428Y-107278140D02*
X117295238Y-107201950D01*
X117295238Y-107201950D02*
X117219047Y-107163855D01*
X116076190Y-107963855D02*
X116342857Y-107582902D01*
X116533333Y-107963855D02*
X116533333Y-107163855D01*
X116533333Y-107163855D02*
X116228571Y-107163855D01*
X116228571Y-107163855D02*
X116152381Y-107201950D01*
X116152381Y-107201950D02*
X116114286Y-107240045D01*
X116114286Y-107240045D02*
X116076190Y-107316236D01*
X116076190Y-107316236D02*
X116076190Y-107430521D01*
X116076190Y-107430521D02*
X116114286Y-107506712D01*
X116114286Y-107506712D02*
X116152381Y-107544807D01*
X116152381Y-107544807D02*
X116228571Y-107582902D01*
X116228571Y-107582902D02*
X116533333Y-107582902D01*
X115733333Y-107659093D02*
X115123810Y-107659093D01*
X114742857Y-107963855D02*
X114742857Y-107163855D01*
X114742857Y-107163855D02*
X114438095Y-107163855D01*
X114438095Y-107163855D02*
X114361905Y-107201950D01*
X114361905Y-107201950D02*
X114323810Y-107240045D01*
X114323810Y-107240045D02*
X114285714Y-107316236D01*
X114285714Y-107316236D02*
X114285714Y-107430521D01*
X114285714Y-107430521D02*
X114323810Y-107506712D01*
X114323810Y-107506712D02*
X114361905Y-107544807D01*
X114361905Y-107544807D02*
X114438095Y-107582902D01*
X114438095Y-107582902D02*
X114742857Y-107582902D01*
X113942857Y-107963855D02*
X113942857Y-107163855D01*
X113561905Y-107963855D02*
X113561905Y-107163855D01*
X113561905Y-107163855D02*
X113104762Y-107963855D01*
X113104762Y-107963855D02*
X113104762Y-107163855D01*
X111657143Y-107887664D02*
X111695239Y-107925760D01*
X111695239Y-107925760D02*
X111809524Y-107963855D01*
X111809524Y-107963855D02*
X111885715Y-107963855D01*
X111885715Y-107963855D02*
X112000001Y-107925760D01*
X112000001Y-107925760D02*
X112076191Y-107849569D01*
X112076191Y-107849569D02*
X112114286Y-107773379D01*
X112114286Y-107773379D02*
X112152382Y-107620998D01*
X112152382Y-107620998D02*
X112152382Y-107506712D01*
X112152382Y-107506712D02*
X112114286Y-107354331D01*
X112114286Y-107354331D02*
X112076191Y-107278140D01*
X112076191Y-107278140D02*
X112000001Y-107201950D01*
X112000001Y-107201950D02*
X111885715Y-107163855D01*
X111885715Y-107163855D02*
X111809524Y-107163855D01*
X111809524Y-107163855D02*
X111695239Y-107201950D01*
X111695239Y-107201950D02*
X111657143Y-107240045D01*
X111352382Y-107735283D02*
X110971429Y-107735283D01*
X111428572Y-107963855D02*
X111161905Y-107163855D01*
X111161905Y-107163855D02*
X110895239Y-107963855D01*
X110361906Y-107544807D02*
X110247620Y-107582902D01*
X110247620Y-107582902D02*
X110209525Y-107620998D01*
X110209525Y-107620998D02*
X110171429Y-107697188D01*
X110171429Y-107697188D02*
X110171429Y-107811474D01*
X110171429Y-107811474D02*
X110209525Y-107887664D01*
X110209525Y-107887664D02*
X110247620Y-107925760D01*
X110247620Y-107925760D02*
X110323810Y-107963855D01*
X110323810Y-107963855D02*
X110628572Y-107963855D01*
X110628572Y-107963855D02*
X110628572Y-107163855D01*
X110628572Y-107163855D02*
X110361906Y-107163855D01*
X110361906Y-107163855D02*
X110285715Y-107201950D01*
X110285715Y-107201950D02*
X110247620Y-107240045D01*
X110247620Y-107240045D02*
X110209525Y-107316236D01*
X110209525Y-107316236D02*
X110209525Y-107392426D01*
X110209525Y-107392426D02*
X110247620Y-107468617D01*
X110247620Y-107468617D02*
X110285715Y-107506712D01*
X110285715Y-107506712D02*
X110361906Y-107544807D01*
X110361906Y-107544807D02*
X110628572Y-107544807D01*
X109447620Y-107963855D02*
X109828572Y-107963855D01*
X109828572Y-107963855D02*
X109828572Y-107163855D01*
X109180953Y-107544807D02*
X108914287Y-107544807D01*
X108800001Y-107963855D02*
X109180953Y-107963855D01*
X109180953Y-107963855D02*
X109180953Y-107163855D01*
X109180953Y-107163855D02*
X108800001Y-107163855D01*
D11*
X124455952Y-96445991D02*
X124334523Y-96486467D01*
X124334523Y-96486467D02*
X124132142Y-96486467D01*
X124132142Y-96486467D02*
X124051190Y-96445991D01*
X124051190Y-96445991D02*
X124010714Y-96405514D01*
X124010714Y-96405514D02*
X123970237Y-96324562D01*
X123970237Y-96324562D02*
X123970237Y-96243610D01*
X123970237Y-96243610D02*
X124010714Y-96162657D01*
X124010714Y-96162657D02*
X124051190Y-96122181D01*
X124051190Y-96122181D02*
X124132142Y-96081705D01*
X124132142Y-96081705D02*
X124294047Y-96041229D01*
X124294047Y-96041229D02*
X124374999Y-96000752D01*
X124374999Y-96000752D02*
X124415476Y-95960276D01*
X124415476Y-95960276D02*
X124455952Y-95879324D01*
X124455952Y-95879324D02*
X124455952Y-95798371D01*
X124455952Y-95798371D02*
X124415476Y-95717419D01*
X124415476Y-95717419D02*
X124374999Y-95676943D01*
X124374999Y-95676943D02*
X124294047Y-95636467D01*
X124294047Y-95636467D02*
X124091666Y-95636467D01*
X124091666Y-95636467D02*
X123970237Y-95676943D01*
X123727380Y-95636467D02*
X123241666Y-95636467D01*
X123484523Y-96486467D02*
X123484523Y-95636467D01*
X122958333Y-96162657D02*
X122310714Y-96162657D01*
X121501190Y-96486467D02*
X121905952Y-96486467D01*
X121905952Y-96486467D02*
X121905952Y-95636467D01*
X121217857Y-96486467D02*
X121217857Y-95636467D01*
X120813095Y-96486467D02*
X120813095Y-95636467D01*
X120813095Y-95636467D02*
X120327380Y-96486467D01*
X120327380Y-96486467D02*
X120327380Y-95636467D01*
X119922619Y-96486467D02*
X119922619Y-95636467D01*
X119436904Y-96486467D02*
X119801190Y-96000752D01*
X119436904Y-95636467D02*
X119922619Y-96122181D01*
X118465476Y-95595991D02*
X119194047Y-96688848D01*
X118303571Y-95636467D02*
X118020238Y-96486467D01*
X118020238Y-96486467D02*
X117736904Y-95636467D01*
X117494048Y-95717419D02*
X117453572Y-95676943D01*
X117453572Y-95676943D02*
X117372619Y-95636467D01*
X117372619Y-95636467D02*
X117170238Y-95636467D01*
X117170238Y-95636467D02*
X117089286Y-95676943D01*
X117089286Y-95676943D02*
X117048810Y-95717419D01*
X117048810Y-95717419D02*
X117008333Y-95798371D01*
X117008333Y-95798371D02*
X117008333Y-95879324D01*
X117008333Y-95879324D02*
X117048810Y-96000752D01*
X117048810Y-96000752D02*
X117534524Y-96486467D01*
X117534524Y-96486467D02*
X117008333Y-96486467D01*
X116036905Y-95717419D02*
X115996429Y-95676943D01*
X115996429Y-95676943D02*
X115915476Y-95636467D01*
X115915476Y-95636467D02*
X115713095Y-95636467D01*
X115713095Y-95636467D02*
X115632143Y-95676943D01*
X115632143Y-95676943D02*
X115591667Y-95717419D01*
X115591667Y-95717419D02*
X115551190Y-95798371D01*
X115551190Y-95798371D02*
X115551190Y-95879324D01*
X115551190Y-95879324D02*
X115591667Y-96000752D01*
X115591667Y-96000752D02*
X116077381Y-96486467D01*
X116077381Y-96486467D02*
X115551190Y-96486467D01*
X115025000Y-95636467D02*
X114944047Y-95636467D01*
X114944047Y-95636467D02*
X114863095Y-95676943D01*
X114863095Y-95676943D02*
X114822619Y-95717419D01*
X114822619Y-95717419D02*
X114782143Y-95798371D01*
X114782143Y-95798371D02*
X114741666Y-95960276D01*
X114741666Y-95960276D02*
X114741666Y-96162657D01*
X114741666Y-96162657D02*
X114782143Y-96324562D01*
X114782143Y-96324562D02*
X114822619Y-96405514D01*
X114822619Y-96405514D02*
X114863095Y-96445991D01*
X114863095Y-96445991D02*
X114944047Y-96486467D01*
X114944047Y-96486467D02*
X115025000Y-96486467D01*
X115025000Y-96486467D02*
X115105952Y-96445991D01*
X115105952Y-96445991D02*
X115146428Y-96405514D01*
X115146428Y-96405514D02*
X115186905Y-96324562D01*
X115186905Y-96324562D02*
X115227381Y-96162657D01*
X115227381Y-96162657D02*
X115227381Y-95960276D01*
X115227381Y-95960276D02*
X115186905Y-95798371D01*
X115186905Y-95798371D02*
X115146428Y-95717419D01*
X115146428Y-95717419D02*
X115105952Y-95676943D01*
X115105952Y-95676943D02*
X115025000Y-95636467D01*
X114377381Y-96162657D02*
X113729762Y-96162657D01*
X113325000Y-96486467D02*
X113325000Y-95636467D01*
X113325000Y-95636467D02*
X113001190Y-95636467D01*
X113001190Y-95636467D02*
X112920238Y-95676943D01*
X112920238Y-95676943D02*
X112879761Y-95717419D01*
X112879761Y-95717419D02*
X112839285Y-95798371D01*
X112839285Y-95798371D02*
X112839285Y-95919800D01*
X112839285Y-95919800D02*
X112879761Y-96000752D01*
X112879761Y-96000752D02*
X112920238Y-96041229D01*
X112920238Y-96041229D02*
X113001190Y-96081705D01*
X113001190Y-96081705D02*
X113325000Y-96081705D01*
X112475000Y-96486467D02*
X112475000Y-95636467D01*
X112070238Y-96486467D02*
X112070238Y-95636467D01*
X112070238Y-95636467D02*
X111584523Y-96486467D01*
X111584523Y-96486467D02*
X111584523Y-95636467D01*
%LPC*%
D12*
%TO.C,J2*%
X112920000Y-109500000D03*
D13*
X115460000Y-109500000D03*
X118000000Y-109500000D03*
X120540000Y-109500000D03*
X123080000Y-109500000D03*
%TD*%
D14*
%TO.C,J1*%
X106570000Y-101270000D03*
D15*
X106570000Y-98730000D03*
X109110000Y-101270000D03*
X109110000Y-98730000D03*
X111650000Y-101270000D03*
X111650000Y-98730000D03*
X114190000Y-101270000D03*
X114190000Y-98730000D03*
X116730000Y-101270000D03*
X116730000Y-98730000D03*
X119270000Y-101270000D03*
X119270000Y-98730000D03*
X121810000Y-101270000D03*
X121810000Y-98730000D03*
X124350000Y-101270000D03*
X124350000Y-98730000D03*
X126890000Y-101270000D03*
X126890000Y-98730000D03*
X129430000Y-101270000D03*
X129430000Y-98730000D03*
%TD*%
%LPD*%
M02*
