%TF.GenerationSoftware,KiCad,Pcbnew,10.0.0*%
%TF.CreationDate,2026-09-19T05:44:52+09:00*%
%TF.ProjectId,board-p,626f6172-642d-4702-9e6b-696361645f70,rev?*%
%TF.SameCoordinates,Original*%
%TF.FileFunction,Legend,Bot*%
%TF.FilePolarity,Positive*%
%FSLAX46Y46*%
G04 Gerber Fmt 4.6, Leading zero omitted, Abs format (unit mm)*
G04 Created by KiCad (PCBNEW 10.0.0) date 2026-09-19 05:44:52*
%MOMM*%
%LPD*%
G01*
G04 APERTURE LIST*
%ADD10C,0.300000*%
%ADD11C,3.200000*%
%ADD12O,1.100000X1.800000*%
%ADD13R,1.700000X1.700000*%
%ADD14C,1.700000*%
G04 APERTURE END LIST*
D10*
X3000828Y-34354510D02*
X2000828Y-34354510D01*
X2286542Y-34354510D02*
X2143685Y-34425939D01*
X2143685Y-34425939D02*
X2072257Y-34497368D01*
X2072257Y-34497368D02*
X2000828Y-34640225D01*
X2000828Y-34640225D02*
X2000828Y-34783082D01*
X2929400Y-35854510D02*
X3000828Y-35711653D01*
X3000828Y-35711653D02*
X3000828Y-35425939D01*
X3000828Y-35425939D02*
X2929400Y-35283081D01*
X2929400Y-35283081D02*
X2786542Y-35211653D01*
X2786542Y-35211653D02*
X2215114Y-35211653D01*
X2215114Y-35211653D02*
X2072257Y-35283081D01*
X2072257Y-35283081D02*
X2000828Y-35425939D01*
X2000828Y-35425939D02*
X2000828Y-35711653D01*
X2000828Y-35711653D02*
X2072257Y-35854510D01*
X2072257Y-35854510D02*
X2215114Y-35925939D01*
X2215114Y-35925939D02*
X2357971Y-35925939D01*
X2357971Y-35925939D02*
X2500828Y-35211653D01*
X2000828Y-36425938D02*
X3000828Y-36783081D01*
X3000828Y-36783081D02*
X2000828Y-37140224D01*
X3000828Y-38497367D02*
X3000828Y-37640224D01*
X3000828Y-38068795D02*
X1500828Y-38068795D01*
X1500828Y-38068795D02*
X1715114Y-37925938D01*
X1715114Y-37925938D02*
X1857971Y-37783081D01*
X1857971Y-37783081D02*
X1929400Y-37640224D01*
%LPC*%
D11*
%TO.C,REF\u002A\u002A*%
X4000000Y-4000000D03*
%TD*%
D12*
%TO.C,J1*%
X17826000Y-6750000D03*
X17826000Y-2950000D03*
X9186000Y-6750000D03*
X9186000Y-2950000D03*
%TD*%
D11*
%TO.C,REF\u002A\u002A*%
X12800000Y-32600000D03*
%TD*%
D13*
%TO.C,JOUT1*%
X6550000Y-37700000D03*
D14*
X9090000Y-37700000D03*
X11630000Y-37700000D03*
X14170000Y-37700000D03*
X16710000Y-37700000D03*
X19250000Y-37700000D03*
%TD*%
D11*
%TO.C,REF\u002A\u002A*%
X23000000Y-4000000D03*
%TD*%
%LPD*%
M02*
