<svg xmlns="http://www.w3.org/2000/svg" viewBox="0.0000 0.0000 5.2578 2.3114" width="100%" height="100%" preserveAspectRatio="xMidYMid meet">
<g style="fill:#000000; fill-opacity:1.0000;stroke:#000000; stroke-opacity:1.0000;
stroke-linecap:round; stroke-linejoin:round;"
 transform="translate(0 0) scale(1 1)">
<path style="fill:#000000; fill-opacity:1.0000; stroke:none;fill-rule:evenodd;"
d="M 3.4825,2.0290
3.4825,0.3010
4.9675,0.3010
4.9675,2.0290
Z" />
<path style="fill:#000000; fill-opacity:1.0000; stroke:none;fill-rule:evenodd;"
d="M 0.3025,2.0290
0.3025,0.3010
1.7875,0.3010
1.7875,2.0290
Z" />
</g>
<g style="fill:none;
stroke:#000000; stroke-width:0.1500; stroke-opacity:1;
stroke-linecap:round; stroke-linejoin:round;">
<path d="M5.0450 0.0750
L3.5650 0.0750
" />
<path d="M3.5650 2.2550
L5.0450 2.2550
" />
<path d="M5.1950 2.1050
L5.1950 0.2250
" />
<path d="M0.2250 0.0750
L1.7050 0.0750
" />
<path d="M1.7050 2.2550
L0.2250 2.2550
" />
<path d="M0.0750 2.1050
L0.0750 0.2250
" />
</g>
<g style="fill:none;
stroke:#000000; stroke-width:0.0600; stroke-opacity:1;
stroke-linecap:round; stroke-linejoin:round;">
<circle cx="1.0350" cy="1.9650" r="0.0300" />
</g>
<g style="fill:none;
stroke:#000000; stroke-width:0.1500; stroke-opacity:1;
stroke-linecap:round; stroke-linejoin:round;">
<path d="M5.0450 2.2550 A0.1500 0.1500 0.0 0 0 5.1950 2.1050" />
<path d="M5.1950 0.2250 A0.1500 0.1500 0.0 0 0 5.0450 0.0750" />
<path d="M0.0750 2.1050 A0.1500 0.1500 0.0 0 0 0.2250 2.2550" />
<path d="M0.2250 0.0750 A0.1500 0.1500 0.0 0 0 0.0750 0.2250" />
</g>
<g style="fill:none;
stroke:#000000; stroke-width:0.0500; stroke-opacity:1;
stroke-linecap:round; stroke-linejoin:round;">
<path d="M1.0350 1.9650
L1.0350 0.3650
" />
<path d="M1.0350 0.3650
L4.2350 0.3650
" />
<path d="M4.2350 0.3650
L4.2350 1.9650
" />
<path d="M4.2350 1.9650
L1.0350 1.9650
" />
</g>
</svg>
