<svg xmlns="http://www.w3.org/2000/svg" viewBox="0.0000 0.0000 15.4940 2.8448" width="100%" height="100%" preserveAspectRatio="xMidYMid meet">
<g style="fill:#000000; fill-opacity:1.0000;stroke:#000000; stroke-opacity:1.0000;
stroke-linecap:round; stroke-linejoin:round;"
 transform="translate(0 0) scale(1 1)">
<path style="fill:#000000; fill-opacity:1.0000; stroke:none;fill-rule:evenodd;"
d="M 0.5250,2.2750
0.5250,0.5750
2.2250,0.5750
2.2250,2.2750
Z" />
</g>
<g style="fill:#000000; fill-opacity:1.0000; stroke:none;">
<circle cx="3.9150" cy="1.4250" r="0.8500" />
</g>
<g style="fill:#000000; fill-opacity:1.0000; stroke:none;">
<circle cx="6.4550" cy="1.4250" r="0.8500" />
</g>
<g style="fill:#000000; fill-opacity:1.0000; stroke:none;">
<circle cx="8.9950" cy="1.4250" r="0.8500" />
</g>
<g style="fill:#000000; fill-opacity:1.0000; stroke:none;">
<circle cx="11.5350" cy="1.4250" r="0.8500" />
</g>
<g style="fill:#000000; fill-opacity:1.0000; stroke:none;">
<circle cx="14.0750" cy="1.4250" r="0.8500" />
</g>
<g style="fill:none;
stroke:#000000; stroke-width:0.2500; stroke-opacity:1;
stroke-linecap:round; stroke-linejoin:round;">
<path d="M0.1250 0.1250
L15.3750 0.1250
" />
<path d="M15.3750 0.1250
L15.3750 2.7250
" />
<path d="M15.3750 2.7250
L0.1250 2.7250
" />
<path d="M0.1250 2.7250
L0.1250 0.1250
" />
<path d="M2.6650 0.1550
L2.6650 2.6950
" />
</g>
<g style="fill:none;
stroke:#000000; stroke-width:0.0600; stroke-opacity:1;
stroke-linecap:round; stroke-linejoin:round;">
<circle cx="0.1050" cy="2.6950" r="0.0300" />
</g>
<g style="fill:none;
stroke:#000000; stroke-width:0.0500; stroke-opacity:1;
stroke-linecap:round; stroke-linejoin:round;">
<path d="M0.1050 2.6950
L0.1050 0.1550
" />
<path d="M0.1050 0.1550
L15.3450 0.1550
" />
<path d="M15.3450 0.1550
L15.3450 2.6950
" />
<path d="M15.3450 2.6950
L0.1050 2.6950
" />
</g>
</svg>
