<svg xmlns="http://www.w3.org/2000/svg" viewBox="0.0000 0.0000 7.3152 2.8702" width="100%" height="100%" preserveAspectRatio="xMidYMid meet">
<g style="fill:#000000; fill-opacity:1.0000;stroke:#000000; stroke-opacity:1.0000;
stroke-linecap:round; stroke-linejoin:round;"
 transform="translate(0 0) scale(1 1)">
<path style="fill:#000000; fill-opacity:1.0000; stroke:none;fill-rule:evenodd;"
d="M 0.0000,2.2899
0.0000,0.5899
2.2000,0.5899
2.2000,2.2899
Z" />
<path style="fill:#000000; fill-opacity:1.0000; stroke:none;fill-rule:evenodd;"
d="M 5.1400,2.2899
5.1400,0.5899
7.3400,0.5899
7.3400,2.2899
Z" />
</g>
<g style="fill:none;
stroke:#000000; stroke-width:0.1500; stroke-opacity:1;
stroke-linecap:round; stroke-linejoin:round;">
<path d="M0.9700 0.0799
L6.3700 0.0799
" />
<path d="M0.9700 2.7999
L6.3700 2.7999
" />
<path d="M2.3300 0.0799
L2.3300 2.7999
" />
<path d="M6.3700 0.0799
L6.3700 0.4299
" />
<path d="M6.3700 2.7999
L6.3700 2.4499
" />
</g>
<g style="fill:none;
stroke:#000000; stroke-width:0.0600; stroke-opacity:1;
stroke-linecap:round; stroke-linejoin:round;">
<circle cx="1.0400" cy="2.7399" r="0.0300" />
<path style="fill:#000000; fill-opacity:1.0000; stroke:none;fill-rule:evenodd;"
d="M 1.0450,2.8798
0.5878,2.8798
0.5878,2.4023
1.0450,2.4023
Z" />
<path style="fill:#000000; fill-opacity:1.0000; stroke:none;fill-rule:evenodd;"
d="M 1.0450,0.4775
0.5878,0.4775
0.5878,0.0000
1.0450,0.0000
Z" />
</g>
<g style="fill:none;
stroke:#000000; stroke-width:0.0500; stroke-opacity:1;
stroke-linecap:round; stroke-linejoin:round;">
<path d="M1.5700 2.7399
L1.5700 0.1399
" />
<path d="M1.5700 0.1399
L5.7700 0.1399
" />
<path d="M5.7700 0.1399
L5.7700 2.7399
" />
<path d="M5.7700 2.7399
L1.5700 2.7399
" />
</g>
</svg>
