#VRML V2.0 utf8
# NKK WR11AS; derived from the supplied CADENAS STL, see footprints/external/WR11AS/README.md
Shape { appearance Appearance { material Material { diffuseColor 0.24 0.26 0.28 } }
geometry IndexedFaceSet { solid FALSE creaseAngle 0.35 coord Coordinate { point [
3.110000 6.340000 -6.628000,
3.110000 6.670000 -4.500000,
3.110000 6.269000 -4.700000,
3.110000 6.111000 -5.362000,
3.110000 6.111000 -7.567000,
3.110000 6.340000 -7.302000,
3.110000 7.620000 -2.174000,
3.110000 7.684000 -1.929000,
3.110000 7.329000 -2.024000,
3.110000 7.678000 -1.849000,
3.110000 7.437000 -0.349000,
3.110000 7.329000 -0.349000,
3.110000 -6.340000 -6.628000,
3.110000 -6.340000 -7.302000,
3.110000 -6.111000 -7.567000,
3.110000 -6.111000 -5.362000,
3.110000 -6.269000 -4.700000,
3.110000 -6.670000 -4.500000,
3.110000 -7.678000 -1.849000,
3.110000 -7.684000 -1.929000,
3.110000 -7.329000 -2.024000,
3.110000 -7.620000 -2.174000,
3.110000 -7.329000 -0.349000,
3.110000 -7.437000 -0.349000,
3.110000 6.111000 -3.952000,
3.110000 6.111000 -3.868000,
3.110000 -6.111000 -3.952000,
3.110000 5.579000 -3.868000,
3.110000 -5.579000 -3.868000,
3.110000 5.579000 -0.265000,
3.110000 -5.579000 -0.265000,
3.110000 -5.670000 -8.008000,
3.110000 -3.100000 -9.495000,
3.110000 5.670000 -8.008000,
3.110000 -2.039000 -9.495000,
3.110000 2.039000 -9.495000,
3.110000 -2.039000 -10.556000,
3.110000 2.039000 -10.556000,
3.110000 -5.670000 -12.050000,
3.110000 3.100000 -10.556000,
3.110000 -0.000000 -12.050000,
3.110000 5.670000 -12.050000,
3.110000 3.100000 -9.495000,
3.110000 -3.100000 -10.556000,
3.110000 -6.111000 -3.868000,
-3.110000 6.340000 -6.628000,
-3.110000 6.340000 -7.302000,
-3.110000 6.111000 -7.567000,
-3.110000 6.111000 -5.362000,
-3.110000 6.269000 -4.700000,
-3.110000 6.670000 -4.500000,
-3.110000 7.678000 -1.849000,
-3.110000 7.684000 -1.929000,
-3.110000 7.329000 -2.024000,
-3.110000 7.620000 -2.174000,
-3.110000 7.329000 -0.349000,
-3.110000 7.437000 -0.349000,
-3.110000 -6.340000 -6.628000,
-3.110000 -6.670000 -4.500000,
-3.110000 -6.269000 -4.700000,
-3.110000 -6.111000 -5.362000,
-3.110000 -6.111000 -7.567000,
-3.110000 -6.340000 -7.302000,
-3.110000 -7.620000 -2.174000,
-3.110000 -7.684000 -1.929000,
-3.110000 -7.329000 -2.024000,
-3.110000 -7.678000 -1.849000,
-3.110000 -7.437000 -0.349000,
-3.110000 -7.329000 -0.349000,
-3.110000 -6.111000 -3.952000,
-3.110000 -6.111000 -3.868000,
-3.110000 6.111000 -3.952000,
-3.110000 -5.579000 -3.868000,
-3.110000 5.579000 -3.868000,
-3.110000 -5.579000 -0.265000,
-3.110000 5.579000 -0.265000,
-3.110000 5.670000 -8.008000,
-3.110000 3.100000 -9.495000,
-3.110000 -5.670000 -8.008000,
-3.110000 2.039000 -9.495000,
-3.110000 -2.039000 -9.495000,
-3.110000 2.039000 -10.556000,
-3.110000 -2.039000 -10.556000,
-3.110000 5.670000 -12.050000,
-3.110000 -3.100000 -10.556000,
-3.110000 -0.000000 -12.050000,
-3.110000 -5.670000 -12.050000,
-3.110000 -3.100000 -9.495000,
-3.110000 3.100000 -10.556000,
-3.110000 6.111000 -3.868000,
-0.464000 -6.555000 -1.229000,
0.464000 -6.555000 -1.229000,
0.464000 -6.730000 -0.964000,
-0.464000 -6.730000 -0.964000,
-0.464000 6.730000 -0.964000,
0.464000 6.730000 -0.964000,
0.464000 6.555000 -1.229000,
-0.464000 6.555000 -1.229000,
2.390000 5.905000 0.000000,
-2.465000 5.885000 -0.000000,
2.465000 5.885000 0.000000,
-2.520000 5.830000 -0.000000,
2.520000 5.830000 0.000000,
-2.540000 5.755000 -0.000000,
2.540000 5.755000 0.000000,
-2.540000 -5.755000 -0.000000,
2.540000 -5.755000 0.000000,
-2.520000 -5.830000 -0.000000,
2.520000 -5.830000 0.000000,
-2.465000 -5.885000 -0.000000,
2.465000 -5.885000 0.000000,
-2.390000 -5.905000 -0.000000,
2.390000 -5.905000 0.000000,
-2.390000 5.905000 -0.000000,
0.464000 -6.730000 -0.265000,
-0.464000 -6.730000 -0.265000,
-0.464000 6.730000 -0.265000,
0.464000 6.730000 -0.265000,
-0.464000 6.555000 -0.265000,
-0.464000 -6.555000 -0.265000,
0.464000 6.555000 -0.265000,
0.464000 -6.555000 -0.265000,
1.188000 -6.555000 -1.229000,
1.188000 -6.555000 -0.265000,
1.188000 6.555000 -0.265000,
1.188000 6.555000 -1.229000,
1.188000 6.111000 -3.952000,
1.188000 6.555000 -3.519000,
1.188000 6.111000 -0.265000,
1.188000 -6.555000 -3.519000,
1.188000 -6.111000 -3.952000,
1.188000 -6.111000 -0.265000,
3.110000 -6.111000 -0.265000,
3.110000 6.111000 -0.265000,
-1.188000 -6.555000 -0.265000,
-1.188000 -6.555000 -1.229000,
-1.188000 6.555000 -1.229000,
-1.188000 6.555000 -0.265000,
-1.188000 6.555000 -3.519000,
-1.188000 6.111000 -3.952000,
-1.188000 6.111000 -0.265000,
-1.188000 -6.111000 -3.952000,
-1.188000 -6.555000 -3.519000,
-1.188000 -6.111000 -0.265000,
-3.110000 -6.111000 -0.265000,
-3.110000 6.111000 -0.265000,
-4.489000 -7.834000 0.980000,
4.489000 -7.834000 0.980000,
2.390000 -5.905000 0.980000,
-2.390000 -5.905000 0.980000,
-2.465000 -5.885000 0.980000,
-2.520000 -5.830000 0.980000,
-2.540000 -5.755000 0.980000,
-2.540000 5.755000 0.980000,
-4.489000 7.834000 0.980000,
4.489000 7.834000 0.980000,
2.540000 5.755000 0.980000,
2.540000 -5.755000 0.980000,
2.520000 -5.830000 0.980000,
2.465000 -5.885000 0.980000,
-2.465000 5.885000 0.980000,
-2.390000 5.905000 0.980000,
2.390000 5.905000 0.980000,
2.465000 5.885000 0.980000,
2.520000 5.830000 0.980000,
-2.520000 5.830000 0.980000,
-4.725000 -8.070000 0.715000,
4.725000 -8.070000 0.715000,
4.725000 8.070000 0.715000,
-4.725000 8.070000 0.715000,
-1.560000 6.111000 -5.362000,
-1.560000 6.111000 -7.567000,
1.560000 6.111000 -5.362000,
1.560000 6.111000 -7.567000,
-2.376000 5.670000 -10.026000,
-2.376000 5.670000 -10.905000,
-1.550000 5.670000 -10.905000,
1.550000 5.670000 -10.026000,
1.550000 5.670000 -10.905000,
2.376000 5.670000 -10.905000,
2.376000 5.670000 -10.026000,
-1.550000 5.670000 -10.026000,
-1.760000 1.239000 -12.050000,
-1.760000 -0.000000 -12.050000,
-1.029000 2.300000 -12.050000,
-0.594000 1.865000 -12.050000,
0.000000 1.706000 -12.050000,
0.831000 1.675000 -12.050000,
0.917000 1.589000 -12.050000,
0.948000 1.472000 -12.050000,
0.917000 1.356000 -12.050000,
0.831000 1.270000 -12.050000,
0.714000 1.239000 -12.050000,
1.757000 4.807000 -12.050000,
-1.188000 4.807000 -12.050000,
-1.188000 2.894000 -12.050000,
1.757000 -0.000000 -12.050000,
0.714000 1.706000 -12.050000,
-2.050000 3.100000 -9.495000,
2.050000 3.100000 -9.495000,
1.757000 4.807000 -11.820000,
-1.188000 4.807000 -11.820000,
-1.188000 2.894000 -11.820000,
-2.050000 2.039000 -9.495000,
2.050000 2.039000 -9.495000,
-1.760000 1.239000 -11.820000,
-1.760000 -0.000000 -11.820000,
0.714000 1.239000 -11.820000,
0.000000 1.706000 -11.820000,
0.714000 1.706000 -11.820000,
0.948000 1.472000 -11.820000,
0.917000 1.356000 -11.820000,
0.831000 1.675000 -11.820000,
0.831000 1.270000 -11.820000,
0.917000 1.589000 -11.820000,
1.757000 -0.000000 -11.820000,
-1.029000 2.300000 -11.820000,
-0.594000 1.865000 -11.820000,
-1.550000 5.939000 -10.026000,
-2.376000 5.939000 -10.026000,
2.376000 5.939000 -10.026000,
1.550000 5.939000 -10.026000,
-1.560000 6.340000 -6.628000,
-1.560000 6.670000 -4.500000,
-1.560000 6.269000 -4.700000,
-1.560000 6.340000 -7.302000,
-1.560000 7.620000 -2.174000,
-1.560000 7.684000 -1.929000,
-1.560000 7.329000 -2.024000,
-1.560000 7.678000 -1.849000,
-1.560000 7.437000 -0.349000,
-1.560000 7.329000 -0.349000,
1.560000 6.340000 -6.628000,
1.560000 6.340000 -7.302000,
1.560000 6.269000 -4.700000,
1.560000 6.670000 -4.500000,
1.560000 7.678000 -1.849000,
1.560000 7.684000 -1.929000,
1.560000 7.329000 -2.024000,
1.560000 7.620000 -2.174000,
1.560000 7.329000 -0.349000,
1.560000 7.437000 -0.349000,
-3.135000 7.423000 -0.000000,
3.135000 7.423000 0.000000,
3.135000 7.423000 -0.265000,
-3.135000 7.423000 -0.265000,
4.725000 8.070000 0.000000,
-4.725000 8.070000 -0.000000,
-2.376000 -5.670000 -10.905000,
-2.376000 -5.670000 -10.026000,
-1.550000 -5.670000 -10.026000,
1.550000 -5.670000 -10.905000,
1.550000 -5.670000 -10.026000,
2.376000 -5.670000 -10.026000,
2.376000 -5.670000 -10.905000,
-1.550000 -5.670000 -10.905000,
-1.760000 -1.239000 -12.050000,
-1.029000 -2.300000 -12.050000,
-1.188000 -2.894000 -12.050000,
-1.188000 -4.807000 -12.050000,
0.000000 -1.706000 -12.050000,
-0.594000 -1.865000 -12.050000,
0.917000 -1.356000 -12.050000,
0.948000 -1.472000 -12.050000,
0.917000 -1.589000 -12.050000,
0.831000 -1.675000 -12.050000,
0.714000 -1.706000 -12.050000,
0.831000 -1.270000 -12.050000,
1.757000 -4.807000 -12.050000,
0.714000 -1.239000 -12.050000,
-2.050000 -2.039000 -9.495000,
2.050000 -2.039000 -9.495000,
0.831000 -1.270000 -11.820000,
0.917000 -1.356000 -11.820000,
0.714000 -1.706000 -11.820000,
0.000000 -1.706000 -11.820000,
-1.760000 -1.239000 -11.820000,
0.714000 -1.239000 -11.820000,
0.948000 -1.472000 -11.820000,
0.917000 -1.589000 -11.820000,
0.831000 -1.675000 -11.820000,
-0.594000 -1.865000 -11.820000,
-1.029000 -2.300000 -11.820000,
-2.050000 -3.100000 -9.495000,
2.050000 -3.100000 -9.495000,
1.757000 -4.807000 -11.820000,
-1.188000 -4.807000 -11.820000,
-1.188000 -2.894000 -11.820000,
-1.560000 -6.340000 -6.628000,
-1.560000 -6.340000 -7.302000,
-1.560000 -6.111000 -7.567000,
-1.560000 -6.111000 -5.362000,
-1.560000 -6.269000 -4.700000,
-1.560000 -6.670000 -4.500000,
-1.560000 -7.678000 -1.849000,
-1.560000 -7.684000 -1.929000,
-1.560000 -7.329000 -2.024000,
-1.560000 -7.620000 -2.174000,
-1.560000 -7.329000 -0.349000,
-1.560000 -7.437000 -0.349000,
1.560000 -6.340000 -6.628000,
1.560000 -6.670000 -4.500000,
1.560000 -6.269000 -4.700000,
1.560000 -6.111000 -5.362000,
1.560000 -6.111000 -7.567000,
1.560000 -6.340000 -7.302000,
1.560000 -7.620000 -2.174000,
1.560000 -7.684000 -1.929000,
1.560000 -7.329000 -2.024000,
1.560000 -7.678000 -1.849000,
1.560000 -7.437000 -0.349000,
1.560000 -7.329000 -0.349000,
-3.135000 -7.423000 -0.265000,
3.135000 -7.423000 -0.265000,
3.135000 -7.423000 0.000000,
-3.135000 -7.423000 -0.000000,
-4.725000 -8.070000 -0.000000,
4.725000 -8.070000 0.000000,
-1.550000 -5.939000 -10.026000,
-2.376000 -5.939000 -10.026000,
2.376000 -5.939000 -10.026000,
1.550000 -5.939000 -10.026000,
3.260000 -7.390000 0.000000,
3.352000 -7.298000 0.000000,
3.385000 -7.173000 0.000000,
3.385000 7.173000 0.000000,
-3.385000 7.173000 -0.000000,
-3.385000 -7.173000 -0.000000,
-3.352000 -7.298000 -0.000000,
-3.260000 -7.390000 -0.000000,
-3.260000 7.390000 -0.000000,
-3.352000 7.298000 -0.000000,
3.352000 7.298000 0.000000,
3.260000 7.390000 0.000000,
-3.385000 7.173000 -0.265000,
-3.385000 -7.173000 -0.265000,
-3.260000 7.390000 -0.265000,
-3.352000 7.298000 -0.265000,
-3.352000 -7.298000 -0.265000,
-3.260000 -7.390000 -0.265000,
-3.260000 -5.579000 -3.507000,
-3.330000 -5.579000 -1.928000,
-3.330000 -5.579000 -0.265000,
-3.330000 -6.111000 -0.265000,
-3.330000 -6.111000 -1.928000,
-3.260000 -6.111000 -3.507000,
-3.260000 6.111000 -3.507000,
-3.330000 6.111000 -1.928000,
-3.330000 6.111000 -0.265000,
-3.330000 5.579000 -0.265000,
-3.330000 5.579000 -1.928000,
-3.260000 5.579000 -3.507000,
3.385000 7.173000 -0.265000,
3.330000 6.111000 -0.265000,
3.330000 -6.111000 -0.265000,
3.385000 -7.173000 -0.265000,
3.330000 -5.579000 -0.265000,
3.352000 -7.298000 -0.265000,
3.260000 -7.390000 -0.265000,
3.330000 5.579000 -0.265000,
3.260000 7.390000 -0.265000,
3.352000 7.298000 -0.265000,
3.330000 -5.579000 -1.928000,
3.260000 -5.579000 -3.507000,
3.260000 -6.111000 -3.507000,
3.330000 -6.111000 -1.928000,
3.330000 6.111000 -1.928000,
3.260000 6.111000 -3.507000,
3.330000 5.579000 -1.928000,
3.260000 5.579000 -3.507000,
1.757000 -4.807000 -11.750000,
1.757000 0.000000 -11.750000,
0.948000 -1.472000 -11.750000,
0.917000 -1.589000 -11.750000,
0.831000 -1.675000 -11.750000,
0.714000 -1.706000 -11.750000,
-0.308000 -1.747000 -11.750000,
-0.594000 -1.865000 -11.750000,
-0.840000 -2.054000 -11.750000,
-1.029000 -2.300000 -11.750000,
-1.148000 -2.587000 -11.750000,
-1.188000 -2.894000 -11.750000,
-1.188000 -4.807000 -11.750000,
1.757000 4.807000 -11.750000,
0.917000 1.589000 -11.750000,
0.948000 1.472000 -11.750000,
0.917000 1.356000 -11.750000,
0.831000 1.270000 -11.750000,
0.714000 1.239000 -11.750000,
-1.760000 0.000000 -11.750000,
-1.760000 -1.239000 -11.750000,
0.714000 -1.239000 -11.750000,
0.831000 -1.270000 -11.750000,
0.917000 -1.356000 -11.750000,
0.714000 1.706000 -11.750000,
0.831000 1.675000 -11.750000,
-1.029000 2.300000 -11.750000,
-0.840000 2.054000 -11.750000,
-0.594000 1.865000 -11.750000,
-0.308000 1.747000 -11.750000,
0.000000 1.706000 -11.750000,
-1.188000 2.894000 -11.750000,
-1.148000 2.587000 -11.750000,
-1.760000 1.239000 -11.750000,
0.000000 -1.706000 -11.750000,
-1.188000 4.807000 -11.750000,
0.714000 1.706000 -11.800000,
0.000000 1.706000 -11.800000,
-0.308000 1.747000 -11.800000,
-0.594000 1.865000 -11.800000,
-0.840000 2.054000 -11.800000,
0.000000 2.210000 -11.800000,
0.831000 1.675000 -11.800000,
0.948000 -1.472000 -11.800000,
0.917000 -1.356000 -11.800000,
1.757000 0.000000 -11.800000,
0.831000 -1.270000 -11.800000,
-1.760000 0.000000 -11.800000,
0.714000 -1.239000 -11.800000,
-1.760000 -1.239000 -11.800000,
-0.669000 2.487000 -11.800000,
-0.473000 2.337000 -11.800000,
-1.029000 2.300000 -11.800000,
-0.245000 2.242000 -11.800000,
-0.945000 3.110000 -11.800000,
-0.914000 2.911000 -11.800000,
-1.188000 2.894000 -11.800000,
-0.819000 2.683000 -11.800000,
-1.148000 2.587000 -11.800000,
1.757000 4.807000 -11.800000,
0.945000 4.605000 -11.800000,
-1.188000 4.807000 -11.800000,
-0.945000 4.605000 -11.800000,
-0.945000 4.295000 -11.800000,
1.757000 -4.807000 -11.800000,
-1.188000 -4.807000 -11.800000,
-0.945000 -4.605000 -11.800000,
0.945000 -4.605000 -11.800000,
0.945000 -4.295000 -11.800000,
0.945000 -3.110000 -11.800000,
0.914000 -2.911000 -11.800000,
0.819000 -2.683000 -11.800000,
0.714000 -1.706000 -11.800000,
0.831000 -1.675000 -11.800000,
0.917000 -1.589000 -11.800000,
-0.819000 -2.683000 -11.800000,
-0.914000 -2.911000 -11.800000,
-1.188000 -2.894000 -11.800000,
-0.945000 -3.110000 -11.800000,
-0.945000 -4.295000 -11.800000,
-1.148000 -2.587000 -11.800000,
-1.029000 -2.300000 -11.800000,
-0.473000 -2.337000 -11.800000,
-0.669000 -2.487000 -11.800000,
-0.308000 -1.747000 -11.800000,
0.473000 -2.337000 -11.800000,
-0.594000 -1.865000 -11.800000,
0.245000 -2.242000 -11.800000,
-0.840000 -2.054000 -11.800000,
0.000000 -2.210000 -11.800000,
-0.245000 -2.242000 -11.800000,
0.000000 -1.706000 -11.800000,
0.669000 -2.487000 -11.800000,
-1.760000 1.239000 -11.800000,
0.714000 1.239000 -11.800000,
0.831000 1.270000 -11.800000,
0.917000 1.356000 -11.800000,
0.948000 1.472000 -11.800000,
0.917000 1.589000 -11.800000,
0.669000 2.487000 -11.800000,
0.819000 2.683000 -11.800000,
0.914000 2.911000 -11.800000,
0.945000 3.110000 -11.800000,
0.945000 4.295000 -11.800000,
0.473000 2.337000 -11.800000,
0.245000 2.242000 -11.800000,
-0.945000 -4.295000 -11.878000,
0.945000 -4.295000 -11.878000,
0.235000 -4.295000 -12.588000,
0.122000 -4.295000 -12.541000,
0.000000 -4.295000 -12.525000,
-0.122000 -4.295000 -12.541000,
-0.235000 -4.295000 -12.588000,
-0.332000 -4.295000 -12.663000,
-0.407000 -4.295000 -12.760000,
-0.454000 -4.295000 -12.873000,
-0.470000 -4.295000 -12.995000,
-0.473000 -4.295000 -13.813000,
-0.669000 -4.295000 -13.663000,
-0.819000 -4.295000 -13.467000,
-0.914000 -4.295000 -13.239000,
-0.945000 -4.295000 -13.040000,
0.332000 -4.295000 -12.663000,
0.914000 -4.295000 -13.239000,
0.407000 -4.295000 -12.760000,
0.819000 -4.295000 -13.467000,
0.454000 -4.295000 -12.873000,
0.669000 -4.295000 -13.663000,
0.470000 -4.295000 -12.995000,
0.473000 -4.295000 -13.813000,
0.454000 -4.295000 -13.117000,
0.245000 -4.295000 -13.908000,
0.407000 -4.295000 -13.230000,
0.332000 -4.295000 -13.327000,
-0.454000 -4.295000 -13.117000,
-0.407000 -4.295000 -13.230000,
-0.332000 -4.295000 -13.327000,
-0.245000 -4.295000 -13.908000,
-0.235000 -4.295000 -13.402000,
-0.122000 -4.295000 -13.449000,
0.000000 -4.295000 -13.940000,
0.000000 -4.295000 -13.465000,
0.122000 -4.295000 -13.449000,
0.235000 -4.295000 -13.402000,
0.945000 -4.295000 -13.040000,
-0.473000 -4.605000 -13.813000,
-0.245000 -4.605000 -13.908000,
-0.332000 -4.605000 -13.327000,
-0.407000 -4.605000 -13.230000,
-0.454000 -4.605000 -13.117000,
-0.470000 -4.605000 -12.995000,
-0.669000 -4.605000 -13.663000,
0.122000 -4.605000 -13.449000,
0.000000 -4.605000 -13.465000,
0.000000 -4.605000 -13.940000,
-0.122000 -4.605000 -13.449000,
-0.235000 -4.605000 -13.402000,
0.407000 -4.605000 -13.230000,
0.332000 -4.605000 -13.327000,
0.245000 -4.605000 -13.908000,
0.235000 -4.605000 -13.402000,
0.000000 -4.605000 -12.525000,
0.122000 -4.605000 -12.541000,
0.235000 -4.605000 -12.588000,
0.945000 -4.605000 -13.040000,
0.332000 -4.605000 -12.663000,
0.914000 -4.605000 -13.239000,
0.407000 -4.605000 -12.760000,
0.819000 -4.605000 -13.467000,
0.454000 -4.605000 -12.873000,
0.669000 -4.605000 -13.663000,
0.470000 -4.605000 -12.995000,
0.473000 -4.605000 -13.813000,
0.454000 -4.605000 -13.117000,
-0.945000 -4.605000 -13.040000,
-0.914000 -4.605000 -13.239000,
-0.819000 -4.605000 -13.467000,
-0.454000 -4.605000 -12.873000,
-0.407000 -4.605000 -12.760000,
-0.332000 -4.605000 -12.663000,
-0.235000 -4.605000 -12.588000,
-0.122000 -4.605000 -12.541000,
0.235000 4.605000 -12.588000,
0.122000 4.605000 -12.541000,
0.000000 4.605000 -12.525000,
-0.122000 4.605000 -12.541000,
-0.235000 4.605000 -12.588000,
-0.332000 4.605000 -12.663000,
-0.407000 4.605000 -12.760000,
-0.454000 4.605000 -12.873000,
-0.470000 4.605000 -12.995000,
-0.473000 4.605000 -13.813000,
-0.669000 4.605000 -13.663000,
-0.819000 4.605000 -13.467000,
-0.914000 4.605000 -13.239000,
-0.945000 4.605000 -13.040000,
0.332000 4.605000 -12.663000,
0.914000 4.605000 -13.239000,
0.407000 4.605000 -12.760000,
0.819000 4.605000 -13.467000,
0.454000 4.605000 -12.873000,
0.669000 4.605000 -13.663000,
0.470000 4.605000 -12.995000,
0.473000 4.605000 -13.813000,
0.454000 4.605000 -13.117000,
0.245000 4.605000 -13.908000,
0.407000 4.605000 -13.230000,
0.332000 4.605000 -13.327000,
-0.454000 4.605000 -13.117000,
-0.407000 4.605000 -13.230000,
-0.332000 4.605000 -13.327000,
-0.245000 4.605000 -13.908000,
-0.235000 4.605000 -13.402000,
-0.122000 4.605000 -13.449000,
0.000000 4.605000 -13.940000,
0.000000 4.605000 -13.465000,
0.122000 4.605000 -13.449000,
0.235000 4.605000 -13.402000,
0.945000 4.605000 -13.040000,
-0.473000 4.295000 -13.813000,
-0.245000 4.295000 -13.908000,
-0.332000 4.295000 -13.327000,
-0.407000 4.295000 -13.230000,
-0.454000 4.295000 -13.117000,
-0.470000 4.295000 -12.995000,
-0.945000 4.295000 -11.878000,
-0.669000 4.295000 -13.663000,
0.122000 4.295000 -13.449000,
0.000000 4.295000 -13.465000,
0.000000 4.295000 -13.940000,
-0.122000 4.295000 -13.449000,
-0.235000 4.295000 -13.402000,
0.407000 4.295000 -13.230000,
0.332000 4.295000 -13.327000,
0.245000 4.295000 -13.908000,
0.235000 4.295000 -13.402000,
0.454000 4.295000 -13.117000,
0.473000 4.295000 -13.813000,
0.470000 4.295000 -12.995000,
0.669000 4.295000 -13.663000,
0.454000 4.295000 -12.873000,
0.819000 4.295000 -13.467000,
0.407000 4.295000 -12.760000,
0.914000 4.295000 -13.239000,
0.332000 4.295000 -12.663000,
0.945000 4.295000 -13.040000,
0.235000 4.295000 -12.588000,
0.945000 4.295000 -11.878000,
-0.945000 4.295000 -13.040000,
-0.914000 4.295000 -13.239000,
-0.819000 4.295000 -13.467000,
-0.454000 4.295000 -12.873000,
-0.407000 4.295000 -12.760000,
-0.332000 4.295000 -12.663000,
-0.235000 4.295000 -12.588000,
-0.122000 4.295000 -12.541000,
0.000000 4.295000 -12.525000,
0.122000 4.295000 -12.541000,
0.000000 2.210000 -11.878000,
-0.245000 2.242000 -11.878000,
0.245000 2.242000 -11.878000,
-0.473000 2.337000 -11.878000,
0.473000 2.337000 -11.878000,
0.000000 2.371000 -11.878000,
0.215000 2.399000 -11.878000,
-0.801000 3.415000 -11.878000,
-0.829000 3.200000 -11.878000,
-0.945000 3.110000 -11.878000,
-0.801000 2.985000 -11.878000,
-0.914000 2.911000 -11.878000,
-0.718000 2.785000 -11.878000,
-0.819000 2.683000 -11.878000,
-0.586000 2.614000 -11.878000,
-0.669000 2.487000 -11.878000,
-0.415000 2.482000 -11.878000,
-0.215000 2.399000 -11.878000,
-0.415000 3.918000 -11.878000,
-0.586000 3.786000 -11.878000,
-0.718000 3.615000 -11.878000,
0.586000 3.786000 -11.878000,
0.415000 3.918000 -11.878000,
0.215000 4.001000 -11.878000,
0.000000 4.029000 -11.878000,
-0.215000 4.001000 -11.878000,
0.829000 3.200000 -11.878000,
0.945000 3.110000 -11.878000,
0.801000 2.985000 -11.878000,
0.914000 2.911000 -11.878000,
0.718000 2.785000 -11.878000,
0.819000 2.683000 -11.878000,
0.586000 2.614000 -11.878000,
0.669000 2.487000 -11.878000,
0.415000 2.482000 -11.878000,
0.718000 3.615000 -11.878000,
0.801000 3.415000 -11.878000,
-0.945000 -3.110000 -11.878000,
-0.829000 -3.200000 -11.878000,
-0.801000 -3.415000 -11.878000,
-0.718000 -3.615000 -11.878000,
-0.586000 -3.786000 -11.878000,
-0.415000 -3.918000 -11.878000,
-0.215000 -4.001000 -11.878000,
0.000000 -4.029000 -11.878000,
-0.215000 -2.399000 -11.878000,
-0.415000 -2.482000 -11.878000,
-0.669000 -2.487000 -11.878000,
-0.586000 -2.614000 -11.878000,
-0.819000 -2.683000 -11.878000,
-0.718000 -2.785000 -11.878000,
-0.914000 -2.911000 -11.878000,
-0.801000 -2.985000 -11.878000,
0.586000 -2.614000 -11.878000,
0.415000 -2.482000 -11.878000,
0.669000 -2.487000 -11.878000,
0.215000 -2.399000 -11.878000,
0.473000 -2.337000 -11.878000,
0.000000 -2.371000 -11.878000,
-0.473000 -2.337000 -11.878000,
0.215000 -4.001000 -11.878000,
0.415000 -3.918000 -11.878000,
0.586000 -3.786000 -11.878000,
0.718000 -3.615000 -11.878000,
0.801000 -3.415000 -11.878000,
0.829000 -3.200000 -11.878000,
0.945000 -3.110000 -11.878000,
0.819000 -2.683000 -11.878000,
0.718000 -2.785000 -11.878000,
0.914000 -2.911000 -11.878000,
0.801000 -2.985000 -11.878000,
-0.245000 -2.242000 -11.878000,
0.000000 -2.210000 -11.878000,
0.245000 -2.242000 -11.878000,
0.000000 2.371000 -11.955000,
-0.215000 2.399000 -11.955000,
-0.415000 2.482000 -11.955000,
-0.586000 2.614000 -11.955000,
-0.718000 2.785000 -11.955000,
-0.801000 2.985000 -11.955000,
-0.829000 3.200000 -11.955000,
-0.801000 3.415000 -11.955000,
-0.718000 3.615000 -11.955000,
-0.586000 3.786000 -11.955000,
-0.415000 3.918000 -11.955000,
-0.215000 4.001000 -11.955000,
0.000000 4.029000 -11.955000,
0.215000 4.001000 -11.955000,
0.415000 3.918000 -11.955000,
0.586000 3.786000 -11.955000,
0.718000 3.615000 -11.955000,
0.801000 3.415000 -11.955000,
0.829000 3.200000 -11.955000,
0.801000 2.985000 -11.955000,
0.718000 2.785000 -11.955000,
0.586000 2.614000 -11.955000,
0.415000 2.482000 -11.955000,
0.215000 2.399000 -11.955000,
-0.215000 -2.399000 -11.955000,
0.000000 -2.371000 -11.955000,
0.215000 -2.399000 -11.955000,
0.415000 -2.482000 -11.955000,
0.586000 -2.614000 -11.955000,
0.718000 -2.785000 -11.955000,
0.801000 -2.985000 -11.955000,
0.829000 -3.200000 -11.955000,
0.801000 -3.415000 -11.955000,
0.718000 -3.615000 -11.955000,
0.586000 -3.786000 -11.955000,
0.415000 -3.918000 -11.955000,
0.215000 -4.001000 -11.955000,
0.000000 -4.029000 -11.955000,
-0.215000 -4.001000 -11.955000,
-0.415000 -3.918000 -11.955000,
-0.586000 -3.786000 -11.955000,
-0.718000 -3.615000 -11.955000,
-0.801000 -3.415000 -11.955000,
-0.829000 -3.200000 -11.955000,
-0.801000 -2.985000 -11.955000,
-0.718000 -2.785000 -11.955000,
-0.586000 -2.614000 -11.955000,
-0.415000 -2.482000 -11.955000,
2.540000 5.905000 0.000000,
2.540000 3.810000 2.944000,
2.540000 -1.020000 1.738000,
2.540000 -5.671000 0.999000,
2.540000 -5.755000 0.967000,
2.540000 -5.865000 0.857000,
2.540000 -5.905000 0.707000,
2.540000 -5.905000 0.000000,
2.540000 3.716000 3.030000,
2.540000 3.566000 3.070000,
2.540000 3.500000 3.063000,
-2.540000 5.905000 -0.000000,
-2.540000 -5.905000 -0.000000,
-2.540000 -5.905000 0.707000,
-2.540000 -5.865000 0.857000,
-2.540000 -5.755000 0.967000,
-2.540000 -5.671000 0.999000,
-2.540000 -1.020000 1.738000,
-2.540000 3.810000 2.944000,
-2.540000 3.716000 3.030000,
-2.540000 3.500000 3.063000,
-2.540000 3.566000 3.070000,
] } coordIndex [
0,1,2,-1,
0,2,3,-1,
0,3,4,-1,
0,4,5,-1,
6,7,8,-1,
6,8,2,-1,
6,2,1,-1,
8,7,9,-1,
8,9,10,-1,
8,10,11,-1,
12,13,14,-1,
12,14,15,-1,
12,15,16,-1,
12,16,17,-1,
18,19,20,-1,
20,19,21,-1,
20,21,16,-1,
16,21,17,-1,
22,23,18,-1,
22,18,20,-1,
24,25,26,-1,
26,25,27,-1,
26,27,28,-1,
28,27,29,-1,
28,29,30,-1,
31,32,33,-1,
33,32,34,-1,
33,34,35,-1,
35,34,36,-1,
35,36,37,-1,
37,36,38,-1,
37,38,39,-1,
39,38,40,-1,
39,40,41,-1,
42,39,41,-1,
42,41,33,-1,
42,33,35,-1,
38,36,43,-1,
38,43,32,-1,
38,32,31,-1,
24,15,3,-1,
3,15,14,-1,
3,14,4,-1,
4,14,31,-1,
4,31,33,-1,
26,28,44,-1,
24,26,15,-1,
45,46,47,-1,
45,47,48,-1,
45,48,49,-1,
45,49,50,-1,
51,52,53,-1,
53,52,54,-1,
53,54,49,-1,
49,54,50,-1,
55,56,51,-1,
55,51,53,-1,
57,58,59,-1,
57,59,60,-1,
57,60,61,-1,
57,61,62,-1,
63,64,65,-1,
63,65,59,-1,
63,59,58,-1,
65,64,66,-1,
65,66,67,-1,
65,67,68,-1,
69,70,71,-1,
71,70,72,-1,
71,72,73,-1,
73,72,74,-1,
73,74,75,-1,
76,77,78,-1,
78,77,79,-1,
78,79,80,-1,
80,79,81,-1,
80,81,82,-1,
82,81,83,-1,
82,83,84,-1,
84,83,85,-1,
84,85,86,-1,
87,84,86,-1,
87,86,78,-1,
87,78,80,-1,
83,81,88,-1,
83,88,77,-1,
83,77,76,-1,
69,48,60,-1,
60,48,47,-1,
60,47,61,-1,
61,47,76,-1,
61,76,78,-1,
71,73,89,-1,
69,71,48,-1,
90,91,92,-1,
90,92,93,-1,
94,95,96,-1,
94,96,97,-1,
98,99,100,-1,
100,99,101,-1,
100,101,102,-1,
102,101,103,-1,
102,103,104,-1,
104,103,105,-1,
104,105,106,-1,
106,105,107,-1,
106,107,108,-1,
108,107,109,-1,
108,109,110,-1,
110,109,111,-1,
110,111,112,-1,
99,98,113,-1,
92,114,115,-1,
92,115,93,-1,
94,116,117,-1,
94,117,95,-1,
97,118,116,-1,
97,116,94,-1,
93,115,119,-1,
93,119,90,-1,
95,117,120,-1,
95,120,96,-1,
91,121,114,-1,
91,114,92,-1,
122,123,121,-1,
122,121,91,-1,
96,120,124,-1,
96,124,125,-1,
126,127,125,-1,
126,125,124,-1,
126,124,128,-1,
122,129,130,-1,
122,130,131,-1,
122,131,123,-1,
131,130,26,-1,
131,26,44,-1,
131,44,132,-1,
126,128,133,-1,
126,133,25,-1,
126,25,24,-1,
90,119,134,-1,
90,134,135,-1,
136,137,118,-1,
136,118,97,-1,
136,138,139,-1,
136,139,140,-1,
136,140,137,-1,
141,142,135,-1,
141,135,134,-1,
141,134,143,-1,
141,143,144,-1,
141,144,70,-1,
141,70,69,-1,
140,139,71,-1,
140,71,89,-1,
140,89,145,-1,
146,147,148,-1,
146,148,149,-1,
146,149,150,-1,
146,150,151,-1,
146,151,152,-1,
146,152,153,-1,
146,153,154,-1,
147,155,156,-1,
147,156,157,-1,
147,157,158,-1,
147,158,159,-1,
147,159,148,-1,
155,154,160,-1,
155,160,161,-1,
155,161,162,-1,
155,162,163,-1,
155,163,164,-1,
155,164,156,-1,
165,160,154,-1,
165,154,153,-1,
147,146,166,-1,
147,166,167,-1,
154,155,168,-1,
154,168,169,-1,
151,150,109,-1,
151,109,107,-1,
150,149,111,-1,
150,111,109,-1,
149,148,112,-1,
149,112,111,-1,
148,159,110,-1,
148,110,112,-1,
152,151,107,-1,
152,107,105,-1,
159,158,108,-1,
159,108,110,-1,
158,157,106,-1,
158,106,108,-1,
157,156,104,-1,
157,104,106,-1,
156,164,102,-1,
156,102,104,-1,
164,163,100,-1,
164,100,102,-1,
163,162,98,-1,
163,98,100,-1,
162,161,113,-1,
162,113,98,-1,
153,152,105,-1,
153,105,103,-1,
161,160,99,-1,
161,99,113,-1,
160,165,101,-1,
160,101,99,-1,
165,153,103,-1,
165,103,101,-1,
48,71,170,-1,
170,71,139,-1,
170,139,171,-1,
171,139,126,-1,
171,126,172,-1,
172,126,24,-1,
172,24,3,-1,
171,172,173,-1,
83,76,174,-1,
83,174,175,-1,
83,175,176,-1,
83,176,177,-1,
83,177,178,-1,
83,178,179,-1,
83,179,41,-1,
76,33,180,-1,
76,180,177,-1,
76,177,181,-1,
76,181,174,-1,
33,41,179,-1,
33,179,180,-1,
181,177,176,-1,
182,183,85,-1,
182,85,184,-1,
182,184,185,-1,
182,185,186,-1,
182,186,187,-1,
182,187,188,-1,
182,188,189,-1,
182,189,190,-1,
182,190,191,-1,
182,191,192,-1,
41,193,83,-1,
83,193,194,-1,
83,194,85,-1,
85,194,195,-1,
85,195,184,-1,
193,41,40,-1,
193,40,196,-1,
187,186,197,-1,
198,77,88,-1,
39,42,199,-1,
200,201,194,-1,
200,194,193,-1,
195,194,201,-1,
195,201,202,-1,
79,203,81,-1,
37,204,35,-1,
183,182,205,-1,
183,205,206,-1,
182,192,207,-1,
182,207,205,-1,
208,209,197,-1,
208,197,186,-1,
210,211,190,-1,
210,190,189,-1,
209,212,187,-1,
209,187,197,-1,
213,207,192,-1,
213,192,191,-1,
212,214,188,-1,
212,188,187,-1,
214,210,189,-1,
214,189,188,-1,
211,213,191,-1,
211,191,190,-1,
215,200,193,-1,
215,193,196,-1,
185,184,216,-1,
185,216,217,-1,
217,208,186,-1,
217,186,185,-1,
77,198,203,-1,
77,203,79,-1,
199,42,35,-1,
199,35,204,-1,
39,199,204,-1,
39,204,37,-1,
198,88,81,-1,
198,81,203,-1,
202,216,184,-1,
202,184,195,-1,
33,76,47,-1,
33,47,171,-1,
33,171,173,-1,
33,173,4,-1,
176,218,181,-1,
175,174,219,-1,
181,218,219,-1,
181,219,174,-1,
218,176,175,-1,
218,175,219,-1,
179,220,180,-1,
178,177,221,-1,
180,220,221,-1,
180,221,177,-1,
220,179,178,-1,
220,178,221,-1,
138,127,126,-1,
138,126,139,-1,
138,136,97,-1,
138,97,96,-1,
138,96,125,-1,
138,125,127,-1,
222,223,224,-1,
222,224,170,-1,
222,170,171,-1,
222,171,225,-1,
226,227,228,-1,
226,228,224,-1,
226,224,223,-1,
228,227,229,-1,
228,229,230,-1,
228,230,231,-1,
228,231,55,-1,
228,55,53,-1,
231,230,56,-1,
231,56,55,-1,
226,223,50,-1,
226,50,54,-1,
227,226,54,-1,
227,54,52,-1,
229,227,52,-1,
229,52,51,-1,
230,229,51,-1,
230,51,56,-1,
53,49,224,-1,
53,224,228,-1,
232,233,173,-1,
232,173,172,-1,
232,172,234,-1,
232,234,235,-1,
236,237,238,-1,
238,237,239,-1,
238,239,234,-1,
234,239,235,-1,
240,241,236,-1,
240,236,238,-1,
8,11,240,-1,
8,240,238,-1,
11,10,241,-1,
11,241,240,-1,
235,239,6,-1,
235,6,1,-1,
7,6,239,-1,
7,239,237,-1,
9,7,237,-1,
9,237,236,-1,
10,9,236,-1,
10,236,241,-1,
242,243,244,-1,
242,244,245,-1,
246,247,169,-1,
246,169,168,-1,
238,234,2,-1,
238,2,8,-1,
223,222,45,-1,
223,45,50,-1,
170,224,49,-1,
170,49,48,-1,
225,171,47,-1,
225,47,46,-1,
46,45,222,-1,
46,222,225,-1,
1,0,232,-1,
1,232,235,-1,
3,2,234,-1,
3,234,172,-1,
173,233,5,-1,
173,5,4,-1,
233,232,0,-1,
233,0,5,-1,
78,86,248,-1,
78,248,249,-1,
78,249,250,-1,
78,250,251,-1,
78,251,252,-1,
78,252,253,-1,
78,253,31,-1,
86,38,254,-1,
86,254,251,-1,
86,251,255,-1,
86,255,248,-1,
38,31,253,-1,
38,253,254,-1,
255,251,250,-1,
86,85,256,-1,
86,256,257,-1,
86,257,258,-1,
86,258,259,-1,
86,259,38,-1,
260,261,262,-1,
260,262,263,-1,
260,263,264,-1,
260,264,265,-1,
260,265,266,-1,
261,257,256,-1,
261,256,267,-1,
261,267,262,-1,
38,259,268,-1,
38,268,196,-1,
38,196,40,-1,
267,256,269,-1,
256,85,183,-1,
270,80,82,-1,
36,34,271,-1,
272,273,262,-1,
272,262,267,-1,
274,275,260,-1,
274,260,266,-1,
276,277,269,-1,
276,269,256,-1,
277,272,267,-1,
277,267,269,-1,
273,278,263,-1,
273,263,262,-1,
278,279,264,-1,
278,264,263,-1,
279,280,265,-1,
279,265,264,-1,
280,274,266,-1,
280,266,265,-1,
206,276,256,-1,
206,256,183,-1,
257,261,281,-1,
257,281,282,-1,
275,281,261,-1,
275,261,260,-1,
87,283,84,-1,
43,284,32,-1,
208,217,209,-1,
209,217,216,-1,
209,216,212,-1,
212,216,202,-1,
212,202,201,-1,
278,273,215,-1,
215,273,272,-1,
215,272,206,-1,
206,272,277,-1,
206,277,276,-1,
285,286,287,-1,
285,287,282,-1,
285,282,281,-1,
285,281,275,-1,
285,275,274,-1,
285,274,280,-1,
285,280,279,-1,
285,279,278,-1,
285,278,215,-1,
215,206,205,-1,
215,205,207,-1,
215,207,213,-1,
215,213,211,-1,
215,211,210,-1,
215,210,214,-1,
215,214,200,-1,
201,200,214,-1,
201,214,212,-1,
259,258,287,-1,
259,287,286,-1,
286,285,268,-1,
286,268,259,-1,
285,215,196,-1,
285,196,268,-1,
80,270,283,-1,
80,283,87,-1,
271,34,32,-1,
271,32,284,-1,
36,271,284,-1,
36,284,43,-1,
270,82,84,-1,
270,84,283,-1,
282,287,258,-1,
282,258,257,-1,
141,130,129,-1,
141,129,142,-1,
142,129,91,-1,
142,91,90,-1,
142,90,135,-1,
91,129,122,-1,
288,289,290,-1,
288,290,291,-1,
288,291,292,-1,
288,292,293,-1,
294,295,296,-1,
296,295,297,-1,
296,297,292,-1,
292,297,293,-1,
298,299,294,-1,
298,294,296,-1,
65,68,298,-1,
65,298,296,-1,
299,298,68,-1,
299,68,67,-1,
294,299,67,-1,
294,67,66,-1,
295,294,66,-1,
295,66,64,-1,
297,295,64,-1,
297,64,63,-1,
293,297,63,-1,
293,63,58,-1,
296,292,59,-1,
296,59,65,-1,
300,301,302,-1,
300,302,303,-1,
300,303,304,-1,
300,304,305,-1,
306,307,308,-1,
306,308,302,-1,
306,302,301,-1,
308,307,309,-1,
308,309,310,-1,
308,310,311,-1,
308,311,22,-1,
308,22,20,-1,
23,22,311,-1,
23,311,310,-1,
18,23,310,-1,
18,310,309,-1,
19,18,309,-1,
19,309,307,-1,
21,19,307,-1,
21,307,306,-1,
306,301,17,-1,
306,17,21,-1,
312,313,314,-1,
312,314,315,-1,
316,317,167,-1,
316,167,166,-1,
302,308,20,-1,
302,20,16,-1,
304,130,290,-1,
290,130,141,-1,
290,141,291,-1,
291,141,69,-1,
291,69,60,-1,
130,304,303,-1,
130,303,15,-1,
130,15,26,-1,
78,31,14,-1,
78,14,304,-1,
78,304,290,-1,
78,290,61,-1,
250,318,255,-1,
319,249,248,-1,
255,318,319,-1,
255,319,248,-1,
318,250,249,-1,
318,249,319,-1,
253,320,254,-1,
321,252,251,-1,
254,320,321,-1,
254,321,251,-1,
320,253,252,-1,
320,252,321,-1,
288,293,58,-1,
288,58,57,-1,
290,289,62,-1,
290,62,61,-1,
292,291,60,-1,
292,60,59,-1,
289,288,57,-1,
289,57,62,-1,
12,17,301,-1,
12,301,300,-1,
305,304,14,-1,
305,14,13,-1,
16,15,303,-1,
16,303,302,-1,
13,12,300,-1,
13,300,305,-1,
317,316,315,-1,
317,315,314,-1,
317,314,322,-1,
317,322,323,-1,
317,323,324,-1,
317,324,325,-1,
317,325,246,-1,
316,247,326,-1,
316,326,327,-1,
316,327,328,-1,
316,328,329,-1,
316,329,315,-1,
247,246,243,-1,
247,243,242,-1,
247,242,330,-1,
247,330,331,-1,
247,331,326,-1,
246,325,332,-1,
246,332,333,-1,
246,333,243,-1,
334,335,327,-1,
334,327,326,-1,
330,242,245,-1,
330,245,336,-1,
331,330,336,-1,
331,336,337,-1,
326,331,337,-1,
326,337,334,-1,
328,327,335,-1,
328,335,338,-1,
329,328,338,-1,
329,338,339,-1,
315,329,339,-1,
315,339,312,-1,
74,72,340,-1,
74,340,341,-1,
74,341,342,-1,
70,144,343,-1,
70,343,344,-1,
70,344,345,-1,
340,72,70,-1,
340,70,345,-1,
341,340,345,-1,
341,345,344,-1,
344,343,342,-1,
344,342,341,-1,
145,89,346,-1,
145,346,347,-1,
145,347,348,-1,
73,75,349,-1,
73,349,350,-1,
73,350,351,-1,
346,89,73,-1,
346,73,351,-1,
347,346,351,-1,
347,351,350,-1,
350,349,348,-1,
350,348,347,-1,
166,169,247,-1,
166,247,316,-1,
154,169,166,-1,
154,166,146,-1,
117,116,334,-1,
117,334,352,-1,
117,352,353,-1,
117,353,124,-1,
117,124,120,-1,
133,128,124,-1,
133,124,353,-1,
132,354,355,-1,
355,354,356,-1,
355,356,29,-1,
29,356,30,-1,
115,355,335,-1,
335,355,357,-1,
335,357,338,-1,
338,357,358,-1,
338,358,339,-1,
339,358,313,-1,
339,313,312,-1,
335,334,348,-1,
335,348,349,-1,
335,349,342,-1,
335,342,343,-1,
335,343,134,-1,
335,134,115,-1,
349,75,74,-1,
349,74,342,-1,
137,140,145,-1,
137,145,348,-1,
137,348,116,-1,
137,116,118,-1,
355,115,114,-1,
355,114,121,-1,
355,121,123,-1,
355,123,131,-1,
355,131,132,-1,
355,29,359,-1,
355,359,353,-1,
355,353,352,-1,
245,360,336,-1,
336,360,361,-1,
336,361,337,-1,
337,361,352,-1,
337,352,334,-1,
144,143,134,-1,
144,134,343,-1,
115,134,119,-1,
360,245,244,-1,
348,334,116,-1,
332,325,352,-1,
332,352,361,-1,
333,332,361,-1,
333,361,360,-1,
243,333,360,-1,
243,360,244,-1,
323,322,358,-1,
323,358,357,-1,
324,323,357,-1,
324,357,355,-1,
355,352,325,-1,
355,325,324,-1,
322,314,313,-1,
322,313,358,-1,
28,30,356,-1,
28,356,362,-1,
28,362,363,-1,
132,44,364,-1,
132,364,365,-1,
132,365,354,-1,
362,356,354,-1,
362,354,365,-1,
363,362,365,-1,
363,365,364,-1,
28,363,364,-1,
28,364,44,-1,
25,133,353,-1,
25,353,366,-1,
25,366,367,-1,
368,359,29,-1,
368,29,27,-1,
368,27,369,-1,
366,353,359,-1,
366,359,368,-1,
367,366,368,-1,
367,368,369,-1,
25,367,369,-1,
25,369,27,-1,
317,246,168,-1,
317,168,167,-1,
167,168,155,-1,
167,155,147,-1,
370,371,372,-1,
370,372,373,-1,
370,373,374,-1,
370,374,375,-1,
370,375,376,-1,
370,376,377,-1,
370,377,378,-1,
370,378,379,-1,
370,379,380,-1,
370,380,381,-1,
370,381,382,-1,
371,383,384,-1,
371,384,385,-1,
371,385,386,-1,
371,386,387,-1,
371,387,388,-1,
371,388,389,-1,
371,389,390,-1,
371,390,391,-1,
371,391,392,-1,
371,392,393,-1,
371,393,372,-1,
394,395,396,-1,
394,396,397,-1,
394,397,398,-1,
394,398,399,-1,
394,399,400,-1,
395,384,383,-1,
395,383,401,-1,
395,401,402,-1,
395,402,396,-1,
389,388,403,-1,
376,375,404,-1,
401,383,405,-1,
406,407,408,-1,
406,408,409,-1,
406,409,410,-1,
406,410,411,-1,
406,411,412,-1,
413,414,415,-1,
415,414,416,-1,
415,416,417,-1,
417,416,418,-1,
417,418,419,-1,
420,421,422,-1,
422,421,423,-1,
422,423,410,-1,
410,423,411,-1,
424,425,426,-1,
426,425,427,-1,
426,427,428,-1,
428,427,420,-1,
428,420,422,-1,
429,430,431,-1,
431,430,432,-1,
431,432,426,-1,
426,432,433,-1,
426,433,424,-1,
434,435,436,-1,
434,436,437,-1,
434,437,438,-1,
434,438,439,-1,
434,439,440,-1,
434,440,441,-1,
434,441,442,-1,
434,442,443,-1,
434,443,444,-1,
434,444,413,-1,
434,413,415,-1,
445,446,447,-1,
447,446,448,-1,
447,448,435,-1,
435,448,449,-1,
435,449,436,-1,
450,451,452,-1,
450,452,453,-1,
450,453,445,-1,
450,445,447,-1,
454,455,456,-1,
456,455,457,-1,
456,457,458,-1,
458,457,459,-1,
458,459,451,-1,
451,459,460,-1,
451,460,452,-1,
461,442,462,-1,
461,462,455,-1,
461,455,454,-1,
415,417,463,-1,
415,463,464,-1,
415,464,465,-1,
415,465,466,-1,
415,466,467,-1,
415,467,468,-1,
415,468,469,-1,
415,469,470,-1,
415,470,471,-1,
415,471,472,-1,
415,472,473,-1,
415,473,430,-1,
415,430,429,-1,
469,468,474,-1,
474,468,412,-1,
474,412,475,-1,
475,412,411,-1,
442,441,462,-1,
414,393,392,-1,
414,392,416,-1,
407,406,394,-1,
407,394,400,-1,
415,429,383,-1,
415,383,371,-1,
397,396,422,-1,
397,422,410,-1,
398,397,410,-1,
398,410,409,-1,
409,408,399,-1,
409,399,398,-1,
408,407,400,-1,
408,400,399,-1,
405,383,429,-1,
405,429,431,-1,
431,426,401,-1,
431,401,405,-1,
402,401,426,-1,
402,426,428,-1,
396,402,428,-1,
396,428,422,-1,
386,385,467,-1,
386,467,466,-1,
371,370,434,-1,
371,434,415,-1,
468,384,395,-1,
468,395,412,-1,
385,384,468,-1,
385,468,467,-1,
386,466,465,-1,
386,465,387,-1,
412,395,394,-1,
412,394,406,-1,
387,465,464,-1,
387,464,388,-1,
464,463,403,-1,
464,403,388,-1,
442,461,404,-1,
442,404,375,-1,
461,454,376,-1,
461,376,404,-1,
381,380,450,-1,
381,450,447,-1,
447,435,382,-1,
447,382,381,-1,
370,382,435,-1,
370,435,434,-1,
377,376,454,-1,
377,454,456,-1,
378,377,456,-1,
378,456,458,-1,
379,378,458,-1,
379,458,451,-1,
451,450,380,-1,
451,380,379,-1,
419,418,391,-1,
419,391,390,-1,
389,403,463,-1,
389,463,417,-1,
390,389,417,-1,
390,417,419,-1,
416,392,391,-1,
416,391,418,-1,
372,393,414,-1,
372,414,413,-1,
373,372,413,-1,
373,413,444,-1,
373,444,443,-1,
373,443,374,-1,
374,443,442,-1,
374,442,375,-1,
476,477,478,-1,
476,478,479,-1,
476,479,480,-1,
476,480,481,-1,
476,481,482,-1,
476,482,483,-1,
476,483,484,-1,
476,484,485,-1,
476,485,486,-1,
476,486,487,-1,
476,487,488,-1,
476,488,489,-1,
476,489,490,-1,
476,490,491,-1,
478,477,492,-1,
492,477,493,-1,
492,493,494,-1,
494,493,495,-1,
494,495,496,-1,
496,495,497,-1,
496,497,498,-1,
498,497,499,-1,
498,499,500,-1,
500,499,501,-1,
500,501,502,-1,
502,501,503,-1,
487,486,504,-1,
487,504,505,-1,
487,505,506,-1,
487,506,507,-1,
506,508,507,-1,
507,508,509,-1,
507,509,510,-1,
510,509,511,-1,
510,511,512,-1,
513,503,501,-1,
513,501,510,-1,
513,510,512,-1,
493,477,514,-1,
515,516,517,-1,
515,517,518,-1,
515,518,519,-1,
515,519,520,-1,
515,520,436,-1,
515,436,521,-1,
522,523,524,-1,
524,523,525,-1,
524,525,516,-1,
516,525,526,-1,
516,526,517,-1,
527,528,529,-1,
529,528,530,-1,
529,530,524,-1,
524,530,522,-1,
531,532,436,-1,
436,532,533,-1,
436,533,534,-1,
534,533,535,-1,
534,535,536,-1,
536,535,537,-1,
536,537,538,-1,
538,537,539,-1,
538,539,540,-1,
540,539,541,-1,
540,541,542,-1,
542,541,543,-1,
542,543,529,-1,
529,543,527,-1,
436,544,545,-1,
436,545,546,-1,
436,546,521,-1,
436,520,547,-1,
436,547,548,-1,
436,548,549,-1,
436,549,550,-1,
436,550,551,-1,
436,551,531,-1,
436,534,437,-1,
511,509,525,-1,
511,525,523,-1,
497,495,538,-1,
497,538,540,-1,
487,507,516,-1,
487,516,515,-1,
488,487,515,-1,
488,515,521,-1,
489,488,521,-1,
489,521,546,-1,
546,545,490,-1,
546,490,489,-1,
499,497,540,-1,
499,540,542,-1,
501,499,542,-1,
501,542,529,-1,
510,501,529,-1,
510,529,524,-1,
507,510,524,-1,
507,524,516,-1,
494,496,539,-1,
494,539,537,-1,
477,438,437,-1,
477,437,534,-1,
477,534,514,-1,
493,514,534,-1,
493,534,536,-1,
495,493,536,-1,
495,536,538,-1,
484,483,549,-1,
484,549,548,-1,
491,490,545,-1,
491,545,544,-1,
476,491,544,-1,
476,544,436,-1,
476,436,449,-1,
483,482,550,-1,
483,550,549,-1,
485,484,548,-1,
485,548,547,-1,
486,485,547,-1,
486,547,520,-1,
504,486,520,-1,
504,520,519,-1,
505,504,519,-1,
505,519,518,-1,
482,481,551,-1,
482,551,550,-1,
506,505,518,-1,
506,518,517,-1,
508,506,517,-1,
508,517,526,-1,
509,508,526,-1,
509,526,525,-1,
512,511,523,-1,
512,523,522,-1,
513,512,522,-1,
513,522,530,-1,
503,513,530,-1,
503,530,528,-1,
502,503,528,-1,
502,528,527,-1,
500,502,527,-1,
500,527,543,-1,
498,500,543,-1,
498,543,541,-1,
496,498,541,-1,
496,541,539,-1,
492,494,537,-1,
492,537,535,-1,
478,492,535,-1,
478,535,533,-1,
481,480,531,-1,
481,531,551,-1,
479,478,533,-1,
479,533,532,-1,
480,479,532,-1,
480,532,531,-1,
432,430,552,-1,
432,552,553,-1,
432,553,554,-1,
432,554,555,-1,
432,555,556,-1,
432,556,557,-1,
432,557,558,-1,
432,558,559,-1,
432,559,560,-1,
432,560,561,-1,
432,561,562,-1,
432,562,563,-1,
432,563,564,-1,
432,564,565,-1,
552,430,566,-1,
566,430,567,-1,
566,567,568,-1,
568,567,569,-1,
568,569,570,-1,
570,569,571,-1,
570,571,572,-1,
572,571,573,-1,
572,573,574,-1,
574,573,575,-1,
574,575,576,-1,
576,575,577,-1,
561,560,578,-1,
561,578,579,-1,
561,579,580,-1,
561,580,581,-1,
580,582,581,-1,
581,582,583,-1,
581,583,584,-1,
584,583,585,-1,
584,585,586,-1,
587,577,575,-1,
587,575,584,-1,
587,584,586,-1,
567,430,588,-1,
589,590,591,-1,
589,591,592,-1,
589,592,593,-1,
589,593,594,-1,
589,594,595,-1,
589,595,596,-1,
597,598,599,-1,
599,598,600,-1,
599,600,590,-1,
590,600,601,-1,
590,601,591,-1,
602,603,604,-1,
604,603,605,-1,
604,605,599,-1,
599,605,597,-1,
602,604,606,-1,
606,604,607,-1,
606,607,608,-1,
608,607,609,-1,
608,609,610,-1,
610,609,611,-1,
610,611,612,-1,
612,611,613,-1,
612,613,614,-1,
614,613,615,-1,
614,615,616,-1,
616,615,617,-1,
616,617,595,-1,
595,618,619,-1,
595,619,620,-1,
595,620,596,-1,
595,594,621,-1,
595,621,622,-1,
595,622,623,-1,
595,623,624,-1,
595,624,625,-1,
595,625,626,-1,
595,626,627,-1,
595,627,616,-1,
585,583,600,-1,
585,600,598,-1,
571,569,611,-1,
571,611,609,-1,
561,581,590,-1,
561,590,589,-1,
562,561,589,-1,
562,589,596,-1,
563,562,596,-1,
563,596,620,-1,
620,619,564,-1,
620,564,563,-1,
573,571,609,-1,
573,609,607,-1,
575,573,607,-1,
575,607,604,-1,
584,575,604,-1,
584,604,599,-1,
581,584,599,-1,
581,599,590,-1,
568,570,610,-1,
568,610,612,-1,
617,615,588,-1,
617,588,430,-1,
617,430,473,-1,
567,588,615,-1,
567,615,613,-1,
569,567,613,-1,
569,613,611,-1,
558,557,623,-1,
558,623,622,-1,
565,564,619,-1,
565,619,618,-1,
595,433,432,-1,
595,432,565,-1,
595,565,618,-1,
557,556,624,-1,
557,624,623,-1,
559,558,622,-1,
559,622,621,-1,
560,559,621,-1,
560,621,594,-1,
578,560,594,-1,
578,594,593,-1,
579,578,593,-1,
579,593,592,-1,
556,555,625,-1,
556,625,624,-1,
580,579,592,-1,
580,592,591,-1,
582,580,591,-1,
582,591,601,-1,
583,582,601,-1,
583,601,600,-1,
586,585,598,-1,
586,598,597,-1,
587,586,597,-1,
587,597,605,-1,
577,587,605,-1,
577,605,603,-1,
576,577,603,-1,
576,603,602,-1,
574,576,602,-1,
574,602,606,-1,
572,574,606,-1,
572,606,608,-1,
570,572,608,-1,
570,608,610,-1,
566,568,612,-1,
566,612,614,-1,
552,566,614,-1,
552,614,616,-1,
555,554,626,-1,
555,626,625,-1,
553,552,616,-1,
553,616,627,-1,
554,553,627,-1,
554,627,626,-1,
628,629,630,-1,
630,629,631,-1,
630,631,632,-1,
632,631,633,-1,
632,633,634,-1,
635,636,637,-1,
637,636,638,-1,
637,638,639,-1,
639,638,640,-1,
639,640,641,-1,
641,640,642,-1,
641,642,643,-1,
643,642,644,-1,
643,644,631,-1,
631,644,645,-1,
631,645,633,-1,
646,647,595,-1,
595,647,648,-1,
595,648,637,-1,
637,648,635,-1,
649,650,617,-1,
617,650,651,-1,
617,651,595,-1,
595,651,652,-1,
595,652,653,-1,
654,655,656,-1,
656,655,657,-1,
656,657,658,-1,
658,657,659,-1,
658,659,660,-1,
660,659,661,-1,
660,661,662,-1,
662,661,632,-1,
662,632,634,-1,
649,617,663,-1,
663,617,655,-1,
663,655,664,-1,
664,655,654,-1,
646,595,653,-1,
476,665,666,-1,
476,666,667,-1,
476,667,668,-1,
476,668,669,-1,
476,669,670,-1,
476,670,671,-1,
476,671,672,-1,
476,672,477,-1,
673,674,675,-1,
675,674,676,-1,
675,676,677,-1,
677,676,678,-1,
677,678,679,-1,
679,678,680,-1,
679,680,665,-1,
665,680,666,-1,
681,682,683,-1,
683,682,684,-1,
683,684,685,-1,
685,684,686,-1,
685,686,687,-1,
687,686,673,-1,
687,673,675,-1,
477,672,688,-1,
477,688,689,-1,
477,689,690,-1,
477,690,691,-1,
477,691,692,-1,
477,692,693,-1,
477,693,694,-1,
681,695,696,-1,
696,695,697,-1,
696,697,698,-1,
698,697,694,-1,
698,694,693,-1,
699,700,701,-1,
699,701,685,-1,
699,685,687,-1,
681,683,695,-1,
677,679,446,-1,
677,446,445,-1,
448,446,679,-1,
448,679,665,-1,
665,476,449,-1,
665,449,448,-1,
700,699,460,-1,
700,460,459,-1,
452,460,699,-1,
452,699,687,-1,
453,452,687,-1,
453,687,675,-1,
675,677,445,-1,
675,445,453,-1,
477,694,439,-1,
477,439,438,-1,
455,462,683,-1,
455,683,685,-1,
685,701,457,-1,
685,457,455,-1,
701,700,459,-1,
701,459,457,-1,
694,697,440,-1,
694,440,439,-1,
441,440,697,-1,
441,697,695,-1,
462,441,695,-1,
462,695,683,-1,
595,637,424,-1,
595,424,433,-1,
637,639,425,-1,
637,425,424,-1,
423,421,631,-1,
423,631,629,-1,
629,628,411,-1,
629,411,423,-1,
475,411,628,-1,
475,628,630,-1,
639,641,427,-1,
639,427,425,-1,
420,427,641,-1,
420,641,643,-1,
421,420,643,-1,
421,643,631,-1,
657,655,472,-1,
657,472,471,-1,
655,617,473,-1,
655,473,472,-1,
630,632,474,-1,
630,474,475,-1,
632,661,469,-1,
632,469,474,-1,
470,469,661,-1,
470,661,659,-1,
659,657,471,-1,
659,471,470,-1,
702,703,704,-1,
702,704,705,-1,
702,705,706,-1,
702,706,707,-1,
702,707,708,-1,
702,708,709,-1,
702,709,710,-1,
702,710,711,-1,
702,711,712,-1,
702,712,713,-1,
702,713,714,-1,
702,714,715,-1,
702,715,716,-1,
702,716,717,-1,
702,717,718,-1,
702,718,719,-1,
702,719,720,-1,
702,720,721,-1,
702,721,722,-1,
702,722,723,-1,
702,723,724,-1,
702,724,725,-1,
726,727,728,-1,
726,728,729,-1,
726,729,730,-1,
726,730,731,-1,
726,731,732,-1,
726,732,733,-1,
726,733,734,-1,
726,734,735,-1,
726,735,736,-1,
726,736,737,-1,
726,737,738,-1,
726,738,739,-1,
726,739,740,-1,
726,740,741,-1,
726,741,742,-1,
726,742,743,-1,
726,743,744,-1,
726,744,745,-1,
726,745,746,-1,
726,746,747,-1,
726,747,748,-1,
726,748,749,-1,
744,667,666,-1,
744,666,745,-1,
746,680,678,-1,
746,678,747,-1,
745,666,680,-1,
745,680,746,-1,
707,638,636,-1,
707,636,708,-1,
709,635,648,-1,
709,648,710,-1,
708,636,635,-1,
708,635,709,-1,
712,646,653,-1,
712,653,713,-1,
711,647,646,-1,
711,646,712,-1,
710,648,647,-1,
710,647,711,-1,
652,651,715,-1,
652,715,714,-1,
713,653,652,-1,
713,652,714,-1,
706,640,638,-1,
706,638,707,-1,
705,642,640,-1,
705,640,706,-1,
704,644,642,-1,
704,642,705,-1,
703,645,644,-1,
703,644,704,-1,
703,702,633,-1,
703,633,645,-1,
749,674,673,-1,
749,673,726,-1,
748,676,674,-1,
748,674,749,-1,
747,678,676,-1,
747,676,748,-1,
718,663,664,-1,
718,664,719,-1,
717,649,663,-1,
717,663,718,-1,
716,650,649,-1,
716,649,717,-1,
715,651,650,-1,
715,650,716,-1,
720,654,656,-1,
720,656,721,-1,
719,664,654,-1,
719,654,720,-1,
723,660,662,-1,
723,662,724,-1,
722,658,660,-1,
722,660,723,-1,
721,656,658,-1,
721,658,722,-1,
725,634,633,-1,
725,633,702,-1,
724,662,634,-1,
724,634,725,-1,
731,696,698,-1,
731,698,732,-1,
727,686,684,-1,
727,684,728,-1,
726,673,686,-1,
726,686,727,-1,
730,681,696,-1,
730,696,731,-1,
729,682,681,-1,
729,681,730,-1,
728,684,682,-1,
728,682,729,-1,
743,668,667,-1,
743,667,744,-1,
733,693,692,-1,
733,692,734,-1,
732,698,693,-1,
732,693,733,-1,
736,690,689,-1,
736,689,737,-1,
735,691,690,-1,
735,690,736,-1,
734,692,691,-1,
734,691,735,-1,
742,669,668,-1,
742,668,743,-1,
738,688,672,-1,
738,672,739,-1,
737,689,688,-1,
737,688,738,-1,
741,670,669,-1,
741,669,742,-1,
740,671,670,-1,
740,670,741,-1,
739,672,671,-1,
739,671,740,-1,
750,751,752,-1,
750,752,753,-1,
750,753,754,-1,
750,754,755,-1,
750,755,756,-1,
750,756,757,-1,
758,759,760,-1,
758,760,752,-1,
758,752,751,-1,
761,762,763,-1,
761,763,764,-1,
761,764,765,-1,
761,765,766,-1,
761,766,767,-1,
761,767,768,-1,
769,768,767,-1,
769,767,770,-1,
769,770,771,-1,
753,752,767,-1,
753,767,766,-1,
754,753,766,-1,
754,766,765,-1,
762,761,750,-1,
762,750,757,-1,
751,750,761,-1,
751,761,768,-1,
755,754,765,-1,
755,765,764,-1,
756,755,764,-1,
756,764,763,-1,
757,756,763,-1,
757,763,762,-1,
752,760,770,-1,
752,770,767,-1,
758,751,768,-1,
758,768,769,-1,
759,758,769,-1,
759,769,771,-1,
760,759,771,-1,
760,771,770,-1,
] } }
